<svg width="32" height="33" viewBox="0 0 32 33" fill="none" xmlns="http://www.w3.org/2000/svg">
<g clip-path="url(#clip0_1829_351458)">
<path d="M16 32.9062C24.8366 32.9062 32 25.7428 32 16.9062C32 8.06969 24.8366 0.90625 16 0.90625C7.16344 0.90625 0 8.06969 0 16.9062C0 25.7428 7.16344 32.9062 16 32.9062Z" fill="#F0F0F0"/>
<path d="M0 16.9063C0 8.06975 7.1635 0.90625 16 0.90625C24.8365 0.90625 32 8.06975 32 16.9063" fill="#D80027"/>
<path d="M9.73934 9.25231C9.73934 6.92119 11.3777 4.97381 13.5654 4.496C13.2292 4.42263 12.8803 4.38281 12.5219 4.38281C9.83247 4.38281 7.65234 6.56294 7.65234 9.25238C7.65234 11.9418 9.83247 14.1219 12.5219 14.1219C12.8802 14.1219 13.2291 14.0821 13.5654 14.0087C11.3777 13.5309 9.73934 11.5835 9.73934 9.25231Z" fill="#F0F0F0"/>
<path d="M16 4.73438L16.3454 5.79719H17.4629L16.5587 6.45413L16.9041 7.51694L16 6.86012L15.0959 7.51694L15.4412 6.45413L14.5371 5.79719H15.6546L16 4.73438Z" fill="#F0F0F0"/>
<path d="M13.2892 6.82031L13.6345 7.88319H14.752L13.8479 8.54006L14.1933 9.60287L13.2892 8.94606L12.3849 9.60287L12.7304 8.54006L11.8262 7.88319H12.9437L13.2892 6.82031Z" fill="#F0F0F0"/>
<path d="M18.7109 6.82031L19.0564 7.88319H20.1739L19.2697 8.54006L19.6151 9.60287L18.7109 8.94606L17.8068 9.60287L18.1522 8.54006L17.248 7.88319H18.3655L18.7109 6.82031Z" fill="#F0F0F0"/>
<path d="M17.668 9.94531L18.0133 11.0082H19.1308L18.2267 11.6651L18.5721 12.7279L17.668 12.0711L16.7638 12.7279L17.1092 11.6651L16.2051 11.0082H17.3225L17.668 9.94531Z" fill="#F0F0F0"/>
<path d="M14.3331 9.94531L14.6784 11.0082H15.796L14.8918 11.6651L15.2372 12.7279L14.3331 12.0711L13.4289 12.7279L13.7742 11.6651L12.8701 11.0082H13.9877L14.3331 9.94531Z" fill="#F0F0F0"/>
</g>
<defs>
<clipPath id="clip0_1829_351458">
<rect width="32" height="32" fill="white" transform="translate(0 0.90625)"/>
</clipPath>
</defs>
</svg>
