<svg width="32" height="33" viewBox="0 0 32 33" fill="none" xmlns="http://www.w3.org/2000/svg">
<g clip-path="url(#clip0_1829_351444)">
<path d="M16 32.9062C24.8366 32.9062 32 25.7428 32 16.9062C32 8.06969 24.8366 0.90625 16 0.90625C7.16344 0.90625 0 8.06969 0 16.9062C0 25.7428 7.16344 32.9062 16 32.9062Z" fill="#F0F0F0"/>
<path d="M15.3037 16.9083H31.9993C31.9993 15.4642 31.8068 14.0652 31.4481 12.7344H15.3037V16.9083Z" fill="#D80027"/>
<path d="M15.3037 8.55675H29.651C28.6715 6.9585 27.4192 5.54581 25.9591 4.38281H15.3037V8.55675Z" fill="#D80027"/>
<path d="M15.9998 32.9079C19.7654 32.9079 23.2264 31.6064 25.9595 29.4297H6.04004C8.77316 31.6064 12.2342 32.9079 15.9998 32.9079Z" fill="#D80027"/>
<path d="M2.34797 25.2521H29.6512C30.4375 23.969 31.0473 22.5665 31.4484 21.0781H0.550781C0.951844 22.5665 1.56166 23.969 2.34797 25.2521Z" fill="#D80027"/>
<path d="M7.4115 3.40488H8.86956L7.51331 4.39019L8.03137 5.9845L6.67519 4.99919L5.319 5.9845L5.7665 4.60719C4.57237 5.60187 3.52575 6.76725 2.66325 8.06575H3.13044L2.26712 8.69294C2.13262 8.91731 2.00362 9.14525 1.88 9.37656L2.29225 10.6454L1.52313 10.0866C1.33194 10.4916 1.15706 10.9058 0.999875 11.3286L1.45406 12.7266H3.13044L1.77419 13.7119L2.29225 15.3062L0.936063 14.3209L0.123687 14.9112C0.042375 15.5648 0 16.2306 0 16.9062H16C16 8.06975 16 7.028 16 0.90625C12.8393 0.90625 9.89281 1.82313 7.4115 3.40488ZM8.03137 15.3062L6.67519 14.3209L5.319 15.3062L5.83706 13.7119L4.48081 12.7266H6.15719L6.67519 11.1323L7.19319 12.7266H8.86956L7.51331 13.7119L8.03137 15.3062ZM7.51331 9.05106L8.03137 10.6454L6.67519 9.66006L5.319 10.6454L5.83706 9.05106L4.48081 8.06575H6.15719L6.67519 6.47144L7.19319 8.06575H8.86956L7.51331 9.05106ZM13.7705 15.3062L12.4143 14.3209L11.0581 15.3062L11.5762 13.7119L10.2199 12.7266H11.8963L12.4143 11.1323L12.9323 12.7266H14.6087L13.2524 13.7119L13.7705 15.3062ZM13.2524 9.05106L13.7705 10.6454L12.4143 9.66006L11.0581 10.6454L11.5762 9.05106L10.2199 8.06575H11.8963L12.4143 6.47144L12.9323 8.06575H14.6087L13.2524 9.05106ZM13.2524 4.39019L13.7705 5.9845L12.4143 4.99919L11.0581 5.9845L11.5762 4.39019L10.2199 3.40488H11.8963L12.4143 1.81056L12.9323 3.40488H14.6087L13.2524 4.39019Z" fill="#0052B4"/>
</g>
<defs>
<clipPath id="clip0_1829_351444">
<rect width="32" height="32" fill="white" transform="translate(0 0.90625)"/>
</clipPath>
</defs>
</svg>
