<svg width="32" height="33" viewBox="0 0 32 33" fill="none" xmlns="http://www.w3.org/2000/svg">
<g clip-path="url(#clip0_1829_352696)">
<path d="M16 32.9062C24.8366 32.9062 32 25.7428 32 16.9062C32 8.06969 24.8366 0.90625 16 0.90625C7.16344 0.90625 0 8.06969 0 16.9062C0 25.7428 7.16344 32.9062 16 32.9062Z" fill="#F0F0F0"/>
<path d="M0.550781 21.0781C1.47653 24.5131 3.51684 27.4902 6.26047 29.5983V21.0781H0.550781Z" fill="#D80027"/>
<path d="M14.6084 32.8433C15.067 32.8828 15.5308 32.9042 15.9997 32.9042C23.3921 32.9042 29.6125 27.8904 31.4485 21.0781H14.6084V32.8433Z" fill="#D80027"/>
<path d="M31.4485 12.7323C29.6125 5.92006 23.3921 0.90625 15.9997 0.90625C15.5308 0.90625 15.067 0.927625 14.6084 0.967125V12.7323H31.4485Z" fill="#D80027"/>
<path d="M6.26047 4.21094C3.51684 6.31906 1.47653 9.29612 0.550781 12.7311H6.26047V4.21094Z" fill="#D80027"/>
<path d="M31.8646 14.8218H12.5218H12.5218V1.28906C11.0431 1.61694 9.64131 2.14837 8.34781 2.85419V14.8217V14.8217H0.135438C0.046375 15.5049 0 16.2014 0 16.9087C0 17.6161 0.046375 18.3126 0.135438 18.9957H8.34775H8.34781V30.9633C9.64131 31.669 11.0431 32.2006 12.5218 32.5284V18.9959V18.9958H31.8646C31.9535 18.3126 32 17.6161 32 16.9087C32 16.2014 31.9535 15.5049 31.8646 14.8218Z" fill="#0052B4"/>
</g>
<defs>
<clipPath id="clip0_1829_352696">
<rect width="32" height="32" fill="white" transform="translate(0 0.90625)"/>
</clipPath>
</defs>
</svg>
