<svg width="32" height="33" viewBox="0 0 32 33" fill="none" xmlns="http://www.w3.org/2000/svg">
<g clip-path="url(#clip0_1829_352650)">
<path d="M16 32.9062C24.8366 32.9062 32 25.7428 32 16.9062C32 8.06969 24.8366 0.90625 16 0.90625C7.16344 0.90625 0 8.06969 0 16.9062C0 25.7428 7.16344 32.9062 16 32.9062Z" fill="#F0F0F0"/>
<path d="M32.0002 16.9032C32.0002 10.0238 27.6582 4.15913 21.5654 1.89844V31.9081C27.6582 29.6474 32.0002 23.7827 32.0002 16.9032Z" fill="#D80027"/>
<path d="M0 16.9032C0 23.7827 4.34206 29.6474 10.4348 31.9081V1.89844C4.34206 4.15913 0 10.0238 0 16.9032Z" fill="#0052B4"/>
</g>
<defs>
<clipPath id="clip0_1829_352650">
<rect width="32" height="32" fill="white" transform="translate(0 0.90625)"/>
</clipPath>
</defs>
</svg>
