<svg width="32" height="33" viewBox="0 0 32 33" fill="none" xmlns="http://www.w3.org/2000/svg">
<g clip-path="url(#clip0_1829_351453)">
<path d="M16 32.9062C24.8366 32.9062 32 25.7428 32 16.9062C32 8.06969 24.8366 0.90625 16 0.90625C7.16344 0.90625 0 8.06969 0 16.9062C0 25.7428 7.16344 32.9062 16 32.9062Z" fill="#F0F0F0"/>
<path d="M9.04395 22.4688L10.4353 31.9085C12.1685 32.5517 14.0433 32.9036 16.0004 32.9036C22.8798 32.9036 28.7446 28.5616 31.0052 22.4688H9.04395Z" fill="black"/>
<path d="M9.04395 11.3411L10.4353 1.90131C12.1685 1.25812 14.0433 0.90625 16.0004 0.90625C22.8798 0.90625 28.7446 5.24825 31.0052 11.3411H9.04395Z" fill="#6DA544"/>
<path d="M0 16.9032C0 23.7827 4.34206 29.6474 10.4348 31.9081V1.89844C4.34206 4.15913 0 10.0238 0 16.9032Z" fill="#A2001D"/>
</g>
<defs>
<clipPath id="clip0_1829_351453">
<rect width="32" height="32" fill="white" transform="translate(0 0.90625)"/>
</clipPath>
</defs>
</svg>
