<svg width="32" height="32" viewBox="0 0 32 32" fill="none" xmlns="http://www.w3.org/2000/svg">
<g clip-path="url(#clip0_2147_383715)">
<path d="M15.9589 31.9783C10.7776 31.9783 5.59246 31.9744 0.41121 31.9861C0.0744095 31.9861 0 31.9039 0 31.5752C0.00783258 21.1897 0.00783258 10.8081 0 0.4226C0 0.0899819 0.0822421 0.0117188 0.41121 0.0117188C10.7894 0.0234582 21.1675 0.0234582 31.5496 0.0117188C31.9138 0.0117188 32 0.101721 32 0.461732C31.9883 10.8199 31.9883 21.178 32 31.5322C32 31.8961 31.9099 31.9822 31.5496 31.9822C26.3527 31.9744 21.1558 31.9783 15.9589 31.9783ZM15.3479 6.69148C15.3244 6.82452 15.3127 6.85974 15.3127 6.89887C15.3127 11.4225 15.3166 15.9461 15.3049 20.4697C15.3049 20.8101 15.4615 20.818 15.7161 20.818C20.1258 20.8141 24.5316 20.8101 28.9414 20.8219C29.2899 20.8219 29.3526 20.7084 29.3526 20.3914C29.3448 15.9461 29.3448 11.5047 29.3448 7.05931C29.3448 6.96148 29.3878 6.85192 29.2703 6.73452C28.7377 7.22758 28.2051 7.72064 27.6764 8.21369C25.9924 9.78287 24.3045 11.3481 22.6283 12.9251C22.3855 13.1521 22.2524 13.1286 22.0213 12.9134C20.3765 11.3599 18.7159 9.822 17.0633 8.28022C16.5072 7.76368 15.951 7.25106 15.3479 6.69148ZM2.71399 11.8568C2.71399 14.7174 2.71791 17.5818 2.71007 20.4423C2.71007 20.728 2.7649 20.8414 3.0782 20.8297C3.72831 20.8023 4.38233 20.8062 5.03635 20.8297C5.34965 20.8414 5.43973 20.7514 5.43581 20.4345C5.42014 18.3996 5.43973 16.3609 5.42014 14.326C5.41623 13.9582 5.47889 13.8173 5.88618 13.8369C6.63028 13.8682 7.37829 13.8604 8.12239 13.8252C9.80247 13.7391 11.228 13.1247 12.2384 11.7238C13.5464 9.90809 13.7383 7.95151 12.7984 5.95189C11.882 4.00705 10.2372 3.07572 8.1028 2.97398C6.45013 2.89571 4.80137 2.95833 3.1487 2.92311C2.80406 2.91528 2.70224 2.99354 2.70224 3.35355C2.72182 6.18277 2.71399 9.0198 2.71399 11.8568ZM29.2312 2.95833H15.4223C15.4537 3.09529 15.5359 3.13833 15.6025 3.20094C17.7251 5.17708 19.8556 7.14932 21.9665 9.1372C22.2445 9.39938 22.3973 9.4346 22.6949 9.15676C24.794 7.17671 26.9127 5.2123 29.0236 3.24007C29.1019 3.16572 29.2234 3.10703 29.2312 2.95833ZM16.2095 27.6973C16.1782 27.6973 16.1429 27.6934 16.1116 27.6934C15.7748 26.6877 15.4067 25.6899 15.113 24.6685C14.9837 24.2146 14.7644 24.0894 14.3297 24.1363C14.1143 24.1598 14.0282 24.1989 14.0321 24.4337C14.0438 25.6977 14.036 26.9616 14.036 28.2256C14.036 28.3938 14.0242 28.5347 14.271 28.5386C14.5373 28.5465 14.5373 28.4017 14.5334 28.2099C14.5294 27.1573 14.5294 26.1086 14.5334 25.0559C14.5334 24.9503 14.4981 24.829 14.6117 24.6842C14.6665 24.8329 14.7057 24.9385 14.7448 25.0442C15.0855 26.0381 15.4263 27.0321 15.7709 28.0221C15.8336 28.206 15.861 28.386 16.1547 28.3821C16.4288 28.3782 16.4837 28.2373 16.5502 28.0377C16.8988 27.0164 17.2473 25.999 17.5998 24.9816C17.6311 24.8916 17.6233 24.7663 17.7917 24.7233V25.3651C17.7917 26.3238 17.7917 27.2825 17.7878 28.2412C17.7878 28.4251 17.8113 28.5347 18.0423 28.5347C18.2812 28.5347 18.293 28.4134 18.2891 28.2334C18.2852 26.9695 18.2891 25.7055 18.2852 24.4416C18.2852 24.3437 18.3322 24.2263 18.2107 24.1559C17.9327 23.9955 17.3805 24.1989 17.2787 24.5002C16.9223 25.5646 16.5659 26.629 16.2095 27.6973ZM6.30523 26.3551C6.30914 26.3551 6.30914 26.3551 6.30523 26.3551C6.30523 26.9812 6.30914 27.6034 6.30523 28.2295C6.30523 28.3938 6.28173 28.5386 6.53629 28.5386C6.76735 28.5347 6.79476 28.433 6.79085 28.2451C6.78301 27.7677 6.79868 27.2864 6.78301 26.809C6.77518 26.5938 6.84959 26.5351 7.05715 26.539C7.61718 26.5507 8.17721 26.5586 8.73333 26.5351C9.00355 26.5234 9.03488 26.6368 9.03096 26.8638C9.0153 27.3295 9.03096 27.7951 9.02705 28.2608C9.02705 28.4212 9.03096 28.5386 9.25419 28.5386C9.47742 28.5386 9.51267 28.4486 9.51267 28.253C9.50484 26.9773 9.50484 25.7016 9.51267 24.4259C9.51267 24.2263 9.46567 24.1402 9.25028 24.1402C9.02705 24.1402 9.02705 24.2615 9.02705 24.4181C9.03096 24.8837 9.01922 25.3494 9.03488 25.8151C9.04271 26.0459 8.96439 26.1125 8.73724 26.1086C8.17721 26.0968 7.6211 26.0968 7.06107 26.1086C6.85351 26.1125 6.78301 26.042 6.78693 25.8346C6.79868 25.369 6.78693 24.9033 6.79476 24.4376C6.79868 24.2537 6.77518 24.1442 6.5402 24.1402C6.28956 24.1363 6.30523 24.2772 6.30523 24.4455C6.30914 25.0794 6.30523 25.7172 6.30523 26.3551ZM10.4447 26.3042C10.4447 26.9695 10.4487 27.6308 10.4408 28.296C10.4408 28.4604 10.4878 28.5386 10.668 28.5347C10.8403 28.5308 10.946 28.5034 10.9343 28.296C10.9225 28.0456 10.9539 27.7873 10.9264 27.5408C10.8834 27.1573 10.9891 26.9577 11.416 27.036C11.557 27.0634 11.7058 27.0399 11.8546 27.0399C13.0569 27.036 13.5504 26.492 13.4329 25.3024C13.3624 24.5863 12.9708 24.1911 12.2502 24.1559C11.745 24.1324 11.2398 24.1559 10.7346 24.1363C10.5035 24.1285 10.4369 24.2107 10.4447 24.4298C10.4526 25.0559 10.4447 25.682 10.4447 26.3042ZM2.71399 26.3355C2.71399 26.9851 2.71791 27.6386 2.71007 28.2882C2.70616 28.4838 2.7884 28.5386 2.96855 28.5347C3.14086 28.5347 3.21527 28.4799 3.19961 28.3038C3.19178 28.2099 3.19961 28.1199 3.19961 28.026C3.19961 27.0438 3.19961 27.0438 4.18651 27.0399C5.29091 27.036 5.72953 26.5821 5.70212 25.4746C5.67862 24.5863 5.26349 24.1676 4.36666 24.1481C3.93979 24.1363 3.51683 24.1637 3.08995 24.1363C2.80406 24.1207 2.69441 24.1911 2.70616 24.5002C2.73357 25.1146 2.71399 25.7251 2.71399 26.3355ZM21.3634 26.9538H21.3594C21.3594 26.6994 21.3673 26.449 21.3594 26.1986C21.3359 25.6546 21.0736 25.369 20.537 25.3024C20.1493 25.2555 19.7694 25.3298 19.3856 25.3846C19.2525 25.4042 19.0802 25.4042 19.1154 25.6351C19.1507 25.862 19.3073 25.7642 19.4209 25.7603C19.7538 25.7525 20.0866 25.7212 20.4156 25.729C20.7994 25.7368 20.8777 26.0107 20.8934 26.3355C20.913 26.6994 20.6428 26.6016 20.4548 26.629C20.1924 26.6681 19.9222 26.6721 19.6637 26.7229C19.2094 26.809 18.9783 27.0673 18.9392 27.4977C18.8687 28.2608 19.2642 28.6521 20.0318 28.5778C20.5135 28.5308 20.9913 28.2608 21.4808 28.5621C21.5474 28.6012 21.6767 28.6247 21.7158 28.4995C21.7472 28.3899 21.7785 28.2491 21.6218 28.1943C21.3555 28.1043 21.3594 27.893 21.3634 27.6738C21.3673 27.4312 21.3634 27.1925 21.3634 26.9538ZM26.0747 27.1338H26.435C27.1908 27.1338 27.23 27.0868 27.1046 26.3277C26.995 25.6703 26.6229 25.3377 25.9376 25.2907C25.2953 25.2477 24.8097 25.5646 24.6413 26.1751C24.4886 26.7229 24.5042 27.2825 24.657 27.8303C24.7744 28.253 25.0564 28.5034 25.5068 28.5621C25.9493 28.6208 26.384 28.5465 26.8188 28.5191C26.9558 28.5112 27.0381 28.4525 27.0302 28.2921C27.0185 28.1043 26.8892 28.1356 26.7718 28.1356C26.4545 28.1395 26.1334 28.163 25.8162 28.1551C25.3423 28.1434 25.1073 27.9204 25.0447 27.4664C25.0133 27.2434 25.0486 27.1103 25.3227 27.1338C25.5655 27.1534 25.8201 27.1338 26.0747 27.1338ZM23.4194 26.2142V28.2491C23.4194 28.4017 23.3998 28.5308 23.6348 28.5347C23.862 28.5347 23.8972 28.4369 23.8972 28.2451C23.8933 26.9147 23.8894 25.5842 23.8972 24.2537C23.8972 24.0541 23.8502 23.9759 23.6309 23.972C23.3959 23.972 23.4194 24.1089 23.4194 24.2576C23.4155 24.9111 23.4155 25.5646 23.4194 26.2142ZM29.3173 25.3064C29.0001 25.3572 28.7181 25.4825 28.4401 25.639C28.303 25.7172 28.1855 25.7525 28.1895 25.5216C28.1934 25.2985 28.0289 25.3651 27.9075 25.3533C27.7234 25.3338 27.7273 25.459 27.7273 25.5842C27.7273 26.4881 27.7312 27.3921 27.7273 28.296C27.7273 28.4525 27.7508 28.5425 27.9427 28.5386C28.1229 28.5347 28.209 28.4917 28.2051 28.2921C28.1934 27.8421 28.2051 27.3882 28.2012 26.9381C28.2012 26.1086 28.1934 26.089 29.0158 25.8659C29.3565 25.772 29.4074 25.6116 29.3173 25.3064ZM22.6244 26.9655C22.6244 26.5155 22.6205 26.0655 22.6283 25.6155C22.6322 25.4433 22.597 25.3455 22.3933 25.3455C22.1975 25.3455 22.1466 25.4159 22.1505 25.5998C22.1584 26.4881 22.1584 27.3725 22.1505 28.2608C22.1505 28.4291 22.1662 28.5347 22.3816 28.5347C22.5774 28.5347 22.6322 28.4604 22.6283 28.2764C22.6166 27.8421 22.6205 27.4038 22.6244 26.9655ZM22.6205 24.3789C22.6479 24.1872 22.6009 24.0815 22.3698 24.0815C22.1466 24.0815 22.1427 24.1989 22.1427 24.3594C22.1466 24.5081 22.1114 24.6529 22.3503 24.649C22.5539 24.645 22.6597 24.5942 22.6205 24.3789Z" fill="#343333"/>
<path d="M15.3478 6.69141C15.951 7.25099 16.5071 7.7597 17.0593 8.27623C18.7159 9.81802 20.3724 11.3559 22.0173 12.9094C22.2483 13.1285 22.3854 13.1481 22.6243 12.9212C24.3005 11.3402 25.9884 9.77497 27.6724 8.20971C28.2011 7.71665 28.7337 7.22751 29.2663 6.73054C29.3838 6.84793 29.3407 6.9575 29.3407 7.05533C29.3447 11.5007 29.3408 15.9421 29.3486 20.3875C29.3486 20.7044 29.2859 20.8179 28.9374 20.8179C24.5276 20.8062 20.1218 20.8101 15.7121 20.814C15.4536 20.814 15.2969 20.8062 15.3009 20.4657C15.3126 15.9421 15.3087 11.4185 15.3087 6.89489C15.3126 6.85967 15.3244 6.82445 15.3478 6.69141Z" fill="#F8CC6E"/>
<path d="M2.71399 11.8562C2.71399 9.01912 2.72182 6.18599 2.70616 3.34895C2.70224 2.98503 2.80798 2.91068 3.15262 2.91851C4.80529 2.95373 6.45405 2.8872 8.10672 2.96938C10.2411 3.07112 11.8859 4.00245 12.8024 5.94729C13.7423 7.943 13.5504 9.90349 12.2423 11.7192C11.2319 13.124 9.80639 13.7345 8.1263 13.8206C7.38221 13.8597 6.6342 13.8675 5.8901 13.8323C5.48281 13.8127 5.42015 13.9536 5.42406 14.3214C5.44365 16.3563 5.42406 18.395 5.43973 20.4299C5.44365 20.7468 5.35357 20.8369 5.04027 20.8251C4.39016 20.8016 3.73614 20.8016 3.08212 20.8251C2.7649 20.8369 2.71399 20.7234 2.71399 20.4377C2.71791 17.5772 2.71399 14.7167 2.71399 11.8562ZM5.42798 8.38127C5.42798 9.24608 5.43581 10.1109 5.42406 10.9757C5.42015 11.2261 5.49847 11.2966 5.74128 11.2848C6.15249 11.2653 6.56762 11.277 6.97883 11.2809C7.55061 11.2887 8.1263 11.2809 8.68242 11.1244C10.1471 10.7096 10.9656 9.03086 10.5231 7.37168C10.245 6.33861 9.26986 5.59511 8.03623 5.52467C7.28039 5.48162 6.51671 5.51293 5.76086 5.48945C5.49847 5.48162 5.41623 5.55989 5.42406 5.82207C5.43581 6.67905 5.42798 7.52821 5.42798 8.38127Z" fill="#FEFEFE"/>
<path d="M29.2307 2.95703C29.2229 3.10573 29.1015 3.16443 29.0192 3.23878C26.9123 5.21101 24.7936 7.17541 22.6944 9.15547C22.6944 9.15547 22.2441 9.39809 21.966 9.1359C19.8551 7.14802 17.7286 5.17579 15.602 3.19965C15.5354 3.13704 15.4532 3.09399 15.4219 2.95703H29.2307Z" fill="#F8CC6E"/>
<path d="M16.2093 27.698C16.5657 26.6336 16.926 25.5653 17.2824 24.5009C17.3842 24.2035 17.9364 23.9961 18.2144 24.1566C18.3358 24.227 18.2888 24.3444 18.2888 24.4422C18.2928 25.7062 18.2888 26.9701 18.2928 28.2341C18.2928 28.4141 18.281 28.5354 18.046 28.5354C17.8111 28.5354 17.7876 28.4258 17.7915 28.2419C17.7954 27.2832 17.7954 26.3245 17.7954 25.3657V24.724C17.6231 24.7631 17.6348 24.8883 17.6035 24.9823C17.251 25.9997 16.8986 27.0171 16.5539 28.0384C16.4873 28.2341 16.4325 28.3789 16.1584 28.3828C15.8647 28.3867 15.8372 28.2106 15.7746 28.0228C15.4339 27.0288 15.0892 26.0349 14.7485 25.0449C14.7133 24.9392 14.6702 24.8296 14.6154 24.6849C14.5018 24.8296 14.537 24.9509 14.537 25.0566C14.5331 26.1092 14.5331 27.158 14.537 28.2106C14.537 28.3984 14.537 28.5432 14.2746 28.5393C14.0279 28.5354 14.0397 28.3906 14.0397 28.2263C14.0397 26.9623 14.0436 25.6984 14.0357 24.4344C14.0357 24.2035 14.118 24.1605 14.3334 24.137C14.7681 24.0901 14.9874 24.2153 15.1166 24.6692C15.4104 25.6866 15.7785 26.6845 16.1153 27.6941C16.1427 27.6941 16.174 27.6941 16.2093 27.698ZM6.305 26.3558V24.4422C6.305 24.274 6.28933 24.1331 6.53997 24.137C6.77495 24.1409 6.79453 24.2505 6.79453 24.4344C6.7867 24.9001 6.80236 25.3657 6.7867 25.8314C6.78278 26.0388 6.85328 26.1092 7.06084 26.1053C7.62087 26.0936 8.17698 26.0936 8.73701 26.1053C8.96024 26.1092 9.04248 26.0427 9.03465 25.8118C9.01898 25.3462 9.03073 24.8805 9.02682 24.4148C9.02682 24.2583 9.0229 24.1331 9.25005 24.137C9.46936 24.137 9.51635 24.2231 9.51244 24.4227C9.5046 25.6984 9.5046 26.974 9.51244 28.2497C9.51244 28.4454 9.47719 28.5393 9.25396 28.5354C9.03073 28.5354 9.02682 28.418 9.02682 28.2576C9.03073 27.7919 9.01898 27.3262 9.03073 26.8606C9.03857 26.6375 9.00332 26.524 8.73309 26.5319C8.17698 26.5553 7.61695 26.5475 7.05692 26.5358C6.85328 26.5319 6.77887 26.5906 6.78278 26.8058C6.79845 27.2832 6.78278 27.7645 6.79061 28.2419C6.79453 28.4297 6.7632 28.5354 6.53606 28.5354C6.2815 28.5393 6.305 28.3945 6.305 28.2263C6.30891 27.6041 6.30891 26.9819 6.305 26.3558C6.30891 26.3558 6.30891 26.3558 6.305 26.3558ZM10.4445 26.3049C10.4445 25.6827 10.4523 25.0566 10.4406 24.4344C10.4367 24.2114 10.5033 24.1331 10.7304 24.1409C11.2356 24.1605 11.7408 24.1331 12.246 24.1605C12.9666 24.1957 13.3582 24.5909 13.4287 25.307C13.5462 26.4966 13.0528 27.0406 11.8505 27.0445C11.7056 27.0445 11.5528 27.068 11.4118 27.0406C10.985 26.9623 10.8792 27.158 10.9223 27.5454C10.9497 27.7958 10.9184 28.0502 10.9301 28.3006C10.9419 28.508 10.8361 28.5354 10.6638 28.5393C10.4837 28.5432 10.4367 28.465 10.4367 28.3006C10.4484 27.6354 10.4445 26.9701 10.4445 26.3049ZM10.9301 25.6044C10.9301 26.6453 10.9301 26.6453 11.9758 26.618C12.6376 26.6023 12.9431 26.2736 12.947 25.5731C12.9509 24.8844 12.6729 24.5909 11.9993 24.5675C10.934 24.5322 10.9341 24.5322 10.9301 25.6044ZM2.71376 26.3362C2.71376 25.7258 2.73334 25.1153 2.70592 24.5048C2.69418 24.1918 2.80383 24.1214 3.08972 24.1409C3.51268 24.1644 3.93956 24.1409 4.36643 24.1527C5.26326 24.1761 5.67839 24.5909 5.70189 25.4792C5.73322 26.5827 5.29068 27.0406 4.18628 27.0445C3.19938 27.0484 3.19938 27.0484 3.19938 28.0306C3.19938 28.1245 3.19154 28.2184 3.19938 28.3084C3.21504 28.4845 3.14063 28.5393 2.96832 28.5393C2.78425 28.5432 2.70592 28.4884 2.70984 28.2928C2.71767 27.6393 2.71376 26.9858 2.71376 26.3362ZM3.19938 25.581V25.6201C3.19938 26.6336 3.19938 26.6336 4.20978 26.618C4.90296 26.6062 5.20452 26.2932 5.20843 25.5731C5.21235 24.857 4.94604 24.5831 4.23328 24.5675C3.19938 24.544 3.19938 24.544 3.19938 25.581ZM21.3631 26.9545C21.3631 27.1932 21.367 27.4319 21.3631 27.6706C21.3592 27.8897 21.3553 28.101 21.6216 28.191C21.7783 28.2419 21.7469 28.3828 21.7156 28.4963C21.6803 28.6215 21.5472 28.598 21.4806 28.5589C20.9911 28.2576 20.5133 28.5276 20.0316 28.5745C19.264 28.6489 18.8685 28.2576 18.9389 27.4945C18.9781 27.064 19.2092 26.8058 19.6635 26.7197C19.9258 26.6688 20.1922 26.6649 20.4545 26.6258C20.6425 26.5984 20.9128 26.6962 20.8932 26.3323C20.8775 26.0075 20.7992 25.7375 20.4154 25.7258C20.0825 25.7179 19.7496 25.7492 19.4206 25.7571C19.3071 25.761 19.1504 25.8588 19.1152 25.6318C19.0799 25.401 19.2522 25.4049 19.3854 25.3814C19.7653 25.3266 20.1491 25.2523 20.5368 25.2992C21.0772 25.3657 21.3357 25.6475 21.3592 26.1953C21.371 26.4458 21.3592 26.7001 21.3592 26.9506L21.3631 26.9545ZM20.8932 27.5023C20.8932 26.9388 20.8932 26.9388 20.3606 27.0014C20.1765 27.021 19.9885 27.0249 19.8084 27.064C19.5773 27.1149 19.4441 27.2754 19.4285 27.5102C19.4128 27.7371 19.405 28.0032 19.636 28.1089C20.0081 28.2771 20.3958 28.1676 20.7561 28.0345C21.0263 27.9289 20.8305 27.6549 20.8932 27.5023ZM26.0744 27.1345C25.8199 27.1345 25.5692 27.1501 25.3186 27.1306C25.0444 27.1071 25.0092 27.2401 25.0405 27.4632C25.1032 27.9171 25.3382 28.1402 25.812 28.1519C26.1293 28.1597 26.4504 28.1402 26.7676 28.1323C26.8851 28.1284 27.0143 28.101 27.0261 28.2889C27.0339 28.4493 26.9517 28.5041 26.8146 28.5158C26.376 28.5432 25.9452 28.6176 25.5026 28.5589C25.0523 28.5002 24.7703 28.2497 24.6528 27.8271C24.5001 27.2793 24.4844 26.7236 24.6371 26.1719C24.8055 25.5614 25.2912 25.2444 25.9334 25.2875C26.6188 25.3344 26.9908 25.6671 27.1005 26.3245C27.2258 27.0836 27.1867 27.1306 26.4308 27.1306C26.3133 27.1345 26.1919 27.1345 26.0744 27.1345ZM25.859 25.6944C25.3695 25.6984 25.0484 26.0192 25.0249 26.5162C25.017 26.6766 25.0444 26.7667 25.2285 26.7627C25.6397 26.7549 26.047 26.7588 26.4582 26.7627C26.5875 26.7627 26.6384 26.7119 26.6501 26.5749C26.6893 26.0584 26.3642 25.6905 25.859 25.6944ZM23.4153 26.2149V24.2583C23.4153 24.1096 23.3918 23.9727 23.6267 23.9727C23.8421 23.9727 23.8931 24.0509 23.8931 24.2544C23.8852 25.5849 23.8852 26.9154 23.8931 28.2458C23.8931 28.4376 23.8578 28.5354 23.6307 28.5354C23.3996 28.5354 23.4153 28.4024 23.4153 28.2497C23.4192 27.5728 23.4192 26.8958 23.4153 26.2149ZM29.3171 25.307C29.4072 25.6123 29.3563 25.7688 29.0195 25.8627C28.1971 26.0818 28.2049 26.1053 28.2049 26.9349C28.2049 27.3849 28.1971 27.8389 28.2088 28.2889C28.2127 28.4884 28.1226 28.5315 27.9464 28.5354C27.7584 28.5393 27.731 28.4493 27.731 28.2928C27.7349 27.3888 27.7349 26.4849 27.731 25.581C27.731 25.4557 27.7232 25.3305 27.9112 25.3501C28.0326 25.3618 28.201 25.2992 28.1931 25.5184C28.1853 25.7492 28.3067 25.714 28.4438 25.6357C28.714 25.4831 28.9999 25.3579 29.3171 25.307ZM22.6203 26.9662C22.6203 27.4045 22.6124 27.8389 22.6242 28.2771C22.6281 28.461 22.5733 28.5354 22.3774 28.5354C22.1621 28.5393 22.1464 28.4297 22.1464 28.2615C22.1503 27.3732 22.1503 26.4888 22.1464 25.6005C22.1464 25.4166 22.1934 25.3462 22.3892 25.3462C22.5968 25.3462 22.6281 25.444 22.6242 25.6162C22.6163 26.0662 22.6242 26.5162 22.6203 26.9662ZM22.6203 24.3796C22.6633 24.5988 22.5537 24.6457 22.354 24.6496C22.1151 24.6535 22.1503 24.5088 22.1464 24.3601C22.1425 24.1996 22.1503 24.0822 22.3735 24.0822C22.6007 24.0783 22.6477 24.184 22.6203 24.3796Z" fill="#FEFEFE"/>
<path d="M5.42759 8.38118C5.42759 7.52811 5.43542 6.67895 5.42367 5.82589C5.41975 5.5637 5.49808 5.48153 5.76047 5.49327C6.52023 5.51675 7.27999 5.48936 8.03584 5.52849C9.26947 5.59501 10.2485 6.34242 10.5227 7.3755C10.9652 9.03467 10.1467 10.7134 8.68202 11.1282C8.12591 11.2847 7.55413 11.2926 6.97844 11.2847C6.56723 11.2808 6.1521 11.2691 5.74089 11.2887C5.49808 11.3004 5.41975 11.226 5.42367 10.9795C5.43542 10.1108 5.42759 9.24599 5.42759 8.38118ZM10.93 25.603C10.93 24.5308 10.93 24.5308 11.9952 24.566C12.6727 24.5895 12.9469 24.883 12.9429 25.5717C12.939 26.2721 12.6336 26.6008 11.9717 26.6165C10.93 26.6439 10.93 26.6439 10.93 25.603ZM3.19922 25.5795C3.19922 24.5425 3.19922 24.5425 4.23312 24.566C4.94197 24.5816 5.21219 24.8595 5.20827 25.5717C5.20436 26.2917 4.9028 26.6047 4.20962 26.6165C3.19922 26.6321 3.19922 26.6321 3.19922 25.6186V25.5795ZM20.893 27.5009C20.893 27.6652 20.9165 27.9783 20.752 28.0331C20.3878 28.1544 20.004 28.2796 19.632 28.1074C19.4009 28.0017 19.4087 27.7356 19.4244 27.5087C19.4401 27.27 19.5732 27.1095 19.8043 27.0626C19.9844 27.0235 20.1724 27.0195 20.3565 27C20.893 26.9374 20.893 26.9374 20.893 27.5009ZM25.8589 25.693C26.3641 25.6891 26.6891 26.0569 26.6539 26.5734C26.6421 26.7104 26.5912 26.7613 26.462 26.7613C26.0508 26.7613 25.6435 26.7574 25.2323 26.7613C25.0443 26.7652 25.0208 26.6713 25.0286 26.5147C25.0482 26.0178 25.3654 25.6969 25.8589 25.693Z" fill="#343333"/>
</g>
<defs>
<clipPath id="clip0_2147_383715">
<rect width="32" height="32" fill="white"/>
</clipPath>
</defs>
</svg>
