<svg width="1920" height="1080" viewBox="0 0 1920 1080" xmlns="http://www.w3.org/2000/svg"><rect width="1920" height="1080" fill="#546dfe"/><path d="M 0,1080 C 0,1080 0,154 0,154 C 62.96591952913289,135.27721212580383 125.93183905826578,116.55442425160768 171,123 C 216.06816094173422,129.44557574839232 243.23856329606974,161.0595151193731 280,167 C 316.76143670393026,172.9404848806269 363.113907757455,153.20751527089996 425,143 C 486.886092242545,132.79248472910004 564.3058056741102,132.110423797027 612,132 C 659.6941943258898,131.889576202973 677.6628695461047,132.35078954099205 724,122 C 770.3371304538953,111.64921045900795 845.0427161414711,90.48641803900482 901,109 C 956.9572838585289,127.51358196099518 994.1662658880109,185.70353830298865 1033,196 C 1071.833734111989,206.29646169701135 1112.2922203064852,168.69942874904052 1170,168 C 1227.7077796935148,167.30057125095948 1302.664852886049,203.49874670084924 1356,198 C 1409.335147113951,192.50125329915076 1441.0483681493185,145.3055844475625 1482,127 C 1522.9516318506815,108.6944155524375 1573.1416745166775,119.27891550890078 1625,126 C 1676.8583254833225,132.72108449109922 1730.3849337839715,135.5787535168344 1783,128 C 1835.6150662160285,120.4212464831656 1887.3185903474368,102.40607042376159 1910,105 C 1932.6814096525632,107.59392957623841 1926.3407048262816,130.7969647881192 1920,154 C 1920,154 1920,1080 1920,1080 Z" fill="#ffffff" opacity="0.08571428571428572"/><path d="M 0,1080 C 0,1080 0,308 0,308 C 34.88968664591529,334.3323272419611 69.77937329183058,360.66465448392216 125,345 C 180.22062670816942,329.33534551607784 255.77219347859295,271.6737093062725 310,267 C 364.22780652140705,262.3262906937275 397.1318527937977,310.6405082909878 434,324 C 470.8681472062023,337.3594917090122 511.7003953462164,315.7642575297763 571,315 C 630.2996046537836,314.2357424702237 708.0665658213364,334.30246158990695 762,319 C 815.9334341786636,303.69753841009305 846.0333413684378,253.02589611059614 887,263 C 927.9666586315622,272.97410388940386 979.8000687049125,343.59395396770867 1025,344 C 1070.1999312950875,344.40604603229133 1108.7663838119124,274.5982880185692 1154,270 C 1199.2336161880876,265.4017119814308 1251.1343960474373,326.0128939580148 1304,346 C 1356.8656039525627,365.9871060419852 1410.6960319983384,345.35013614937174 1459,330 C 1507.3039680016616,314.64986385062826 1550.0814759592083,304.5865614444983 1600,309 C 1649.9185240407917,313.4134385555017 1706.9780641648285,332.30361807263506 1768,345 C 1829.0219358351715,357.69638192736494 1894.0062673814775,364.1989662649614 1920,357 C 1945.9937326185225,349.8010337350386 1932.9968663092613,328.9005168675193 1920,308 C 1920,308 1920,1080 1920,1080 Z" fill="#ffffff" opacity="0.17142857142857143"/><path d="M 0,1080 C 0,1080 0,462 0,462 C 32.08442589632861,440.5968066114783 64.16885179265722,419.1936132229567 120,425 C 175.83114820734278,430.8063867770433 255.4090187256997,463.8223537196516 315,489 C 374.5909812743003,514.1776462803484 414.19507330454417,531.5169718984371 461,510 C 507.80492669545583,488.48302810156287 561.8106880561238,428.1097586865998 617,405 C 672.1893119438762,381.8902413134002 728.5621744709606,396.04399335516393 766,425 C 803.4378255290394,453.95600664483607 821.9406140600339,497.7142678927445 861,495 C 900.0593859399661,492.2857321072555 959.675369288904,443.0989350738579 1018,447 C 1076.324630711096,450.9010649261421 1133.3579087843498,507.88999181182425 1180,502 C 1226.6420912156502,496.11000818817575 1262.8929955736976,427.3410976788451 1317,413 C 1371.1070044263024,398.6589023211549 1443.07010892086,438.7456174727957 1493,446 C 1542.92989107914,453.2543825272043 1570.8265687428623,427.67643242997235 1614,440 C 1657.1734312571377,452.32356757002765 1715.623616107691,502.5486528073152 1781,519 C 1846.376383892309,535.4513471926848 1918.678966826374,518.1289563407671 1943,503 C 1967.321033173626,487.8710436592329 1943.660516586813,474.93552182961645 1920,462 C 1920,462 1920,1080 1920,1080 Z" fill="#ffffff" opacity="0.2571428571428571"/><path d="M 0,1080 C 0,1080 0,617 0,617 C 52.97306657059062,612.1983082403244 105.94613314118124,607.3966164806487 148,617 C 190.05386685881876,626.6033835193513 221.18853400586568,650.6118423177293 275,636 C 328.8114659941343,621.3881576822707 405.2997308353561,568.156014248434 457,570 C 508.7002691646439,571.843985751566 535.6125426527101,628.7641006885344 576,649 C 616.3874573472899,669.2358993114656 670.2500985538038,652.7875829974283 728,653 C 785.7499014461962,653.2124170025717 847.3870631320746,670.0855673217525 893,661 C 938.6129368679254,651.9144326782475 968.2016489178977,616.8701477155618 1020,611 C 1071.7983510821023,605.1298522844382 1145.8063411963349,628.4338418160008 1191,628 C 1236.1936588036651,627.5661581839992 1252.572986296763,603.394485020435 1306,586 C 1359.427013703237,568.605514979565 1449.9017136166133,557.988218102259 1503,567 C 1556.0982863833867,576.011781897741 1571.820159236784,604.6526425705285 1606,617 C 1640.179840763216,629.3473574294715 1692.8176494362503,625.4012116156268 1753,624 C 1813.1823505637497,622.5987883843732 1880.9092430182143,623.7425109669638 1910,623 C 1939.0907569817857,622.2574890330362 1929.5453784908927,619.628744516518 1920,617 C 1920,617 1920,1080 1920,1080 Z" fill="#ffffff" opacity="0.34285714285714286"/><path d="M 0,1080 C 0,1080 0,771 0,771 C 47.14241661694122,739.1973201132473 94.28483323388244,707.3946402264945 149,720 C 203.71516676611756,732.6053597735055 266.0030836814114,789.618759207269 322,799 C 377.9969163185886,808.381240792731 427.7028320404719,770.1303229444292 462,767 C 496.2971679595281,763.8696770555708 515.1855881567011,795.8599490150139 565,788 C 614.8144118432989,780.1400509849861 695.5548153327235,732.4298809955154 745,719 C 794.4451846672765,705.5701190044846 812.5951505124048,726.4205270029246 860,747 C 907.4048494875952,767.5794729970754 984.0645826176572,787.8880109927861 1041,791 C 1097.9354173823428,794.1119890072139 1135.1465190169665,780.0274290259314 1177,786 C 1218.8534809830335,791.9725709740686 1265.3493413144768,818.0022729034885 1312,818 C 1358.6506586855232,817.9977270965115 1405.4561157251264,791.9634793601149 1453,774 C 1500.5438842748736,756.0365206398851 1548.8261957850177,746.1438096560518 1603,759 C 1657.1738042149823,771.8561903439482 1717.2391011348031,807.4612820156783 1772,807 C 1826.7608988651969,806.5387179843217 1876.2173996757706,770.0110622812349 1900,758 C 1923.7826003242294,745.9889377187651 1921.8913001621147,758.4944688593826 1920,771 C 1920,771 1920,1080 1920,1080 Z" fill="#ffffff" opacity="0.4285714285714286"/><path d="M 0,1080 C 0,1080 0,925 0,925 C 48.202054306859154,921.0701356969712 96.40410861371831,917.1402713939425 143,917 C 189.5958913862817,916.8597286060575 234.585619851986,920.5090501212012 279,925 C 323.414380148014,929.4909498787988 367.2534119783377,934.823528121253 419,941 C 470.7465880216623,947.176471878747 530.4007322346633,954.1968373937865 590,936 C 649.5992677653367,917.8031626062135 709.1436590830089,874.3891223036013 760,885 C 810.8563409169911,895.6108776963987 853.0246314333011,960.2466733918083 891,962 C 928.9753685666989,963.7533266081917 962.7578151837859,902.6241841291653 1013,900 C 1063.2421848162141,897.3758158708347 1129.9441078315558,953.2565900915306 1191,970 C 1252.0558921684442,986.7434099084694 1307.4657534899902,964.3494555047121 1352,950 C 1396.5342465100098,935.6505444952879 1430.192878208483,929.3455878896214 1470,941 C 1509.807121791517,952.6544121103786 1555.7627336760768,982.2681929368025 1604,980 C 1652.2372663239232,977.7318070631975 1702.75618708721,943.5816403631686 1757,935 C 1811.24381291279,926.4183596368314 1869.212517975083,943.4052456105233 1897,946 C 1924.787482024917,948.5947543894767 1922.3937410124586,936.7973771947384 1920,925 C 1920,925 1920,1080 1920,1080 Z" fill="#ffffff" opacity="0.5142857142857142"/><path d="M 0,1080 C 0,1080 0,1079 0,1079 C 40.20791568618179,1060.980050230077 80.41583137236358,1042.960100460154 126,1033 C 171.58416862763642,1023.039899539846 222.54459019672743,1021.139648389461 282,1036 C 341.4554098032726,1050.860351610539 409.40580784072665,1082.4813059820015 459,1100 C 508.59419215927335,1117.5186940179985 539.8321784403659,1120.9351276825337 589,1101 C 638.1678215596341,1081.0648723174663 705.26547839781,1037.7781832878636 750,1030 C 794.73452160219,1022.2218167121363 817.1059079683937,1049.9521391660107 867,1055 C 916.8940920316063,1060.0478608339893 994.3108897286154,1042.4132600480934 1041,1049 C 1087.6891102713846,1055.5867399519066 1103.6505331171443,1086.3948206416155 1156,1091 C 1208.3494668828557,1095.6051793583845 1297.086977802808,1074.0074573854442 1349,1069 C 1400.913022197192,1063.9925426145558 1416.0015556716235,1075.5753498166073 1460,1087 C 1503.9984443283765,1098.4246501833927 1576.9067995106989,1109.691143348126 1634,1109 C 1691.0932004893011,1108.308856651874 1732.371246285581,1095.6600767908894 1785,1101 C 1837.628753714419,1106.3399232091106 1901.6082153469767,1129.6685494883172 1926,1129 C 1950.3917846530233,1128.3314505116828 1935.1958923265115,1103.6657252558414 1920,1079 C 1920,1079 1920,1080 1920,1080 Z" fill="#ffffff" opacity="0.6"/></svg>