<svg xmlns="http://www.w3.org/2000/svg" version="1.1" xmlns:xlink="http://www.w3.org/1999/xlink" viewBox="0 0 700 700" style="overflow: hidden; display: block;" width="700" height="700"><defs></defs><g id="two-0" transform="matrix(1 0 0 1 0 0)" opacity="1"><path transform="matrix(1 0 0 1 350 350)" id="two-150" d="M 109.690495 45.435291 C 90.422672 85.039942 166.025743 122.256676 166.298734 166.298734 C 166.550912 206.982928 155.509511 271.800766 115.394487 278.586936 C 60.938825 287.79908 55.202433 155.643344 0 157.367899 C -66.015896 159.430272 -65.361329 329.450927 -128.681012 310.663444 C -180.372333 295.326193 -129.740554 199.035692 -148.477189 148.477188 C -157.871093 123.128893 -195.058279 107.342656 -193.940544 80.332803 C -192.540953 46.511968 -136.803669 33.190882 -130.157385 0 C -126.044815 -20.537772 -139.846743 -41.552448 -147.441805 -61.072395 C -170.7396 -120.94969 -280.318854 -189.455658 -234.980494 -234.980494 C -189.856468 -280.290115 -120.454033 -123.70547 -61.538387 -148.566808 C -0.195131 -174.452553 -60.671211 -313.290522 -0.000001 -340.714439 C 39.215154 -358.440031 95.534516 -324.255866 119.507276 -288.516088 C 149.894607 -243.213148 88.94594 -165.665183 123.254315 -123.254316 C 146.889333 -94.037497 202.658923 -117.604386 234.052107 -96.947558 C 267.370912 -75.023664 319.970909 -37.441644 306.225975 -0.000001 C 283.285856 62.489622 138.812247 -14.423924 109.690495 45.435291 Z " fill="hsl(0, 0%, 100%)" stroke="undefined" stroke-width="1" stroke-opacity="1" fill-opacity="1" visibility="visible" stroke-linecap="butt" stroke-linejoin="miter" stroke-miterlimit="4"></path></g></svg>