<svg width="22" height="23" viewBox="0 0 22 23" fill="none" xmlns="http://www.w3.org/2000/svg">
<path d="M15.8126 19.0785C15.8126 19.2609 15.7401 19.4357 15.6112 19.5647C15.4823 19.6936 15.3074 19.766 15.1251 19.766H6.87505C6.69272 19.766 6.51785 19.6936 6.38892 19.5647C6.25999 19.4357 6.18755 19.2609 6.18755 19.0785C6.18755 18.8962 6.25999 18.7213 6.38892 18.5924C6.51785 18.4635 6.69272 18.391 6.87505 18.391H15.1251C15.3074 18.391 15.4823 18.4635 15.6112 18.5924C15.7401 18.7213 15.8126 18.8962 15.8126 19.0785ZM19.7365 10.3421L11.4865 2.09214C11.4226 2.02822 11.3468 1.97751 11.2633 1.94291C11.1799 1.90831 11.0904 1.8905 11.0001 1.8905C10.9097 1.8905 10.8202 1.90831 10.7368 1.94291C10.6533 1.97751 10.5775 2.02822 10.5136 2.09214L2.26365 10.3421C2.16739 10.4383 2.10182 10.5608 2.07525 10.6943C2.04868 10.8277 2.0623 10.966 2.11438 11.0917C2.16645 11.2174 2.25466 11.3248 2.36782 11.4004C2.48097 11.4759 2.614 11.5162 2.75005 11.516H6.18755V16.3285C6.18755 16.5109 6.25999 16.6857 6.38892 16.8147C6.51785 16.9436 6.69272 17.016 6.87505 17.016H15.1251C15.3074 17.016 15.4823 16.9436 15.6112 16.8147C15.7401 16.6857 15.8126 16.5109 15.8126 16.3285V11.516H19.2501C19.3861 11.5162 19.5191 11.4759 19.6323 11.4004C19.7454 11.3248 19.8337 11.2174 19.8857 11.0917C19.9378 10.966 19.9514 10.8277 19.9249 10.6943C19.8983 10.5608 19.8327 10.4383 19.7365 10.3421Z" fill="#047EFF"/>
</svg>
