<svg width="18" height="19" viewBox="0 0 18 19" fill="none" xmlns="http://www.w3.org/2000/svg">
<path d="M15.875 6.39099H13.125V4.32849C13.125 3.23447 12.6904 2.18526 11.9168 1.41168C11.1432 0.638088 10.094 0.203491 9 0.203491C7.90598 0.203491 6.85677 0.638088 6.08318 1.41168C5.3096 2.18526 4.875 3.23447 4.875 4.32849V6.39099H2.125C1.76033 6.39099 1.41059 6.53586 1.15273 6.79372C0.894866 7.05158 0.75 7.40132 0.75 7.76599V17.391C0.75 17.7557 0.894866 18.1054 1.15273 18.3633C1.41059 18.6211 1.76033 18.766 2.125 18.766H15.875C16.2397 18.766 16.5894 18.6211 16.8473 18.3633C17.1051 18.1054 17.25 17.7557 17.25 17.391V7.76599C17.25 7.40132 17.1051 7.05158 16.8473 6.79372C16.5894 6.53586 16.2397 6.39099 15.875 6.39099ZM9 13.6097C8.79604 13.6097 8.59666 13.5493 8.42707 13.4359C8.25748 13.3226 8.1253 13.1616 8.04725 12.9731C7.9692 12.7847 7.94877 12.5773 7.98856 12.3773C8.02836 12.1773 8.12657 11.9935 8.2708 11.8493C8.41502 11.7051 8.59877 11.6068 8.79881 11.5671C8.99886 11.5273 9.20621 11.5477 9.39464 11.6257C9.58308 11.7038 9.74414 11.836 9.85745 12.0056C9.97077 12.1751 10.0312 12.3745 10.0312 12.5785C10.0312 12.852 9.9226 13.1143 9.7292 13.3077C9.53581 13.5011 9.2735 13.6097 9 13.6097ZM11.75 6.39099H6.25V4.32849C6.25 3.59915 6.53973 2.89967 7.05546 2.38395C7.57118 1.86822 8.27065 1.57849 9 1.57849C9.72935 1.57849 10.4288 1.86822 10.9445 2.38395C11.4603 2.89967 11.75 3.59915 11.75 4.32849V6.39099Z" fill="#047EFF"/>
</svg>
