<svg width="22" height="23" viewBox="0 0 22 23" fill="none" xmlns="http://www.w3.org/2000/svg">
<path d="M18.5625 3.95349H3.4375C3.07283 3.95349 2.72309 4.09836 2.46523 4.35622C2.20737 4.61408 2.0625 4.96382 2.0625 5.32849V17.7035C2.0625 18.0682 2.20737 18.4179 2.46523 18.6758C2.72309 18.9336 3.07283 19.0785 3.4375 19.0785H18.5625C18.9272 19.0785 19.2769 18.9336 19.5348 18.6758C19.7926 18.4179 19.9375 18.0682 19.9375 17.7035V5.32849C19.9375 4.96382 19.7926 4.61408 19.5348 4.35622C19.2769 4.09836 18.9272 3.95349 18.5625 3.95349ZM7.5625 17.016H4.8125C4.63016 17.016 4.4553 16.9436 4.32636 16.8146C4.19743 16.6857 4.125 16.5108 4.125 16.3285V13.5785C4.125 13.3962 4.19743 13.2213 4.32636 13.0924C4.4553 12.9634 4.63016 12.891 4.8125 12.891C4.99484 12.891 5.1697 12.9634 5.29864 13.0924C5.42757 13.2213 5.5 13.3962 5.5 13.5785V15.641H7.5625C7.74484 15.641 7.9197 15.7134 8.04864 15.8424C8.17757 15.9713 8.25 16.1462 8.25 16.3285C8.25 16.5108 8.17757 16.6857 8.04864 16.8146C7.9197 16.9436 7.74484 17.016 7.5625 17.016ZM17.875 9.45349C17.875 9.63583 17.8026 9.8107 17.6736 9.93963C17.5447 10.0686 17.3698 10.141 17.1875 10.141C17.0052 10.141 16.8303 10.0686 16.7014 9.93963C16.5724 9.8107 16.5 9.63583 16.5 9.45349V7.39099H14.4375C14.2552 7.39099 14.0803 7.31856 13.9514 7.18963C13.8224 7.0607 13.75 6.88583 13.75 6.70349C13.75 6.52115 13.8224 6.34629 13.9514 6.21736C14.0803 6.08842 14.2552 6.01599 14.4375 6.01599H17.1875C17.3698 6.01599 17.5447 6.08842 17.6736 6.21736C17.8026 6.34629 17.875 6.52115 17.875 6.70349V9.45349Z" fill="#047EFF"/>
</svg>
