<svg width="94" height="80" viewBox="0 0 94 80" fill="none" xmlns="http://www.w3.org/2000/svg">
<g clip-path="url(#clip0_1066_15899)">
<path d="M0.333344 2.66667C0.333344 1.19391 1.37801 0 2.66668 0H91.3333C92.6218 0 93.6667 1.19391 93.6667 2.66667V5.86667H0.333344V2.66667Z" fill="white"/>
<mask id="mask0_1066_15899" style="mask-type:luminance" maskUnits="userSpaceOnUse" x="0" y="0" width="94" height="6">
<path d="M0.333344 2.66667C0.333344 1.19391 1.37801 0 2.66668 0H91.3333C92.6218 0 93.6667 1.19391 93.6667 2.66667V5.86667H0.333344V2.66667Z" fill="white"/>
</mask>
<g mask="url(#mask0_1066_15899)">
<path d="M0.100006 2.66673C0.100006 1.04669 1.24914 -0.266602 2.66667 -0.266602H91.3333C92.7511 -0.266602 93.9 1.04669 93.9 2.66673H93.4333C93.4333 1.34125 92.493 0.266732 91.3333 0.266732H2.66667C1.50688 0.266732 0.566673 1.34125 0.566673 2.66673H0.100006ZM0.100006 5.86673V2.66673C0.100006 1.04669 1.24914 -0.266602 2.66667 -0.266602V0.266732C1.50688 0.266732 0.566673 1.34125 0.566673 2.66673V5.86673H0.100006ZM91.3333 -0.266602C92.7511 -0.266602 93.9 1.04669 93.9 2.66673V5.86673H93.4333V2.66673C93.4333 1.34125 92.493 0.266732 91.3333 0.266732V-0.266602Z" fill="#E5E7EB"/>
</g>
<path d="M3.36669 3.73379C3.75329 3.73379 4.06669 3.37562 4.06669 2.93379C4.06669 2.49196 3.75329 2.13379 3.36669 2.13379C2.98009 2.13379 2.66669 2.49196 2.66669 2.93379C2.66669 3.37562 2.98009 3.73379 3.36669 3.73379Z" fill="#D00C0C"/>
<path d="M5.7 3.73379C6.0866 3.73379 6.4 3.37562 6.4 2.93379C6.4 2.49196 6.0866 2.13379 5.7 2.13379C5.3134 2.13379 5 2.49196 5 2.93379C5 3.37562 5.3134 3.73379 5.7 3.73379Z" fill="#03C95A"/>
<path d="M8.03334 3.73379C8.41994 3.73379 8.73334 3.37562 8.73334 2.93379C8.73334 2.49196 8.41994 2.13379 8.03334 2.13379C7.64674 2.13379 7.33334 2.49196 7.33334 2.93379C7.33334 3.37562 7.64674 3.73379 8.03334 3.73379Z" fill="#FFC107"/>
<path d="M0.450012 6H93.55V77.3333C93.55 78.7323 92.5574 79.8667 91.3334 79.8667H2.66668C1.44244 79.8667 0.450012 78.7323 0.450012 77.3333V6Z" fill="white"/>
<path d="M0.450012 6H93.55V77.3333C93.55 78.7323 92.5574 79.8667 91.3334 79.8667H2.66668C1.44244 79.8667 0.450012 78.7323 0.450012 77.3333V6Z" stroke="#E5E7EB" stroke-width="0.5"/>
<mask id="mask1_1066_15899" style="mask-type:luminance" maskUnits="userSpaceOnUse" x="0" y="5" width="18" height="75">
<path d="M0.333344 5.86621H17.6V79.9995H0.333344V5.86621Z" fill="white"/>
</mask>
<g mask="url(#mask1_1066_15899)">
<path d="M17.3667 5.86621V79.9995H17.8333V5.86621H17.3667Z" fill="#E5E7EB"/>
</g>
<path d="M14.3334 11.2002H3.60002C3.08455 11.2002 2.66669 11.6778 2.66669 12.2669C2.66669 12.856 3.08455 13.3335 3.60002 13.3335H14.3334C14.8488 13.3335 15.2667 12.856 15.2667 12.2669C15.2667 11.6778 14.8488 11.2002 14.3334 11.2002Z" fill="#F37438"/>
<path d="M10.3667 19.7334H3.36669C2.98009 19.7334 2.66669 20.0916 2.66669 20.5334C2.66669 20.9752 2.98009 21.3334 3.36669 21.3334H10.3667C10.7533 21.3334 11.0667 20.9752 11.0667 20.5334C11.0667 20.0916 10.7533 19.7334 10.3667 19.7334Z" fill="#DCE5E8"/>
<path d="M10.3667 22.4004H3.36669C2.98009 22.4004 2.66669 22.7586 2.66669 23.2004C2.66669 23.6422 2.98009 24.0004 3.36669 24.0004H10.3667C10.7533 24.0004 11.0667 23.6422 11.0667 23.2004C11.0667 22.7586 10.7533 22.4004 10.3667 22.4004Z" fill="#DCE5E8"/>
<path d="M6.16669 25.0664H3.36669C2.98009 25.0664 2.66669 25.4246 2.66669 25.8664C2.66669 26.3082 2.98009 26.6664 3.36669 26.6664H6.16669C6.55329 26.6664 6.86669 26.3082 6.86669 25.8664C6.86669 25.4246 6.55329 25.0664 6.16669 25.0664Z" fill="#DCE5E8"/>
<path d="M12.2334 27.7334H3.36669C2.98009 27.7334 2.66669 28.0916 2.66669 28.5334C2.66669 28.9752 2.98009 29.3334 3.36669 29.3334H12.2334C12.62 29.3334 12.9334 28.9752 12.9334 28.5334C12.9334 28.0916 12.62 27.7334 12.2334 27.7334Z" fill="#DCE5E8"/>
<path d="M8.03335 30.4004H3.36669C2.98009 30.4004 2.66669 30.7586 2.66669 31.2004C2.66669 31.6422 2.98009 32.0004 3.36669 32.0004H8.03335C8.41995 32.0004 8.73335 31.6422 8.73335 31.2004C8.73335 30.7586 8.41995 30.4004 8.03335 30.4004Z" fill="#DCE5E8"/>
<path d="M12.2334 33.0664H3.36669C2.98009 33.0664 2.66669 33.4246 2.66669 33.8664C2.66669 34.3082 2.98009 34.6664 3.36669 34.6664H12.2334C12.62 34.6664 12.9334 34.3082 12.9334 33.8664C12.9334 33.4246 12.62 33.0664 12.2334 33.0664Z" fill="#DCE5E8"/>
<path d="M7.10002 35.7334H3.36669C2.98009 35.7334 2.66669 36.0916 2.66669 36.5334C2.66669 36.9752 2.98009 37.3334 3.36669 37.3334H7.10002C7.48662 37.3334 7.80002 36.9752 7.80002 36.5334C7.80002 36.0916 7.48662 35.7334 7.10002 35.7334Z" fill="#DCE5E8"/>
<path d="M14.5667 38.4004H3.36669C2.98009 38.4004 2.66669 38.7586 2.66669 39.2004C2.66669 39.6422 2.98009 40.0004 3.36669 40.0004H14.5667C14.9533 40.0004 15.2667 39.6422 15.2667 39.2004C15.2667 38.7586 14.9533 38.4004 14.5667 38.4004Z" fill="#DCE5E8"/>
<path d="M10.3667 41.0664H3.36669C2.98009 41.0664 2.66669 41.4246 2.66669 41.8664C2.66669 42.3082 2.98009 42.6664 3.36669 42.6664H10.3667C10.7533 42.6664 11.0667 42.3082 11.0667 41.8664C11.0667 41.4246 10.7533 41.0664 10.3667 41.0664Z" fill="#DCE5E8"/>
<path d="M14.5667 43.7334H3.36669C2.98009 43.7334 2.66669 44.0916 2.66669 44.5334C2.66669 44.9752 2.98009 45.3334 3.36669 45.3334H14.5667C14.9533 45.3334 15.2667 44.9752 15.2667 44.5334C15.2667 44.0916 14.9533 43.7334 14.5667 43.7334Z" fill="#DCE5E8"/>
<path d="M2.66669 74.0801H15.2667" stroke="#E5E7EB" stroke-width="0.2"/>
<path d="M6.63335 77.3335C7.14881 77.3335 7.56668 76.856 7.56668 76.2669C7.56668 75.6778 7.14881 75.2002 6.63335 75.2002C6.11788 75.2002 5.70001 75.6778 5.70001 76.2669C5.70001 76.856 6.11788 77.3335 6.63335 77.3335Z" fill="#DCE5E8"/>
<path d="M8.96669 77.3335C9.48215 77.3335 9.90002 76.856 9.90002 76.2669C9.90002 75.6778 9.48215 75.2002 8.96669 75.2002C8.45122 75.2002 8.03336 75.6778 8.03336 76.2669C8.03336 76.856 8.45122 77.3335 8.96669 77.3335Z" fill="#DCE5E8"/>
<path d="M11.3 77.3335C11.8155 77.3335 12.2333 76.856 12.2333 76.2669C12.2333 75.6778 11.8155 75.2002 11.3 75.2002C10.7845 75.2002 10.3667 75.6778 10.3667 76.2669C10.3667 76.856 10.7845 77.3335 11.3 77.3335Z" fill="#DCE5E8"/>
<mask id="mask2_1066_15899" style="mask-type:luminance" maskUnits="userSpaceOnUse" x="17" y="5" width="77" height="6">
<path d="M17.6 5.86621H93.6667V10.1329H17.6V5.86621Z" fill="white"/>
</mask>
<g mask="url(#mask2_1066_15899)">
<path d="M17.6 6.13294H93.6667V5.59961H17.6V6.13294Z" fill="#E5E7EB"/>
</g>
<path d="M38.1333 6.93359H20.8667C20.3512 6.93359 19.9333 7.41116 19.9333 8.00026C19.9333 8.58936 20.3512 9.06693 20.8667 9.06693H38.1333C38.6488 9.06693 39.0667 8.58936 39.0667 8.00026C39.0667 7.41116 38.6488 6.93359 38.1333 6.93359Z" fill="#EDF2F4"/>
<path d="M84.8 9.06693C85.3155 9.06693 85.7333 8.58936 85.7333 8.00026C85.7333 7.41116 85.3155 6.93359 84.8 6.93359C84.2845 6.93359 83.8667 7.41116 83.8667 8.00026C83.8667 8.58936 84.2845 9.06693 84.8 9.06693Z" fill="#DCE5E8"/>
<path d="M87.6 9.06693C88.1155 9.06693 88.5334 8.58936 88.5334 8.00026C88.5334 7.41116 88.1155 6.93359 87.6 6.93359C87.0846 6.93359 86.6667 7.41116 86.6667 8.00026C86.6667 8.58936 87.0846 9.06693 87.6 9.06693Z" fill="#DCE5E8"/>
<path d="M90.4 9.06693C90.9155 9.06693 91.3333 8.58936 91.3333 8.00026C91.3333 7.41116 90.9155 6.93359 90.4 6.93359C89.8845 6.93359 89.4667 7.41116 89.4667 8.00026C89.4667 8.58936 89.8845 9.06693 90.4 9.06693Z" fill="#DCE5E8"/>
<path d="M93.4333 10.1338H17.6V76.8005H93.4333V10.1338Z" fill="#EDF2F4"/>
<path d="M17.6 76.9337H93.6667V76.667H17.6V76.9337Z" fill="#E5E7EB"/>
<path d="M63.5667 78.9336H45.3667C45.109 78.9336 44.9 78.6948 44.9 78.4003C44.9 78.1057 45.109 77.8669 45.3667 77.8669H63.5667C63.8244 77.8669 64.0334 78.1057 64.0334 78.4003C64.0334 78.6948 63.8244 78.9336 63.5667 78.9336Z" fill="#EDF2F4"/>
<path d="M36.8643 13H20.8024C20.5433 13 20.3333 14.4071 20.3333 16.1429V41.8571C20.3333 43.5929 20.5433 45 20.8024 45H36.8643C37.1233 45 37.3333 43.5929 37.3333 41.8571V16.1429C37.3333 14.4071 37.1233 13 36.8643 13Z" fill="white"/>
<path d="M56.8367 13H39.83C39.5557 13 39.3333 14.4071 39.3333 16.1429V41.8571C39.3333 43.5929 39.5557 45 39.83 45H56.8367C57.111 45 57.3333 43.5929 57.3333 41.8571V16.1429C57.3333 14.4071 57.111 13 56.8367 13Z" fill="white"/>
<path d="M77.8091 13H59.8576C59.5681 13 59.3333 14.4071 59.3333 16.1429V41.8571C59.3333 43.5929 59.5681 45 59.8576 45H77.8091C78.0986 45 78.3333 43.5929 78.3333 41.8571V16.1429C78.3333 14.4071 78.0986 13 77.8091 13Z" fill="white"/>
<path d="M89.8378 13H80.8288C80.5551 13 80.3333 14.4071 80.3333 16.1429V41.8571C80.3333 43.5929 80.5551 45 80.8288 45H89.8378C90.1114 45 90.3333 43.5929 90.3333 41.8571V16.1429C90.3333 14.4071 90.1114 13 89.8378 13Z" fill="white"/>
<path d="M53.8327 47H20.834C20.5575 47 20.3333 48.1872 20.3333 49.6518V71.3482C20.3333 72.8128 20.5575 74 20.834 74H53.8327C54.1092 74 54.3333 72.8128 54.3333 71.3482V49.6518C54.3333 48.1872 54.1092 47 53.8327 47Z" fill="white"/>
<path d="M89.8326 47H56.834C56.5574 47 56.3333 48.1872 56.3333 49.6518V71.3482C56.3333 72.8128 56.5574 74 56.834 74H89.8326C90.1091 74 90.3333 72.8128 90.3333 71.3482V49.6518C90.3333 48.1872 90.1091 47 89.8326 47Z" fill="white"/>
</g>
<rect x="0.833344" y="0.5" width="92.3333" height="79" stroke="#E5E7EB"/>
<defs>
<clipPath id="clip0_1066_15899">
<rect x="0.333344" width="93.3333" height="80" fill="white"/>
</clipPath>
</defs>
</svg>
