<svg width="94" height="80" viewBox="0 0 94 80" fill="none" xmlns="http://www.w3.org/2000/svg">
<g clip-path="url(#clip0_1066_15850)">
<path d="M0 2.66667C0 1.19391 1.04467 0 2.33333 0H91C92.2885 0 93.3333 1.19391 93.3333 2.66667V5.86667H0V2.66667Z" fill="white"/>
<mask id="mask0_1066_15850" style="mask-type:luminance" maskUnits="userSpaceOnUse" x="0" y="0" width="94" height="6">
<path d="M0 2.66667C0 1.19391 1.04467 0 2.33333 0H91C92.2885 0 93.3333 1.19391 93.3333 2.66667V5.86667H0V2.66667Z" fill="white"/>
</mask>
<g mask="url(#mask0_1066_15850)">
<path d="M-0.233337 2.66673C-0.233337 1.04669 0.915797 -0.266602 2.33333 -0.266602H91C92.4177 -0.266602 93.5667 1.04669 93.5667 2.66673H93.1C93.1 1.34125 92.1597 0.266732 91 0.266732H2.33333C1.17353 0.266732 0.233329 1.34125 0.233329 2.66673H-0.233337ZM-0.233337 5.86673V2.66673C-0.233337 1.04669 0.915797 -0.266602 2.33333 -0.266602V0.266732C1.17353 0.266732 0.233329 1.34125 0.233329 2.66673V5.86673H-0.233337ZM91 -0.266602C92.4177 -0.266602 93.5667 1.04669 93.5667 2.66673V5.86673H93.1V2.66673C93.1 1.34125 92.1597 0.266732 91 0.266732V-0.266602Z" fill="#E5E7EB"/>
</g>
<path d="M3.03331 3.73379C3.41991 3.73379 3.73331 3.37562 3.73331 2.93379C3.73331 2.49196 3.41991 2.13379 3.03331 2.13379C2.64671 2.13379 2.33331 2.49196 2.33331 2.93379C2.33331 3.37562 2.64671 3.73379 3.03331 3.73379Z" fill="#D00C0C"/>
<path d="M5.36669 3.73379C5.75329 3.73379 6.06669 3.37562 6.06669 2.93379C6.06669 2.49196 5.75329 2.13379 5.36669 2.13379C4.98009 2.13379 4.66669 2.49196 4.66669 2.93379C4.66669 3.37562 4.98009 3.73379 5.36669 3.73379Z" fill="#03C95A"/>
<path d="M7.7 3.73379C8.0866 3.73379 8.4 3.37562 8.4 2.93379C8.4 2.49196 8.0866 2.13379 7.7 2.13379C7.3134 2.13379 7 2.49196 7 2.93379C7 3.37562 7.3134 3.73379 7.7 3.73379Z" fill="#FFC107"/>
<path d="M0.116638 6H93.2167V77.3333C93.2167 78.7323 92.2241 79.8667 91 79.8667H2.33331C1.10907 79.8667 0.116638 78.7323 0.116638 77.3333V6Z" fill="white"/>
<path d="M0.116638 6H93.2167V77.3333C93.2167 78.7323 92.2241 79.8667 91 79.8667H2.33331C1.10907 79.8667 0.116638 78.7323 0.116638 77.3333V6Z" stroke="#E5E7EB" stroke-width="0.5"/>
<mask id="mask1_1066_15850" style="mask-type:luminance" maskUnits="userSpaceOnUse" x="0" y="5" width="18" height="75">
<path d="M0 5.86621H17.2667V79.9995H0V5.86621Z" fill="white"/>
</mask>
<g mask="url(#mask1_1066_15850)">
<path d="M17.0333 5.86621V79.9995H17.5V5.86621H17.0333Z" fill="#E5E7EB"/>
</g>
<path d="M14 11.2002H3.26665C2.75118 11.2002 2.33331 11.6778 2.33331 12.2669C2.33331 12.856 2.75118 13.3335 3.26665 13.3335H14C14.5154 13.3335 14.9333 12.856 14.9333 12.2669C14.9333 11.6778 14.5154 11.2002 14 11.2002Z" fill="#F37438"/>
<path d="M10.0333 19.7334H3.03331C2.64671 19.7334 2.33331 20.0916 2.33331 20.5334C2.33331 20.9752 2.64671 21.3334 3.03331 21.3334H10.0333C10.4199 21.3334 10.7333 20.9752 10.7333 20.5334C10.7333 20.0916 10.4199 19.7334 10.0333 19.7334Z" fill="#DCE5E8"/>
<path d="M10.0333 22.4004H3.03331C2.64671 22.4004 2.33331 22.7586 2.33331 23.2004C2.33331 23.6422 2.64671 24.0004 3.03331 24.0004H10.0333C10.4199 24.0004 10.7333 23.6422 10.7333 23.2004C10.7333 22.7586 10.4199 22.4004 10.0333 22.4004Z" fill="#DCE5E8"/>
<path d="M5.83331 25.0664H3.03331C2.64671 25.0664 2.33331 25.4246 2.33331 25.8664C2.33331 26.3082 2.64671 26.6664 3.03331 26.6664H5.83331C6.21991 26.6664 6.53331 26.3082 6.53331 25.8664C6.53331 25.4246 6.21991 25.0664 5.83331 25.0664Z" fill="#DCE5E8"/>
<path d="M11.9 27.7334H3.03331C2.64671 27.7334 2.33331 28.0916 2.33331 28.5334C2.33331 28.9752 2.64671 29.3334 3.03331 29.3334H11.9C12.2866 29.3334 12.6 28.9752 12.6 28.5334C12.6 28.0916 12.2866 27.7334 11.9 27.7334Z" fill="#DCE5E8"/>
<path d="M7.69998 30.4004H3.03331C2.64671 30.4004 2.33331 30.7586 2.33331 31.2004C2.33331 31.6422 2.64671 32.0004 3.03331 32.0004H7.69998C8.08658 32.0004 8.39998 31.6422 8.39998 31.2004C8.39998 30.7586 8.08658 30.4004 7.69998 30.4004Z" fill="#DCE5E8"/>
<path d="M11.9 33.0664H3.03331C2.64671 33.0664 2.33331 33.4246 2.33331 33.8664C2.33331 34.3082 2.64671 34.6664 3.03331 34.6664H11.9C12.2866 34.6664 12.6 34.3082 12.6 33.8664C12.6 33.4246 12.2866 33.0664 11.9 33.0664Z" fill="#DCE5E8"/>
<path d="M6.76665 35.7334H3.03331C2.64671 35.7334 2.33331 36.0916 2.33331 36.5334C2.33331 36.9752 2.64671 37.3334 3.03331 37.3334H6.76665C7.15325 37.3334 7.46665 36.9752 7.46665 36.5334C7.46665 36.0916 7.15325 35.7334 6.76665 35.7334Z" fill="#DCE5E8"/>
<path d="M14.2333 38.4004H3.03331C2.64671 38.4004 2.33331 38.7586 2.33331 39.2004C2.33331 39.6422 2.64671 40.0004 3.03331 40.0004H14.2333C14.6199 40.0004 14.9333 39.6422 14.9333 39.2004C14.9333 38.7586 14.6199 38.4004 14.2333 38.4004Z" fill="#DCE5E8"/>
<path d="M10.0333 41.0664H3.03331C2.64671 41.0664 2.33331 41.4246 2.33331 41.8664C2.33331 42.3082 2.64671 42.6664 3.03331 42.6664H10.0333C10.4199 42.6664 10.7333 42.3082 10.7333 41.8664C10.7333 41.4246 10.4199 41.0664 10.0333 41.0664Z" fill="#DCE5E8"/>
<path d="M14.2333 43.7334H3.03331C2.64671 43.7334 2.33331 44.0916 2.33331 44.5334C2.33331 44.9752 2.64671 45.3334 3.03331 45.3334H14.2333C14.6199 45.3334 14.9333 44.9752 14.9333 44.5334C14.9333 44.0916 14.6199 43.7334 14.2333 43.7334Z" fill="#DCE5E8"/>
<path d="M2.33331 74.0801H14.9333" stroke="#E5E7EB" stroke-width="0.2"/>
<path d="M6.29997 77.3335C6.81544 77.3335 7.23331 76.856 7.23331 76.2669C7.23331 75.6778 6.81544 75.2002 6.29997 75.2002C5.78451 75.2002 5.36664 75.6778 5.36664 76.2669C5.36664 76.856 5.78451 77.3335 6.29997 77.3335Z" fill="#DCE5E8"/>
<path d="M8.63335 77.3335C9.14881 77.3335 9.56668 76.856 9.56668 76.2669C9.56668 75.6778 9.14881 75.2002 8.63335 75.2002C8.11788 75.2002 7.70001 75.6778 7.70001 76.2669C7.70001 76.856 8.11788 77.3335 8.63335 77.3335Z" fill="#DCE5E8"/>
<path d="M10.9667 77.3335C11.4821 77.3335 11.9 76.856 11.9 76.2669C11.9 75.6778 11.4821 75.2002 10.9667 75.2002C10.4512 75.2002 10.0333 75.6778 10.0333 76.2669C10.0333 76.856 10.4512 77.3335 10.9667 77.3335Z" fill="#DCE5E8"/>
<mask id="mask2_1066_15850" style="mask-type:luminance" maskUnits="userSpaceOnUse" x="17" y="5" width="77" height="6">
<path d="M17.2667 5.86621H93.3333V10.1329H17.2667V5.86621Z" fill="white"/>
</mask>
<g mask="url(#mask2_1066_15850)">
<path d="M17.2667 6.13294H93.3333V5.59961H17.2667V6.13294Z" fill="#E5E7EB"/>
</g>
<path d="M37.8 6.93359H20.5333C20.0178 6.93359 19.6 7.41116 19.6 8.00026C19.6 8.58936 20.0178 9.06693 20.5333 9.06693H37.8C38.3154 9.06693 38.7333 8.58936 38.7333 8.00026C38.7333 7.41116 38.3154 6.93359 37.8 6.93359Z" fill="#EDF2F4"/>
<path d="M84.4667 9.06693C84.9821 9.06693 85.4 8.58936 85.4 8.00026C85.4 7.41116 84.9821 6.93359 84.4667 6.93359C83.9512 6.93359 83.5333 7.41116 83.5333 8.00026C83.5333 8.58936 83.9512 9.06693 84.4667 9.06693Z" fill="#DCE5E8"/>
<path d="M87.2667 9.06693C87.7821 9.06693 88.2 8.58936 88.2 8.00026C88.2 7.41116 87.7821 6.93359 87.2667 6.93359C86.7512 6.93359 86.3333 7.41116 86.3333 8.00026C86.3333 8.58936 86.7512 9.06693 87.2667 9.06693Z" fill="#DCE5E8"/>
<path d="M90.0667 9.06693C90.5821 9.06693 91 8.58936 91 8.00026C91 7.41116 90.5821 6.93359 90.0667 6.93359C89.5512 6.93359 89.1333 7.41116 89.1333 8.00026C89.1333 8.58936 89.5512 9.06693 90.0667 9.06693Z" fill="#DCE5E8"/>
<path d="M93.1 10.1338H17.2667V76.8005H93.1V10.1338Z" fill="#EDF2F4"/>
<path d="M17.2667 76.9337H93.3333V76.667H17.2667V76.9337Z" fill="#E5E7EB"/>
<path d="M63.2333 78.9336H45.0333C44.7756 78.9336 44.5667 78.6948 44.5667 78.4003C44.5667 78.1057 44.7756 77.8669 45.0333 77.8669H63.2333C63.4911 77.8669 63.7 78.1057 63.7 78.4003C63.7 78.6948 63.4911 78.9336 63.2333 78.9336Z" fill="#EDF2F4"/>
<path d="M36.5309 13H20.4691C20.21 13 20 14.4071 20 16.1429V41.8571C20 43.5929 20.21 45 20.4691 45H36.5309C36.79 45 37 43.5929 37 41.8571V16.1429C37 14.4071 36.79 13 36.5309 13Z" fill="white" stroke="#E5E7EB" stroke-width="0.5"/>
<path d="M56.5033 13H39.4967C39.2224 13 39 14.4071 39 16.1429V41.8571C39 43.5929 39.2224 45 39.4967 45H56.5033C56.7776 45 57 43.5929 57 41.8571V16.1429C57 14.4071 56.7776 13 56.5033 13Z" fill="white" stroke="#E5E7EB" stroke-width="0.5"/>
<path d="M77.4758 13H59.5242C59.2347 13 59 14.4071 59 16.1429V41.8571C59 43.5929 59.2347 45 59.5242 45H77.4758C77.7653 45 78 43.5929 78 41.8571V16.1429C78 14.4071 77.7653 13 77.4758 13Z" fill="white" stroke="#E5E7EB" stroke-width="0.5"/>
<path d="M88.5045 13H79.4955C79.2218 13 79 14.4071 79 16.1429V41.8571C79 43.5929 79.2218 45 79.4955 45H88.5045C88.7782 45 89 43.5929 89 41.8571V16.1429C89 14.4071 88.7782 13 88.5045 13Z" fill="white" stroke="#E5E7EB" stroke-width="0.5"/>
<path d="M53.4993 47H20.5007C20.2242 47 20 48.1872 20 49.6518V71.3482C20 72.8128 20.2242 74 20.5007 74H53.4993C53.7758 74 54 72.8128 54 71.3482V49.6518C54 48.1872 53.7758 47 53.4993 47Z" fill="white" stroke="#E5E7EB" stroke-width="0.5"/>
<path d="M88.4993 47H55.5007C55.2242 47 55 48.1872 55 49.6518V71.3482C55 72.8128 55.2242 74 55.5007 74H88.4993C88.7758 74 89 72.8128 89 71.3482V49.6518C89 48.1872 88.7758 47 88.4993 47Z" fill="white" stroke="#E5E7EB" stroke-width="0.5"/>
</g>
<rect x="0.5" y="0.5" width="92.3333" height="79" stroke="#E5E7EB"/>
<defs>
<clipPath id="clip0_1066_15850">
<rect width="93.3333" height="80" fill="white"/>
</clipPath>
</defs>
</svg>
