<svg width="200" height="150" viewBox="0 0 200 150" fill="none" xmlns="http://www.w3.org/2000/svg">
<mask id="path-1-inside-1_1066_41389" fill="white">
<path d="M0 0H200V11H0V0Z"/>
</mask>
<path d="M0 0H200V11H0V0Z" fill="white"/>
<path d="M0 0V-0.5H-0.5V0H0ZM200 0H200.5V-0.5H200V0ZM0 0.5H200V-0.5H0V0.5ZM199.5 0V11H200.5V0H199.5ZM0.5 11V0H-0.5V11H0.5Z" fill="#E5E7EB" mask="url(#path-1-inside-1_1066_41389)"/>
<circle cx="6.5" cy="5.5" r="1.5" fill="#D00C0C"/>
<circle cx="11.5" cy="5.5" r="1.5" fill="#03C95A"/>
<circle cx="16.5" cy="5.5" r="1.5" fill="#FFC107"/>
<path d="M0.25 11.25H199.75V149.75H0.25V11.25Z" fill="white"/>
<path d="M0.25 11.25H199.75V149.75H0.25V11.25Z" stroke="#E5E7EB" stroke-width="0.5"/>
<mask id="path-7-inside-2_1066_41389" fill="white">
<path d="M0 11H200V19H0V11Z"/>
</mask>
<path d="M200 18.5H0V19.5H200V18.5Z" fill="#E5E7EB" mask="url(#path-7-inside-2_1066_41389)"/>
<rect x="5" y="13" width="15" height="4" rx="2" fill="#F26522"/>
<rect x="32" y="13" width="18" height="3" rx="1.5" fill="#DCE5E8"/>
<rect x="52" y="13" width="18" height="3" rx="1.5" fill="#DCE5E8"/>
<rect x="72" y="13" width="9" height="3" rx="1.5" fill="#DCE5E8"/>
<rect x="83" y="13" width="22" height="3" rx="1.5" fill="#DCE5E8"/>
<rect x="107" y="13" width="13" height="3" rx="1.5" fill="#DCE5E8"/>
<circle cx="169" cy="15" r="2" fill="#DCE5E8"/>
<circle cx="175" cy="15" r="2" fill="#DCE5E8"/>
<circle cx="181" cy="15" r="2" fill="#DCE5E8"/>
<circle cx="187" cy="15" r="2" fill="#DCE5E8"/>
<circle cx="193" cy="15" r="2" fill="#DCE5E8"/>
<rect x="45" y="23" width="151" height="116" fill="#EDF2F4"/>
<rect x="5.25" y="23.25" width="36.5" height="115.5" fill="white"/>
<rect x="5.25" y="23.25" width="36.5" height="115.5" stroke="#E5E7EB" stroke-width="0.5"/>
<rect x="10" y="33" width="18" height="3" rx="1.5" fill="#DCE5E8"/>
<rect x="10" y="38" width="18" height="3" rx="1.5" fill="#DCE5E8"/>
<rect x="10" y="43" width="9" height="3" rx="1.5" fill="#DCE5E8"/>
<rect x="10" y="48" width="22" height="3" rx="1.5" fill="#DCE5E8"/>
<rect x="10" y="53" width="13" height="3" rx="1.5" fill="#DCE5E8"/>
<rect x="10" y="58" width="22" height="3" rx="1.5" fill="#DCE5E8"/>
<rect x="10" y="63" width="11" height="3" rx="1.5" fill="#DCE5E8"/>
<rect x="10" y="68" width="27" height="3" rx="1.5" fill="#DCE5E8"/>
<rect x="10" y="73" width="18" height="3" rx="1.5" fill="#DCE5E8"/>
<rect x="10" y="78" width="27" height="3" rx="1.5" fill="#DCE5E8"/>
<line x1="10" y1="127.9" x2="37" y2="127.9" stroke="#E5E7EB" stroke-width="0.2"/>
<circle cx="18.5" cy="132" r="2" fill="#DCE5E8"/>
<circle cx="23.5" cy="132" r="2" fill="#DCE5E8"/>
<circle cx="28.5" cy="132" r="2" fill="#DCE5E8"/>
<path d="M0 144.25H200V143.75H0V144.25Z" fill="#E5E7EB"/>
<rect width="41" height="2" rx="1" transform="matrix(1 0 0 -1 77 148)" fill="#EDF2F4"/>
</svg>
