<svg width="200" height="150" viewBox="0 0 200 150" fill="none" xmlns="http://www.w3.org/2000/svg">
<mask id="path-1-inside-1_1066_41658" fill="white">
<path d="M0 0H200V11H0V0Z"/>
</mask>
<path d="M0 0H200V11H0V0Z" fill="white"/>
<path d="M0 0V-0.5H-0.5V0H0ZM200 0H200.5V-0.5H200V0ZM0 0.5H200V-0.5H0V0.5ZM199.5 0V11H200.5V0H199.5ZM0.5 11V0H-0.5V11H0.5Z" fill="#E5E7EB" mask="url(#path-1-inside-1_1066_41658)"/>
<circle cx="6.5" cy="5.5" r="1.5" fill="#D00C0C"/>
<circle cx="11.5" cy="5.5" r="1.5" fill="#03C95A"/>
<circle cx="16.5" cy="5.5" r="1.5" fill="#FFC107"/>
<path d="M0.25 11.25H199.75V149.75H0.25V11.25Z" fill="white"/>
<path d="M0.25 11.25H199.75V149.75H0.25V11.25Z" stroke="#E5E7EB" stroke-width="0.5"/>
<path d="M0.5 11H200V143.5H4.5C2.29086 143.5 0.5 141.709 0.5 139.5V11Z" fill="#EDF2F4"/>
<path d="M0.5 12H37.5V149H5.5C2.73858 149 0.5 146.761 0.5 144V12Z" fill="white"/>
<rect x="5.5" y="42" width="27" height="4" rx="2" fill="#F37438"/>
<rect x="5.5" y="58" width="18" height="3" rx="1.5" fill="#DCE5E8"/>
<rect x="5.5" y="63" width="18" height="3" rx="1.5" fill="#DCE5E8"/>
<rect x="5.5" y="68" width="9" height="3" rx="1.5" fill="#DCE5E8"/>
<rect x="5.5" y="73" width="22" height="3" rx="1.5" fill="#DCE5E8"/>
<rect x="5.5" y="78" width="13" height="3" rx="1.5" fill="#DCE5E8"/>
<rect x="5.5" y="83" width="22" height="3" rx="1.5" fill="#DCE5E8"/>
<rect x="5.5" y="88" width="11" height="3" rx="1.5" fill="#DCE5E8"/>
<rect x="5.5" y="93" width="27" height="3" rx="1.5" fill="#DCE5E8"/>
<rect x="5.5" y="98" width="18" height="3" rx="1.5" fill="#DCE5E8"/>
<rect x="5.5" y="103" width="27" height="3" rx="1.5" fill="#DCE5E8"/>
<line x1="5.5" y1="117.9" x2="32.5" y2="117.9" stroke="#E5E7EB" stroke-width="0.2"/>
<circle cx="14" cy="122" r="2" fill="#DCE5E8"/>
<circle cx="19" cy="122" r="2" fill="#DCE5E8"/>
<circle cx="24" cy="122" r="2" fill="#DCE5E8"/>
<rect x="38" y="20" width="162" height="25" fill="#212529"/>
<rect x="43" y="24" width="153" height="109" rx="5" fill="white"/>
<mask id="path-26-inside-2_1066_41658" fill="white">
<path d="M38 12H200V20H38V12Z"/>
</mask>
<path d="M38 12H200V20H38V12Z" fill="#212529"/>
<path d="M200 19.5H38V20.5H200V19.5Z" fill="#E5E7EB" mask="url(#path-26-inside-2_1066_41658)"/>
<rect x="40" y="14" width="15" height="4" rx="2" fill="#F26522"/>
<rect x="67" y="14" width="18" height="3" rx="1.5" fill="#DCE5E8"/>
<rect x="87" y="14" width="18" height="3" rx="1.5" fill="#DCE5E8"/>
<rect x="107" y="14" width="9" height="3" rx="1.5" fill="#DCE5E8"/>
<rect x="118" y="14" width="22" height="3" rx="1.5" fill="#DCE5E8"/>
<rect x="142" y="14" width="13" height="3" rx="1.5" fill="#DCE5E8"/>
<circle cx="175" cy="16" r="2" fill="#DCE5E8"/>
<circle cx="181" cy="16" r="2" fill="#DCE5E8"/>
<circle cx="193" cy="16" r="2" fill="#DCE5E8"/>
</svg>
