<svg width="546" height="502" viewBox="0 0 546 502" fill="none" xmlns="http://www.w3.org/2000/svg">
<path d="M96.5815 443.98C195.09 497.429 354.803 497.43 453.309 443.981C551.818 390.53 551.818 303.872 453.309 250.424C354.801 196.974 195.088 196.974 96.5793 250.423C-1.92783 303.871 -1.92783 390.531 96.5815 443.98Z" fill="#FBD1BD"/>
<path d="M427.124 432.779C453.775 432.779 475.38 421.31 475.38 407.163C475.38 393.016 453.775 381.547 427.124 381.547C400.472 381.547 378.867 393.016 378.867 407.163C378.867 421.31 400.472 432.779 427.124 432.779Z" fill="#FBD1BD"/>
<path d="M396.855 77.447L405.228 81.8927C405.187 81.5493 405.157 81.207 405.157 80.8736V78.6427C405.157 74.6739 408.189 73.0645 411.927 75.0494C413.44 75.8526 414.834 77.1267 415.962 78.6166C416.574 73.6258 420.833 71.7663 426.006 74.5123C431.599 77.4811 436.134 84.7019 436.134 90.6405V93.9778C436.134 95.516 435.825 96.8111 435.277 97.8432L442.233 101.535C444.307 102.636 445.988 105.313 445.988 107.515C445.988 109.717 444.308 110.609 442.233 109.508L396.855 85.4197C394.781 84.3184 393.1 81.6417 393.1 79.4399C393.101 77.2392 394.781 76.3466 396.855 77.447Z" fill="#FCE0D3"/>
<path d="M361.018 99.8766L367.338 103.231C367.306 102.972 367.284 102.714 367.284 102.462V100.778C367.284 97.7822 369.572 96.5684 372.394 98.0664C373.536 98.6728 374.588 99.6346 375.438 100.759C375.9 96.9921 379.115 95.5895 383.019 97.6618C387.241 99.9027 390.663 105.352 390.663 109.834V112.352C390.663 113.513 390.429 114.491 390.015 115.27L395.265 118.056C396.829 118.886 398.098 120.907 398.098 122.569C398.098 124.231 396.829 124.904 395.265 124.073L361.017 105.894C359.451 105.063 358.184 103.042 358.184 101.381C358.185 99.7199 359.454 99.0463 361.018 99.8766Z" fill="#FCE0D3"/>
<path d="M80.6719 289.781C80.0538 290.089 68.637 293.069 64.4066 287.933C60.1772 282.796 67.1944 274.789 63.2272 271.838C59.26 268.888 48.1412 271.856 45.4647 265.64C42.7882 259.424 50.7216 256.76 46.263 250.504C43.4544 246.564 36.5595 244.357 35.9523 240.714C34.9367 234.626 45.9103 231.829 55.2949 237.576C64.6796 243.324 70.3547 240.69 73.3326 240.305C76.3104 239.919 82.7292 240.77 82.5239 250.38C82.3186 259.991 80.6719 289.781 80.6719 289.781Z" fill="#F26522"/>
<path d="M81.4263 276.109C81.1271 276.109 80.8639 275.91 80.8137 275.63C77.5453 257.392 54.4867 242.548 42.4965 239.363C42.1667 239.275 41.9756 238.958 42.0717 238.655C42.1667 238.353 42.5118 238.178 42.8416 238.264C55.1026 241.521 78.6876 256.732 82.0411 275.444C82.0968 275.756 81.8664 276.051 81.5279 276.102C81.494 276.107 81.4602 276.109 81.4263 276.109Z" fill="white"/>
<path d="M54.2405 260.851C54.0275 260.851 53.8211 260.75 53.7043 260.572C53.5296 260.301 53.6257 259.949 53.9216 259.788C54.2951 259.584 63.1665 254.816 71.9079 257.046C72.2388 257.13 72.4332 257.445 72.3404 257.749C72.2486 258.054 71.909 258.235 71.5749 258.147C63.351 256.049 54.6423 260.723 54.556 260.77C54.4567 260.825 54.3475 260.851 54.2405 260.851Z" fill="white"/>
<path d="M85.0977 296.777C85.0977 299.377 87.215 302.61 89.8271 303.996L222.315 374.323C224.926 375.71 229.161 375.71 231.772 374.323L413.051 278.096C415.662 276.709 417.78 273.477 417.78 270.876C417.78 268.275 415.664 265.043 413.051 263.656L280.563 193.329C277.952 191.942 273.718 191.942 271.107 193.329L89.826 289.558C87.214 290.945 85.0977 294.177 85.0977 296.777Z" fill="#323737"/>
<path d="M227.047 365.957V375.364C225.332 375.364 223.618 375.023 222.318 374.33L89.826 304C87.2161 302.615 85.0977 299.382 85.0977 296.781C85.0977 294.342 86.965 291.35 89.3455 289.844C87.2271 291.239 87.3909 293.287 89.826 294.583L222.318 364.913C223.618 365.606 225.333 365.957 227.047 365.957Z" fill="#262A2A"/>
<path d="M80.6634 289.716C78.214 288.416 76.2277 285.113 76.2277 282.341L76.2266 136.977C76.2266 134.205 78.344 130.834 80.9549 129.447L262.236 33.2199C264.847 31.8334 268.95 31.7641 271.4 33.0643C273.85 34.3645 275.837 37.6666 275.837 40.4387V185.803C275.837 188.575 273.719 191.946 271.108 193.333L89.8274 289.56C87.2154 290.947 83.1127 291.016 80.6634 289.716Z" fill="#455A64"/>
<path d="M89.269 289.821C86.6591 290.946 82.9463 290.926 80.664 289.711C78.2179 288.416 76.2305 285.113 76.2305 282.342V136.972C76.2305 135.587 76.7546 134.051 77.6173 132.695L86.4843 137.394V137.404C85.6326 138.77 85.0975 140.296 85.0975 141.681V287.05C85.0975 289.621 86.9222 290.775 89.269 289.821Z" fill="#262A2A"/>
<path d="M85.0977 141.687V287.051C85.0977 289.823 87.215 290.948 89.826 289.561L271.107 193.334C273.718 191.947 275.835 188.576 275.835 185.804V40.4397C275.835 37.6677 273.718 36.5432 271.107 37.9297L89.826 134.157C87.214 135.544 85.0977 138.915 85.0977 141.687Z" fill="#323737"/>
<path d="M89.8262 294.576L222.315 364.904C224.926 366.29 229.161 366.29 231.772 364.904L413.053 268.676C415.664 267.29 415.664 265.043 413.053 263.656L280.565 193.329C277.954 191.942 273.719 191.942 271.108 193.329L89.8262 289.556C87.2142 290.943 87.2142 293.19 89.8262 294.576Z" fill="#455A64"/>
<path d="M92.3702 142.225L267.148 49.4733C268.715 48.642 269.985 49.3157 269.985 50.9793V176.815C269.985 178.478 268.715 180.501 267.148 181.333L92.3702 274.082C90.8032 274.913 89.5332 274.24 89.5332 272.576V146.742C89.5332 145.079 90.8032 143.056 92.3702 142.225Z" fill="white"/>
<path opacity="0.6" d="M92.3702 142.225L267.148 49.4733C268.715 48.642 269.985 49.3157 269.985 50.9793V176.815C269.985 178.478 268.715 180.501 267.148 181.333L92.3702 274.082C90.8032 274.913 89.5332 274.24 89.5332 272.576V146.742C89.5332 145.079 90.8032 143.056 92.3702 142.225Z" fill="#F26522"/>
<path d="M179.387 134.269C184.04 131.798 187.813 133.801 187.813 138.741C187.813 143.682 184.04 149.689 179.387 152.159C174.734 154.628 170.961 152.626 170.961 147.686C170.961 142.746 174.734 136.739 179.387 134.269Z" fill="#F0F0F0"/>
<path d="M195.991 160.689C195.991 152.573 189.793 148.969 182.149 153.028L177.37 155.564C169.726 159.622 163.527 169.491 163.527 177.607V179.792L195.991 162.572V160.689Z" fill="#F0F0F0"/>
<path d="M212.407 164.697C212.098 164.043 211.314 163.877 210.426 164.345L153.733 194.421C153.162 194.723 152.629 195.249 152.253 195.861C151.87 196.465 151.639 197.142 151.639 197.761V203.895C151.639 204.939 152.316 205.45 153.232 205.212C153.327 205.187 153.38 205.169 153.38 205.169C153.506 205.126 153.623 205.068 153.733 205.01L210.426 174.934C211.585 174.323 212.525 172.825 212.525 171.594V165.46C212.524 165.217 212.494 164.909 212.407 164.697Z" fill="#F0F0F0"/>
<path d="M158.857 195.18C159.957 194.596 160.849 195.069 160.849 196.237C160.849 197.404 159.958 198.824 158.857 199.408C157.756 199.993 156.865 199.519 156.865 198.351C156.865 197.183 157.756 195.763 158.857 195.18Z" fill="#F26522"/>
<path d="M165.445 191.688C166.545 191.103 167.437 191.577 167.437 192.745C167.437 193.913 166.545 195.332 165.445 195.917C164.345 196.5 163.453 196.027 163.453 194.859C163.453 193.692 164.344 192.271 165.445 191.688Z" fill="#F26522"/>
<path d="M172.033 188.187C173.132 187.604 174.025 188.077 174.025 189.245C174.025 190.412 173.134 191.832 172.033 192.416C170.932 193.001 170.041 192.527 170.041 191.359C170.041 190.191 170.932 188.772 172.033 188.187Z" fill="#F26522"/>
<path d="M178.621 184.688C179.72 184.103 180.613 184.577 180.613 185.745C180.613 186.913 179.721 188.332 178.621 188.917C177.52 189.501 176.629 189.027 176.629 187.859C176.629 186.692 177.52 185.272 178.621 184.688Z" fill="#F26522"/>
<path d="M185.211 181.195C186.31 180.612 187.202 181.085 187.202 182.252C187.202 183.42 186.31 184.84 185.211 185.424C184.111 186.007 183.219 185.534 183.219 184.367C183.219 183.199 184.11 181.779 185.211 181.195Z" fill="#F26522"/>
<path d="M191.796 177.695C192.896 177.112 193.788 177.585 193.788 178.752C193.788 179.92 192.897 181.34 191.796 181.924C190.696 182.508 189.805 182.034 189.805 180.867C189.805 179.699 190.697 178.279 191.796 177.695Z" fill="#F26522"/>
<path d="M198.384 174.203C199.484 173.62 200.376 174.093 200.376 175.26C200.376 176.428 199.485 177.847 198.384 178.432C197.285 179.016 196.393 178.542 196.393 177.375C196.393 176.207 197.285 174.787 198.384 174.203Z" fill="#F26522"/>
<path d="M204.972 170.703C206.072 170.12 206.964 170.593 206.964 171.76C206.964 172.928 206.073 174.347 204.972 174.932C203.873 175.515 202.98 175.042 202.98 173.875C202.982 172.707 203.873 171.286 204.972 170.703Z" fill="#F26522"/>
<path d="M105.206 290.815L273.473 201.496C274.779 200.803 276.896 200.803 278.202 201.496L286.808 206.064C288.114 206.757 288.114 207.882 286.808 208.574L118.515 297.879C117.209 298.572 115.092 298.572 113.787 297.879L105.206 293.325C103.9 292.631 103.9 291.508 105.206 290.815Z" fill="#323737"/>
<path d="M127.388 302.59L295.653 213.27C296.959 212.577 299.076 212.577 300.382 213.27L353.319 241.371C354.625 242.063 354.625 243.188 353.319 243.881L185.246 333.078C183.94 333.771 181.821 333.774 180.513 333.085L127.394 305.094C126.084 304.404 126.082 303.283 127.388 302.59Z" fill="#262A2A"/>
<path d="M278.222 253.453L283.49 250.657C283.714 250.537 283.701 250.338 283.461 250.21L277.368 246.976C277.128 246.849 276.751 246.842 276.527 246.96L271.259 249.757C271.035 249.876 271.048 250.076 271.289 250.203L277.381 253.437C277.622 253.565 277.998 253.572 278.222 253.453ZM267.825 242.341L262.556 245.137C262.333 245.256 262.347 245.456 262.587 245.584L268.679 248.818C268.92 248.945 269.296 248.952 269.52 248.834L274.788 246.037C275.012 245.918 274.999 245.718 274.758 245.591L268.666 242.357C268.426 242.229 268.049 242.222 267.825 242.341ZM250.804 251.377L241.888 256.11C241.664 256.228 241.677 256.428 241.918 256.555L248.01 259.789C248.25 259.917 248.627 259.924 248.851 259.805L257.767 255.073C257.991 254.954 257.978 254.754 257.737 254.627L251.646 251.393C251.405 251.264 251.028 251.257 250.804 251.377ZM260.126 246.428L254.857 249.225C254.634 249.344 254.646 249.543 254.887 249.671L260.98 252.905C261.22 253.032 261.595 253.039 261.819 252.921L267.088 250.125C267.312 250.005 267.299 249.807 267.059 249.679L260.966 246.445C260.726 246.317 260.349 246.31 260.126 246.428ZM239.457 257.4L234.19 260.196C233.966 260.315 233.979 260.514 234.219 260.642L240.311 263.876C240.552 264.003 240.927 264.01 241.151 263.892L246.42 261.095C246.644 260.976 246.631 260.776 246.389 260.649L240.298 257.415C240.057 257.288 239.68 257.281 239.457 257.4ZM231.757 261.487L226.489 264.283C226.265 264.402 226.278 264.601 226.518 264.729L232.611 267.963C232.851 268.09 233.227 268.097 233.451 267.979L238.72 265.183C238.944 265.063 238.931 264.865 238.691 264.737L232.597 261.503C232.357 261.376 231.982 261.369 231.757 261.487ZM255.719 274.637L260.988 271.84C261.211 271.722 261.199 271.522 260.958 271.395L254.865 268.161C254.625 268.033 254.248 268.026 254.025 268.145L248.756 270.941C248.532 271.06 248.545 271.259 248.785 271.388L254.877 274.621C255.119 274.749 255.496 274.756 255.719 274.637ZM248.02 278.725L253.288 275.929C253.511 275.809 253.498 275.61 253.257 275.482L247.166 272.249C246.926 272.121 246.549 272.114 246.325 272.233L241.057 275.03C240.833 275.148 240.846 275.349 241.087 275.476L247.179 278.71C247.42 278.836 247.796 278.843 248.02 278.725ZM240.32 282.812L245.589 280.015C245.813 279.896 245.8 279.697 245.559 279.569L239.467 276.335C239.227 276.208 238.85 276.201 238.626 276.319L233.359 279.115C233.135 279.235 233.148 279.434 233.389 279.561L239.48 282.795C239.719 282.923 240.096 282.931 240.32 282.812ZM232.619 286.899L237.888 284.103C238.112 283.985 238.099 283.785 237.858 283.657L231.766 280.424C231.526 280.296 231.149 280.289 230.926 280.407L225.658 283.204C225.434 283.322 225.447 283.522 225.687 283.649L231.78 286.882C232.02 287.011 232.395 287.019 232.619 286.899ZM270.523 257.54L275.79 254.743C276.014 254.625 276.001 254.425 275.761 254.297L269.669 251.064C269.428 250.936 269.053 250.929 268.829 251.047L263.56 253.844C263.336 253.963 263.349 254.163 263.589 254.29L269.682 257.524C269.922 257.653 270.299 257.659 270.523 257.54ZM263.42 270.55L275.172 264.311C275.396 264.192 275.382 263.993 275.142 263.866L260.347 256.012C260.107 255.885 259.73 255.878 259.506 255.996L253.427 259.223C253.203 259.343 253.217 259.541 253.457 259.67L261.29 263.827C261.53 263.955 261.543 264.155 261.319 264.273L256.457 266.854C256.233 266.973 256.246 267.173 256.486 267.3L262.578 270.534C262.82 270.662 263.196 270.669 263.42 270.55ZM224.057 265.574L218.788 268.371C218.564 268.49 218.577 268.69 218.819 268.817L224.911 272.051C225.151 272.179 225.527 272.186 225.752 272.067L231.021 269.271C231.244 269.152 231.231 268.953 230.99 268.824L224.899 265.59C224.657 265.463 224.281 265.456 224.057 265.574ZM216.357 269.662L211.088 272.458C210.864 272.577 210.878 272.777 211.118 272.905L217.209 276.138C217.449 276.266 217.826 276.273 218.05 276.155L223.318 273.357C223.541 273.239 223.528 273.038 223.288 272.912L217.196 269.678C216.957 269.55 216.581 269.543 216.357 269.662ZM177.879 315.495C178.12 315.623 178.495 315.63 178.72 315.511L183.989 312.714C184.213 312.596 184.2 312.395 183.96 312.267L177.867 309.034C177.627 308.906 177.25 308.899 177.027 309.017L171.759 311.814C171.535 311.933 171.548 312.132 171.788 312.26L177.879 315.495ZM154.756 302.361L149.487 305.157C149.264 305.276 149.277 305.475 149.517 305.603L155.609 308.837C155.849 308.964 156.226 308.972 156.45 308.853L161.719 306.057C161.943 305.938 161.93 305.738 161.688 305.611L155.596 302.378C155.357 302.249 154.981 302.241 154.756 302.361ZM167.149 311.951C167.39 312.079 167.766 312.086 167.99 311.967L173.259 309.17C173.483 309.052 173.469 308.852 173.229 308.724L167.137 305.49C166.897 305.363 166.522 305.356 166.297 305.474L161.029 308.27C160.805 308.39 160.818 308.589 161.058 308.716L167.149 311.951ZM191.475 317.979L196.744 315.183C196.968 315.064 196.955 314.865 196.714 314.737L190.622 311.503C190.382 311.376 190.005 311.369 189.781 311.488L184.513 314.284C184.291 314.403 184.303 314.603 184.544 314.73L190.636 317.963C190.875 318.091 191.251 318.099 191.475 317.979ZM182.934 322.05C183.175 322.178 183.551 322.185 183.774 322.066L189.043 319.269C189.267 319.151 189.254 318.951 189.013 318.824L182.921 315.59C182.681 315.462 182.305 315.455 182.08 315.574L176.811 318.371C176.588 318.489 176.601 318.689 176.842 318.816L182.934 322.05ZM162.457 298.274L157.188 301.07C156.964 301.189 156.977 301.388 157.219 301.516L163.31 304.749C163.55 304.877 163.927 304.884 164.151 304.765L169.419 301.968C169.643 301.85 169.629 301.65 169.389 301.523L163.297 298.289C163.057 298.161 162.681 298.154 162.457 298.274ZM200.957 277.836L195.688 280.632C195.465 280.752 195.477 280.951 195.718 281.078L201.811 284.312C202.051 284.44 202.427 284.447 202.651 284.328L207.92 281.531C208.144 281.412 208.131 281.213 207.891 281.085L201.799 277.851C201.556 277.725 201.181 277.718 200.957 277.836ZM170.157 294.186L164.888 296.982C164.664 297.101 164.677 297.301 164.917 297.428L171.01 300.662C171.25 300.79 171.627 300.798 171.851 300.678L177.118 297.882C177.342 297.763 177.329 297.564 177.088 297.436L170.997 294.202C170.757 294.074 170.381 294.067 170.157 294.186ZM208.656 273.749L203.389 276.546C203.165 276.665 203.178 276.864 203.419 276.992L209.511 280.226C209.752 280.353 210.127 280.361 210.352 280.242L215.621 277.446C215.845 277.326 215.832 277.127 215.592 277L209.499 273.766C209.257 273.637 208.88 273.63 208.656 273.749ZM193.257 281.924L187.988 284.721C187.764 284.839 187.777 285.039 188.018 285.166L194.11 288.399C194.35 288.527 194.727 288.535 194.951 288.415L200.219 285.619C200.442 285.501 200.429 285.301 200.189 285.173L194.097 281.94C193.858 281.812 193.481 281.805 193.257 281.924ZM185.557 286.011L180.29 288.808C180.066 288.926 180.079 289.126 180.319 289.254L186.411 292.488C186.652 292.615 187.028 292.622 187.252 292.504L192.521 289.708C192.744 289.588 192.731 289.388 192.49 289.261L186.399 286.027C186.157 285.899 185.78 285.892 185.557 286.011ZM177.858 290.099L172.589 292.895C172.365 293.015 172.378 293.214 172.618 293.342L178.71 296.576C178.951 296.703 179.327 296.71 179.551 296.592L184.82 293.795C185.044 293.676 185.031 293.476 184.79 293.348L178.697 290.115C178.457 289.987 178.081 289.98 177.858 290.099ZM217.22 295.074L222.489 292.277C222.713 292.158 222.7 291.957 222.459 291.831L216.367 288.597C216.127 288.47 215.75 288.463 215.526 288.581L210.257 291.377C210.033 291.497 210.047 291.695 210.288 291.824L216.38 295.058C216.619 295.186 216.996 295.193 217.22 295.074ZM284.846 233.306L279.579 236.103C279.355 236.221 279.369 236.421 279.608 236.549L285.7 239.783C285.941 239.91 286.317 239.917 286.541 239.799L291.81 237.003C292.034 236.883 292.02 236.684 291.781 236.556L285.688 233.322C285.447 233.194 285.07 233.187 284.846 233.306ZM275.525 238.254L270.256 241.051C270.032 241.169 270.045 241.369 270.286 241.496L276.378 244.73C276.618 244.858 276.995 244.865 277.219 244.746L282.488 241.95C282.711 241.831 282.698 241.631 282.458 241.503L276.366 238.27C276.126 238.142 275.749 238.135 275.525 238.254ZM292.546 229.219L287.278 232.015C287.054 232.133 287.067 232.333 287.308 232.461L293.4 235.695C293.64 235.823 294.017 235.83 294.24 235.711L299.509 232.915C299.732 232.796 299.719 232.596 299.479 232.468L293.388 229.235C293.147 229.107 292.771 229.1 292.546 229.219ZM252.69 267.006L257.959 264.21C258.183 264.09 258.17 263.892 257.929 263.763L251.837 260.529C251.597 260.402 251.22 260.395 250.997 260.513L245.728 263.31C245.504 263.429 245.517 263.629 245.757 263.756L251.849 266.99C252.091 267.117 252.466 267.125 252.69 267.006ZM301.087 225.147C300.846 225.02 300.47 225.013 300.246 225.131L294.978 227.927C294.754 228.047 294.767 228.246 295.007 228.373L301.1 231.607C301.34 231.735 301.717 231.742 301.939 231.623L307.208 228.826C307.432 228.707 307.419 228.508 307.179 228.38L301.087 225.147ZM224.92 290.987L230.187 288.19C230.411 288.071 230.398 287.872 230.157 287.745L224.065 284.511C223.824 284.383 223.449 284.376 223.224 284.495L217.955 287.292C217.731 287.41 217.744 287.61 217.984 287.738L224.075 290.972C224.319 291.099 224.696 291.105 224.92 290.987ZM319.346 240.863L324.615 238.067C324.839 237.948 324.826 237.747 324.585 237.62L318.493 234.387C318.253 234.26 317.876 234.253 317.652 234.371L312.384 237.167C312.161 237.286 312.174 237.485 312.414 237.614L318.506 240.848C318.746 240.974 319.122 240.981 319.346 240.863ZM302.944 240.331L308.213 237.534C308.437 237.415 308.424 237.215 308.182 237.088L302.09 233.854C301.85 233.726 301.473 233.719 301.25 233.838L295.981 236.634C295.758 236.754 295.771 236.952 296.011 237.081L302.103 240.315C302.343 240.442 302.72 240.449 302.944 240.331ZM309.79 229.767C309.55 229.639 309.173 229.632 308.949 229.751L303.68 232.548C303.457 232.666 303.469 232.866 303.711 232.994L309.803 236.227C310.043 236.355 310.42 236.362 310.643 236.243L315.912 233.447C316.135 233.328 316.122 233.129 315.882 233.002L309.79 229.767ZM311.411 228.906L326.206 236.76C326.446 236.887 326.822 236.894 327.047 236.776L332.314 233.979C332.538 233.86 332.525 233.661 332.285 233.533L317.489 225.679C317.249 225.552 316.872 225.545 316.649 225.663L311.381 228.459C311.157 228.579 311.17 228.779 311.411 228.906ZM293.55 237.926L288.282 240.722C288.058 240.841 288.071 241.041 288.311 241.168L294.404 244.401C294.644 244.529 295.02 244.537 295.244 244.417L300.512 241.621C300.736 241.501 300.723 241.303 300.483 241.174L294.39 237.94C294.149 237.814 293.773 237.807 293.55 237.926ZM235.597 268.688L230.328 271.485C230.104 271.603 230.117 271.803 230.358 271.931L236.45 275.165C236.69 275.292 237.067 275.299 237.291 275.181L242.56 272.384C242.784 272.265 242.769 272.066 242.529 271.939L236.438 268.705C236.197 268.576 235.821 268.569 235.597 268.688ZM310.806 244.934C311.047 245.062 311.423 245.069 311.647 244.95L316.916 242.154C317.139 242.035 317.127 241.836 316.886 241.708L310.793 238.474C310.553 238.347 310.176 238.34 309.954 238.458L304.685 241.255C304.461 241.374 304.474 241.574 304.714 241.701L310.806 244.934ZM243.297 264.601L238.028 267.398C237.804 267.517 237.818 267.716 238.059 267.843L244.15 271.077C244.39 271.205 244.766 271.212 244.991 271.093L250.259 268.296C250.483 268.178 250.47 267.978 250.23 267.85L244.138 264.617C243.896 264.489 243.521 264.482 243.297 264.601ZM185.579 311.408C185.819 311.535 186.196 311.543 186.42 311.424L191.689 308.628C191.912 308.508 191.9 308.31 191.658 308.182L185.566 304.948C185.326 304.821 184.95 304.814 184.726 304.932L179.457 307.729C179.234 307.848 179.247 308.048 179.487 308.175L185.579 311.408ZM173.996 301.387L168.727 304.184C168.504 304.303 168.517 304.502 168.758 304.63L174.85 307.864C175.09 307.991 175.467 307.998 175.691 307.88L180.96 305.084C181.184 304.964 181.171 304.765 180.931 304.637L174.838 301.403C174.597 301.276 174.22 301.269 173.996 301.387ZM194.12 307.336L199.389 304.54C199.612 304.421 199.599 304.221 199.359 304.094L193.267 300.861C193.027 300.733 192.65 300.725 192.426 300.845L187.157 303.641C186.934 303.759 186.946 303.959 187.188 304.087L193.28 307.321C193.519 307.447 193.896 307.455 194.12 307.336ZM201.819 303.249L207.088 300.453C207.312 300.334 207.299 300.135 207.059 300.008L200.967 296.774C200.727 296.646 200.351 296.639 200.126 296.758L194.858 299.554C194.634 299.673 194.647 299.872 194.888 300L200.981 303.233C201.219 303.361 201.596 303.368 201.819 303.249ZM209.519 299.161L214.788 296.365C215.012 296.246 214.999 296.047 214.758 295.918L208.666 292.684C208.426 292.557 208.05 292.55 207.825 292.669L202.558 295.465C202.334 295.584 202.347 295.785 202.587 295.911L208.678 299.145C208.92 299.274 209.295 299.281 209.519 299.161ZM181.696 297.3L176.428 300.096C176.204 300.214 176.217 300.414 176.458 300.543L182.55 303.776C182.79 303.903 183.166 303.91 183.391 303.792L188.66 300.995C188.884 300.877 188.87 300.676 188.63 300.549L182.538 297.315C182.297 297.188 181.921 297.181 181.696 297.3ZM189.397 293.212L184.128 296.009C183.904 296.128 183.917 296.327 184.157 296.454L190.25 299.688C190.49 299.816 190.867 299.823 191.09 299.704L196.359 296.907C196.582 296.789 196.57 296.589 196.329 296.461L190.237 293.228C189.996 293.101 189.621 293.094 189.397 293.212ZM220.197 276.863L214.928 279.659C214.704 279.779 214.717 279.978 214.958 280.106L221.051 283.339C221.291 283.467 221.666 283.474 221.891 283.355L227.159 280.559C227.383 280.441 227.37 280.24 227.13 280.112L221.037 276.879C220.796 276.751 220.421 276.744 220.197 276.863ZM212.497 280.951L207.228 283.748C207.004 283.866 207.017 284.067 207.258 284.194L213.349 287.427C213.589 287.555 213.966 287.562 214.19 287.443L219.458 284.647C219.682 284.528 219.669 284.329 219.429 284.201L213.337 280.967C213.096 280.838 212.721 280.831 212.497 280.951ZM227.896 272.775L222.627 275.571C222.404 275.691 222.417 275.889 222.657 276.017L228.748 279.251C228.988 279.378 229.365 279.385 229.589 279.267L234.858 276.47C235.082 276.351 235.069 276.152 234.827 276.024L228.735 272.79C228.497 272.664 228.12 272.657 227.896 272.775ZM197.096 289.125L191.828 291.922C191.604 292.041 191.617 292.241 191.857 292.368L197.949 295.602C198.19 295.73 198.565 295.737 198.79 295.618L204.059 292.822C204.283 292.702 204.27 292.504 204.03 292.376L197.937 289.143C197.697 289.014 197.32 289.006 197.096 289.125ZM204.796 285.038L199.527 287.834C199.303 287.954 199.317 288.152 199.558 288.28L205.65 291.514C205.89 291.641 206.266 291.648 206.49 291.53L211.758 288.733C211.982 288.614 211.968 288.414 211.728 288.287L205.636 285.053C205.397 284.925 205.02 284.919 204.796 285.038ZM199.175 313.892L204.442 311.095C204.666 310.976 204.653 310.776 204.413 310.649L198.321 307.415C198.08 307.288 197.705 307.281 197.48 307.399L192.212 310.195C191.988 310.315 192.001 310.514 192.241 310.642L198.333 313.876C198.575 314.003 198.951 314.01 199.175 313.892ZM153.99 309.697L147.898 306.463C147.657 306.336 147.282 306.329 147.057 306.447L141.789 309.244C141.565 309.363 141.578 309.563 141.818 309.69L147.911 312.924C148.151 313.052 148.528 313.059 148.751 312.94L154.019 310.144C154.243 310.024 154.229 309.826 153.99 309.697ZM165.529 312.812L159.437 309.578C159.196 309.45 158.821 309.442 158.596 309.562L150.491 313.864C150.267 313.982 150.28 314.182 150.522 314.31L156.614 317.542C156.854 317.67 157.23 317.678 157.455 317.558L165.56 313.256C165.782 313.139 165.769 312.939 165.529 312.812ZM144.642 303.445L138.551 300.211C138.311 300.084 137.935 300.076 137.71 300.195L131.226 303.637C131.002 303.755 131.015 303.956 131.257 304.083L137.348 307.317C137.588 307.444 137.965 307.451 138.189 307.333L144.673 303.891C144.897 303.774 144.883 303.573 144.642 303.445ZM149.614 300.807C149.854 300.934 150.23 300.941 150.454 300.823L155.722 298.026C155.946 297.907 155.932 297.707 155.692 297.58L149.6 294.346C149.36 294.218 148.983 294.211 148.759 294.33L143.491 297.126C143.267 297.246 143.281 297.444 143.521 297.572L149.614 300.807ZM176.258 316.356L170.166 313.122C169.925 312.994 169.549 312.987 169.325 313.107L159.193 318.484C158.969 318.604 158.982 318.802 159.224 318.93L165.315 322.164C165.555 322.291 165.931 322.298 166.156 322.18L176.287 316.801C176.512 316.683 176.498 316.483 176.258 316.356ZM181.314 322.911L175.222 319.678C174.982 319.55 174.606 319.542 174.382 319.662L167.898 323.104C167.674 323.222 167.687 323.423 167.927 323.549L174.019 326.783C174.259 326.911 174.636 326.918 174.86 326.799L181.344 323.358C181.567 323.239 181.553 323.038 181.314 322.911ZM206.864 270.417C207.105 270.544 207.48 270.551 207.704 270.433L212.972 267.636C213.196 267.517 213.183 267.317 212.943 267.19L206.85 263.956C206.61 263.828 206.233 263.821 206.009 263.94L200.742 266.736C200.518 266.855 200.531 267.054 200.771 267.182L206.864 270.417ZM191.464 278.592C191.704 278.72 192.081 278.727 192.305 278.608L197.574 275.811C197.798 275.693 197.784 275.493 197.543 275.365L191.451 272.131C191.211 272.004 190.835 271.997 190.61 272.115L185.341 274.912C185.117 275.031 185.13 275.23 185.371 275.358L191.464 278.592ZM157.314 296.719C157.554 296.847 157.931 296.855 158.155 296.736L163.424 293.939C163.647 293.821 163.634 293.621 163.394 293.494L157.302 290.26C157.062 290.132 156.686 290.125 156.461 290.244L151.192 293.04C150.968 293.158 150.981 293.358 151.222 293.486L157.314 296.719ZM199.164 274.504C199.404 274.631 199.781 274.639 200.004 274.52L205.273 271.724C205.497 271.605 205.483 271.406 205.243 271.278L199.152 268.044C198.911 267.917 198.536 267.91 198.311 268.028L193.043 270.824C192.819 270.943 192.832 271.143 193.072 271.27L199.164 274.504ZM183.764 282.68C184.005 282.807 184.381 282.814 184.605 282.695L189.873 279.898C190.097 279.78 190.084 279.579 189.843 279.452L183.752 276.218C183.512 276.09 183.135 276.083 182.911 276.202L177.643 278.998C177.419 279.117 177.432 279.316 177.673 279.445L183.764 282.68ZM185.545 323.437C185.305 323.309 184.928 323.301 184.704 323.421L176.6 327.723C176.376 327.841 176.389 328.041 176.629 328.169L182.721 331.403C182.962 331.53 183.337 331.537 183.562 331.419L191.667 327.117C191.891 326.998 191.878 326.798 191.636 326.671L185.545 323.437ZM172.714 288.545C172.955 288.672 173.33 288.679 173.555 288.561L178.824 285.765C179.048 285.645 179.035 285.447 178.795 285.318L172.702 282.084C172.462 281.957 172.085 281.95 171.861 282.068L166.593 284.865C166.369 284.984 166.382 285.183 166.622 285.311L172.714 288.545ZM165.014 292.632C165.254 292.76 165.631 292.767 165.854 292.648L171.122 289.851C171.346 289.733 171.333 289.533 171.093 289.405L165 286.171C164.76 286.044 164.383 286.037 164.16 286.155L158.891 288.951C158.667 289.071 158.68 289.27 158.921 289.397L165.014 292.632ZM328.199 247.713C327.958 247.586 327.582 247.579 327.358 247.697L314.39 254.582C314.167 254.7 314.18 254.9 314.42 255.028L320.512 258.262C320.752 258.39 321.128 258.397 321.353 258.278L334.322 251.394C334.545 251.275 334.532 251.076 334.292 250.948L328.199 247.713ZM311.178 256.748C310.937 256.621 310.562 256.614 310.337 256.732L305.068 259.528C304.844 259.648 304.858 259.847 305.099 259.975L311.19 263.209C311.43 263.336 311.807 263.343 312.031 263.224L317.298 260.428C317.522 260.309 317.509 260.11 317.268 259.982L311.178 256.748ZM206.875 309.805L212.144 307.008C212.368 306.889 212.355 306.69 212.114 306.562L206.021 303.328C205.781 303.2 205.406 303.193 205.181 303.312L199.913 306.109C199.689 306.227 199.702 306.427 199.942 306.555L206.035 309.789C206.275 309.916 206.651 309.923 206.875 309.805ZM295.777 264.923C295.537 264.795 295.16 264.788 294.936 264.907L289.667 267.703C289.444 267.822 289.457 268.022 289.698 268.15L295.79 271.383C296.031 271.511 296.407 271.518 296.631 271.4L301.9 268.602C302.124 268.484 302.111 268.284 301.871 268.157L295.777 264.923ZM335.898 243.626C335.658 243.498 335.281 243.491 335.058 243.61L329.789 246.407C329.566 246.525 329.578 246.725 329.819 246.853L335.911 250.087C336.152 250.214 336.529 250.221 336.752 250.103L342.021 247.307C342.245 247.187 342.232 246.988 341.992 246.861L335.898 243.626ZM349.69 242.773L334.895 234.918C334.655 234.791 334.278 234.784 334.054 234.902L328.785 237.699C328.561 237.818 328.574 238.018 328.816 238.145L343.61 245.999C343.85 246.127 344.227 246.134 344.451 246.015L349.72 243.218C349.944 243.1 349.931 242.9 349.69 242.773ZM267.003 280.197C266.763 280.069 266.386 280.062 266.163 280.181L259.679 283.622C259.455 283.741 259.468 283.941 259.708 284.069L265.801 287.303C266.041 287.43 266.418 287.437 266.642 287.319L273.126 283.877C273.35 283.759 273.337 283.558 273.096 283.432L267.003 280.197ZM286.456 269.87C286.216 269.743 285.839 269.736 285.615 269.854L277.509 274.158C277.285 274.276 277.3 274.476 277.539 274.603L283.631 277.837C283.871 277.965 284.247 277.972 284.472 277.853L292.577 273.551C292.8 273.433 292.787 273.233 292.547 273.105L286.456 269.87ZM249.172 289.662C248.932 289.535 248.555 289.528 248.331 289.646L204.968 312.665C204.744 312.783 204.757 312.983 204.997 313.111L211.089 316.345C211.33 316.472 211.705 316.48 211.93 316.361L255.294 293.343C255.517 293.224 255.504 293.024 255.264 292.896L249.172 289.662ZM203.378 313.971C203.137 313.844 202.761 313.837 202.537 313.955L196.053 317.397C195.829 317.515 195.842 317.715 196.083 317.844L202.175 321.077C202.416 321.205 202.792 321.212 203.016 321.093L209.501 317.651C209.723 317.532 209.711 317.333 209.47 317.205L203.378 313.971ZM258.088 284.929C257.848 284.802 257.472 284.795 257.247 284.913L250.763 288.355C250.539 288.475 250.552 288.673 250.792 288.802L256.885 292.035C257.125 292.163 257.502 292.17 257.725 292.051L264.21 288.608C264.434 288.49 264.42 288.29 264.179 288.162L258.088 284.929ZM194.461 318.704C194.221 318.577 193.846 318.569 193.621 318.688L187.136 322.13C186.912 322.249 186.927 322.448 187.167 322.575L193.258 325.809C193.498 325.937 193.874 325.944 194.099 325.825L200.583 322.384C200.807 322.264 200.794 322.065 200.554 321.937L194.461 318.704ZM275.919 275.465C275.679 275.337 275.303 275.329 275.078 275.449L268.594 278.89C268.371 279.009 268.383 279.209 268.625 279.336L274.717 282.57C274.957 282.698 275.334 282.705 275.557 282.586L282.041 279.144C282.265 279.026 282.252 278.826 282.01 278.699L275.919 275.465ZM303.477 260.835C303.237 260.708 302.86 260.701 302.636 260.819L297.368 263.617C297.144 263.735 297.158 263.935 297.399 264.062L303.49 267.296C303.73 267.424 304.107 267.431 304.331 267.312L309.6 264.516C309.824 264.397 309.809 264.198 309.57 264.069L303.477 260.835ZM320.348 249.57L325.616 246.773C325.84 246.654 325.827 246.454 325.587 246.327L319.494 243.093C319.254 242.965 318.877 242.958 318.654 243.077L313.385 245.873C313.162 245.991 313.174 246.191 313.415 246.32L319.508 249.554C319.749 249.682 320.126 249.689 320.348 249.57ZM285.922 249.366L291.19 246.57C291.414 246.451 291.4 246.251 291.16 246.123L285.068 242.89C284.828 242.762 284.452 242.754 284.227 242.874L278.958 245.67C278.734 245.79 278.747 245.988 278.989 246.116L285.08 249.349C285.322 249.477 285.698 249.485 285.922 249.366ZM268.475 277.105L283.876 268.931C284.099 268.812 284.086 268.612 283.845 268.485L277.753 265.251C277.512 265.124 277.137 265.117 276.912 265.235L261.511 273.41C261.288 273.528 261.301 273.728 261.541 273.855L267.632 277.088C267.876 277.218 268.251 277.225 268.475 277.105ZM311.809 253.642C312.049 253.769 312.426 253.776 312.649 253.658L317.918 250.862C318.141 250.742 318.128 250.543 317.888 250.415L311.796 247.181C311.556 247.054 311.179 247.047 310.956 247.165L305.687 249.962C305.463 250.081 305.477 250.28 305.717 250.408L311.809 253.642ZM303.947 249.037L309.215 246.24C309.438 246.122 309.426 245.922 309.185 245.795L303.094 242.561C302.853 242.433 302.477 242.426 302.253 242.545L296.984 245.341C296.76 245.46 296.773 245.659 297.013 245.787L303.106 249.02C303.346 249.15 303.723 249.156 303.947 249.037ZM260.775 281.194L266.044 278.396C266.268 278.278 266.255 278.078 266.015 277.951L259.923 274.717C259.682 274.589 259.306 274.582 259.082 274.701L253.813 277.498C253.589 277.616 253.602 277.816 253.843 277.944L259.936 281.178C260.175 281.305 260.552 281.312 260.775 281.194ZM294.787 262.677C295.027 262.804 295.404 262.811 295.628 262.693L300.895 259.896C301.119 259.777 301.106 259.577 300.866 259.45L294.774 256.216C294.533 256.089 294.157 256.082 293.933 256.2L288.664 258.996C288.44 259.116 288.453 259.314 288.693 259.442L294.787 262.677ZM222.276 301.63L227.544 298.833C227.767 298.714 227.754 298.515 227.514 298.387L221.422 295.153C221.182 295.026 220.806 295.019 220.581 295.137L215.313 297.934C215.089 298.053 215.102 298.253 215.343 298.38L221.435 301.614C221.675 301.741 222.051 301.748 222.276 301.63ZM229.976 297.543L235.244 294.747C235.468 294.627 235.455 294.428 235.214 294.301L229.122 291.067C228.881 290.939 228.506 290.932 228.282 291.052L223.013 293.848C222.789 293.966 222.802 294.166 223.042 294.294L229.135 297.528C229.375 297.654 229.752 297.661 229.976 297.543ZM214.575 305.717L219.844 302.921C220.068 302.803 220.055 302.603 219.814 302.475L213.722 299.242C213.482 299.114 213.105 299.106 212.881 299.225L207.614 302.022C207.39 302.14 207.403 302.34 207.643 302.467L213.735 305.701C213.976 305.829 214.351 305.836 214.575 305.717ZM245.375 289.368L250.644 286.572C250.868 286.453 250.855 286.253 250.614 286.125L244.522 282.891C244.282 282.764 243.905 282.757 243.681 282.875L238.412 285.672C238.188 285.791 238.202 285.991 238.442 286.118L244.534 289.352C244.775 289.48 245.151 289.487 245.375 289.368ZM237.675 293.454L242.943 290.658C243.167 290.54 243.154 290.34 242.914 290.213L236.821 286.979C236.581 286.851 236.204 286.844 235.98 286.963L230.712 289.759C230.488 289.878 230.501 290.078 230.742 290.205L236.834 293.439C237.075 293.567 237.451 293.574 237.675 293.454ZM253.075 285.28L258.343 282.484C258.567 282.365 258.554 282.165 258.314 282.038L252.222 278.804C251.981 278.677 251.605 278.669 251.381 278.788L246.112 281.584C245.888 281.703 245.902 281.902 246.143 282.03L252.234 285.264C252.475 285.392 252.851 285.399 253.075 285.28ZM288.302 224.815C288.543 224.942 288.919 224.95 289.143 224.831L294.412 222.034C294.636 221.915 294.623 221.716 294.383 221.588L292.761 220.727C292.521 220.599 292.144 220.592 291.92 220.711L286.652 223.508C286.43 223.626 286.442 223.826 286.683 223.954L288.302 224.815ZM250.417 247.298C250.656 247.425 251.033 247.433 251.257 247.314L256.526 244.517C256.75 244.399 256.737 244.199 256.497 244.072L250.406 240.838C250.165 240.709 249.789 240.702 249.565 240.822L244.297 243.619C244.073 243.737 244.086 243.937 244.327 244.065L250.417 247.298ZM265.817 239.123C266.057 239.25 266.433 239.258 266.657 239.139L271.926 236.343C272.15 236.223 272.137 236.025 271.896 235.896L265.804 232.662C265.564 232.535 265.187 232.528 264.963 232.646L259.694 235.443C259.472 235.562 259.484 235.763 259.725 235.889L265.817 239.123ZM241.015 252.289C241.255 252.417 241.63 252.424 241.855 252.305L247.124 249.509C247.348 249.391 247.335 249.191 247.094 249.064L241.001 245.83C240.761 245.702 240.384 245.695 240.161 245.815L234.892 248.611C234.668 248.729 234.681 248.929 234.921 249.058L241.015 252.289ZM258.116 243.211C258.357 243.339 258.733 243.346 258.957 243.227L264.225 240.43C264.448 240.312 264.436 240.112 264.194 239.984L258.102 236.751C257.862 236.623 257.486 236.616 257.262 236.734L251.993 239.531C251.77 239.65 251.783 239.849 252.023 239.976L258.116 243.211ZM225.614 260.464C225.854 260.591 226.23 260.599 226.455 260.479L231.723 257.683C231.947 257.564 231.933 257.365 231.693 257.236L225.601 254.002C225.361 253.875 224.984 253.868 224.76 253.986L219.491 256.782C219.267 256.902 219.282 257.102 219.522 257.229L225.614 260.464ZM233.314 256.377C233.554 256.504 233.931 256.511 234.155 256.393L239.424 253.596C239.647 253.477 239.634 253.277 239.393 253.15L233.302 249.916C233.062 249.788 232.685 249.781 232.461 249.9L227.193 252.696C226.969 252.816 226.982 253.014 227.223 253.143L233.314 256.377ZM272.902 232.99C273.142 233.117 273.519 233.124 273.743 233.006L279.012 230.208C279.236 230.09 279.223 229.89 278.982 229.763L277.361 228.902C277.12 228.775 276.745 228.768 276.521 228.886L271.252 231.683C271.028 231.802 271.041 232.002 271.281 232.129L272.902 232.99ZM296.002 220.727C296.242 220.854 296.619 220.862 296.843 220.743L302.112 217.947C302.336 217.827 302.323 217.628 302.081 217.501L300.46 216.639C300.219 216.512 299.843 216.505 299.619 216.624L294.35 219.42C294.126 219.539 294.139 219.74 294.379 219.867L296.002 220.727ZM308.799 227.52C309.04 227.647 309.416 227.654 309.64 227.536L314.909 224.74C315.133 224.62 315.12 224.421 314.88 224.294L308.787 221.06C308.547 220.932 308.17 220.925 307.947 221.044L302.678 223.841C302.454 223.96 302.467 224.159 302.707 224.287L308.799 227.52ZM328.049 245.482L333.318 242.685C333.542 242.567 333.529 242.367 333.289 242.239L327.196 239.006C326.956 238.878 326.579 238.871 326.355 238.989L321.088 241.786C320.864 241.905 320.877 242.104 321.118 242.231L327.209 245.465C327.449 245.595 327.825 245.601 328.049 245.482ZM280.603 228.901C280.843 229.029 281.219 229.037 281.444 228.917L286.713 226.121C286.936 226.003 286.923 225.803 286.683 225.675L285.061 224.815C284.821 224.687 284.444 224.68 284.221 224.799L278.952 227.595C278.729 227.715 278.741 227.913 278.982 228.041L280.603 228.901ZM217.914 264.551C218.155 264.679 218.531 264.686 218.755 264.567L224.024 261.771C224.248 261.652 224.235 261.453 223.995 261.325L217.902 258.092C217.662 257.964 217.285 257.957 217.062 258.075L211.793 260.873C211.57 260.991 211.582 261.191 211.823 261.318L217.914 264.551Z" fill="#455A64"/>
<path d="M252.06 307.05L304.05 279.452C305.617 278.62 308.157 278.62 309.724 279.452L339.537 295.277C341.104 296.108 341.104 297.456 339.537 298.289L287.546 325.887C285.979 326.718 283.439 326.718 281.872 325.887L252.06 310.062C250.493 309.229 250.493 307.881 252.06 307.05Z" fill="#262A2A"/>
<path d="M347.669 174.333C347.669 174.323 347.68 174.323 347.68 174.323L347.614 174.283L338.738 169.583C338.225 169.372 337.472 169.572 336.565 170.205C328.305 176.017 317.205 177.818 308.129 175.164C307.549 174.667 306.992 174.142 306.468 173.58C306.413 173.52 306.358 173.46 306.304 173.41H306.293C305.987 173.099 305.681 172.868 305.376 172.717L305.223 172.637L296.336 167.946C295.32 167.504 294.403 167.946 293.792 169.332C285.209 188.94 266.918 208.809 254.72 213.779C253.814 214.15 252.973 214.722 252.317 215.425C251.455 216.339 250.92 217.463 250.963 218.638L252.722 262.663C252.722 275.384 258.564 288.818 270.477 295.354L279.67 300.235L279.834 300.315C284.398 302.715 289.826 304.12 296.126 304.12C297.404 304.12 298.703 304.07 300.047 303.95C302.296 303.749 305.419 302.253 306.992 300.757C333.647 275.446 346.609 241.19 346.609 222.234L348.368 176.181C348.411 175.187 348.149 174.574 347.669 174.333Z" fill="#F26522"/>
<path d="M348.367 176.184L346.609 222.237C346.609 241.193 333.647 275.449 306.991 300.76C305.419 302.256 302.295 303.752 300.046 303.953C298.703 304.073 297.403 304.124 296.126 304.124C289.825 304.124 284.398 302.718 279.833 300.318L279.669 300.238L279.352 300.057C267.439 293.521 261.597 280.088 261.597 267.367L259.838 223.342C259.795 222.167 260.33 221.043 261.193 220.129C261.848 219.426 262.689 218.854 263.595 218.482C275.793 213.513 294.084 193.643 302.667 174.035C303.278 172.65 304.206 172.198 305.222 172.64L305.375 172.72C305.681 172.871 305.986 173.102 306.292 173.413H306.303C306.358 173.463 306.412 173.523 306.467 173.584C315.574 183.332 333.483 183.322 345.44 174.909C346.347 174.276 347.1 174.075 347.613 174.286L347.679 174.326C347.679 174.326 347.668 174.326 347.668 174.337C348.148 174.577 348.411 175.19 348.367 176.184Z" fill="#F26522"/>
<path opacity="0.4" d="M347.617 174.279C347.104 174.069 346.351 174.269 345.444 174.902C334.186 182.823 317.642 183.295 308.152 175.163C317.227 177.823 328.311 176.016 336.566 170.203C337.473 169.571 338.226 169.37 338.739 169.581L347.617 174.279Z" fill="white"/>
<path opacity="0.4" d="M305.227 172.635C304.211 172.193 303.283 172.645 302.671 174.03C294.088 193.638 275.797 213.507 263.6 218.477C262.693 218.849 261.853 219.421 261.197 220.124C260.968 220.365 260.761 220.626 260.586 220.897L251.719 216.188C251.893 215.927 252.09 215.666 252.319 215.425C252.439 215.295 252.571 215.174 252.712 215.054L252.723 215.044C252.778 215.003 252.822 214.953 252.876 214.903C252.931 214.863 252.975 214.823 253.029 214.773C253.531 214.371 254.11 214.02 254.722 213.779C266.919 208.809 285.21 188.94 293.794 169.332C294.405 167.946 295.322 167.504 296.338 167.946L305.227 172.635Z" fill="white"/>
<path d="M252.724 215.037C252.768 214.987 252.822 214.946 252.877 214.906C252.822 214.956 252.779 215.007 252.724 215.047C252.724 215.047 252.712 215.037 252.724 215.037Z" fill="#F26522"/>
<path opacity="0.15" d="M252.876 214.906C252.822 214.956 252.778 215.007 252.724 215.047C252.724 215.047 252.713 215.037 252.724 215.037C252.766 214.987 252.821 214.946 252.876 214.906Z" fill="black"/>
<path opacity="0.15" d="M279.838 300.313L279.674 300.242L270.479 295.353C258.566 288.817 252.724 275.383 252.724 262.663L250.965 218.637C250.933 217.774 251.217 216.93 251.719 216.188L260.586 220.896C260.095 221.639 259.811 222.473 259.843 223.336L261.602 267.361C261.602 280.082 267.444 293.516 279.357 300.052L279.674 300.232L279.838 300.313Z" fill="black"/>
<path d="M311.201 259.806L297.01 267.339L299.209 243.736C297.511 242.911 296.43 240.881 296.43 237.965C296.43 232.768 299.866 226.73 304.106 224.48C308.346 222.23 311.782 224.618 311.782 229.816C311.782 232.731 310.7 235.91 309.003 238.538L311.201 259.806Z" fill="#455A64"/>
<path d="M311.201 259.808L298.347 252.984L297.01 267.342L311.201 259.808Z" fill="#323737"/>
<path d="M304.105 224.48C301.331 225.952 298.908 229.048 297.559 232.466L309.002 238.541V238.538C310.7 235.91 311.781 232.731 311.781 229.816C311.781 224.618 308.343 222.23 304.105 224.48Z" fill="#323737"/>
<path d="M126.582 396.917V400.841C126.565 405.453 129.869 410.067 136.497 413.585C146.479 418.883 161.14 420.175 173.416 417.473L184.817 423.526L193.577 421.704L199.556 424.878L199.883 431.521L203.103 433.231L211.192 433.885L217.006 436.867V440.612L224.302 444.484H242.855L249.505 440.956V436.995L190.167 409.459C192.9 406.793 194.271 403.837 194.277 400.882V396.916C193.385 393.086 189.915 391.11 184.374 388.17C171.153 381.152 149.718 381.152 136.497 388.17C130.554 391.326 127.182 392.791 126.582 396.917ZM144.756 392.332C148.502 390.344 154.573 390.344 158.319 392.332C162.064 394.32 162.064 397.544 158.319 399.532C154.573 401.52 148.502 401.52 144.756 399.532C141.011 397.544 141.011 394.32 144.756 392.332Z" fill="#F26522"/>
<path opacity="0.1" d="M126.582 396.917V400.841C126.565 405.453 129.869 410.067 136.497 413.585C146.479 418.883 161.14 420.175 173.416 417.473L184.817 423.526L193.577 421.704L199.556 424.878L199.883 431.521L203.103 433.231L211.192 433.885L217.006 436.867V440.612L224.302 444.484H242.855L249.505 440.956V436.995L190.167 409.459C192.9 406.793 194.271 403.837 194.277 400.882V396.916C193.385 393.086 189.915 391.11 184.374 388.17C171.153 381.152 149.718 381.152 136.497 388.17C130.554 391.326 127.182 392.791 126.582 396.917ZM144.756 392.332C148.502 390.344 154.573 390.344 158.319 392.332C162.064 394.32 162.064 397.544 158.319 399.532C154.573 401.52 148.502 401.52 144.756 399.532C141.011 397.544 141.011 394.32 144.756 392.332Z" fill="black"/>
<path d="M136.498 409.623C146.48 414.921 161.14 416.213 173.416 413.512L184.818 419.564L193.578 417.743L199.556 420.917L199.883 427.561L203.103 429.27L211.193 429.924L217.5 433.16L217.006 436.651L224.302 440.523H242.855L249.505 436.995L190.167 405.498C197.156 398.681 195.237 389.976 184.374 384.209C171.153 377.191 149.719 377.191 136.498 384.209C123.277 391.226 123.277 402.605 136.498 409.623ZM144.756 388.37C148.502 386.382 154.574 386.382 158.319 388.37C162.065 390.358 162.065 393.582 158.319 395.57C154.574 397.558 148.502 397.558 144.756 395.57C141.011 393.581 141.011 390.358 144.756 388.37Z" fill="#F26522"/>
<path opacity="0.3" d="M160.435 411.435C152.042 411.435 144.207 409.731 138.372 406.634C133.262 403.92 130.332 400.377 130.332 396.912C130.332 393.448 133.263 389.905 138.372 387.192C144.207 384.095 152.043 382.391 160.436 382.391C168.829 382.391 176.664 384.095 182.499 387.192C187.609 389.906 190.539 393.449 190.539 396.913C190.539 400.378 187.609 403.921 182.5 406.634C176.663 409.731 168.828 411.435 160.435 411.435ZM160.435 383.77C152.302 383.77 144.732 385.41 139.122 388.386C134.489 390.846 131.831 393.954 131.831 396.912C131.831 399.871 134.489 402.979 139.122 405.439C144.731 408.416 152.301 410.056 160.434 410.056C168.567 410.056 176.136 408.416 181.747 405.439C186.379 402.98 189.036 399.872 189.036 396.913C189.036 393.955 186.379 390.847 181.746 388.386C176.138 385.41 168.569 383.77 160.435 383.77Z" fill="black"/>
<path opacity="0.1" d="M148.252 413.673V417.633C156.339 419.289 165.388 419.234 173.416 417.468V413.508C165.389 415.274 156.34 415.329 148.252 413.673Z" fill="black"/>
<path opacity="0.1" d="M184.818 419.563V423.524L193.578 421.704V417.742L184.818 419.563Z" fill="black"/>
<path opacity="0.1" d="M199.557 420.914V424.876L199.883 431.519V427.559L199.557 420.914Z" fill="black"/>
<path opacity="0.1" d="M203.104 429.273V433.234L211.193 433.888V429.926L203.104 429.273Z" fill="black"/>
<path opacity="0.1" d="M242.856 440.523H224.303V444.484H242.856V440.523Z" fill="black"/>
<path opacity="0.15" d="M249.506 436.992V440.953L242.855 444.481V440.52L245.77 438.973V440.683L247.379 439.829V438.102L249.506 436.992Z" fill="black"/>
<path d="M247.378 438.102L245.77 438.973V440.683L247.378 439.829V438.102Z" fill="#F26522"/>
<path opacity="0.15" d="M247.379 438.106V439.833L186.527 407.528L188.136 406.656L247.379 438.106Z" fill="black"/>
<path opacity="0.15" d="M188.136 406.656V408.384L186.527 407.528L188.136 406.656Z" fill="black"/>
<path d="M452.669 289.715C453.434 263.566 451.154 257.299 443.582 252.508L440.649 267.66C440.649 267.66 444.099 285.516 443.729 291.463C443.403 296.688 442.851 303.224 441.506 307.448C441.268 308.196 440.719 308.825 440.001 309.239C438.072 310.348 437.295 311.486 435.842 312.884C434.705 313.979 433.737 314.251 433.886 314.599C434.079 315.047 434.89 315.771 436.283 315.38C436.984 315.184 437.89 314.68 439.019 314.016C439.019 314.016 438.212 316.195 436.217 318.443C433.513 321.491 433.394 323.363 438.853 323.407C442.274 323.435 445.003 321.496 447.577 314.565C448.318 312.569 449.479 309.417 449.981 306.783C451.29 299.924 452.545 293.924 452.669 289.715Z" fill="#B16668"/>
<path d="M437.213 250.518C440.827 250.036 445.74 250.733 448.914 255.952C452.087 261.17 452.866 270.147 453.227 279.074C453.227 279.074 446.923 283.921 439.361 281.537L437.213 250.518Z" fill="#F26522"/>
<path opacity="0.7" d="M437.213 250.518C440.827 250.036 445.74 250.733 448.914 255.952C452.087 261.17 452.866 270.147 453.227 279.074C453.227 279.074 446.923 283.921 439.361 281.537L437.213 250.518Z" fill="black"/>
<path d="M447.847 394.347C448.421 394.547 448.565 395.552 448.652 397.55C448.718 399.063 449.071 401.702 447.144 402.229C445.218 402.756 442.395 402.487 441.161 401.061C439.621 399.282 438.579 397.716 436.379 395.545C434.472 393.663 432.408 391.905 431.638 389.264C430.942 386.878 431.521 385.843 433.292 385.149C435.728 384.195 439.553 387.313 441.461 387.804C443.104 388.226 447.273 394.147 447.847 394.347Z" fill="#262A2A"/>
<path d="M447.846 392.49V394.944C447.846 394.944 445.072 396.904 441.102 395.112C440.985 394.875 440.402 391.602 440.402 391.602L447.846 392.49Z" fill="#B16668"/>
<path d="M426.233 408.484C426.233 408.484 426.999 410.619 427.412 412.484C427.739 413.967 428.21 416.447 427.644 417.564C427.079 418.679 424.875 419.4 421.458 419.376C419.245 419.361 415.796 420.742 413.435 421.953C410.997 423.204 405.924 423.703 403.344 423.424C400.304 423.096 397.155 421.475 396.663 420.318C396.172 419.16 396.825 417.958 403.988 415.151C404.054 415.125 413.947 412.167 417.414 408.65L426.233 408.484Z" fill="#262A2A"/>
<path d="M426.235 405.836C426.235 405.836 426.225 407.657 426.235 408.697C426.245 409.737 424.908 411.289 421.448 411.175C419.018 411.096 417.322 410.495 417.418 408.654V406.002L426.235 405.836Z" fill="#B16668"/>
<path d="M449.582 359.931C448.36 351.914 446.43 347.152 446.43 347.152C446.43 347.152 447.383 336.127 447.84 325.673C448.334 314.382 447.814 300.188 448.048 297.371C448.048 297.371 408.419 289.999 407.711 303.052C407.005 316.105 409.275 349.331 409.745 355.065C410.213 360.799 411.291 365.87 412.579 375.164C413.851 384.337 417.416 405.997 417.416 405.997C421.943 408.247 426.233 405.831 426.233 405.831C426.233 405.831 429.022 379.732 428.729 373.116C428.372 365.037 426 358.674 426 358.674C426 358.674 426.751 347.911 427.415 338.55C428.078 329.189 428.781 324.692 428.935 320.62L429.788 320.231C429.788 320.231 430.658 336.382 431.126 342.116C431.594 347.85 432.586 353.348 434.391 364C435.956 373.239 440.618 392.788 440.618 392.788C445.145 395.038 447.846 392.494 447.846 392.494C447.846 392.494 450.804 367.948 449.582 359.931Z" fill="#323737"/>
<path d="M428.936 320.62C428.936 320.62 438.548 316.265 443.361 312.336C443.361 312.336 438.893 318.124 433.028 320.689C433.028 320.689 430.943 340.752 430.954 340.355L429.749 320.59L428.936 320.62Z" fill="#262A2A"/>
<path d="M420.379 246.384L422.723 258.25L434.382 257.467L431.933 244.016L420.379 246.384Z" fill="#B16668"/>
<path d="M446.695 256.606C445.541 253.379 441.089 249.868 436.633 250.628C428.449 252.026 421.957 253.521 417.124 255.108C413.045 256.448 409.329 259.688 408.992 272.024C408.992 272.024 407.626 300.78 407.602 306.342C417.843 310.068 428.496 309.954 434.384 308.771C446.641 306.309 448.119 301.635 448.119 301.635C448.119 301.635 448.277 280.955 447.911 272.025C447.597 264.436 447.488 258.822 446.695 256.606Z" fill="#F26522"/>
<g opacity="0.15">
<path d="M446.695 256.606C445.541 253.379 441.089 249.868 436.633 250.628C428.449 252.026 421.957 253.521 417.124 255.108C413.045 256.448 409.329 259.688 408.992 272.024C408.992 272.024 407.626 300.78 407.602 306.342C417.843 310.068 428.496 309.954 434.384 308.771C446.641 306.309 448.119 301.635 448.119 301.635C448.119 301.635 448.277 280.955 447.911 272.025C447.597 264.436 447.488 258.822 446.695 256.606Z" fill="black"/>
</g>
<path d="M411.386 231.953C411.386 231.953 408.43 236.286 408.788 236.699C409.147 237.112 411.409 237.443 411.409 237.443L411.386 231.953Z" fill="#9A4A4D"/>
<path d="M419.594 219.966C413.43 221.296 411.702 223.837 411.34 232.896C410.962 242.361 412.083 245.311 413.466 246.556C414.398 247.397 419.47 247.447 422.01 246.746C425.19 245.868 432.362 243.363 435.631 238.538C439.477 232.862 440.338 225.257 435.997 222.235C429.89 217.982 422.102 219.425 419.594 219.966Z" fill="#B16668"/>
<path d="M411.408 222.32C413.217 225.168 417.144 226.53 417.144 226.53C418.326 227.768 417.675 232.597 419.755 233.364C419.755 233.364 420.648 229.849 423.862 230.223C427.098 230.598 427.625 234.368 425.65 236.705C423.673 239.043 421.758 238.202 421.758 238.202C421.758 238.202 421.98 243.195 424.455 245.972C424.455 245.972 427.215 246.73 432.228 245.639C435.31 244.968 439.601 241.319 441.349 237.513C445.048 229.461 445.144 222.283 439.556 220.248C438.868 216.587 435.682 215.006 432.077 214.322C424.319 212.852 419.317 217.304 413.345 216.918C409.927 216.696 409.288 218.984 411.408 222.32Z" fill="#262A2A"/>
<path d="M439.685 221.474L443.342 219.389C442.715 218.46 441.389 218.175 440.379 218.75C439.369 219.326 439.059 220.545 439.685 221.474Z" fill="#262A2A"/>
<path d="M367.826 276.466C369.744 277.25 392.33 292.598 395.852 290.81C399.374 289.023 417.442 269.615 417.442 269.615C422.689 261.622 417.442 255.055 417.442 255.055C417.442 255.055 411.648 256.039 408.62 260.252C405.592 264.466 392.495 279.565 392.495 279.565C389.261 278.077 386.038 276.567 382.826 275.039C380.179 273.779 377.527 272.521 374.936 271.166C374.29 270.828 373.436 270.499 372.899 270.011C371.622 268.85 371.841 266.039 371.865 264.511C371.876 263.797 371.887 263.081 371.978 262.371C372.088 261.498 372.269 259.361 370.56 260.039C370.231 260.17 369.964 260.407 369.745 260.669C369.476 260.99 369.267 261.355 369.133 261.74C368.811 262.664 368.915 263.675 368.619 264.607C368.576 264.742 368.521 264.882 368.409 264.978C368.269 265.101 368.063 265.136 367.87 265.13C365.38 265.061 363.024 261.854 361.881 260.151C361.372 259.393 360.871 258.549 359.993 258.172C358.63 257.587 356.994 258.425 356.118 259.548C354.999 260.979 354.663 262.839 354.885 264.59C355.19 267.016 356.203 269.261 358.13 270.913C361.05 273.42 364.221 274.992 367.826 276.466Z" fill="#B16668"/>
<path d="M419.283 254.43C416.791 254.694 412.652 254.866 408.598 259.088C403.857 264.025 397.613 272.084 397.613 272.084C397.613 272.084 399.308 279.899 408.538 281.54C408.538 281.54 417.085 273.489 419.462 269.056C421.838 264.622 422.217 257.422 419.283 254.43Z" fill="#F26522"/>
<path opacity="0.7" d="M419.283 254.43C416.791 254.694 412.652 254.866 408.598 259.088C403.857 264.025 397.613 272.084 397.613 272.084C397.613 272.084 399.308 279.899 408.538 281.54C408.538 281.54 417.085 273.489 419.462 269.056C421.838 264.622 422.217 257.422 419.283 254.43Z" fill="black"/>
</svg>
