<svg width="500" height="500" viewBox="0 0 500 500" fill="none" xmlns="http://www.w3.org/2000/svg">
<path d="M92.6156 86.6459L142.37 187.895C143.417 190.025 142.539 192.6 140.408 193.647C138.278 194.694 135.702 193.816 134.656 191.685L84.9026 90.4359C83.8556 88.3059 84.7336 85.7309 86.8646 84.6839C88.9936 83.6369 91.5696 84.5149 92.6156 86.6459Z" fill="#E0E0E0"/>
<path d="M127.792 160.303L138.039 181.156L143.253 178.594L133.006 157.741L127.792 160.303Z" fill="#E0E0E0"/>
<path d="M126.863 148.83C127.844 150.827 127.021 153.241 125.024 154.223L117.315 158.011C115.318 158.992 112.904 158.169 111.922 156.172C110.941 154.175 111.764 151.761 113.761 150.78L121.47 146.992C123.467 146.01 125.882 146.834 126.863 148.83Z" fill="#E0E0E0"/>
<path d="M143.428 182.988L154.191 177.699L151.389 171.996L146.007 174.64L144.248 171.06L149.629 168.415L145.018 159.032L141.242 160.888L139.482 157.307L143.259 155.452L140.473 149.781L129.709 155.071L143.428 182.988Z" fill="#E0E0E0"/>
<path d="M79.8441 88.1415L84.1738 96.9531L99.4457 89.4491L95.116 80.6374L79.8441 88.1415Z" fill="#E0E0E0"/>
<path d="M63.5401 57.7181C63.7121 58.0681 63.9061 58.4011 64.1161 58.7181C56.3031 63.4971 53.2751 73.5291 57.3941 81.9121C61.7621 90.8001 72.5081 94.4651 81.3971 90.0971L94.8721 83.4751C103.76 79.1071 107.425 68.3611 103.057 59.4721C98.8751 50.9611 88.8451 47.2451 80.1971 50.7791C80.0761 50.4301 79.9351 50.0831 79.7671 49.7431C77.5651 45.2621 72.1471 43.4141 67.6661 45.6161C63.1851 47.8191 61.3381 53.2371 63.5401 57.7181ZM82.7771 57.0751C88.2771 54.3721 94.9271 56.6401 97.6291 62.1401C100.332 67.6401 98.0641 74.2901 92.5641 76.9921C89.6421 78.4281 86.3961 78.4611 83.5901 77.3521C82.7531 80.2511 80.7441 82.8011 77.8221 84.2361C72.3221 86.9391 65.6721 84.6711 62.9701 79.1711C60.2671 73.6711 62.5351 67.0211 68.0351 64.3191C70.9571 62.8831 74.2031 62.8501 77.0091 63.9591C77.8461 61.0601 79.8561 58.5111 82.7771 57.0751ZM75.2571 51.3091C76.3051 53.4411 75.4261 56.0201 73.2931 57.0681C71.1611 58.1161 68.5821 57.2371 67.5341 55.1041C66.4861 52.9711 67.3651 50.3931 69.4981 49.3451C71.6311 48.2981 74.2091 49.1771 75.2571 51.3091Z" fill="#E0E0E0"/>
<path d="M401.992 386.36L427.98 258.895C428.421 256.732 430.532 255.336 432.694 255.777L434.44 256.133C436.603 256.574 437.999 258.685 437.558 260.847L411.57 388.312C411.129 390.475 409.018 391.871 406.855 391.43L405.109 391.074C402.946 390.633 401.551 388.523 401.992 386.36Z" fill="#E0E0E0"/>
<path d="M421.736 294.72L427.016 268.828L420.542 267.508L415.262 293.4L421.736 294.72Z" fill="#E0E0E0"/>
<path d="M414.428 306.527L414.762 304.89C415.175 302.863 417.154 301.554 419.182 301.967L430.391 304.252C432.419 304.665 433.727 306.644 433.314 308.672L432.98 310.309C432.567 312.337 430.588 313.645 428.56 313.232L417.351 310.947C415.324 310.533 414.015 308.554 414.428 306.527Z" fill="#E0E0E0"/>
<path d="M423.44 263.444L410.076 260.719L408.632 267.8L415.314 269.162L414.408 273.608L407.726 272.246L405.35 283.897L410.039 284.853L409.133 289.299L404.444 288.343L403.008 295.383L416.373 298.108L423.44 263.444Z" fill="#E0E0E0"/>
<path d="M414.708 393.003L416.939 382.062L397.977 378.196L395.746 389.136L414.708 393.003Z" fill="#E0E0E0"/>
<path d="M408.22 431.742C408.309 431.307 408.365 430.873 408.397 430.442C418.752 431.575 428.453 424.651 430.575 414.243C432.825 403.206 425.702 392.435 414.666 390.185L397.934 386.774C386.897 384.524 376.126 391.647 373.876 402.683C371.721 413.251 378.164 423.57 388.404 426.403C388.27 426.802 388.156 427.212 388.07 427.634C386.936 433.198 390.527 438.629 396.091 439.763C401.655 440.897 407.086 437.306 408.22 431.742ZM390.46 418.942C383.631 417.55 379.223 410.885 380.616 404.055C382.008 397.226 388.673 392.818 395.503 394.211C399.131 394.951 402.075 397.178 403.83 400.128C406.599 398.101 410.181 397.204 413.808 397.943C420.637 399.335 425.045 406 423.652 412.83C422.26 419.659 415.595 424.067 408.765 422.674C405.137 421.934 402.193 419.707 400.438 416.757C397.669 418.785 394.087 419.682 390.46 418.942ZM393.218 429.361C393.758 426.713 396.342 425.004 398.99 425.544C401.638 426.084 403.347 428.668 402.807 431.316C402.267 433.964 399.683 435.673 397.035 435.133C394.387 434.593 392.678 432.009 393.218 429.361Z" fill="#E0E0E0"/>
<path d="M401.371 53.7478L392.291 53.7969L392.535 98.9769L401.615 98.9278L401.371 53.7478Z" fill="#E0E0E0"/>
<path d="M337.14 53.891L313.627 54.0156L313.759 78.9576L337.272 78.833L337.14 53.891Z" fill="#EBEBEB"/>
<path d="M360.546 53.7324L337.033 53.8594L337.168 78.8014L360.681 78.6744L360.546 53.7324Z" fill="#F5F5F5"/>
<path d="M313.661 60.8888C329.287 61.0178 344.951 60.9268 360.575 60.6728C360.896 60.6678 360.894 60.1748 360.572 60.1738C344.946 60.0878 329.282 60.1638 313.659 60.4608C313.383 60.4658 313.385 60.8858 313.661 60.8888Z" fill="#E0E0E0"/>
<path d="M341.692 78.3943L298.973 78.625L299.082 98.951L341.801 98.7203L341.692 78.3943Z" fill="#EBEBEB"/>
<path d="M384.209 78.1678L341.49 78.3984L341.6 98.7244L384.319 98.4938L384.209 78.1678Z" fill="#F5F5F5"/>
<path d="M298.995 84.2883C327.374 84.6093 355.853 84.3213 384.23 83.8673C384.552 83.8613 384.549 83.3693 384.227 83.3673C355.846 83.2173 327.366 83.2343 298.992 83.8593C298.717 83.8663 298.719 84.2853 298.995 84.2883Z" fill="#E0E0E0"/>
<path d="M448.526 98.9609H283.02V106.243H448.526V98.9609Z" fill="#E0E0E0"/>
<path d="M316.836 102.461H310.117V127.308H316.836V102.461Z" fill="#E0E0E0"/>
<path d="M417.131 102.461H410.412V127.308H417.131V102.461Z" fill="#E0E0E0"/>
<path d="M410.23 36.8963L401.15 36.9453L401.486 99.0833L410.566 99.0343L410.23 36.8963Z" fill="#EBEBEB"/>
<path d="M424.419 48.4707L410.311 48.5469L410.582 98.9029L424.69 98.8267L424.419 48.4707Z" fill="#F5F5F5"/>
<path d="M424.316 58.1815C424.316 58.3165 421.157 58.4255 417.262 58.4255C413.365 58.4255 410.207 58.3155 410.207 58.1815C410.207 58.0465 413.365 57.9375 417.262 57.9375C421.158 57.9375 424.316 58.0475 424.316 58.1815Z" fill="#E0E0E0"/>
<path d="M424.316 56.0643C424.316 56.1993 421.157 56.3083 417.262 56.3083C413.365 56.3083 410.207 56.1993 410.207 56.0643C410.207 55.9293 413.365 55.8203 417.262 55.8203C421.158 55.8203 424.316 55.9293 424.316 56.0643Z" fill="#E0E0E0"/>
<path d="M424.316 91.2596C424.316 91.3946 421.157 91.5036 417.262 91.5036C413.365 91.5036 410.207 91.3946 410.207 91.2596C410.207 91.1246 413.365 91.0156 417.262 91.0156C421.158 91.0156 424.316 91.1246 424.316 91.2596Z" fill="#E0E0E0"/>
<path d="M424.316 89.1424C424.316 89.2774 421.157 89.3864 417.262 89.3864C413.365 89.3864 410.207 89.2774 410.207 89.1424C410.207 89.0074 413.365 88.8984 417.262 88.8984C421.158 88.8974 424.316 89.0074 424.316 89.1424Z" fill="#E0E0E0"/>
<path d="M417.488 84.5289C417.353 84.5289 417.244 79.4489 417.244 73.1829C417.244 66.9149 417.353 61.8359 417.488 61.8359C417.623 61.8359 417.733 66.9149 417.733 73.1829C417.733 79.4489 417.623 84.5289 417.488 84.5289Z" fill="#E0E0E0"/>
<path d="M439.826 60.8438H424.469V98.8517H439.826V60.8438Z" fill="#EBEBEB"/>
<path d="M408.159 47.5241C408.159 48.9651 406.991 50.1341 405.549 50.1341C404.108 50.1341 402.939 48.9661 402.939 47.5241C402.939 46.0831 404.107 44.9141 405.549 44.9141C406.991 44.9141 408.159 46.0831 408.159 47.5241Z" fill="#E0E0E0"/>
<path d="M406.357 54.7031H404.744V91.6681H406.357V54.7031Z" fill="#E0E0E0"/>
<path d="M111.549 278.352L100.047 324.687H104.706L116.645 278.352H111.549Z" fill="#EBEBEB"/>
<path d="M144.887 278.352L156.389 324.687H151.73L139.791 278.352H144.887Z" fill="#EBEBEB"/>
<path d="M130.372 265.75H124.949V324.684H130.372V265.75Z" fill="#EBEBEB"/>
<path d="M165.796 218.484H89.2656V267.515H165.796V218.484Z" fill="#E0E0E0"/>
<path d="M146.758 277.594H108.346V282.329H146.758V277.594Z" fill="#EBEBEB"/>
<path d="M94.3511 261.117C94.3691 261.117 94.3871 261.399 94.4031 262.014H94.2981C94.2191 259.616 94.1621 251.672 94.1621 242.257C94.1831 236.575 94.2031 231.435 94.2171 227.651C94.2421 225.821 94.2621 224.321 94.2771 223.225C94.2911 222.736 94.3031 222.338 94.3121 222.021C94.3241 221.746 94.3371 221.602 94.3501 221.602C94.3631 221.602 94.3761 221.746 94.3881 222.021C94.3971 222.338 94.4091 222.736 94.4231 223.225C94.4381 224.322 94.4581 225.821 94.4831 227.651C94.4971 231.435 94.5171 236.576 94.5381 242.257C94.5381 251.671 94.4821 259.616 94.4031 262.014H94.2981C94.3171 261.399 94.3331 261.117 94.3511 261.117Z" fill="#F5F5F5"/>
<path d="M100.046 261.117C100.064 261.117 100.082 261.399 100.098 262.014H99.9934C99.9144 259.616 99.8574 251.672 99.8574 242.257C99.8784 236.575 99.8984 231.435 99.9124 227.651C99.9374 225.821 99.9574 224.321 99.9724 223.225C99.9864 222.736 99.9984 222.338 100.007 222.021C100.019 221.746 100.032 221.602 100.045 221.602C100.058 221.602 100.071 221.746 100.083 222.021C100.092 222.338 100.104 222.736 100.118 223.225C100.133 224.322 100.153 225.821 100.178 227.651C100.192 231.435 100.212 236.576 100.233 242.257C100.233 251.671 100.177 259.616 100.098 262.014H99.9934C100.012 261.399 100.028 261.117 100.046 261.117Z" fill="#F5F5F5"/>
<path d="M105.742 261.117C105.76 261.117 105.778 261.399 105.794 262.014H105.689C105.61 259.616 105.553 251.672 105.553 242.257C105.574 236.575 105.594 231.435 105.608 227.651C105.633 225.821 105.653 224.321 105.668 223.225C105.682 222.736 105.694 222.338 105.703 222.021C105.715 221.746 105.728 221.602 105.741 221.602C105.754 221.602 105.767 221.746 105.779 222.021C105.788 222.338 105.8 222.736 105.814 223.225C105.829 224.322 105.849 225.821 105.874 227.651C105.888 231.435 105.908 236.576 105.929 242.257C105.929 251.671 105.872 259.616 105.794 262.014H105.689C105.707 261.399 105.724 261.117 105.742 261.117Z" fill="#F5F5F5"/>
<path d="M111.439 261.117C111.457 261.117 111.475 261.399 111.491 262.014H111.386C111.307 259.616 111.25 251.672 111.25 242.257C111.272 236.575 111.291 231.435 111.305 227.651C111.33 225.821 111.35 224.321 111.365 223.225C111.379 222.736 111.391 222.338 111.4 222.021C111.412 221.746 111.425 221.602 111.438 221.602C111.451 221.602 111.464 221.746 111.476 222.021C111.485 222.338 111.497 222.736 111.511 223.225C111.526 224.322 111.546 225.821 111.571 227.651C111.585 231.435 111.605 236.576 111.626 242.257C111.626 251.671 111.569 259.616 111.491 262.014H111.386C111.404 261.399 111.421 261.117 111.439 261.117Z" fill="#F5F5F5"/>
<path d="M117.134 261.117C117.152 261.117 117.17 261.399 117.186 262.014H117.081C117.002 259.616 116.945 251.672 116.945 242.257C116.966 236.575 116.986 231.435 117 227.651C117.025 225.821 117.045 224.321 117.06 223.225C117.074 222.736 117.086 222.338 117.095 222.021C117.107 221.746 117.12 221.602 117.133 221.602C117.146 221.602 117.159 221.746 117.171 222.021C117.18 222.338 117.192 222.736 117.206 223.225C117.221 224.322 117.241 225.821 117.266 227.651C117.28 231.435 117.3 236.576 117.321 242.257C117.321 251.671 117.264 259.616 117.186 262.014H117.081C117.099 261.399 117.116 261.117 117.134 261.117Z" fill="#F5F5F5"/>
<path d="M122.832 261.117C122.85 261.117 122.868 261.399 122.884 262.014H122.779C122.7 259.616 122.643 251.672 122.643 242.257C122.664 236.575 122.684 231.435 122.698 227.651C122.723 225.821 122.743 224.321 122.758 223.225C122.772 222.736 122.784 222.338 122.793 222.021C122.805 221.746 122.818 221.602 122.831 221.602C122.844 221.602 122.857 221.746 122.869 222.021C122.878 222.338 122.89 222.736 122.904 223.225C122.919 224.322 122.939 225.821 122.964 227.651C122.978 231.435 122.998 236.576 123.019 242.257C123.019 251.671 122.962 259.616 122.883 262.014H122.779C122.797 261.399 122.814 261.117 122.832 261.117Z" fill="#F5F5F5"/>
<path d="M128.527 261.117C128.545 261.117 128.563 261.399 128.579 262.014H128.474C128.395 259.616 128.338 251.672 128.338 242.257C128.359 236.575 128.379 231.435 128.393 227.651C128.418 225.821 128.438 224.321 128.453 223.225C128.467 222.736 128.479 222.338 128.488 222.021C128.5 221.746 128.513 221.602 128.526 221.602C128.539 221.602 128.552 221.746 128.564 222.021C128.573 222.338 128.585 222.736 128.599 223.225C128.614 224.322 128.634 225.821 128.659 227.651C128.673 231.435 128.693 236.576 128.714 242.257C128.714 251.671 128.657 259.616 128.578 262.014H128.473C128.491 261.399 128.508 261.117 128.527 261.117Z" fill="#F5F5F5"/>
<path d="M134.222 261.117C134.24 261.117 134.258 261.399 134.274 262.014H134.169C134.09 259.616 134.033 251.672 134.033 242.257C134.054 236.575 134.074 231.435 134.088 227.651C134.113 225.821 134.133 224.321 134.148 223.225C134.162 222.736 134.174 222.338 134.183 222.021C134.195 221.746 134.208 221.602 134.221 221.602C134.234 221.602 134.247 221.746 134.259 222.021C134.268 222.338 134.28 222.736 134.294 223.225C134.309 224.322 134.329 225.821 134.354 227.651C134.368 231.435 134.388 236.576 134.409 242.257C134.409 251.671 134.351 259.616 134.273 262.014H134.168C134.186 261.399 134.203 261.117 134.222 261.117Z" fill="#F5F5F5"/>
<path d="M139.918 261.117C139.936 261.117 139.954 261.399 139.97 262.014H139.865C139.786 259.616 139.729 251.672 139.729 242.257C139.75 236.575 139.77 231.435 139.784 227.651C139.809 225.821 139.829 224.321 139.844 223.225C139.858 222.736 139.87 222.338 139.879 222.021C139.891 221.746 139.904 221.602 139.917 221.602C139.93 221.602 139.943 221.746 139.955 222.021C139.964 222.338 139.976 222.736 139.99 223.225C140.005 224.322 140.025 225.821 140.05 227.651C140.064 231.435 140.084 236.576 140.105 242.257C140.105 251.671 140.048 259.616 139.97 262.014H139.865C139.884 261.399 139.9 261.117 139.918 261.117Z" fill="#F5F5F5"/>
<path d="M145.613 261.117C145.631 261.117 145.649 261.399 145.665 262.014H145.56C145.481 259.616 145.424 251.672 145.424 242.257C145.446 236.575 145.465 231.435 145.479 227.651C145.504 225.821 145.524 224.321 145.539 223.225C145.553 222.736 145.565 222.338 145.574 222.021C145.586 221.746 145.599 221.602 145.612 221.602C145.625 221.602 145.638 221.746 145.65 222.021C145.659 222.338 145.671 222.736 145.685 223.225C145.7 224.322 145.72 225.821 145.745 227.651C145.759 231.435 145.779 236.576 145.8 242.257C145.8 251.671 145.743 259.616 145.665 262.014H145.56C145.579 261.399 145.595 261.117 145.613 261.117Z" fill="#F5F5F5"/>
<path d="M151.31 261.117C151.328 261.117 151.346 261.399 151.362 262.014H151.257C151.178 259.616 151.121 251.672 151.121 242.257C151.142 236.575 151.162 231.435 151.176 227.651C151.201 225.821 151.221 224.321 151.236 223.225C151.25 222.736 151.262 222.338 151.271 222.021C151.283 221.746 151.296 221.602 151.309 221.602C151.322 221.602 151.335 221.746 151.347 222.021C151.356 222.338 151.368 222.736 151.382 223.225C151.397 224.322 151.417 225.821 151.442 227.651C151.456 231.435 151.476 236.576 151.497 242.257C151.497 251.671 151.44 259.616 151.362 262.014H151.257C151.275 261.399 151.292 261.117 151.31 261.117Z" fill="#F5F5F5"/>
<path d="M157.005 261.117C157.023 261.117 157.041 261.399 157.057 262.014H156.952C156.873 259.616 156.816 251.672 156.816 242.257C156.837 236.575 156.857 231.435 156.871 227.651C156.896 225.821 156.916 224.321 156.931 223.225C156.945 222.736 156.957 222.338 156.966 222.021C156.978 221.746 156.991 221.602 157.004 221.602C157.017 221.602 157.03 221.746 157.042 222.021C157.051 222.338 157.063 222.736 157.077 223.225C157.092 224.322 157.112 225.821 157.137 227.651C157.151 231.435 157.171 236.576 157.192 242.257C157.192 251.671 157.135 259.616 157.056 262.014H156.952C156.97 261.399 156.987 261.117 157.005 261.117Z" fill="#F5F5F5"/>
<path d="M162.701 261.117C162.719 261.117 162.737 261.399 162.753 262.014H162.648C162.569 259.616 162.512 251.672 162.512 242.257C162.533 236.575 162.553 231.435 162.567 227.651C162.592 225.821 162.612 224.321 162.627 223.225C162.641 222.736 162.653 222.338 162.662 222.021C162.674 221.746 162.687 221.602 162.7 221.602C162.713 221.602 162.726 221.746 162.738 222.021C162.747 222.338 162.759 222.736 162.773 223.225C162.788 224.322 162.808 225.821 162.833 227.651C162.847 231.435 162.867 236.576 162.888 242.257C162.888 251.671 162.831 259.616 162.752 262.014H162.648C162.666 261.399 162.683 261.117 162.701 261.117Z" fill="#F5F5F5"/>
<path d="M257.541 318.961H58.0449V410.966H257.541V318.961Z" fill="#F5F5F5"/>
<path d="M252.793 406.633H62.6113V323.805H252.792V406.633H252.793ZM63.8523 405.392H251.552V325.046H63.8523V405.392Z" fill="#E0E0E0"/>
<path d="M306.277 318.961H257.541V410.966H306.277V318.961Z" fill="#E0E0E0"/>
<path d="M63.232 349.438C84.604 349.438 105.976 349.438 127.348 349.438C161.115 349.438 194.881 349.438 228.648 349.438C236.489 349.438 244.331 349.438 252.173 349.438C252.495 349.438 252.496 348.938 252.173 348.938C230.801 348.938 209.43 348.938 188.058 348.938C154.291 348.938 120.525 348.938 86.758 348.938C78.916 348.938 71.075 348.938 63.233 348.938C62.91 348.939 62.909 349.438 63.232 349.438Z" fill="#E0E0E0"/>
<path d="M158.32 349.183C158.886 341.016 158.825 332.366 158.384 324.191C158.366 323.864 157.893 323.863 157.875 324.191C157.434 332.366 157.373 341.015 157.94 349.183C157.958 349.427 158.303 349.427 158.32 349.183Z" fill="#E0E0E0"/>
<path d="M209.175 336.691C209.175 338.113 208.023 339.265 206.601 339.265C205.179 339.265 204.027 338.112 204.027 336.691C204.027 335.27 205.179 334.117 206.601 334.117C208.022 334.117 209.175 335.27 209.175 336.691Z" fill="#E0E0E0"/>
<path d="M110.019 336.691C110.019 338.113 108.867 339.265 107.445 339.265C106.023 339.265 104.871 338.112 104.871 336.691C104.871 335.27 106.023 334.117 107.445 334.117C108.867 334.117 110.019 335.27 110.019 336.691Z" fill="#E0E0E0"/>
<path d="M160.275 365.215C160.275 366.637 159.123 367.789 157.701 367.789C156.279 367.789 155.127 366.637 155.127 365.215C155.127 363.793 156.279 362.641 157.701 362.641C159.123 362.641 160.275 363.793 160.275 365.215Z" fill="#E0E0E0"/>
<path d="M81.8964 410.969L72.2734 466.533H78.0514L96.3394 410.969H81.8964Z" fill="#E0E0E0"/>
<path d="M243.426 410.969L252.015 466.533H246.238L228.982 410.969H243.426Z" fill="#E0E0E0"/>
<path d="M281.993 410.969L292.207 466.533H286.429L267.549 410.969H281.993Z" fill="#E0E0E0"/>
<path d="M160.103 391.254C160.103 392.675 158.951 393.828 157.529 393.828C156.107 393.828 154.955 392.676 154.955 391.254C154.955 389.832 156.107 388.68 157.529 388.68C158.951 388.68 160.103 389.832 160.103 391.254Z" fill="#E0E0E0"/>
<path d="M63.232 377.923C84.604 377.923 105.976 377.923 127.348 377.923C161.115 377.923 194.881 377.923 228.648 377.923C236.489 377.923 244.331 377.923 252.173 377.923C252.495 377.923 252.496 377.422 252.173 377.422C230.801 377.422 209.43 377.422 188.058 377.422C154.291 377.422 120.525 377.422 86.758 377.422C78.916 377.422 71.075 377.422 63.233 377.422C62.91 377.422 62.909 377.923 63.232 377.923Z" fill="#E0E0E0"/>
<path d="M466.885 175.664H418.232V188.535H466.885V175.664Z" fill="#F5F5F5"/>
<path d="M446.311 202.088C446.306 202.083 446.301 202.004 446.296 201.854C446.292 201.682 446.287 201.465 446.28 201.194C446.271 200.588 446.259 199.744 446.244 198.661C446.224 196.439 446.196 193.245 446.161 189.217L446.312 189.368C435.203 189.39 417.536 189.425 397.662 189.465C397.772 189.355 397.412 189.712 397.907 189.217V189.22V189.227V189.24V189.266V189.318V189.422V189.629V190.043V190.868C397.907 191.417 397.907 191.964 397.907 192.51C397.907 193.601 397.906 194.684 397.906 195.758C397.905 197.906 397.903 200.019 397.902 202.089L397.66 201.847C411.514 201.891 423.637 201.93 432.331 201.957C436.662 201.986 440.137 202.01 442.565 202.026C443.746 202.04 444.67 202.05 445.332 202.058C445.63 202.065 445.868 202.07 446.056 202.074C446.219 202.077 446.305 202.082 446.311 202.088C446.316 202.093 446.24 202.098 446.086 202.104C445.906 202.108 445.678 202.113 445.392 202.119C444.743 202.127 443.836 202.137 442.677 202.151C440.263 202.167 436.806 202.191 432.499 202.22C423.762 202.248 411.58 202.286 397.659 202.33L397.417 202.331V202.088C397.416 200.018 397.414 197.905 397.413 195.757C397.413 194.683 397.412 193.6 397.412 192.509C397.412 191.964 397.412 191.416 397.412 190.867V190.042V189.628V189.421V189.317V189.265V189.239V189.226V189.219V189.216C397.908 188.72 397.551 189.079 397.663 188.968C417.537 189.008 435.204 189.043 446.313 189.065H446.465L446.464 189.216C446.428 193.282 446.4 196.506 446.381 198.75C446.365 199.818 446.353 200.652 446.344 201.249C446.338 201.509 446.332 201.717 446.328 201.883C446.321 202.024 446.316 202.093 446.311 202.088Z" fill="#E0E0E0"/>
<path d="M370.206 314.931C370.201 314.926 370.196 314.847 370.191 314.697C370.187 314.525 370.182 314.308 370.175 314.037C370.166 313.431 370.154 312.587 370.139 311.504C370.119 309.282 370.091 306.088 370.056 302.06L370.207 302.211C359.098 302.233 341.431 302.268 321.557 302.308C321.667 302.198 321.307 302.555 321.802 302.061V302.064V302.071V302.084V302.11V302.162V302.266V302.473V302.887V303.712C321.802 304.261 321.802 304.808 321.802 305.354C321.802 306.445 321.801 307.528 321.801 308.602C321.8 310.75 321.798 312.863 321.797 314.933L321.555 314.691C335.409 314.735 347.532 314.774 356.226 314.801C360.557 314.83 364.032 314.854 366.46 314.87C367.641 314.884 368.565 314.894 369.227 314.902C369.525 314.909 369.763 314.914 369.951 314.918C370.114 314.92 370.201 314.925 370.206 314.931C370.211 314.936 370.135 314.941 369.981 314.947C369.801 314.951 369.573 314.956 369.287 314.963C368.638 314.971 367.73 314.981 366.572 314.995C364.158 315.011 360.701 315.035 356.394 315.064C347.657 315.092 335.475 315.13 321.554 315.174L321.312 315.175V314.932C321.311 312.862 321.309 310.749 321.308 308.601C321.308 307.527 321.307 306.444 321.307 305.353C321.307 304.808 321.307 304.26 321.307 303.711V302.886V302.472V302.265V302.161V302.109V302.083V302.07V302.063V302.06C321.803 301.564 321.446 301.922 321.558 301.812C341.432 301.852 359.099 301.887 370.208 301.909H370.36L370.359 302.06C370.323 306.126 370.295 309.35 370.276 311.594C370.26 312.662 370.248 313.496 370.239 314.093C370.233 314.353 370.227 314.561 370.223 314.727C370.216 314.867 370.211 314.936 370.206 314.931Z" fill="#E0E0E0"/>
<path d="M102.372 180.805H53.7188V193.676H102.372V180.805Z" fill="#F5F5F5"/>
<path d="M81.7994 207.236C81.7944 207.231 81.7894 207.152 81.7844 207.002C81.7804 206.83 81.7754 206.613 81.7684 206.342C81.7594 205.736 81.7474 204.892 81.7314 203.809C81.7114 201.587 81.6834 198.393 81.6484 194.365L81.7994 194.516C70.6904 194.538 53.0234 194.574 33.1494 194.613C33.2594 194.503 32.8994 194.86 33.3944 194.366V194.369V194.376V194.389V194.415V194.467V194.571V194.778V195.192V196.017C33.3944 196.566 33.3944 197.113 33.3944 197.659C33.3944 198.75 33.3934 199.833 33.3934 200.907C33.3924 203.055 33.3904 205.168 33.3894 207.238L33.1474 206.996C47.0014 207.04 59.1244 207.078 67.8184 207.106C72.1494 207.135 75.6244 207.159 78.0524 207.175C79.2334 207.189 80.1574 207.199 80.8194 207.207C81.1174 207.214 81.3554 207.219 81.5434 207.223C81.7074 207.226 81.7944 207.231 81.7994 207.236C81.8044 207.241 81.7284 207.246 81.5744 207.252C81.3944 207.256 81.1664 207.261 80.8804 207.268C80.2314 207.276 79.3244 207.286 78.1654 207.3C75.7514 207.316 72.2944 207.34 67.9874 207.369C59.2504 207.397 47.0684 207.435 33.1474 207.479L32.9054 207.48V207.237C32.9044 205.167 32.9024 203.054 32.9014 200.906C32.9014 199.832 32.9004 198.749 32.9004 197.658C32.9004 197.113 32.9004 196.565 32.9004 196.016V195.191V194.777V194.57V194.466V194.414V194.388V194.375V194.368V194.365C33.3964 193.869 33.0394 194.228 33.1514 194.117C53.0254 194.157 70.6924 194.192 81.8014 194.214H81.9534L81.9524 194.365C81.9164 198.431 81.8884 201.655 81.8694 203.898C81.8534 204.966 81.8414 205.8 81.8324 206.397C81.8264 206.657 81.8204 206.865 81.8164 207.031C81.8094 207.172 81.8044 207.241 81.7994 207.236Z" fill="#E0E0E0"/>
<path d="M265.399 50.4548C265.394 50.4498 265.389 50.3708 265.384 50.2208C265.38 50.0488 265.375 49.8318 265.368 49.5608C265.359 48.9548 265.347 48.1108 265.331 47.0278C265.311 44.8058 265.283 41.6118 265.248 37.5838L265.399 37.7348C254.29 37.7568 236.623 37.7918 216.749 37.8318C216.859 37.7218 216.499 38.0788 216.994 37.5838V37.5868V37.5938V37.6068V37.6328V37.6848V37.7888V37.9958V38.4098V39.2348C216.994 39.7838 216.994 40.3318 216.994 40.8768C216.994 41.9678 216.993 43.0508 216.993 44.1248C216.992 46.2728 216.99 48.3858 216.989 50.4558L216.747 50.2138C230.601 50.2578 242.724 50.2968 251.418 50.3238C255.749 50.3528 259.224 50.3768 261.652 50.3928C262.833 50.4068 263.757 50.4168 264.419 50.4248C264.717 50.4308 264.955 50.4368 265.143 50.4408C265.307 50.4438 265.394 50.4488 265.399 50.4548C265.404 50.4598 265.328 50.4658 265.174 50.4708C264.994 50.4748 264.766 50.4798 264.48 50.4868C263.831 50.4948 262.924 50.5048 261.765 50.5188C259.351 50.5348 255.894 50.5588 251.587 50.5878C242.85 50.6158 230.668 50.6538 216.747 50.6978L216.505 50.6988V50.4558C216.504 48.3858 216.502 46.2728 216.501 44.1248C216.501 43.0508 216.5 41.9678 216.5 40.8768C216.5 40.3318 216.5 39.7838 216.5 39.2348V38.4098V37.9958V37.7888V37.6848V37.6328V37.6068V37.5938V37.5868V37.5838C216.996 37.0878 216.639 37.4458 216.751 37.3358C236.625 37.3758 254.292 37.4108 265.401 37.4328H265.553L265.552 37.5838C265.516 41.6498 265.488 44.8748 265.469 47.1178C265.453 48.1858 265.441 49.0198 265.432 49.6168C265.425 49.8768 265.42 50.0848 265.416 50.2508C265.409 50.3908 265.404 50.4598 265.399 50.4548Z" fill="#E0E0E0"/>
<path d="M271.996 37.5814C271.99 37.5754 271.984 37.4924 271.977 37.3364C271.972 37.1514 271.965 36.9274 271.958 36.6544C271.947 36.0214 271.932 35.1604 271.914 34.0734C271.891 31.8164 271.858 28.6294 271.818 24.7104L271.996 24.8884C264.423 24.9064 254.121 24.9314 242.766 24.9584C242.543 25.1794 243.065 24.6564 243.012 24.7114V24.7144V24.7214V24.7344V24.7614V24.8144V24.9204V25.1324V25.5544V26.3954C243.012 26.9544 243.012 27.5114 243.011 28.0644C243.01 29.1704 243.01 30.2634 243.009 31.3404C243.006 33.4934 243.003 35.5814 243 37.5814L242.764 37.3454C251.203 37.3904 258.468 37.4294 263.675 37.4574C266.243 37.4854 268.301 37.5064 269.766 37.5224C270.45 37.5344 270.995 37.5444 271.409 37.5524C271.785 37.5614 271.986 37.5714 271.996 37.5814C272.006 37.5914 271.824 37.6004 271.465 37.6104C271.064 37.6174 270.535 37.6274 269.871 37.6404C268.419 37.6564 266.379 37.6784 263.834 37.7054C258.587 37.7334 251.267 37.7724 242.764 37.8174L242.528 37.8184V37.5814C242.525 35.5814 242.522 33.4934 242.519 31.3404C242.518 30.2634 242.518 29.1704 242.517 28.0644C242.517 27.5114 242.517 26.9544 242.516 26.3954V25.5544V25.1324V24.9194V24.8134V24.7604V24.7334V24.7204V24.7134V24.7104C242.462 24.7624 242.986 24.2394 242.766 24.4614C254.121 24.4884 264.423 24.5134 271.996 24.5314H272.176L272.174 24.7094C272.134 28.6744 272.101 31.8984 272.078 34.1814C272.059 35.2514 272.044 36.0984 272.034 36.7224C272.02 37.2984 272.008 37.5934 271.996 37.5814Z" fill="#E0E0E0"/>
<path d="M450.923 466.533C450.923 466.677 360.96 466.793 250.01 466.793C139.022 466.793 49.0781 466.677 49.0781 466.533C49.0781 466.389 139.022 466.273 250.01 466.273C360.959 466.272 450.923 466.389 450.923 466.533Z" fill="#262A2A"/>
<path d="M201.035 111.704L197.079 103.645C198.857 98.7997 199.361 93.4197 198.258 87.9907C195.087 72.3797 179.862 62.2947 164.251 65.4657C148.64 68.6367 138.555 83.8617 141.725 99.4727C144.896 115.084 160.121 125.169 175.733 121.998C182.251 120.674 187.801 117.244 191.829 112.565L191.822 112.58L201.035 111.704Z" fill="white"/>
<path d="M201.036 111.702C201.036 111.702 200.851 111.73 200.463 111.773C200.053 111.817 199.473 111.88 198.718 111.962C197.138 112.127 194.83 112.367 191.833 112.679C191.778 112.685 191.729 112.645 191.723 112.59C191.721 112.571 191.725 112.551 191.733 112.535L191.74 112.52L191.907 112.63C189.498 115.447 185.726 118.753 180.312 120.832C178.967 121.353 177.525 121.784 176.005 122.108C174.473 122.357 172.888 122.675 171.224 122.695C167.913 122.849 164.353 122.438 160.833 121.268C157.316 120.105 153.847 118.186 150.81 115.514C147.772 112.851 145.174 109.43 143.411 105.469C141.623 101.519 140.783 97.0096 140.974 92.4486C141.173 87.8896 142.431 83.2396 144.873 79.1466L145.796 77.6116L146.851 76.1736L147.377 75.4576L147.964 74.7936L149.14 73.4756C149.546 73.0526 149.994 72.6716 150.418 72.2696C150.855 71.8816 151.255 71.4526 151.734 71.1216C152.666 70.4276 153.554 69.6806 154.562 69.1196C158.46 66.6796 162.831 65.2386 167.164 64.7996C171.506 64.3896 175.784 64.9836 179.61 66.3426C183.442 67.6966 186.822 69.8016 189.562 72.3136C192.31 74.8256 194.416 77.7386 195.902 80.7126C196.684 82.1866 197.199 83.7196 197.714 85.1886C198.088 86.6996 198.515 88.1446 198.69 89.5806C199.508 95.3266 198.466 100.228 197.175 103.68L197.171 103.602C198.434 106.235 199.408 108.265 200.075 109.656C200.391 110.321 200.634 110.832 200.806 111.194C200.965 111.534 201.036 111.702 201.036 111.702C201.036 111.702 200.934 111.517 200.756 111.169C200.572 110.806 200.312 110.293 199.973 109.625C199.288 108.261 198.287 106.27 196.99 103.687C196.978 103.662 196.977 103.633 196.986 103.609C198.232 100.167 199.224 95.3026 198.382 89.6226C198.201 88.2026 197.77 86.7756 197.394 85.2836C196.877 83.8346 196.362 82.3216 195.583 80.8696C194.102 77.9386 192.013 75.0716 189.294 72.6026C186.583 70.1336 183.246 68.0686 179.466 66.7426C175.694 65.4126 171.48 64.8366 167.207 65.2456C162.941 65.6846 158.64 67.1076 154.808 69.5116C153.817 70.0636 152.945 70.8006 152.027 71.4826C151.555 71.8086 151.162 72.2316 150.732 72.6136C150.316 73.0096 149.874 73.3836 149.475 73.8006L148.318 75.0976L147.74 75.7506L147.223 76.4556L146.185 77.8706L145.277 79.3816C142.874 83.4086 141.635 87.9826 141.436 92.4676C141.245 96.9546 142.065 101.396 143.82 105.286C145.55 109.188 148.102 112.561 151.089 115.192C154.076 117.831 157.49 119.733 160.955 120.891C164.423 122.056 167.935 122.475 171.205 122.337C172.849 122.325 174.416 122.017 175.932 121.779C177.436 121.466 178.864 121.048 180.198 120.54C185.565 118.515 189.328 115.269 191.751 112.497C191.787 112.455 191.85 112.45 191.893 112.486C191.928 112.516 191.937 112.567 191.918 112.607L191.911 112.621L191.811 112.477C194.783 112.221 197.072 112.024 198.639 111.889C199.408 111.826 199.998 111.777 200.416 111.742C200.82 111.712 201.036 111.702 201.036 111.702Z" fill="#262A2A"/>
<path d="M156.65 95.6205L160.383 91.8875L167.582 98.2865L181.715 84.6875L185.181 88.4205L167.049 105.487L156.65 95.6205Z" fill="#F26522"/>
<path d="M183.358 429.329L165.976 445.805C165.976 445.805 183.143 465.391 180.929 469.448L139.098 445.305L164.994 416.203L183.358 429.329Z" fill="#424848"/>
<g opacity="0.6">
<path d="M154.443 436.09C153.516 435.809 152.41 436.355 152.091 437.27C151.773 438.185 152.318 439.315 153.241 439.612C154.163 439.909 155.511 439.294 155.725 438.349C155.939 437.404 155.226 436.113 154.26 436.046" fill="white"/>
</g>
<g opacity="0.6">
<path d="M139.096 445.309L141.735 442.344L180.74 466.706C180.74 466.706 181.739 468.069 180.963 469.879L139.096 445.309Z" fill="white"/>
</g>
<path d="M166.768 446.012C166.636 446.207 165.58 445.671 164.195 445.696C162.808 445.684 161.759 446.231 161.625 446.037C161.465 445.882 162.513 444.876 164.191 444.875C165.869 444.859 166.926 445.856 166.768 446.012Z" fill="#262A2A"/>
<path d="M169.943 450.483C169.867 450.705 168.789 450.501 167.58 450.92C166.359 451.303 165.614 452.109 165.421 451.975C165.214 451.888 165.81 450.632 167.323 450.14C168.831 449.636 170.058 450.29 169.943 450.483Z" fill="#262A2A"/>
<path d="M169.154 457.143C168.946 457.072 169.295 455.899 170.495 455.128C171.689 454.348 172.902 454.508 172.882 454.727C172.892 454.962 171.917 455.168 170.942 455.816C169.951 456.442 169.365 457.247 169.154 457.143Z" fill="#262A2A"/>
<path d="M169.435 440.968C169.237 441.098 168.494 440.247 167.317 439.614C166.153 438.958 165.037 438.785 165.041 438.548C165.016 438.331 166.338 438.131 167.713 438.895C169.094 439.648 169.632 440.873 169.435 440.968Z" fill="#262A2A"/>
<path d="M172.182 436.76C172.133 436.844 171.266 436.471 170.141 435.463C169.582 434.96 168.971 434.29 168.412 433.458C168.133 433.042 167.867 432.587 167.628 432.095C167.515 431.855 167.369 431.593 167.312 431.225C167.222 430.878 167.429 430.269 167.888 430.105C168.295 429.923 168.751 430.02 169.05 430.198C169.358 430.377 169.564 430.592 169.752 430.787C170.138 431.183 170.47 431.603 170.751 432.024C171.309 432.87 171.661 433.719 171.861 434.45C172.258 435.925 172.113 436.874 172.021 436.87C171.889 436.879 171.82 435.964 171.31 434.632C171.055 433.969 170.675 433.209 170.13 432.455C169.856 432.08 169.541 431.707 169.182 431.354C168.82 430.968 168.454 430.733 168.222 430.856C168.136 430.904 168.112 430.93 168.123 431.114C168.143 431.29 168.247 431.514 168.357 431.751C168.57 432.214 168.806 432.648 169.05 433.049C169.541 433.851 170.071 434.521 170.553 435.052C171.517 436.114 172.253 436.654 172.182 436.76Z" fill="#262A2A"/>
<path d="M171.742 436.886C171.652 436.872 171.705 435.908 172.444 434.569C172.813 433.906 173.368 433.171 174.132 432.502C174.516 432.17 174.951 431.857 175.435 431.586C175.928 431.333 176.56 430.975 177.391 431.373C177.805 431.612 177.943 432.139 177.888 432.481C177.849 432.843 177.727 433.097 177.626 433.364C177.401 433.889 177.098 434.352 176.761 434.744C176.086 435.533 175.274 436.034 174.557 436.31C173.092 436.868 172.109 436.583 172.134 436.505C172.13 436.363 173.069 436.415 174.32 435.78C174.937 435.467 175.621 434.974 176.177 434.263C176.455 433.91 176.702 433.504 176.883 433.056C177.092 432.581 177.149 432.128 176.959 432.071C176.758 431.94 176.206 432.05 175.821 432.292C175.381 432.527 174.978 432.797 174.616 433.083C173.896 433.661 173.339 434.298 172.935 434.877C172.126 436.043 171.87 436.924 171.742 436.886Z" fill="#262A2A"/>
<path d="M314.179 430.742L318.324 453.101C318.324 453.101 343.079 461.196 343.242 465.815L296.132 466.375L292.654 430.742H314.179Z" fill="#424848"/>
<g opacity="0.6">
<path d="M300.027 452.415C299.086 452.646 298.413 453.68 298.605 454.63C298.798 455.58 299.843 456.273 300.788 456.058C301.732 455.843 302.579 454.627 302.281 453.705C301.984 452.783 300.712 452.036 299.846 452.471" fill="white"/>
</g>
<g opacity="0.6">
<path d="M296.133 466.377L295.391 462.953L341.682 463.55C341.682 463.55 343.237 464.213 343.491 466.166L296.133 466.377Z" fill="white"/>
</g>
<path d="M319.114 452.871C319.1 453.107 317.918 453.183 316.739 453.911C315.54 454.608 314.916 455.614 314.702 455.515C314.486 455.463 314.874 454.063 316.317 453.207C317.753 452.338 319.171 452.656 319.114 452.871Z" fill="#262A2A"/>
<path d="M324.122 455.102C324.17 455.332 323.139 455.706 322.312 456.683C321.457 457.635 321.227 458.708 320.993 458.691C320.771 458.722 320.643 457.337 321.694 456.143C322.734 454.94 324.123 454.878 324.122 455.102Z" fill="#262A2A"/>
<path d="M326.84 461.232C326.625 461.277 326.327 460.09 326.966 458.815C327.596 457.535 328.721 457.055 328.815 457.254C328.943 457.451 328.21 458.125 327.701 459.181C327.168 460.223 327.075 461.215 326.84 461.232Z" fill="#262A2A"/>
<path d="M317.153 447.666C317.049 447.878 315.976 447.525 314.641 447.581C313.306 447.61 312.257 448.03 312.14 447.825C312.008 447.651 313.043 446.805 314.616 446.761C316.187 446.705 317.274 447.484 317.153 447.666Z" fill="#262A2A"/>
<path d="M205.443 268.219C204.661 268.747 202.882 295.579 205.443 301.463L198.927 349.808C198.927 349.808 181.45 377.563 177.931 381.602C174.413 385.641 151.592 425.039 151.592 425.039L177.356 447.263C177.356 447.263 222.137 388.756 229.335 378.372C240.629 362.08 253.96 301.006 253.96 301.006L255.696 270.691L205.443 268.219Z" fill="#262A2A"/>
<path d="M240.629 306.897C241.411 308.33 276.277 361.924 276.277 361.924C276.277 361.924 281.567 390.313 282.74 402.834C283.913 415.355 292.485 447.552 292.485 447.552L320.544 445.349C320.544 445.349 312.955 362.453 308.264 346.297C303.573 330.141 290.522 298.923 290.522 298.923L279.509 269.711L247.801 270.305L240.629 306.897Z" fill="#262A2A"/>
<path d="M260.477 278.484C260.494 278.489 260.434 278.787 260.302 279.35C260.154 279.956 259.953 280.776 259.701 281.808C259.146 283.985 258.364 287.054 257.403 290.826C255.441 298.435 252.723 308.946 249.559 320.513C246.391 332.083 243.31 342.498 240.96 349.999C239.784 353.749 238.811 356.777 238.111 358.86C237.77 359.867 237.498 360.666 237.298 361.257C237.107 361.803 236.998 362.087 236.981 362.082C236.964 362.077 237.039 361.782 237.198 361.225C237.375 360.627 237.615 359.818 237.918 358.799C238.567 356.649 239.483 353.618 240.608 349.892C242.867 342.367 245.89 331.942 249.057 320.376C252.172 308.821 254.991 298.361 257.048 290.733C258.076 286.978 258.912 283.924 259.506 281.756C259.798 280.734 260.03 279.923 260.202 279.323C260.365 278.769 260.459 278.48 260.477 278.484Z" fill="#424848"/>
<path d="M346.643 152.005C346.643 152.005 349.589 149.679 350.544 149.752C351.498 149.826 357.427 150.681 357.427 150.681C357.427 150.681 357.806 153.175 356.101 153.997C354.397 154.819 351.875 154.885 351.875 154.885L350.462 155.879L346.643 152.005Z" fill="#FFCAAE"/>
<path d="M269.244 160.202L315.695 196.677L338.655 175.037L339.288 170.829C339.468 169.632 339.796 168.463 340.265 167.348L346.204 153.234L360.094 175.759C360.094 175.759 325.948 220.348 319.965 221.908C312.082 223.964 272.811 197.379 272.811 197.379L269.244 160.202Z" fill="#FFCAAE"/>
<path d="M345.977 165.668C346.045 165.562 348.089 167.645 348.978 171.022C349.904 174.391 349.18 177.217 349.068 177.16C348.9 177.149 349.369 174.391 348.475 171.157C347.626 167.912 345.837 165.761 345.977 165.668Z" fill="#FF9A6C"/>
<path d="M239.177 94.6638L238.271 142.266C237.952 150.392 237.522 162.423 250.393 162.341C261.555 161.428 264.789 150.971 265.079 143.388C265.216 139.791 265.338 136.791 265.377 136.423C265.377 136.423 277.586 135.756 278.937 123.75C279.59 117.949 279.961 105.889 280.17 94.9758C280.395 83.2548 271.567 73.3318 259.903 72.1658L258.743 72.0498C246.163 71.5288 239.349 82.0748 239.177 94.6638Z" fill="#FFCAAE"/>
<path d="M265.409 136.426C265.409 136.426 257.788 136.113 250.221 130.234C250.221 130.234 253.161 139.396 265.263 139.512L265.409 136.426Z" fill="#FF935C"/>
<path d="M259.993 101.087C259.725 101.15 258.555 100.205 256.618 99.6461C254.688 99.0731 253.076 99.2051 252.912 99.0151C252.829 98.9281 253.137 98.7621 253.842 98.6961C254.537 98.6281 255.66 98.6911 256.865 99.0431C258.07 99.3961 258.999 99.9321 259.495 100.349C260.003 100.771 260.123 101.061 259.993 101.087Z" fill="#262A2A"/>
<path d="M257.618 103.463C257.562 104.323 256.788 104.986 255.888 104.945C254.99 104.904 254.306 104.174 254.361 103.313C254.416 102.453 255.191 101.789 256.089 101.83C256.989 101.871 257.673 102.602 257.618 103.463Z" fill="#262A2A"/>
<path d="M264.459 113.529C264.461 113.423 265.629 113.34 267.513 113.288C267.99 113.286 268.445 113.237 268.557 112.924C268.702 112.594 268.556 112.066 268.382 111.494C268.053 110.308 267.708 109.065 267.346 107.763C265.92 102.456 264.938 98.1112 265.153 98.0552C265.367 98.0002 266.697 102.256 268.123 107.564C268.463 108.872 268.789 110.118 269.098 111.311C269.223 111.865 269.469 112.504 269.157 113.187C268.995 113.527 268.623 113.748 268.313 113.799C268.001 113.861 267.735 113.84 267.501 113.83C265.617 113.742 264.455 113.635 264.459 113.529Z" fill="#262A2A"/>
<path d="M259.128 91.7648C258.921 92.2068 257.316 91.8268 255.381 91.8748C253.445 91.8818 251.846 92.3058 251.633 91.8698C251.54 91.6618 251.851 91.2578 252.519 90.8768C253.181 90.4958 254.209 90.1738 255.37 90.1568C256.53 90.1418 257.562 90.4358 258.229 90.7978C258.902 91.1588 259.219 91.5538 259.128 91.7648Z" fill="#262A2A"/>
<path d="M278.175 96.0096C277.954 96.3686 276.392 95.9216 274.487 95.8116C272.583 95.6676 270.993 95.9036 270.802 95.5166C270.719 95.3326 271.042 95.0146 271.714 94.7426C272.381 94.4706 273.404 94.2766 274.546 94.3526C275.688 94.4306 276.69 94.7596 277.331 95.1186C277.977 95.4776 278.273 95.8376 278.175 96.0096Z" fill="#262A2A"/>
<path d="M239.268 103.83C239.059 103.721 230.768 100.62 230.407 109.286C230.046 117.952 238.821 116.527 238.846 116.279C238.872 116.03 239.268 103.83 239.268 103.83Z" fill="#FFCAAE"/>
<path d="M236.336 112.884C236.299 112.855 236.18 112.983 235.921 113.09C235.667 113.193 235.236 113.254 234.791 113.066C233.89 112.692 233.179 111.206 233.202 109.643C233.213 108.854 233.41 108.109 233.715 107.499C234.006 106.876 234.434 106.45 234.899 106.388C235.362 106.301 235.677 106.59 235.773 106.839C235.879 107.086 235.817 107.257 235.862 107.274C235.885 107.297 236.054 107.137 235.999 106.776C235.971 106.602 235.877 106.394 235.681 106.219C235.48 106.041 235.178 105.942 234.855 105.964C234.185 105.982 233.557 106.572 233.222 107.242C232.85 107.913 232.61 108.749 232.598 109.636C232.581 111.385 233.407 113.056 234.644 113.47C235.247 113.655 235.763 113.492 236.034 113.298C236.312 113.093 236.365 112.901 236.336 112.884Z" fill="#FF935C"/>
<path d="M264.614 119.271C264.65 119.047 262.962 118.978 261.485 117.789C260.749 117.206 260.231 116.498 259.845 115.983C259.463 115.462 259.193 115.143 259.114 115.192C259.039 115.238 259.16 115.626 259.45 116.225C259.743 116.815 260.244 117.639 261.078 118.302C261.904 118.975 262.854 119.261 263.52 119.344C264.194 119.435 264.611 119.345 264.614 119.271Z" fill="#262A2A"/>
<path d="M277.798 100.127C277.6 100.314 276.118 100.14 274.172 100.669C272.225 101.182 270.908 102.104 270.67 102.033C270.555 102.004 270.736 101.715 271.308 101.304C271.871 100.897 272.867 100.38 274.08 100.056C275.293 99.7318 276.361 99.6958 276.998 99.7828C277.647 99.8668 277.897 100.041 277.798 100.127Z" fill="#262A2A"/>
<path d="M275.199 104.368C275.144 105.228 274.369 105.891 273.47 105.85C272.572 105.809 271.888 105.079 271.943 104.219C271.998 103.359 272.773 102.695 273.671 102.736C274.57 102.777 275.255 103.508 275.199 104.368Z" fill="#262A2A"/>
<path d="M296.757 84.6131C296.639 84.1251 296.297 83.7171 295.872 83.4501C294.945 82.8691 293.857 82.9131 292.809 82.8691C290.2 82.7571 287.629 82.0201 285.334 80.7771C286.156 80.3881 286.928 79.9081 287.588 79.2831C288.953 77.9921 289.771 75.9821 289.21 74.1901C289.105 73.8541 288.92 73.4991 288.586 73.3861C288.056 73.2081 287.575 73.7201 287.191 74.1261C285.93 75.4621 284.782 76.0191 282.96 75.7861C281.828 75.6411 280.736 75.3571 279.858 74.7781C279.823 74.7401 279.793 74.6981 279.758 74.6601C279.342 74.2071 278.936 73.7751 278.535 73.3561C278.534 73.3541 278.532 73.3521 278.532 73.3521L278.533 73.3551C275.521 70.2031 272.917 68.0061 270.207 66.8301C266.235 65.1061 259.537 64.2711 255.321 65.2571C251.105 66.2431 247.254 69.5401 246.557 73.8131C244.262 71.7651 240.737 71.6871 237.846 72.7611L237.775 72.7281C234.56 73.7781 232.66 77.0941 231.634 80.3171C231.578 80.4931 231.528 80.6721 231.475 80.8491C230.353 82.5271 228.85 83.9501 227.077 84.9201C226.764 85.0911 226.406 85.3011 226.359 85.6541C226.312 86.0041 226.601 86.3031 226.883 86.5161C227.632 87.0831 228.512 87.4661 229.432 87.6561C229.12 88.4201 228.758 89.1611 228.316 89.8661C227.94 90.4651 227.493 91.1831 227.79 91.8251C228.02 92.3211 228.637 92.5401 229.18 92.4751C229.723 92.4101 230.211 92.1241 230.68 91.8441C230.302 92.6851 229.924 93.5261 229.546 94.3671C230.693 94.5991 231.888 94.5381 233.017 94.2291C233.612 97.2841 234.273 101.18 235.001 103.26C236.332 103.292 237.601 103.014 238.402 103.774C239.491 104.807 239.939 106.707 241.812 106.04C242.765 105.701 243.679 103.744 244.02 102.792C246.286 96.4701 247.164 89.6581 246.586 82.9671C247.943 81.5961 249.565 80.4901 251.337 79.7281L251.191 79.8521C254.585 78.7741 258.42 77.7271 261.568 79.3911C264.01 80.6821 265.396 83.2891 267.192 85.3881C270.595 89.3661 274.799 91.5671 280.021 91.9321C280.395 95.5761 279.883 100.171 279.97 103.564L283.248 98.1841L283.25 98.2111C283.494 97.8201 283.698 97.4251 283.895 97.0281L283.962 96.9081V96.8931C284.276 96.2561 284.575 95.6181 284.967 94.9911C284.978 95.0011 284.988 95.0111 284.999 95.0211C286.791 96.6901 289.563 94.2861 288.168 92.2731C287.891 91.8741 287.557 91.5151 287.172 91.2171C287.99 92.0271 289.231 92.4381 290.34 92.1301C291.449 91.8211 292.333 90.7311 292.268 89.5811C292.223 88.7961 291.683 88.0811 290.984 87.7531C292.464 87.9071 293.989 87.6241 295.301 86.9221C296.163 86.4601 297.016 85.6871 296.757 84.6131Z" fill="#262A2A"/>
<path d="M250.308 75.2969C250.331 75.3289 249.795 75.6019 249.071 76.3689C248.354 77.1329 247.536 78.4729 247.116 80.3159C246.902 81.2319 246.756 82.2589 246.727 83.3669C246.692 84.4749 246.75 85.6649 246.801 86.9179C246.849 88.1709 246.903 89.4949 246.786 90.8679C246.727 91.5529 246.626 92.2489 246.459 92.9429C246.289 93.6249 246.089 94.3639 245.556 94.9399C245.131 95.4089 244.436 95.6039 243.842 95.4659C243.243 95.3429 242.717 95.0089 242.337 94.5619C241.586 93.6379 241.424 92.4859 241.259 91.4699L241.511 91.5069C241.074 92.4039 240.626 93.2899 239.979 93.9889C239.342 94.6929 238.474 95.1469 237.603 95.2019C237.169 95.2289 236.735 95.1479 236.368 94.9509C235.994 94.7559 235.727 94.4349 235.547 94.0979C235.376 93.7549 235.292 93.3819 235.32 93.0239C235.35 92.6669 235.498 92.3319 235.731 92.0979L235.856 92.2149C234.9 93.2469 233.904 93.7889 233.218 94.0859C232.872 94.2339 232.595 94.3209 232.408 94.3759C232.22 94.4259 232.121 94.4469 232.119 94.4389C232.117 94.4309 232.211 94.3949 232.394 94.3309C232.575 94.2619 232.844 94.1619 233.18 94.0019C233.847 93.6829 234.811 93.1259 235.728 92.0999L235.853 92.2169C235.437 92.6349 235.393 93.3879 235.725 94.0029C235.893 94.3059 236.138 94.5929 236.467 94.7579C236.794 94.9299 237.191 95.0009 237.587 94.9719C238.387 94.9139 239.196 94.4879 239.793 93.8179C240.404 93.1489 240.837 92.2869 241.269 91.3879L241.452 91.0069L241.52 91.4259C241.686 92.4399 241.862 93.5459 242.546 94.3799C242.886 94.7809 243.369 95.0829 243.893 95.1889C244.418 95.3049 244.979 95.1459 245.35 94.7439C245.816 94.2459 246.02 93.5459 246.185 92.8749C246.349 92.1979 246.45 91.5169 246.509 90.8429C246.628 89.4939 246.58 88.1779 246.54 86.9269C246.496 85.6749 246.447 84.4799 246.492 83.3579C246.532 82.2359 246.692 81.1959 246.922 80.2679C247.372 78.4019 248.236 77.0459 248.99 76.2929C249.754 75.5359 250.308 75.2969 250.308 75.2969Z" fill="#424848"/>
<path d="M287.232 88.0051C287.235 88.0091 287.201 88.036 287.133 88.085C287.05 88.142 286.949 88.2111 286.826 88.2961C286.692 88.3911 286.522 88.501 286.307 88.609C286.096 88.723 285.855 88.861 285.565 88.975C284.433 89.476 282.626 89.956 280.388 89.764C278.171 89.579 275.527 88.722 273.195 86.887C270.837 85.093 268.794 82.49 267.147 79.526C266.31 78.045 265.637 76.532 264.887 75.131C264.143 73.729 263.314 72.4301 262.295 71.3941C261.289 70.3531 260.11 69.573 258.883 69.196C258.272 68.996 257.652 68.9381 257.059 68.9361C256.465 68.9521 255.899 69.0571 255.376 69.2131C254.329 69.5331 253.477 70.0841 252.826 70.6571C252.173 71.2351 251.728 71.852 251.42 72.383C250.843 73.475 250.794 74.1841 250.75 74.1711C250.745 74.1701 250.75 74.128 250.763 74.045C250.781 73.946 250.803 73.825 250.83 73.678C250.897 73.357 251.049 72.894 251.323 72.331C251.621 71.782 252.061 71.143 252.719 70.54C253.375 69.943 254.24 69.366 255.315 69.023C255.852 68.856 256.435 68.741 257.052 68.719C257.666 68.714 258.316 68.771 258.949 68.972C260.224 69.353 261.444 70.152 262.478 71.212C263.526 72.267 264.374 73.59 265.127 75C265.886 76.411 266.56 77.921 267.389 79.388C269.024 82.329 271.036 84.903 273.35 86.68C275.639 88.498 278.22 89.356 280.403 89.565C282.603 89.779 284.387 89.338 285.52 88.873C286.664 88.402 287.211 87.9701 287.232 88.0051Z" fill="#424848"/>
<path d="M288.47 82.7463C288.479 82.7633 288.323 82.8653 288.03 83.0353C287.74 83.2113 287.297 83.4253 286.734 83.6503C286.172 83.8803 285.478 84.0903 284.692 84.2603C283.904 84.4163 283.024 84.5243 282.095 84.5343C281.166 84.5343 280.284 84.4353 279.495 84.2873C278.708 84.1253 278.011 83.9223 277.447 83.6983C276.882 83.4793 276.437 83.2693 276.145 83.0973C275.851 82.9303 275.693 82.8303 275.702 82.8133C275.727 82.7663 276.382 83.1263 277.514 83.5113C278.078 83.7083 278.768 83.8873 279.542 84.0323C280.319 84.1633 281.183 84.2523 282.093 84.2523C283.003 84.2423 283.866 84.1443 284.641 84.0053C285.414 83.8523 286.102 83.6653 286.664 83.4623C287.793 83.0663 288.445 82.6993 288.47 82.7463Z" fill="#424848"/>
<path d="M255.398 143.609L267.77 148.646C270.801 149.522 276.586 154.446 280.063 157.775L294.454 176.977L272.452 203.79L255.398 143.609Z" fill="#424848"/>
<path d="M238.138 134.547L236.13 137.691C236.13 137.691 207.046 145.276 204.635 151.102C201.249 159.282 205.687 184.691 205.687 184.691L211.828 239.431L203.432 269.721L280.474 271.038C280.474 271.038 275.799 191.626 274.715 183.22C273.631 174.814 266.287 146.313 266.287 146.313L238.138 134.547Z" fill="#424848"/>
<path d="M273.404 167.719C273.413 167.718 273.429 167.804 273.453 167.972C273.477 168.171 273.508 168.417 273.545 168.72C273.619 169.42 273.72 170.382 273.849 171.601C274.107 174.104 274.436 177.729 274.816 182.212C275.578 191.177 276.446 203.576 277.304 217.274C278.161 230.977 278.971 243.376 279.639 252.346C279.975 256.798 280.248 260.416 280.441 262.967C280.528 264.189 280.597 265.154 280.647 265.856C280.664 266.161 280.677 266.409 280.688 266.609C280.694 266.779 280.693 266.866 280.684 266.867C280.675 266.868 280.659 266.782 280.635 266.614C280.61 266.415 280.58 266.169 280.543 265.866C280.469 265.166 280.368 264.204 280.239 262.985C279.981 260.482 279.652 256.857 279.272 252.375C278.51 243.41 277.642 231.01 276.784 217.307C275.927 203.609 275.117 191.211 274.449 182.241C274.113 177.788 273.839 174.171 273.647 171.619C273.56 170.397 273.491 169.431 273.441 168.729C273.425 168.424 273.411 168.176 273.4 167.976C273.394 167.807 273.395 167.72 273.404 167.719Z" fill="#262A2A"/>
<path opacity="0.3" d="M207.156 256.278L214.918 259.215L219.233 245.655C219.233 245.655 226.63 251.326 231.807 250.586C236.985 249.846 244.381 245.655 244.381 245.655L261.146 248.778L279.514 255.023L278.158 232.34L229.587 229.875L214.917 231.601L207.156 256.278Z" fill="black"/>
<path d="M160.455 275.532L172.983 269.563C174.141 265.685 175.313 261.812 176.591 257.563C181.909 259.923 186.654 262.029 191.603 264.225C193.396 258.651 194.99 253.697 196.645 248.553C201.888 250.818 206.652 252.876 211.7 255.057C213.406 249.543 214.941 244.582 216.579 239.289C220.911 241.246 224.551 243.204 228.413 244.504C230.38 245.166 233.007 245.291 234.88 244.533C240.29 242.344 245.469 239.583 250.917 236.961C251.698 238.452 252.187 239.32 252.616 240.216C255.192 245.606 255.369 245.69 260.87 243.16C266.726 240.467 272.594 237.797 278.393 234.984C280.849 233.793 282.725 233.995 285.231 235.404C304.326 246.142 323.535 246.733 342 234.224C359.479 222.382 367.125 205.294 364.552 184.483C361.991 163.771 350.173 149.335 330.658 142.059C299.901 130.591 266.495 150.486 261.374 182.957C260.952 185.636 259.969 187.07 257.521 188.089C252.508 190.176 247.612 192.542 242.675 194.809C234.403 198.606 234.406 198.611 237.034 207.395C235.383 208.284 234.012 209.127 232.558 209.791C213.39 218.555 162.317 241.349 145.577 248.814L139.75 268.686L160.455 275.532ZM351.67 186.557C347.457 197.644 334.939 203.172 323.847 198.843C312.902 194.572 307.314 182.32 311.33 171.401C315.492 160.087 328.084 154.4 339.386 158.729C350.499 162.987 355.941 175.316 351.67 186.557Z" fill="#F26522"/>
<path opacity="0.3" d="M239.167 221.705L152.702 259.188C151.253 259.816 149.568 259.151 148.94 257.701C148.312 256.252 148.977 254.567 150.427 253.939L236.892 216.455C238.341 215.827 240.026 216.492 240.654 217.942C241.281 219.392 240.616 221.077 239.167 221.705Z" fill="black"/>
<path d="M243.912 221.994C243.916 222.002 243.83 222.051 243.658 222.137C243.459 222.234 243.206 222.357 242.891 222.51C242.178 222.843 241.183 223.308 239.92 223.898C237.296 225.101 233.56 226.815 228.958 228.926C219.694 233.155 206.889 238.981 192.703 245.321C178.511 251.66 165.61 257.28 156.22 261.225C151.529 263.206 147.715 264.768 145.072 265.828C143.775 266.341 142.755 266.745 142.023 267.034C141.695 267.158 141.432 267.257 141.225 267.336C141.044 267.401 140.95 267.43 140.947 267.422C140.944 267.414 141.031 267.368 141.205 267.287C141.407 267.196 141.663 267.081 141.983 266.938C142.706 266.627 143.714 266.193 144.995 265.642C147.647 264.504 151.424 262.884 156.076 260.888C165.427 256.858 178.3 251.186 192.491 244.848C206.657 238.507 219.482 232.767 228.807 228.593C233.438 226.545 237.198 224.883 239.838 223.716C241.119 223.164 242.126 222.729 242.849 222.417C243.173 222.283 243.433 222.176 243.638 222.091C243.815 222.018 243.908 221.985 243.912 221.994Z" fill="#262A2A"/>
<path d="M253.418 241.027C253.288 241.089 249.345 233.146 244.611 223.288C239.876 213.426 236.144 205.384 236.273 205.321C236.403 205.259 240.345 213.2 245.08 223.062C249.815 232.92 253.548 240.965 253.418 241.027Z" fill="#262A2A"/>
<path d="M361.952 191.179C361.952 191.179 361.921 190.912 361.886 190.391C361.853 189.855 361.805 189.084 361.743 188.079C361.714 187.57 361.681 187.002 361.644 186.376C361.579 185.752 361.447 185.076 361.338 184.341C361.222 183.606 361.097 182.815 360.964 181.969C360.864 181.117 360.548 180.252 360.33 179.312C359.476 175.548 357.718 171.099 354.942 166.382C352.144 161.685 348.106 156.778 342.603 152.611C341.912 152.096 341.213 151.575 340.506 151.048C339.769 150.565 338.993 150.122 338.225 149.649C337.442 149.203 336.7 148.661 335.859 148.281C335.028 147.882 334.189 147.48 333.341 147.073C332.916 146.872 332.489 146.669 332.06 146.466C331.614 146.303 331.165 146.14 330.715 145.976C329.814 145.647 328.904 145.316 327.986 144.981C327.059 144.675 326.089 144.477 325.129 144.216C324.159 143.996 323.206 143.655 322.194 143.551C320.189 143.266 318.163 142.853 316.064 142.841C315.019 142.805 313.965 142.702 312.904 142.719C311.843 142.774 310.773 142.829 309.696 142.884C309.158 142.921 308.615 142.918 308.077 142.989C307.54 143.072 307.001 143.154 306.461 143.238C305.382 143.417 304.285 143.543 303.2 143.767C301.061 144.349 298.844 144.783 296.737 145.663L295.129 146.253C294.861 146.354 294.589 146.444 294.324 146.555L293.547 146.93C292.509 147.431 291.466 147.934 290.416 148.441C289.393 148.996 288.411 149.642 287.398 150.243C286.902 150.56 286.373 150.831 285.9 151.189L284.473 152.257C282.503 153.609 280.78 155.3 278.976 156.928C278.159 157.828 277.338 158.732 276.513 159.641L275.893 160.323L275.336 161.06L274.227 162.545L273.113 164.036L272.137 165.63L271.163 167.234L270.674 168.039C270.528 168.316 270.399 168.604 270.26 168.886C269.714 170.02 269.165 171.159 268.615 172.303C268.178 173.494 267.74 174.691 267.3 175.891C265.72 180.754 264.869 185.92 264.799 191.176C264.868 196.434 265.717 201.601 267.296 206.466C267.736 207.667 268.174 208.864 268.61 210.055C269.161 211.199 269.709 212.338 270.256 213.473L270.67 214.321L271.159 215.126L272.134 216.731L273.109 218.326L274.224 219.817L275.333 221.302L275.889 222.039L276.509 222.721C277.334 223.63 278.155 224.534 278.973 225.434C280.777 227.063 282.5 228.754 284.471 230.107L285.898 231.175C286.37 231.534 286.9 231.804 287.396 232.122C288.409 232.723 289.391 233.369 290.414 233.925C291.464 234.432 292.508 234.935 293.545 235.436L294.322 235.811C294.587 235.921 294.86 236.012 295.127 236.113L296.735 236.703C298.842 237.583 301.059 238.017 303.199 238.599C304.284 238.823 305.381 238.95 306.46 239.128C307.001 239.211 307.54 239.294 308.077 239.376C308.615 239.447 309.159 239.443 309.697 239.481C310.774 239.536 311.844 239.591 312.905 239.646C313.966 239.662 315.02 239.56 316.065 239.524C318.165 239.512 320.191 239.098 322.196 238.813C323.207 238.709 324.161 238.368 325.131 238.148C326.091 237.887 327.061 237.69 327.988 237.382C328.906 237.047 329.816 236.715 330.717 236.387C331.168 236.223 331.616 236.06 332.062 235.897C332.491 235.693 332.918 235.491 333.342 235.289C334.19 234.882 335.029 234.479 335.86 234.081C336.7 233.7 337.442 233.158 338.226 232.712C338.993 232.239 339.77 231.797 340.506 231.313C341.213 230.786 341.912 230.265 342.603 229.75C348.105 225.583 352.143 220.675 354.941 215.979C357.716 211.262 359.474 206.814 360.328 203.05C360.546 202.111 360.862 201.246 360.962 200.393C361.095 199.548 361.22 198.757 361.336 198.022C361.445 197.287 361.577 196.611 361.642 195.987C361.678 195.362 361.711 194.794 361.74 194.284C361.802 193.279 361.85 192.508 361.883 191.972C361.921 191.446 361.952 191.179 361.952 191.179C361.952 191.179 361.956 191.446 361.939 191.968C361.918 192.505 361.888 193.278 361.848 194.286C361.826 194.797 361.801 195.367 361.774 195.995C361.718 196.621 361.593 197.3 361.492 198.039C361.383 198.778 361.266 199.573 361.14 200.422C361.047 201.279 360.739 202.149 360.527 203.094C359.699 206.881 357.961 211.364 355.194 216.123C352.404 220.862 348.359 225.821 342.829 230.038C342.134 230.559 341.432 231.087 340.72 231.62C339.98 232.11 339.199 232.559 338.426 233.038C337.638 233.49 336.891 234.037 336.046 234.425C335.21 234.829 334.365 235.238 333.511 235.651C333.083 235.855 332.653 236.061 332.221 236.267C331.771 236.432 331.32 236.598 330.866 236.765C329.958 237.099 329.041 237.435 328.116 237.775C327.182 238.087 326.204 238.289 325.236 238.555C324.258 238.779 323.296 239.125 322.277 239.233C320.255 239.525 318.211 239.946 316.092 239.964C315.037 240.003 313.974 240.107 312.903 240.093C311.832 240.04 310.752 239.987 309.665 239.933C309.122 239.896 308.573 239.9 308.03 239.83C307.488 239.748 306.944 239.665 306.398 239.583C305.308 239.405 304.2 239.278 303.104 239.054C300.942 238.471 298.703 238.035 296.573 237.15C296.033 236.953 295.492 236.755 294.948 236.556C294.677 236.454 294.402 236.363 294.134 236.252L293.349 235.874C292.3 235.37 291.245 234.862 290.184 234.352C289.15 233.793 288.157 233.142 287.133 232.535C286.632 232.215 286.097 231.942 285.619 231.58L284.176 230.503C282.185 229.138 280.441 227.433 278.618 225.787C277.791 224.878 276.961 223.965 276.126 223.048L275.5 222.359L274.937 221.615L273.815 220.116L272.688 218.609L271.701 216.998L270.715 215.377L270.221 214.564L269.802 213.707C269.249 212.56 268.694 211.409 268.137 210.253C267.695 209.048 267.252 207.839 266.807 206.626C265.208 201.709 264.35 196.486 264.281 191.172C264.351 185.86 265.212 180.639 266.811 175.724C267.256 174.511 267.7 173.302 268.142 172.098C268.699 170.943 269.254 169.791 269.806 168.645C269.947 168.36 270.077 168.069 270.225 167.789L270.719 166.976L271.704 165.355L272.691 163.745L273.818 162.239L274.94 160.74L275.503 159.996L276.129 159.307C276.963 158.39 277.794 157.477 278.62 156.569C280.443 154.924 282.187 153.219 284.178 151.855L285.621 150.778C286.099 150.417 286.634 150.144 287.135 149.824C288.159 149.218 289.151 148.567 290.186 148.008C291.247 147.498 292.302 146.99 293.35 146.486L294.135 146.108C294.402 145.997 294.678 145.906 294.949 145.804C295.492 145.605 296.034 145.408 296.573 145.21C298.703 144.325 300.941 143.889 303.103 143.306C304.199 143.081 305.307 142.955 306.396 142.777C306.942 142.694 307.486 142.612 308.028 142.53C308.571 142.459 309.12 142.464 309.663 142.427C310.75 142.373 311.83 142.32 312.901 142.267C313.972 142.253 315.035 142.357 316.09 142.396C318.208 142.413 320.253 142.834 322.274 143.126C323.294 143.234 324.256 143.579 325.233 143.804C326.201 144.07 327.178 144.272 328.113 144.583C329.038 144.923 329.955 145.26 330.863 145.593C331.317 145.76 331.769 145.926 332.218 146.091C332.65 146.297 333.08 146.503 333.508 146.707C334.362 147.12 335.207 147.528 336.043 147.933C336.889 148.32 337.636 148.868 338.424 149.32C339.196 149.799 339.977 150.248 340.718 150.737C341.429 151.271 342.132 151.798 342.827 152.319C348.357 156.536 352.402 161.495 355.193 166.234C357.961 170.993 359.699 175.476 360.527 179.264C360.739 180.209 361.047 181.08 361.14 181.937C361.265 182.787 361.383 183.582 361.492 184.321C361.593 185.06 361.717 185.739 361.774 186.365C361.801 186.993 361.826 187.563 361.848 188.074C361.888 189.082 361.918 189.855 361.939 190.392C361.957 190.912 361.952 191.179 361.952 191.179Z" fill="#262A2A"/>
<path d="M355.288 178.796C355.279 178.796 355.263 178.663 355.242 178.405C355.221 178.122 355.194 177.743 355.158 177.26C355.141 177.006 355.123 176.725 355.103 176.417C355.069 176.108 355.001 175.774 354.945 175.41C354.827 174.683 354.715 173.84 354.434 172.923C354.004 171.062 353.127 168.864 351.748 166.536C350.359 164.217 348.357 161.796 345.635 159.743C342.922 157.709 339.499 155.979 335.55 155.282C331.628 154.61 327.201 154.733 322.985 156.336C321.912 156.68 320.904 157.211 319.867 157.708C318.885 158.302 317.85 158.849 316.936 159.593C315.964 160.26 315.115 161.095 314.225 161.899C313.421 162.789 312.577 163.66 311.884 164.67C310.462 166.646 309.22 168.841 308.469 171.254C307.69 173.653 307.271 176.2 307.236 178.793C307.27 181.387 307.689 183.935 308.467 186.335C309.218 188.75 310.46 190.945 311.882 192.921C312.575 193.931 313.42 194.803 314.224 195.693C315.114 196.497 315.963 197.332 316.935 197.999C317.849 198.743 318.884 199.29 319.866 199.884C320.903 200.382 321.911 200.913 322.984 201.257C327.2 202.86 331.628 202.983 335.55 202.31C339.499 201.613 342.922 199.883 345.635 197.848C348.357 195.794 350.358 193.373 351.747 191.054C353.125 188.726 354.002 186.528 354.432 184.667C354.713 183.751 354.825 182.908 354.943 182.181C354.999 181.817 355.067 181.483 355.101 181.174C355.121 180.866 355.14 180.585 355.156 180.331C355.191 179.848 355.219 179.469 355.24 179.186C355.263 178.929 355.279 178.796 355.288 178.796C355.297 178.796 355.299 178.928 355.295 179.188C355.287 179.473 355.276 179.854 355.263 180.339C355.254 180.595 355.244 180.878 355.233 181.188C355.207 181.499 355.147 181.836 355.099 182.204C354.996 182.938 354.899 183.79 354.632 184.718C354.228 186.602 353.371 188.834 352 191.205C350.618 193.566 348.61 196.038 345.861 198.142C343.121 200.227 339.65 202.006 335.632 202.735C331.642 203.439 327.13 203.33 322.823 201.708C321.728 201.36 320.697 200.822 319.637 200.316C318.633 199.713 317.576 199.155 316.641 198.399C315.648 197.719 314.778 196.87 313.869 196.049C313.046 195.142 312.183 194.253 311.473 193.223C310.017 191.207 308.747 188.964 307.977 186.498C307.179 184.047 306.751 181.442 306.717 178.793C306.752 176.145 307.181 173.541 307.979 171.09C308.749 168.625 310.019 166.382 311.475 164.367C312.185 163.337 313.048 162.448 313.871 161.541C314.78 160.721 315.65 159.872 316.643 159.192C317.578 158.436 318.635 157.878 319.639 157.276C320.698 156.77 321.729 156.232 322.824 155.884C327.13 154.263 331.642 154.153 335.631 154.857C339.648 155.586 343.12 157.365 345.86 159.449C348.609 161.553 350.617 164.025 351.999 166.386C353.37 168.757 354.227 170.989 354.631 172.873C354.899 173.801 354.996 174.653 355.099 175.388C355.147 175.755 355.207 176.093 355.233 176.404C355.244 176.714 355.254 176.997 355.263 177.253C355.277 177.738 355.287 178.12 355.295 178.404C355.299 178.664 355.297 178.796 355.288 178.796Z" fill="#262A2A"/>
<path opacity="0.3" d="M290.521 143.843V238.12C290.521 238.12 296.134 241.011 304.034 242.597L303.072 139.711C298.646 140.575 294.431 141.885 290.521 143.843Z" fill="white"/>
<path d="M283.676 234.664C283.532 234.664 283.416 215.302 283.416 191.424C283.416 167.537 283.533 148.18 283.676 148.18C283.819 148.18 283.936 167.538 283.936 191.424C283.937 215.302 283.82 234.664 283.676 234.664Z" fill="white"/>
<path d="M273.369 158.329C273.398 158.351 273.127 158.776 272.616 159.523C272.096 160.264 271.383 161.364 270.548 162.747C269.706 164.127 268.792 165.822 267.868 167.746C266.968 169.682 266.072 171.853 265.295 174.191C264.535 176.535 263.969 178.816 263.546 180.909C263.149 183.007 262.88 184.914 262.74 186.524C262.592 188.133 262.515 189.442 262.494 190.347C262.463 191.252 262.429 191.754 262.393 191.755C262.357 191.756 262.323 191.255 262.292 190.346C262.25 189.437 262.272 188.119 262.374 186.495C262.467 184.869 262.7 182.941 263.075 180.82C263.476 178.704 264.033 176.397 264.801 174.029C265.586 171.668 266.504 169.481 267.436 167.539C268.392 165.608 269.347 163.918 270.236 162.553C271.117 161.185 271.881 160.11 272.453 159.403C273.016 158.691 273.34 158.307 273.369 158.329Z" fill="white"/>
<path d="M258.679 191.147C258.741 191.277 254.763 193.307 249.794 195.68C244.824 198.054 240.746 199.873 240.684 199.744C240.622 199.614 244.6 197.585 249.57 195.211C254.538 192.837 258.617 191.018 258.679 191.147Z" fill="white"/>
<path d="M232.812 212.314C232.816 212.322 232.748 212.364 232.613 212.438C232.448 212.524 232.249 212.627 232.006 212.754C231.427 213.041 230.641 213.431 229.649 213.922C227.598 214.928 224.617 216.358 220.923 218.102C213.536 221.592 203.284 226.314 191.881 231.351C180.473 236.387 170.076 240.784 162.521 243.892C158.744 245.447 155.679 246.687 153.554 247.525C152.522 247.927 151.704 248.246 151.103 248.48C150.845 248.575 150.635 248.652 150.461 248.716C150.315 248.767 150.239 248.788 150.235 248.78C150.231 248.772 150.301 248.733 150.44 248.667C150.609 248.59 150.813 248.497 151.063 248.383C151.655 248.126 152.461 247.778 153.477 247.338C155.623 246.426 158.653 245.137 162.379 243.553C169.897 240.358 180.267 235.91 191.671 230.875C203.07 225.84 213.343 221.172 220.768 217.768C224.449 216.081 227.443 214.71 229.563 213.738C230.573 213.283 231.373 212.923 231.962 212.658C232.214 212.55 232.421 212.462 232.592 212.389C232.733 212.332 232.808 212.306 232.812 212.314Z" fill="white"/>
<path d="M331.888 152.471C331.875 152.572 330.162 152.218 327.381 152.32C324.618 152.408 320.75 153.101 317.015 155.11C313.279 157.118 310.566 159.963 308.969 162.22C307.351 164.484 306.701 166.108 306.609 166.063C306.58 166.051 306.716 165.637 307.036 164.918C307.354 164.199 307.884 163.185 308.666 162.01C310.209 159.665 312.941 156.708 316.767 154.652C320.591 152.595 324.564 151.947 327.371 151.953C328.782 151.948 329.92 152.065 330.696 152.197C331.473 152.326 331.894 152.441 331.888 152.471Z" fill="white"/>
<path d="M339.557 147.292C339.539 147.323 339.099 147.121 338.322 146.731C337.55 146.331 336.409 145.796 334.983 145.186C333.559 144.567 331.824 143.927 329.867 143.314C327.903 142.726 325.714 142.18 323.382 141.778C321.046 141.395 318.799 141.194 316.75 141.106C314.701 141.045 312.851 141.081 311.303 141.199C309.755 141.309 308.502 141.441 307.642 141.566C306.78 141.68 306.298 141.727 306.291 141.691C306.284 141.656 306.753 141.542 307.609 141.366C308.463 141.179 309.716 140.99 311.272 140.832C312.828 140.665 314.694 140.59 316.764 140.626C318.833 140.688 321.108 140.876 323.468 141.264C325.824 141.67 328.034 142.237 330.01 142.856C331.978 143.5 333.716 144.182 335.131 144.849C336.549 145.508 337.672 146.097 338.417 146.553C339.169 147 339.575 147.261 339.557 147.292Z" fill="white"/>
<path opacity="0.3" d="M219.018 220.197L222.431 202.946L226.45 202.783L228.459 180.32L224.137 198.203L219.751 197.222L215.6 219.504L219.018 220.197Z" fill="black"/>
<path d="M254.226 227.104C254.226 227.104 260.212 222.748 262.272 222.021C264.333 221.294 271.276 220.059 273.723 218.305C273.723 218.305 275.923 219.49 274.063 221.393C272.203 223.296 268.828 225.257 267.07 225.777C265.312 226.297 265.865 227.563 267.128 228.009C268.39 228.455 277.38 229.991 277.38 229.991C277.38 229.991 287.829 230.215 288.685 231.274C289.541 232.333 288.831 233.763 287.976 234.062C287.36 234.277 278.389 234.876 278.389 234.876L273.776 234.328C273.776 234.328 288.112 236.973 288.93 238.182C289.748 239.391 289.039 240.211 288.303 240.649C287.566 241.087 281.251 239.856 281.251 239.856L272.642 238.792L288.305 243.276C288.305 243.276 289.731 243.889 289.432 245.064C289.133 246.239 287.192 246.495 287.192 246.495L270.624 243.282C270.624 243.282 278.696 248.962 278.98 249.703C279.36 250.695 277.69 251.601 277.045 251.187C276.4 250.773 266.007 246.32 266.007 246.32L254.121 240.907L246.25 241.002L249.667 226.415L254.226 227.104Z" fill="#FFCAAE"/>
<path d="M218.61 241.412L252.395 240.91L251.745 226.836L215.601 219.511L220.809 192.943L196.163 187.25C192.54 202.438 191.344 215.2 190.446 225.494C190.446 225.494 188.756 236.143 200.818 239.097C208.494 240.976 218.61 241.412 218.61 241.412Z" fill="#FFCAAE"/>
<path d="M190.143 190.605L224.138 198.205C224.138 198.205 230.077 176.065 230.282 169.921C230.487 163.777 222.068 144.355 210.215 148.286C210.215 148.286 206.626 147.56 203.361 152.358C202.047 154.287 190.143 190.605 190.143 190.605Z" fill="#424848"/>
<path d="M228.801 166.731C228.698 166.729 229.104 164.801 228.429 161.797C228.094 160.306 227.507 158.568 226.594 156.76C225.71 154.942 224.537 153.004 222.632 151.674C220.73 150.365 218.604 149.576 216.614 149.304C214.615 149.004 212.776 148.98 211.246 149.048C209.712 149.113 208.482 149.308 207.647 149.499C206.813 149.695 206.371 149.878 206.352 149.833C206.345 149.817 206.449 149.757 206.657 149.659C206.862 149.551 207.181 149.44 207.595 149.302C208.429 149.048 209.671 148.793 211.224 148.68C212.775 148.564 214.636 148.549 216.685 148.829C218.741 149.086 220.954 149.882 222.936 151.25C224.941 152.647 226.163 154.709 227.026 156.548C227.931 158.401 228.495 160.19 228.79 161.721C229.087 163.256 229.1 164.532 229.033 165.399C228.993 165.833 228.95 166.168 228.898 166.392C228.851 166.618 228.818 166.734 228.801 166.731Z" fill="#262A2A"/>
<path d="M228.801 177.75C228.816 177.753 228.799 177.892 228.754 178.156C228.694 178.469 228.622 178.849 228.534 179.31C228.309 180.381 228.006 181.823 227.633 183.598C226.81 187.314 225.681 192.411 224.384 198.265L224.33 198.51L224.083 198.455C221.947 197.98 219.671 197.474 217.324 196.952C209.84 195.248 203.068 193.707 198.08 192.572C195.676 192 193.706 191.53 192.261 191.186C191.622 191.023 191.101 190.89 190.685 190.784C190.326 190.686 190.139 190.627 190.143 190.609C190.147 190.591 190.341 190.617 190.708 190.682C191.13 190.763 191.658 190.865 192.306 190.989C193.759 191.293 195.742 191.707 198.161 192.213C203.158 193.31 209.941 194.799 217.438 196.445C219.783 196.972 222.059 197.484 224.193 197.964L223.892 198.154C225.26 192.316 226.451 187.233 227.32 183.527C227.753 181.766 228.105 180.334 228.366 179.272C228.486 178.819 228.586 178.445 228.668 178.137C228.74 177.879 228.786 177.746 228.801 177.75Z" fill="#262A2A"/>
<path d="M362.402 175.034C362.402 175.034 363.384 175.421 364.484 174.455C365.583 173.489 367.413 170.957 366.617 170.001C365.821 169.045 363.813 168.669 363.813 168.669C363.813 168.669 365.271 166.822 364.635 165.479C363.728 163.565 361.929 164.333 361.929 164.333C361.929 164.333 362.769 162.933 361.98 160.772C361.761 160.173 361.301 159.688 360.717 159.432L358.98 158.67C358.98 158.67 360.535 156.355 358.762 154.424C358.395 154.024 357.923 153.711 357.404 153.466C355.11 152.382 352.329 152.596 350.631 154.482C352.035 155.874 353.602 157.429 353.255 158.574C353.255 158.574 345.909 163.443 347.807 166.024C349.035 167.694 350.312 166.941 350.312 166.941C350.312 166.941 348.485 168.602 349.451 169.702C349.753 170.046 350.171 170.233 350.604 170.328C351.626 170.553 352.308 170.538 353.36 169.922L354.566 169.24C354.566 169.24 354.049 170.796 355.073 171.653C355.158 171.724 355.246 171.788 355.334 171.846C356.222 172.423 357.39 172.335 358.273 171.75L361.002 169.942L361.239 171.28C361.239 171.28 359.629 173.147 362.402 175.034Z" fill="#FFCAAE"/>
<path d="M362.403 175.034C362.403 175.034 362.026 174.868 361.474 174.33C361.211 174.053 360.899 173.665 360.745 173.103C360.594 172.545 360.681 171.82 361.149 171.203L361.122 171.301C361.043 170.883 360.959 170.437 360.87 169.966L361.077 170.055C360.571 170.397 360.03 170.764 359.454 171.153C359.165 171.348 358.867 171.549 358.561 171.756C358.265 171.966 357.898 172.184 357.503 172.291C356.722 172.529 355.739 172.437 355.015 171.843C354.636 171.565 354.367 171.103 354.287 170.627C354.199 170.145 354.236 169.664 354.375 169.175L354.668 169.416C354.084 169.735 353.537 170.097 352.864 170.412C352.189 170.733 351.351 170.733 350.629 170.559C350.253 170.485 349.854 170.345 349.522 170.079C349.19 169.839 348.915 169.379 348.945 168.92C348.957 168.465 349.142 168.068 349.362 167.72C349.586 167.368 349.844 167.058 350.153 166.762L350.434 167.143C349.897 167.422 349.288 167.398 348.767 167.161C348.244 166.919 347.856 166.52 347.541 166.055C347.199 165.552 347.192 164.887 347.356 164.347C347.517 163.796 347.808 163.314 348.126 162.862C349.453 161.083 351.225 159.676 353.112 158.355L353.007 158.496C353.119 158.104 352.94 157.607 352.657 157.166C352.379 156.717 352.016 156.291 351.636 155.878C351.253 155.463 350.85 155.063 350.449 154.664L350.274 154.49L350.439 154.305C351.285 153.357 352.479 152.774 353.69 152.613C354.905 152.444 356.129 152.65 357.212 153.103C358.297 153.522 359.319 154.351 359.691 155.502C360.06 156.658 359.76 157.851 359.181 158.801L359.078 158.446C359.685 158.715 360.283 158.98 360.872 159.241C361.512 159.54 362.008 160.109 362.217 160.753C362.637 161.968 362.694 163.303 362.115 164.44L361.847 164.133C362.492 163.893 363.197 163.909 363.783 164.225C364.374 164.548 364.711 165.094 364.919 165.672C365.078 166.287 364.94 166.882 364.743 167.391C364.534 167.904 364.271 168.358 363.954 168.774L363.848 168.492C364.682 168.677 365.445 168.943 366.105 169.358C366.422 169.579 366.749 169.798 366.897 170.212C367.015 170.607 366.927 170.977 366.831 171.3C366.353 172.574 365.595 173.446 364.966 174.118C364.337 174.802 363.623 175.13 363.13 175.143C362.885 175.161 362.699 175.132 362.578 175.102C362.457 175.074 362.4 175.042 362.403 175.034C362.406 175.013 362.651 175.11 363.118 175.048C363.587 175 364.229 174.676 364.825 173.989C365.417 173.319 366.145 172.419 366.565 171.22C366.65 170.923 366.707 170.591 366.614 170.311C366.531 170.05 366.225 169.813 365.934 169.629C365.325 169.257 364.57 169.005 363.782 168.843L363.516 168.788L363.676 168.561C364.208 167.805 364.781 166.773 364.54 165.784C364.37 165.328 364.052 164.824 363.586 164.592C363.132 164.343 362.52 164.339 362.014 164.532L361.494 164.731L361.747 164.225C362.218 163.281 362.191 162.021 361.785 160.911C361.606 160.372 361.198 159.917 360.672 159.673C360.085 159.417 359.489 159.157 358.884 158.893L358.633 158.784L358.781 158.539C359.28 157.713 359.542 156.62 359.22 155.665C358.901 154.696 358.036 153.97 357.017 153.578C356.008 153.159 354.873 152.974 353.763 153.13C352.655 153.28 351.588 153.806 350.827 154.659L350.817 154.3C351.219 154.698 351.626 155.103 352.021 155.53C352.412 155.956 352.792 156.398 353.102 156.898C353.402 157.382 353.683 157.995 353.506 158.652L353.484 158.736L353.401 158.793C351.56 160.075 349.792 161.486 348.539 163.161C347.947 163.973 347.452 165.033 347.959 165.798C348.215 166.185 348.57 166.546 348.97 166.727C349.36 166.918 349.85 166.914 350.194 166.739L351.592 166.029L350.475 167.121C349.954 167.63 349.438 168.292 349.409 168.936C349.366 169.578 350.071 170.013 350.724 170.13C351.424 170.295 352.093 170.299 352.701 170.025C353.296 169.755 353.895 169.376 354.471 169.068L354.908 168.834L354.764 169.309C354.517 170.122 354.617 171.086 355.252 171.553C355.867 172.071 356.71 172.165 357.412 171.965C358.113 171.772 358.688 171.25 359.288 170.9C359.871 170.522 360.42 170.166 360.932 169.834L361.106 169.721L361.139 169.923C361.217 170.396 361.291 170.844 361.36 171.263L361.369 171.316L361.333 171.361C360.914 171.888 360.803 172.554 360.927 173.063C361.05 173.582 361.328 173.966 361.569 174.247C362.074 174.796 362.425 175 362.403 175.034Z" fill="#FF9A6C"/>
<path d="M359.353 157.93C359.411 157.941 359.336 158.676 358.845 159.749C358.366 160.822 357.409 162.176 356.07 163.363C354.731 164.55 353.348 165.384 352.343 165.951C351.333 166.514 350.684 166.813 350.648 166.753C350.61 166.69 351.195 166.276 352.15 165.637C353.101 164.993 354.427 164.124 355.723 162.974C357.018 161.826 357.973 160.571 358.517 159.581C359.072 158.595 359.272 157.908 359.353 157.93Z" fill="#FF9A6C"/>
<path d="M361.988 163.845C362.064 163.853 361.919 164.475 361.198 165.054C360.497 165.613 359.514 166.28 358.408 167.026C356.196 168.503 354.339 169.603 354.259 169.483C354.179 169.364 355.907 168.07 358.119 166.593C359.217 165.853 360.259 165.216 360.975 164.761C361.692 164.303 361.92 163.819 361.988 163.845Z" fill="#FF9A6C"/>
<path d="M364.028 168.548C364.11 168.661 363.494 169.237 362.555 169.646C361.617 170.059 360.777 170.122 360.749 169.985C360.717 169.841 361.462 169.56 362.346 169.169C363.232 168.784 363.944 168.426 364.028 168.548Z" fill="#FF9A6C"/>
<path d="M363.572 170.027C363.58 170.177 362.883 170.313 362.204 170.801C361.514 171.272 361.147 171.881 361.009 171.822C360.873 171.789 361.078 170.948 361.905 170.374C362.727 169.794 363.586 169.888 363.572 170.027Z" fill="#FF9A6C"/>
</svg>
