<svg width="498" height="494" viewBox="0 0 498 494" fill="none" xmlns="http://www.w3.org/2000/svg">
<g clip-path="url(#clip0_1599_166933)">
<path d="M434.212 219.631C434.207 219.627 434.202 219.548 434.197 219.4C434.193 219.229 434.188 219.014 434.181 218.746C434.172 218.145 434.16 217.309 434.146 216.236C434.126 214.034 434.098 210.87 434.063 206.879L434.213 207.028C423.159 207.05 405.579 207.085 385.803 207.125C385.913 207.016 385.555 207.369 386.047 206.879V206.882V206.889V206.902V206.927V206.979V207.082V207.287V207.697V208.515C386.047 209.059 386.047 209.601 386.047 210.142C386.047 211.223 386.046 212.296 386.046 213.36C386.045 215.488 386.043 217.582 386.042 219.632L385.801 219.393C399.587 219.436 411.65 219.475 420.301 219.502C424.611 219.53 428.069 219.554 430.485 219.57C431.66 219.584 432.579 219.594 433.238 219.602C433.535 219.609 433.771 219.614 433.958 219.618C434.122 219.621 434.207 219.626 434.212 219.631C434.217 219.636 434.142 219.641 433.988 219.647C433.809 219.651 433.582 219.656 433.298 219.662C432.652 219.67 431.749 219.68 430.596 219.694C428.194 219.71 424.754 219.734 420.468 219.762C411.775 219.79 399.653 219.828 385.8 219.871L385.56 219.872V219.631C385.559 217.581 385.557 215.487 385.556 213.359C385.556 212.295 385.555 211.222 385.555 210.141C385.555 209.601 385.555 209.058 385.555 208.514V207.696V207.286V207.081V206.978V206.926V206.901V206.888V206.881V206.878C386.048 206.386 385.693 206.742 385.804 206.632C405.58 206.672 423.16 206.706 434.214 206.728H434.365L434.364 206.878C434.329 210.906 434.301 214.101 434.282 216.324C434.266 217.382 434.254 218.209 434.245 218.8C434.239 219.058 434.233 219.264 434.229 219.428C434.222 219.568 434.217 219.636 434.212 219.631Z" fill="#FBD1BD"/>
<path d="M527.326 86.2558C527.321 86.2509 527.316 86.1726 527.311 86.024C527.307 85.8536 527.302 85.6386 527.295 85.3701C527.286 84.7696 527.274 83.9334 527.259 82.8604C527.239 80.6588 527.211 77.4942 527.176 73.5032L527.326 73.6528C516.272 73.6746 498.693 73.7103 478.917 73.7489C479.026 73.6399 478.668 73.9937 479.161 73.5042V73.5072V73.5141V73.527V73.5527V73.6043V73.7073V73.9124V74.3226V75.14C479.161 75.684 479.161 76.2269 479.161 76.7669C479.161 77.8479 479.16 78.9209 479.16 79.985C479.159 82.1133 479.157 84.2069 479.156 86.2578L478.915 86.018C492.7 86.0616 504.764 86.1003 513.415 86.127C517.724 86.1558 521.182 86.1795 523.598 86.1954C524.773 86.2093 525.693 86.2192 526.351 86.2271C526.648 86.234 526.885 86.239 527.072 86.2429C527.234 86.2449 527.321 86.2499 527.326 86.2558C527.331 86.2608 527.255 86.2657 527.102 86.2717C526.923 86.2757 526.696 86.2806 526.411 86.2875C525.765 86.2955 524.862 86.3054 523.709 86.3192C521.307 86.3351 517.867 86.3589 513.582 86.3876C504.888 86.4154 492.766 86.453 478.914 86.4966L478.673 86.4976V86.2568C478.672 84.2059 478.67 82.1123 478.669 79.9841C478.669 78.9199 478.668 77.8469 478.668 76.7659C478.668 76.2259 478.668 75.683 478.668 75.139V74.3216V73.9114V73.7063V73.6033V73.5518V73.526V73.5131V73.5062V73.5032C479.162 73.0118 478.806 73.3665 478.918 73.2575C498.694 73.2971 516.273 73.3318 527.328 73.3536H527.479L527.478 73.5032C527.442 77.5318 527.414 80.7262 527.395 82.9495C527.379 84.0077 527.367 84.834 527.358 85.4255C527.352 85.6831 527.346 85.8892 527.342 86.0537C527.335 86.1924 527.331 86.2608 527.326 86.2558Z" fill="#FBD1BD"/>
<path d="M255.821 420.534L244.851 425.22L245.588 360.565C245.931 352.831 242.355 349.528 240.413 347.329C222.795 327.382 196.515 341.849 196.284 362.079L195.625 419.853L184.965 419.733L186.025 359.275C186.102 352.463 191.416 340.652 196.779 336.422C226.429 313.036 256.772 337.201 256.48 362.759L255.821 420.534Z" fill="#FAC1A7"/>
<path d="M255.821 420.532C255.821 420.532 255.813 420.134 255.816 419.376C255.82 418.61 255.827 417.49 255.835 416.023C255.858 413.074 255.893 408.743 255.936 403.169C255.985 397.597 256.046 390.783 256.116 382.873C256.153 378.921 256.194 374.695 256.236 370.215C256.194 365.743 256.642 360.97 255.723 356.08C254.872 351.194 252.803 346.282 249.617 341.903C249.211 341.361 248.822 340.801 248.398 340.265C247.942 339.755 247.483 339.242 247.023 338.727C246.147 337.652 245.04 336.785 244.029 335.806C243.514 335.325 242.917 334.935 242.362 334.492C241.784 334.079 241.256 333.588 240.629 333.234C239.402 332.491 238.209 331.66 236.868 331.068C234.29 329.677 231.416 328.82 228.494 328.081C227.748 327.959 226.999 327.837 226.248 327.714L225.118 327.53C224.738 327.491 224.355 327.479 223.972 327.453C223.206 327.406 222.438 327.359 221.666 327.312C220.893 327.299 220.118 327.362 219.34 327.383C213.109 327.599 206.806 329.721 201.348 333.351C198.618 335.182 196.177 337.47 193.981 340.005C191.834 342.592 190.079 345.525 188.678 348.651C187.33 351.809 186.501 355.196 186.07 358.662C185.773 362.137 185.852 365.71 185.784 369.289C185.621 383.626 185.454 398.471 185.283 413.675C185.26 415.705 185.236 417.729 185.213 419.736L184.967 419.484C188.593 419.526 192.165 419.566 195.627 419.605L195.375 419.85C195.508 408.359 195.639 397.117 195.765 386.192C195.829 380.73 195.892 375.348 195.954 370.053C195.985 367.406 196.016 364.78 196.047 362.178C196.113 359.553 196.536 356.962 197.333 354.506C199.007 349.624 202.133 345.351 206.151 342.424C206.662 342.073 207.133 341.663 207.675 341.365L209.267 340.426C210.377 339.903 211.46 339.322 212.625 338.963C213.758 338.512 214.944 338.261 216.111 337.975C216.699 337.853 217.298 337.798 217.888 337.707L218.775 337.583L219.666 337.547C222.041 337.355 224.393 337.674 226.656 338.13C228.915 338.657 231.053 339.502 233.045 340.557C236.964 342.768 240.25 345.882 242.402 349.54C243.555 351.326 244.301 353.293 244.963 355.23C245.487 357.209 245.901 359.197 245.945 361.182C245.964 361.676 245.982 362.169 246.001 362.659C245.995 363.146 245.989 363.631 245.983 364.114C245.971 365.08 245.959 366.037 245.947 366.985C245.923 368.88 245.899 370.74 245.876 372.563C245.783 379.854 245.696 386.556 245.619 392.6C245.452 404.679 245.321 414.128 245.235 420.412L245.162 420.338C248.784 420.398 251.439 420.443 253.2 420.471C254.075 420.488 254.725 420.502 255.167 420.51C255.6 420.52 255.821 420.532 255.821 420.532C255.821 420.532 255.618 420.539 255.191 420.539C254.752 420.538 254.108 420.536 253.241 420.534C251.471 420.523 248.802 420.507 245.16 420.484H245.086L245.087 420.411C245.144 414.126 245.229 404.677 245.337 392.597C245.398 386.553 245.464 379.85 245.537 372.559C245.556 370.736 245.575 368.876 245.594 366.98C245.604 366.032 245.614 365.075 245.624 364.109C245.629 363.627 245.634 363.141 245.639 362.654C245.62 362.17 245.6 361.685 245.58 361.197C245.534 359.243 245.12 357.286 244.601 355.337C243.944 353.432 243.208 351.496 242.067 349.74C239.943 346.142 236.702 343.084 232.845 340.915C230.885 339.88 228.78 339.052 226.559 338.537C224.334 338.093 222.022 337.781 219.688 337.974L218.812 338.01L217.941 338.134C217.361 338.225 216.773 338.279 216.196 338.4C215.049 338.683 213.884 338.929 212.773 339.375C211.628 339.728 210.566 340.301 209.476 340.816L207.913 341.739C207.379 342.032 206.919 342.437 206.417 342.781C202.475 345.66 199.41 349.861 197.772 354.651C196.992 357.063 196.581 359.602 196.516 362.183C196.487 364.785 196.459 367.411 196.43 370.058C196.371 375.353 196.311 380.736 196.251 386.197C196.128 397.122 196.002 408.364 195.873 419.855L195.87 420.103L195.621 420.1C192.159 420.061 188.587 420.02 184.961 419.98L184.711 419.977L184.714 419.728C184.737 417.722 184.76 415.698 184.784 413.667C184.959 398.464 185.13 383.619 185.295 369.281C185.367 365.695 185.285 362.154 185.59 358.609C186.027 355.096 186.871 351.662 188.239 348.463C189.661 345.294 191.443 342.324 193.62 339.705C195.847 337.138 198.321 334.823 201.09 332.97C206.621 329.298 213.01 327.157 219.318 326.945C220.106 326.925 220.891 326.863 221.673 326.877L224.348 327.044C224.839 327.099 225.329 327.154 225.82 327.21L228.056 327.578C228.399 327.65 228.743 327.722 229.088 327.795C231.871 328.517 234.594 329.37 237.053 330.7C238.408 331.301 239.614 332.143 240.855 332.897C241.488 333.257 242.022 333.754 242.606 334.172C243.167 334.621 243.769 335.016 244.289 335.504C245.311 336.495 246.428 337.376 247.311 338.462C247.776 338.985 248.239 339.504 248.698 340.02C249.126 340.562 249.519 341.129 249.928 341.678C253.141 346.111 255.22 351.079 256.069 356.017C256.987 360.968 256.523 365.765 256.551 370.247C256.492 374.744 256.436 378.983 256.383 382.95C256.273 390.869 256.177 397.693 256.1 403.272C256.017 408.83 255.952 413.149 255.909 416.089C255.884 417.542 255.865 418.653 255.852 419.411C255.837 420.158 255.821 420.532 255.821 420.532Z" fill="#FBD1BD"/>
<path d="M268.706 464.399L171.891 463.304L172.818 381.992L269.292 383.083C271.35 383.106 272.999 384.786 272.976 386.835L272.13 461.068C272.108 462.929 270.576 464.42 268.706 464.399Z" fill="#FBD1BD"/>
<path d="M255.333 464.245L171.499 463.298C169.191 463.272 167.342 461.388 167.367 459.09L168.201 385.965C168.227 383.741 170.057 381.959 172.291 381.985L257.163 382.944C259.396 382.969 261.186 384.792 261.16 387.016L260.335 459.377C260.304 462.096 258.064 464.277 255.333 464.245Z" fill="#FAC1A7"/>
<path d="M227.264 416.107C227.337 409.722 222.101 404.507 215.642 404.627C209.616 404.738 204.58 409.752 204.461 415.753C204.358 420.984 207.838 425.397 212.628 426.815L205.01 442.394L224.659 442.976L218.848 426.886C223.638 425.584 227.204 421.296 227.264 416.107Z" fill="#FCE0D3"/>
<path d="M260.425 456.667C260.287 456.665 260.397 442.504 260.672 425.042C260.945 407.575 261.28 393.42 261.418 393.422C261.555 393.424 261.446 407.581 261.171 425.049C260.897 442.511 260.563 456.669 260.425 456.667Z" fill="#FAFAFA"/>
<path d="M239.692 385.217C239.692 385.354 227.178 385.489 211.745 385.519C196.307 385.549 183.795 385.461 183.795 385.324C183.795 385.187 196.306 385.051 211.744 385.021C227.177 384.992 239.692 385.079 239.692 385.217Z" fill="white"/>
<path d="M204.021 421.952C203.994 421.967 203.816 421.721 203.557 421.239C203.296 420.758 202.976 420.027 202.704 419.083C202.15 417.214 201.909 414.375 202.888 411.496C203.871 408.618 205.799 406.511 207.381 405.365C208.175 404.781 208.874 404.395 209.376 404.172C209.876 403.947 210.168 403.86 210.18 403.888C210.223 403.972 209.092 404.433 207.598 405.643C206.111 406.83 204.304 408.894 203.361 411.657C202.421 414.42 202.592 417.152 203.046 418.996C203.491 420.861 204.106 421.912 204.021 421.952Z" fill="white"/>
<path d="M208.464 427.387C208.392 427.504 207.722 427.22 206.97 426.754C206.217 426.288 205.665 425.815 205.739 425.698C205.812 425.581 206.481 425.866 207.235 426.332C207.987 426.798 208.538 427.271 208.464 427.387Z" fill="white"/>
<path d="M217.973 329.924C217.975 329.968 217.287 330.018 216.053 330.174C214.819 330.325 213.043 330.641 210.916 331.27C206.686 332.489 200.991 335.315 196.494 340.386C192.002 345.465 189.9 351.446 189.215 355.777C188.855 357.957 188.763 359.751 188.767 360.989C188.767 362.226 188.803 362.914 188.759 362.917C188.742 362.918 188.716 362.748 188.681 362.422C188.655 362.097 188.582 361.615 188.572 360.993C188.51 359.748 188.547 357.935 188.866 355.723C189.469 351.329 191.548 345.225 196.119 340.057C200.695 334.896 206.516 332.077 210.818 330.932C212.982 330.339 214.784 330.075 216.032 329.982C216.654 329.912 217.142 329.925 217.471 329.909C217.799 329.902 217.972 329.907 217.973 329.924Z" fill="white"/>
<path d="M188.246 371.678C188.107 371.675 188.024 370.351 188.059 368.72C188.094 367.089 188.233 365.77 188.371 365.773C188.508 365.776 188.593 367.1 188.558 368.731C188.523 370.361 188.384 371.681 188.246 371.678Z" fill="white"/>
<path d="M249.573 95.6953H201.16V108.448H249.573V95.6953Z" fill="#FCE0D3"/>
<path d="M229.101 121.881C229.096 121.876 229.091 121.797 229.086 121.649C229.082 121.478 229.077 121.263 229.07 120.995C229.061 120.394 229.049 119.558 229.033 118.485C229.013 116.283 228.985 113.119 228.951 109.128L229.101 109.277C218.047 109.299 200.467 109.335 180.691 109.374C180.801 109.265 180.442 109.618 180.935 109.128V109.131V109.138V109.151V109.176V109.228V109.331V109.536V109.946V110.764C180.935 111.308 180.935 111.85 180.935 112.391C180.935 113.472 180.934 114.545 180.934 115.609C180.933 117.737 180.931 119.831 180.93 121.881L180.689 121.642C194.475 121.685 206.538 121.723 215.189 121.751C219.499 121.779 222.956 121.803 225.372 121.819C226.548 121.833 227.467 121.843 228.126 121.851C228.422 121.858 228.659 121.863 228.846 121.867C229.009 121.871 229.096 121.876 229.101 121.881C229.106 121.885 229.03 121.89 228.877 121.896C228.698 121.9 228.471 121.905 228.186 121.912C227.541 121.92 226.637 121.93 225.485 121.944C223.083 121.96 219.643 121.984 215.357 122.012C206.663 122.04 194.541 122.078 180.689 122.121L180.448 122.122V121.881C180.447 119.831 180.445 117.737 180.444 115.609C180.444 114.545 180.443 113.472 180.443 112.391C180.443 111.851 180.443 111.308 180.443 110.764V109.946V109.536V109.331V109.228V109.176V109.151V109.138V109.131V109.128C180.937 108.636 180.582 108.992 180.693 108.882C200.469 108.922 218.049 108.956 229.103 108.978H229.254L229.253 109.128C229.217 113.156 229.189 116.351 229.171 118.574C229.155 119.632 229.143 120.459 229.134 121.05C229.128 121.308 229.122 121.514 229.118 121.678C229.111 121.817 229.106 121.885 229.101 121.881Z" fill="#FBD1BD"/>
<path d="M423.647 315.914H375.234V328.667H423.647V315.914Z" fill="#FCE0D3"/>
<path d="M403.175 342.1C403.17 342.095 403.165 342.016 403.16 341.868C403.156 341.697 403.151 341.482 403.144 341.214C403.135 340.613 403.123 339.777 403.108 338.704C403.089 336.503 403.061 333.338 403.026 329.347L403.176 329.497C392.122 329.518 374.542 329.553 354.766 329.593C354.876 329.484 354.518 329.837 355.01 329.348V329.351V329.358V329.371V329.396V329.448V329.551V329.756V330.166V330.984C355.01 331.528 355.01 332.07 355.01 332.611C355.01 333.692 355.009 334.765 355.009 335.829C355.008 337.957 355.006 340.051 355.005 342.102L354.764 341.862C368.55 341.905 380.613 341.944 389.264 341.971C393.574 342 397.032 342.023 399.448 342.039C400.623 342.053 401.542 342.063 402.201 342.071C402.497 342.078 402.734 342.083 402.921 342.087C403.084 342.089 403.17 342.094 403.175 342.1C403.18 342.105 403.104 342.109 402.951 342.115C402.772 342.119 402.545 342.124 402.261 342.131C401.615 342.139 400.712 342.149 399.559 342.163C397.157 342.179 393.717 342.203 389.431 342.231C380.737 342.259 368.616 342.297 354.763 342.34L354.523 342.341V342.101C354.522 340.05 354.52 337.956 354.519 335.828C354.519 334.764 354.518 333.691 354.518 332.61C354.518 332.07 354.518 331.527 354.518 330.983V330.165V329.755V329.55V329.447V329.395V329.37V329.357V329.35V329.347C355.011 328.856 354.656 329.21 354.767 329.101C374.543 329.141 392.123 329.176 403.177 329.197H403.328L403.327 329.347C403.292 333.376 403.264 336.57 403.245 338.793C403.229 339.851 403.217 340.678 403.208 341.269C403.202 341.527 403.196 341.733 403.192 341.897C403.185 342.036 403.18 342.105 403.175 342.1Z" fill="#FBD1BD"/>
<path d="M106.267 75.7246C106.262 75.7196 106.257 75.6414 106.252 75.4927C106.248 75.3223 106.243 75.1073 106.236 74.8388C106.227 74.2384 106.215 73.4021 106.199 72.3291C106.179 70.1275 106.151 66.9629 106.117 62.972L106.267 63.1216C95.2128 63.1434 77.633 63.178 57.8571 63.2177C57.9666 63.1087 57.6084 63.4624 58.1009 62.973V62.9759V62.9829V62.9957V63.0215V63.073V63.1761V63.3812V63.7914V64.6088C58.1009 65.1527 58.1009 65.6947 58.1009 66.2357C58.1009 67.3166 58.0999 68.3897 58.0999 69.4538C58.0989 71.582 58.097 73.6756 58.096 75.7266L57.8552 75.4868C71.6407 75.5304 83.7039 75.568 92.355 75.5958C96.6646 75.6245 100.122 75.6483 102.538 75.6641C103.714 75.678 104.633 75.6879 105.292 75.6958C105.588 75.7028 105.825 75.7077 106.012 75.7117C106.175 75.7137 106.262 75.7186 106.267 75.7246C106.272 75.7295 106.196 75.7345 106.043 75.7404C105.864 75.7444 105.637 75.7493 105.352 75.7553C104.707 75.7632 103.804 75.7731 102.651 75.787C100.249 75.8029 96.8088 75.8266 92.5231 75.8554C83.8293 75.8831 71.7074 75.9208 57.8552 75.9644L57.6143 75.9654V75.7246C57.6134 73.6736 57.6114 71.5801 57.6104 69.4518C57.6104 68.3877 57.6094 67.3146 57.6094 66.2337C57.6094 65.6937 57.6094 65.1507 57.6094 64.6068V63.7894V63.3792V63.1741V63.071V63.0205V62.9947V62.9819V62.9749V62.972C58.1029 62.4805 57.7477 62.8352 57.8591 62.7262C77.635 62.7659 95.2148 62.8006 106.269 62.8223H106.42L106.419 62.972C106.383 67.0006 106.355 70.1949 106.337 72.4183C106.321 73.4765 106.309 74.3028 106.3 74.8943C106.294 75.1519 106.288 75.358 106.284 75.5225C106.277 75.6612 106.272 75.7295 106.267 75.7246Z" fill="#FBD1BD"/>
<path d="M394.939 57.4043C394.934 57.3993 394.929 57.321 394.924 57.1724C394.92 57.002 394.915 56.787 394.908 56.5185C394.899 55.9181 394.887 55.0818 394.871 54.0088C394.851 51.8072 394.823 48.6426 394.789 44.6516L394.939 44.8013C383.885 44.8231 366.305 44.8577 346.529 44.8974C346.638 44.7884 346.28 45.1421 346.773 44.6516V44.6546V44.6616V44.6744V44.7002V44.7517V44.8548V45.0599V45.4701V46.2875C346.773 46.8314 346.773 47.3744 346.773 47.9144C346.773 48.9953 346.772 50.0684 346.772 51.1325C346.771 53.2607 346.769 55.3543 346.768 57.4053L346.527 57.1655C360.313 57.2091 372.376 57.2477 381.027 57.2745C385.336 57.3032 388.794 57.327 391.21 57.3428C392.385 57.3567 393.305 57.3666 393.964 57.3745C394.26 57.3805 394.497 57.3864 394.684 57.3894C394.847 57.3934 394.934 57.3993 394.939 57.4043C394.944 57.4092 394.868 57.4152 394.715 57.4201C394.536 57.4241 394.309 57.429 394.024 57.436C393.379 57.4439 392.476 57.4538 391.323 57.4677C388.921 57.4835 385.481 57.5073 381.195 57.536C372.501 57.5638 360.379 57.6014 346.527 57.645L346.286 57.646V57.4053C346.285 55.3543 346.283 53.2607 346.282 51.1325C346.282 50.0684 346.281 48.9953 346.281 47.9144C346.281 47.3744 346.281 46.8314 346.281 46.2875V45.4701V45.0599V44.8548V44.7517V44.7002V44.6744V44.6616V44.6546V44.6516C346.775 44.1602 346.42 44.5149 346.531 44.4059C366.307 44.4456 383.887 44.4802 394.941 44.502H395.092L395.091 44.6516C395.055 48.6803 395.027 51.8756 395.008 54.098C394.993 55.1561 394.981 55.9825 394.972 56.574C394.965 56.8316 394.96 57.0377 394.956 57.2021C394.949 57.3409 394.944 57.4092 394.939 57.4043Z" fill="#FBD1BD"/>
<path d="M401.503 44.6546C401.497 44.6486 401.491 44.5664 401.485 44.4118C401.48 44.2285 401.473 44.0066 401.466 43.7361C401.455 43.1089 401.44 42.2558 401.422 41.1788C401.399 38.9426 401.366 35.7849 401.326 31.902L401.503 32.0783C393.968 32.0962 383.717 32.1209 372.418 32.1477C372.196 32.3666 372.715 31.8485 372.663 31.9029V31.9059V31.9129V31.9257V31.9515V32.004V32.109V32.3181V32.7362V33.5695C372.663 34.1233 372.663 34.6752 372.662 35.2231C372.661 36.319 372.661 37.4019 372.66 38.469C372.657 40.6022 372.654 42.671 372.651 44.6526L372.416 44.4188C380.813 44.4634 388.042 44.502 393.223 44.5297C395.779 44.5575 397.827 44.5783 399.284 44.5941C399.965 44.606 400.507 44.6159 400.919 44.6239C401.294 44.6348 401.493 44.6447 401.503 44.6546C401.513 44.6645 401.332 44.6734 400.975 44.6833C400.576 44.6902 400.05 44.7002 399.389 44.713C397.944 44.7289 395.914 44.7507 393.381 44.7774C388.16 44.8052 380.876 44.8438 372.415 44.8884L372.18 44.8894V44.6546C372.177 42.673 372.174 40.6042 372.171 38.471C372.17 37.4039 372.17 36.3209 372.169 35.2251C372.169 34.6772 372.169 34.1253 372.168 33.5715V32.7382V32.3201V32.111V32.005V31.9525V31.9257V31.9129V31.9059V31.9029C372.114 31.9545 372.636 31.4363 372.417 31.6562C383.716 31.683 393.967 31.7078 401.502 31.7256H401.682L401.68 31.902C401.64 35.8305 401.607 39.0248 401.584 41.2868C401.565 42.347 401.55 43.1862 401.54 43.8045C401.527 44.3742 401.515 44.6665 401.503 44.6546Z" fill="#FBD1BD"/>
<path d="M89.4544 361.481C89.4494 361.476 89.4445 361.398 89.4395 361.25C89.4355 361.079 89.4305 360.864 89.4236 360.596C89.4146 359.995 89.4027 359.159 89.3867 358.086C89.3668 355.884 89.339 352.72 89.3042 348.729L89.4544 348.878C78.4003 348.9 60.8205 348.935 41.0446 348.975C41.1541 348.866 40.7959 349.219 41.2884 348.729V348.732V348.739V348.752V348.777V348.829V348.931V349.136V349.546V350.364C41.2884 350.908 41.2884 351.451 41.2884 351.991C41.2884 353.071 41.2874 354.145 41.2874 355.209C41.2864 357.337 41.2845 359.43 41.2835 361.481L41.0427 361.242C54.8282 361.285 66.8914 361.324 75.5424 361.351C79.8521 361.379 83.3099 361.403 85.7259 361.419C86.9011 361.433 87.8215 361.443 88.4793 361.451C88.7758 361.457 89.0126 361.463 89.1997 361.467C89.3639 361.471 89.4494 361.475 89.4544 361.481C89.4594 361.486 89.3838 361.491 89.2305 361.497C89.0514 361.501 88.8245 361.506 88.54 361.513C87.8942 361.521 86.9916 361.531 85.8384 361.545C83.4363 361.561 79.9964 361.584 75.7106 361.613C67.0168 361.641 54.8949 361.679 41.0427 361.722L40.8018 361.723V361.482C40.8009 359.431 40.7989 357.338 40.7979 355.21C40.7979 354.146 40.7969 353.072 40.7969 351.991C40.7969 351.451 40.7969 350.909 40.7969 350.365V349.547V349.137V348.932V348.83V348.778V348.753V348.74V348.733V348.73C41.2904 348.238 40.9352 348.593 41.0466 348.484C60.8225 348.524 78.4023 348.558 89.4564 348.58H89.6077L89.6067 348.73C89.5708 352.758 89.543 355.954 89.5241 358.176C89.5081 359.234 89.4962 360.061 89.4873 360.652C89.4803 360.91 89.4753 361.116 89.4713 361.28C89.4644 361.418 89.4594 361.486 89.4544 361.481Z" fill="#FBD1BD"/>
<path d="M96.018 348.731C96.0121 348.725 96.0061 348.643 95.9991 348.488C95.9942 348.305 95.9872 348.083 95.9802 347.812C95.9693 347.185 95.9544 346.332 95.9364 345.255C95.9136 343.019 95.8807 339.861 95.8409 335.978L96.018 336.154C88.4824 336.172 78.2313 336.197 66.9324 336.224C66.7105 336.443 67.2299 335.925 67.1772 335.979V335.982V335.989V336.002V336.028V336.08V336.185V336.394V336.812V337.646C67.1772 338.2 67.1772 338.751 67.1762 339.299C67.1752 340.395 67.1742 341.478 67.1742 342.545C67.1712 344.678 67.1682 346.747 67.1652 348.729L66.9304 348.495C75.3277 348.539 82.5568 348.578 87.7381 348.606C90.2934 348.633 92.3413 348.654 93.799 348.67C94.4797 348.682 95.022 348.692 95.4339 348.7C95.8081 348.711 96.0081 348.721 96.018 348.731C96.028 348.741 95.8469 348.75 95.4897 348.759C95.0906 348.766 94.5642 348.776 93.9035 348.789C92.4587 348.805 90.4288 348.827 87.8963 348.854C82.6752 348.881 75.3914 348.92 66.9304 348.965L66.6955 348.966V348.731C66.6926 346.749 66.6896 344.68 66.6866 342.547C66.6856 341.48 66.6856 340.397 66.6846 339.301C66.6846 338.753 66.6846 338.201 66.6836 337.648V336.814V336.396V336.187V336.082V336.03V336.004V335.991V335.984V335.981C66.6299 336.033 67.1513 335.514 66.9324 335.734C78.2313 335.761 88.4824 335.786 96.018 335.804H96.1971L96.1952 335.98C96.1554 339.909 96.1225 343.103 96.0996 345.365C96.0807 346.425 96.0658 347.264 96.0558 347.883C96.0419 348.45 96.03 348.743 96.018 348.731Z" fill="#FBD1BD"/>
<path d="M241.896 256.623C241.891 256.618 241.886 256.539 241.881 256.391C241.877 256.22 241.872 256.005 241.865 255.737C241.856 255.137 241.844 254.3 241.828 253.227C241.808 251.026 241.78 247.861 241.746 243.87L241.896 244.02C230.842 244.041 213.262 244.076 193.486 244.116C193.596 244.007 193.237 244.361 193.73 243.87V243.873V243.88V243.893V243.919V243.97V244.073V244.278V244.688V245.506C193.73 246.05 193.73 246.593 193.73 247.133C193.73 248.214 193.729 249.287 193.729 250.351C193.728 252.479 193.726 254.573 193.725 256.624L193.484 256.384C207.27 256.428 219.333 256.466 227.984 256.493C232.293 256.522 235.751 256.545 238.167 256.561C239.342 256.575 240.262 256.585 240.921 256.593C241.217 256.599 241.454 256.605 241.641 256.609C241.804 256.612 241.89 256.617 241.896 256.623C241.901 256.628 241.825 256.633 241.672 256.639C241.493 256.643 241.266 256.647 240.981 256.654C240.336 256.662 239.432 256.672 238.28 256.686C235.878 256.702 232.438 256.726 228.152 256.754C219.458 256.782 207.336 256.82 193.484 256.863L193.243 256.864V256.624C193.242 254.573 193.24 252.479 193.239 250.351C193.239 249.287 193.238 248.214 193.238 247.133C193.238 246.593 193.238 246.05 193.238 245.506V244.688V244.278V244.073V243.97V243.919V243.893V243.88V243.873V243.87C193.732 243.379 193.377 243.734 193.488 243.624C213.264 243.664 230.844 243.699 241.898 243.72H242.049L242.048 243.87C242.012 247.899 241.984 251.094 241.965 253.316C241.95 254.375 241.938 255.201 241.929 255.792C241.922 256.05 241.917 256.256 241.913 256.421C241.906 256.559 241.901 256.628 241.896 256.623Z" fill="#FBD1BD"/>
<path d="M248.458 243.872C248.453 243.866 248.447 243.784 248.44 243.63C248.435 243.446 248.428 243.224 248.421 242.954C248.41 242.327 248.395 241.474 248.377 240.397C248.354 238.16 248.321 235.003 248.281 231.12L248.458 231.296C240.923 231.314 230.672 231.339 219.373 231.365C219.151 231.584 219.67 231.066 219.618 231.121V231.124V231.131V231.144V231.169V231.222V231.327V231.537V231.955V232.788C219.618 233.343 219.618 233.894 219.617 234.442C219.616 235.538 219.616 236.621 219.615 237.688C219.612 239.821 219.609 241.89 219.606 243.871L219.371 243.638C227.768 243.682 234.997 243.721 240.179 243.748C242.734 243.775 244.782 243.797 246.239 243.813C246.92 243.825 247.462 243.835 247.874 243.843C248.25 243.853 248.449 243.862 248.458 243.872C248.468 243.882 248.287 243.891 247.93 243.901C247.531 243.908 247.005 243.918 246.344 243.931C244.899 243.947 242.869 243.968 240.336 243.995C235.115 244.023 227.831 244.062 219.37 244.106L219.135 244.107V243.872C219.132 241.891 219.129 239.822 219.126 237.689C219.125 236.622 219.124 235.539 219.124 234.443C219.124 233.895 219.124 233.343 219.123 232.789V231.956V231.538V231.328V231.223V231.17V231.144V231.132V231.125V231.122C219.069 231.173 219.591 230.655 219.372 230.875C230.671 230.902 240.922 230.927 248.457 230.944L248.637 230.945L248.635 231.122C248.595 235.05 248.562 238.245 248.539 240.507C248.52 241.567 248.505 242.406 248.495 243.024C248.483 243.591 248.471 243.884 248.458 243.872Z" fill="#FBD1BD"/>
<path d="M481.913 464.39C481.913 464.533 383.651 464.648 262.466 464.648C141.24 464.648 42.998 464.532 42.998 464.39C42.998 464.248 141.239 464.133 262.466 464.133C383.651 464.133 481.913 464.248 481.913 464.39Z" fill="#263238"/>
<path d="M62.646 409.609L44.7598 433.798L74.8694 456.11C76.8336 453.115 65.5536 435.822 65.5536 435.822L77.6515 420.793L62.646 409.609Z" fill="#6F6F6F"/>
<path d="M57.2163 427.624C56.5148 427.35 55.6252 427.705 55.3217 428.391C55.0192 429.077 55.3725 429.982 56.069 430.267C56.7656 430.553 57.8472 430.16 58.0711 429.444C58.295 428.728 57.8213 427.688 57.076 427.578" fill="white"/>
<path d="M44.7207 433.849L46.6243 431.25L74.7557 453.805C74.7557 453.805 75.6522 455.385 74.7925 456.206L44.7207 433.849Z" fill="#262A2A"/>
<path d="M66.1564 436.03C66.042 436.172 65.2579 435.694 64.1822 435.628C63.1086 435.535 62.2618 435.893 62.1702 435.734C62.0558 435.605 62.9294 434.893 64.23 434.994C65.5295 435.085 66.2888 435.919 66.1564 436.03Z" fill="#262A2A"/>
<path d="M68.3439 439.671C68.2712 439.839 67.4483 439.616 66.4861 439.864C65.5169 440.085 64.89 440.662 64.7487 440.547C64.5935 440.468 65.1328 439.535 66.3348 439.248C67.5339 438.95 68.4444 439.53 68.3439 439.671Z" fill="#262A2A"/>
<path d="M67.3237 444.762C67.1665 444.695 67.5088 443.811 68.4859 443.289C69.4591 442.76 70.3895 442.957 70.3596 443.125C70.3527 443.308 69.5845 443.407 68.7894 443.848C67.9844 444.27 67.4809 444.856 67.3237 444.762Z" fill="#262A2A"/>
<path d="M68.5325 432.298C68.3713 432.386 67.8479 431.684 66.9742 431.124C66.1125 430.546 65.2578 430.345 65.2757 430.163C65.2697 429.993 66.3056 429.92 67.3255 430.593C68.3494 431.26 68.6907 432.236 68.5325 432.298Z" fill="#262A2A"/>
<path d="M135.44 308.403C135.985 311.436 136.832 337.228 137.38 350.829C137.929 364.43 136.564 371.129 135.004 374.174C133.443 377.219 74.5222 420.459 70.0374 430.812L55.1543 418.834C55.1543 418.834 77.0029 379.7 86.3813 372.595C95.7598 365.49 113.667 358.948 113.667 358.948L108.57 284.445L133.036 283.117L135.44 308.403Z" fill="#262A2A"/>
<path d="M80.6865 433.516L80.4258 463.552L117.955 464.066C117.784 460.493 98.4682 453.06 98.4682 453.06L99.4285 433.822L80.6865 433.516Z" fill="#6F6F6F"/>
<path d="M86.8839 451.285C86.1545 451.472 85.6421 452.279 85.8003 453.012C85.9585 453.745 86.7774 454.271 87.5098 454.097C88.2412 453.921 88.8879 452.973 88.6471 452.262C88.4073 451.551 87.4113 450.986 86.7436 451.33" fill="white"/>
<path d="M80.4199 463.615L80.4329 460.398L116.502 462.264C116.502 462.264 118.158 463.022 117.945 464.189L80.4199 463.615Z" fill="#262A2A"/>
<path d="M99.0774 452.881C99.0684 453.063 98.151 453.133 97.2415 453.708C96.3161 454.259 95.8414 455.042 95.6733 454.968C95.5051 454.931 95.7937 453.844 96.9071 453.167C98.0146 452.48 99.1192 452.713 99.0774 452.881Z" fill="#262A2A"/>
<path d="M102.991 454.553C103.031 454.731 102.233 455.03 101.6 455.794C100.944 456.539 100.776 457.371 100.594 457.36C100.422 457.387 100.309 456.316 101.114 455.382C101.911 454.441 102.99 454.379 102.991 454.553Z" fill="#262A2A"/>
<path d="M105.162 459.278C104.995 459.315 104.752 458.4 105.237 457.407C105.714 456.41 106.584 456.028 106.66 456.181C106.761 456.333 106.197 456.861 105.812 457.682C105.408 458.494 105.344 459.263 105.162 459.278Z" fill="#262A2A"/>
<path d="M98.8072 448.471C98.7276 448.636 97.8907 448.372 96.8539 448.428C95.816 448.463 95.0051 448.798 94.9115 448.64C94.807 448.506 95.6031 447.842 96.826 447.793C98.047 447.736 98.8987 448.329 98.8072 448.471Z" fill="#262A2A"/>
<path d="M138.15 280.038C138.15 281.796 141.004 326.187 126.432 358.285C126.432 358.285 121.383 368.328 120.499 372.724C119.615 377.122 100.718 449.912 100.718 449.912L78.9283 449.12C78.9283 449.12 75.4396 412.646 78.972 391.54C82.5045 370.434 88.9555 372.897 88.9555 359.265C88.9555 345.634 85.7036 317.364 85.7036 317.364C85.7036 317.364 80.9433 309.641 79.3213 294.675C78.0029 282.514 83.7473 269.49 83.7473 269.49L89.4341 259.47L137.504 256.961L138.15 280.038Z" fill="#262A2A"/>
<path d="M138.15 280.039C138.15 280.039 138.156 279.528 138.138 278.529C138.116 277.52 138.085 276.036 138.043 274.091C137.946 270.174 137.804 264.408 137.619 256.962L137.616 256.844L137.498 256.85C125.687 257.447 109.276 258.277 89.4246 259.282L89.3201 259.287L89.2684 259.378C87.5002 262.486 85.5648 265.888 83.5707 269.392L83.5647 269.403L83.5607 269.411C82.1298 272.862 80.9726 276.532 80.1347 280.391C79.28 284.242 78.8053 288.304 78.9347 292.466C79.2004 296.623 79.88 300.82 80.891 305.042C81.9467 309.248 83.2931 313.498 85.4981 317.492L85.4643 317.394C86.2892 324.789 87.0504 332.448 87.6982 340.333C88.0176 344.275 88.3012 348.275 88.4972 352.328C88.5967 354.355 88.6694 356.395 88.6853 358.445C88.7211 359.473 88.6445 360.491 88.6256 361.518C88.5191 362.536 88.4684 363.567 88.2435 364.571C87.8843 366.596 87.1519 368.54 86.1807 370.389C85.2155 372.242 84.1329 374.075 83.2254 376.011C81.3746 379.874 80.1775 384.051 79.3108 388.299C77.5754 396.821 77.2252 405.679 77.1286 414.598C77.0908 426.385 77.6889 437.952 78.664 449.146L78.6839 449.375L78.9168 449.383C86.3419 449.652 93.6158 449.915 100.707 450.17L100.915 450.178L100.966 449.978C107.279 425.593 113.172 402.805 118.363 382.313C119.002 379.748 119.632 377.22 120.252 374.729C120.571 373.474 120.783 372.223 121.171 371.038C121.551 369.843 121.995 368.674 122.455 367.521C123.388 365.223 124.395 362.994 125.423 360.823C125.684 360.282 125.942 359.743 126.201 359.207C126.472 358.678 126.727 358.136 126.937 357.582C127.387 356.486 127.834 355.4 128.276 354.325C131.712 345.678 133.735 337.283 135.158 329.62C137.946 314.255 138.315 301.752 138.443 293.223C138.498 284.677 138.15 280.039 138.15 280.039C138.15 280.039 138.145 280.33 138.157 280.899C138.172 281.479 138.194 282.323 138.222 283.43C138.284 285.657 138.317 288.955 138.265 293.223C138.081 301.744 137.66 314.234 134.832 329.563C133.391 337.205 131.351 345.578 127.911 354.179C127.469 355.248 127.023 356.327 126.573 357.416C126.362 357.968 126.112 358.498 125.838 359.031C125.578 359.568 125.318 360.108 125.055 360.65C124.021 362.825 123.007 365.057 122.065 367.366C121.601 368.523 121.151 369.699 120.764 370.912C120.364 372.131 120.147 373.399 119.831 374.629C119.207 377.117 118.574 379.643 117.931 382.205C112.646 402.673 106.764 425.463 100.467 449.85L100.727 449.658C93.6357 449.398 86.3628 449.133 78.9377 448.86L79.1904 449.098C78.2212 437.927 77.6252 426.365 77.663 414.603C77.7595 405.701 78.1088 396.87 79.8312 388.406C80.692 384.182 81.8761 380.049 83.702 376.235C84.5986 374.32 85.6703 372.505 86.6474 370.627C87.6315 368.753 88.3898 366.74 88.756 364.667C88.9848 363.636 89.0366 362.588 89.144 361.551C89.1629 360.511 89.2386 359.469 89.2027 358.442C89.1858 356.381 89.1112 354.335 89.0107 352.305C88.8107 348.243 88.5241 344.239 88.2017 340.293C87.5469 332.401 86.7778 324.742 85.9439 317.34L85.9389 317.294L85.9101 317.241C83.7558 313.349 82.3925 309.099 81.3447 304.931C80.3347 300.746 79.6521 296.546 79.3835 292.447C79.2501 288.335 79.7118 284.307 80.5556 280.481C81.3786 276.651 82.5289 272.986 83.9359 269.575L83.9269 269.592C85.9131 266.084 87.8415 262.678 89.6027 259.566L89.4465 259.663C109.295 258.595 125.702 257.714 137.512 257.079L137.391 256.967C137.623 264.411 137.804 270.175 137.926 274.092C137.994 276.037 138.044 277.52 138.08 278.529C138.115 279.528 138.15 280.039 138.15 280.039Z" fill="#6F6F6F"/>
<path d="M122.516 189.13C122.516 189.13 109.535 186.849 110.788 203.428C111.54 213.355 114.466 230.335 116.088 241.192C116.648 244.944 117.878 251.664 122.863 255.608L158.585 280.225L169.859 266.804L137.962 236.547L132.948 206.626L122.516 189.13Z" fill="#6F6F6F"/>
<path d="M124.036 129.383C128.158 132.617 130.512 137.962 130.106 143.173C129.909 145.703 129.208 148.592 130.861 150.525C132.498 152.437 135.712 152.382 137.281 154.35C139.128 156.668 137.582 160.116 138.242 163C138.863 165.707 141.731 167.702 144.497 167.351C141.254 169.989 137.268 171.711 133.118 172.268C132.057 170.911 130.995 169.554 129.933 168.198C131.14 169.622 130.82 171.893 129.651 173.35C128.482 174.805 126.678 175.599 124.893 176.163C116.369 178.855 106.598 177.273 99.3691 172.032" fill="#262A2A"/>
<path d="M76.2484 151.749C76.8852 149.809 77.9539 148.011 78.3818 146.014C79.3022 141.724 77.2036 136.895 79.2933 133.033C80.7809 130.283 83.9511 128.938 86.9483 128.018C89.9454 127.1 93.1624 126.32 95.3973 124.129C97.0362 122.523 97.9696 120.311 99.6025 118.699C101.931 116.401 105.368 115.623 108.64 115.423C111.999 115.218 115.473 115.539 118.495 117.015C121.516 118.492 124.025 121.264 124.564 124.572C124.826 126.185 124.627 127.876 125.138 129.429C125.699 131.136 127.046 132.465 127.877 134.061C129.632 137.432 128.681 141.972 125.719 144.364L102.653 174.029C97.8084 175.851 86.0676 173.648 82.3232 170.085C78.5788 166.521 74.6403 156.651 76.2484 151.749Z" fill="#262A2A"/>
<path d="M125.111 140.598C124.161 133.862 119.016 125.903 112.298 127.135L91.5613 134.075C89.5205 134.45 90.9812 137.763 91.1812 139.82L95.6898 186.386C95.656 186.396 92.8888 188.377 91.8887 187.995C91.629 187.896 91.3962 188.186 91.5534 188.414C94.044 192.015 105.8 207.756 117.916 202.95C120.622 201.876 117.633 193.385 117.949 190.238L117.589 182.201C117.321 178.098 117.191 176.416 117.196 176.455C117.196 176.455 125.769 174.355 126.697 162.936C127.161 157.258 126.168 148.081 125.111 140.598Z" fill="#FFBF9D"/>
<path d="M123.667 150.962C123.753 151.724 123.176 152.424 122.378 152.528C121.582 152.632 120.865 152.101 120.78 151.338C120.694 150.576 121.27 149.875 122.067 149.771C122.865 149.667 123.581 150.2 123.667 150.962Z" fill="#262A2A"/>
<path d="M109.545 151.845C109.632 152.606 109.055 153.308 108.257 153.411C107.461 153.515 106.744 152.983 106.659 152.221C106.573 151.459 107.149 150.758 107.945 150.654C108.742 150.55 109.459 151.083 109.545 151.845Z" fill="#262A2A"/>
<path d="M124.189 146.188C124.03 146.453 122.678 145.601 120.986 145.847C119.292 146.064 118.207 147.248 117.986 147.034C117.879 146.941 118.01 146.484 118.48 145.951C118.941 145.422 119.779 144.852 120.835 144.706C121.891 144.564 122.848 144.887 123.43 145.274C124.023 145.662 124.267 146.068 124.189 146.188Z" fill="#262A2A"/>
<path d="M108.989 147.442C108.789 147.686 107.458 146.725 105.638 146.802C103.819 146.851 102.527 147.904 102.319 147.674C102.217 147.572 102.409 147.139 102.973 146.664C103.525 146.191 104.481 145.715 105.617 145.674C106.752 145.636 107.726 146.044 108.296 146.479C108.875 146.914 109.086 147.332 108.989 147.442Z" fill="#262A2A"/>
<path d="M114.694 158.114C114.68 158.026 115.639 157.784 117.198 157.463C117.594 157.391 117.967 157.283 118.012 157.007C118.084 156.713 117.884 156.298 117.655 155.849C117.205 154.915 116.735 153.938 116.241 152.912C114.269 148.728 112.808 145.274 112.978 145.197C113.148 145.118 114.885 148.447 116.857 152.633C117.334 153.665 117.789 154.65 118.223 155.591C118.409 156.031 118.709 156.524 118.551 157.136C118.466 157.441 118.189 157.679 117.939 157.767C117.689 157.864 117.464 157.886 117.268 157.913C115.69 158.12 114.708 158.202 114.694 158.114Z" fill="#262A2A"/>
<path d="M117.197 176.455C117.197 176.455 109.613 177.528 101.713 173.586C101.713 173.586 106.138 181.211 117.396 179.288L117.197 176.455Z" fill="#FF9A6C"/>
<path d="M109.924 162.657C110.136 162.296 110.363 161.918 110.726 161.707C111.126 161.475 111.624 161.486 112.08 161.571C112.742 161.695 113.396 161.974 113.851 162.469C114.306 162.965 114.528 163.702 114.298 164.333C114.123 164.984 113.146 165.34 112.48 165.457C111.813 165.574 111.121 165.38 110.531 165.049C110.036 164.772 109.56 164.329 109.534 163.764C109.516 163.368 109.723 163 109.924 162.657Z" fill="#FF9A6C"/>
<path d="M110.246 160.461C110.498 160.428 110.633 162.117 112.178 163.205C113.72 164.298 115.516 163.969 115.547 164.205C115.579 164.309 115.169 164.564 114.408 164.643C113.661 164.726 112.548 164.569 111.603 163.904C110.66 163.237 110.203 162.285 110.091 161.596C109.972 160.893 110.129 160.46 110.246 160.461Z" fill="#262A2A"/>
<path d="M108.851 141.347C108.729 141.782 107.153 141.701 105.335 142.061C103.51 142.385 102.072 143.033 101.8 142.673C101.677 142.499 101.904 142.081 102.47 141.625C103.032 141.171 103.948 140.71 105.04 140.503C106.131 140.299 107.153 140.396 107.842 140.615C108.536 140.835 108.902 141.141 108.851 141.347Z" fill="#262A2A"/>
<path d="M123.223 140.491C122.937 140.868 121.677 140.596 120.195 140.692C118.711 140.743 117.48 141.139 117.162 140.791C117.022 140.622 117.192 140.252 117.714 139.876C118.228 139.501 119.109 139.159 120.129 139.108C121.148 139.058 122.054 139.311 122.596 139.634C123.149 139.957 123.349 140.308 123.223 140.491Z" fill="#262A2A"/>
<path d="M86.9747 135.699C88.0205 134.096 89.9012 133.27 91.6923 132.583C99.418 129.612 107.499 127.563 115.71 126.492C116.733 128.171 115.788 130.454 114.244 131.676C112.702 132.898 110.719 133.38 108.872 134.068C107.025 134.755 105.133 135.815 104.371 137.626C103.562 139.552 104.245 141.834 103.535 143.798C102.312 147.177 97.5751 148.267 96.3721 151.653C95.4616 154.214 96.9512 156.941 97.3244 159.632C97.7463 162.681 96.6119 165.905 94.371 168.026C92.6038 169.698 90.1838 170.636 87.7499 170.683C87.1877 160.986 86.6254 151.288 86.0642 141.591C85.9468 139.572 85.8692 137.396 86.9747 135.699Z" fill="#262A2A"/>
<path d="M67.3553 160.193C68.8937 158.82 70.8221 157.632 71.4351 155.669C72.3276 152.808 70.0211 149.446 71.5067 146.842C72.862 144.466 76.8542 144.585 78.1139 142.159C79.098 140.264 77.9676 138.586 78.3418 136.921C78.7159 135.256 81.0891 133.796 82.7897 133.995L96.0897 153.189C97.3256 159.627 98.5674 163.055 97.1793 166.821C96.4181 168.887 95.425 170.901 95.1265 173.082C94.828 175.263 95.3882 177.734 97.1783 179.023C89.2268 179.643 81.7738 175.5 74.8869 171.493C72.457 170.079 70.028 168.666 67.5981 167.252C66.8399 166.81 66.0498 166.34 65.595 165.591C64.5273 163.831 65.8169 161.565 67.3553 160.193Z" fill="#262A2A"/>
<path d="M74.6875 169.555C74.6875 169.555 74.9701 169.66 75.5373 169.718C76.1005 169.774 76.9563 169.8 78.014 169.543C79.0618 169.29 80.3335 168.756 81.4689 167.692C82.6052 166.643 83.5207 165.008 83.7436 163.064C83.852 162.095 83.7864 161.054 83.4829 160.027C83.1764 158.994 82.6012 158.036 82.0062 157.084C81.4191 156.13 80.7783 155.151 80.4828 154.03C80.1902 152.93 80.1882 151.621 80.9086 150.673C81.6321 149.708 82.9764 149.472 84.2222 148.971C84.8501 148.722 85.4979 148.334 85.9178 147.721C86.3377 147.11 86.479 146.357 86.4651 145.644C86.4482 144.195 85.8272 142.869 85.5606 141.52C85.4242 140.844 85.3755 140.144 85.5476 139.497C85.7158 138.85 86.1258 138.283 86.6949 137.891C87.8432 137.075 89.308 136.945 90.718 136.821C92.1359 136.72 93.6186 136.401 94.8166 135.62C96.0276 134.875 96.9988 133.808 97.6217 132.592C98.2386 131.363 98.4615 130.043 98.6576 128.798C98.8496 127.548 99.0218 126.334 99.4367 125.238C99.8526 124.147 100.522 123.201 101.307 122.431C102.911 120.911 104.936 120.102 106.809 119.95C108.694 119.791 110.404 120.289 111.735 120.971C113.077 121.655 114.08 122.516 114.797 123.294C116.231 124.876 116.631 126.033 116.691 125.996C116.698 125.993 116.672 125.923 116.615 125.791C116.554 125.66 116.479 125.456 116.34 125.21C116.082 124.708 115.64 123.99 114.932 123.175C114.223 122.365 113.218 121.466 111.854 120.742C110.502 120.021 108.747 119.481 106.783 119.625C104.838 119.763 102.729 120.579 101.041 122.154C100.215 122.953 99.5014 123.944 99.0556 125.093C98.6128 126.242 98.4327 127.488 98.2347 128.73C98.0357 129.971 97.8088 131.244 97.2267 132.392C96.6386 133.531 95.7192 134.536 94.5768 135.235C93.4385 135.967 92.0892 136.258 90.6732 136.362C89.2781 136.487 87.7099 136.605 86.4253 137.514C85.7874 137.949 85.2909 138.626 85.0998 139.377C84.9018 140.128 84.9655 140.896 85.1078 141.607C85.3994 143.036 85.9984 144.319 86.0103 145.651C86.0243 146.306 85.8959 146.955 85.5466 147.467C85.1964 147.98 84.6481 148.322 84.0511 148.562C83.457 148.812 82.8182 148.983 82.2022 149.243C81.5903 149.494 80.9763 149.861 80.5673 150.413C79.7355 151.534 79.7743 152.964 80.0877 154.132C80.4171 155.337 81.0878 156.334 81.6788 157.283C82.2808 158.229 82.8411 159.153 83.1396 160.127C83.4371 161.101 83.5097 162.095 83.4162 163.025C83.2232 164.893 82.3654 166.476 81.2878 167.502C80.2091 168.547 78.9842 169.092 77.9672 169.366C75.8905 169.894 74.6816 169.472 74.6875 169.555Z" fill="#6F6F6F"/>
<path d="M64.0807 155.909C64.0807 155.909 63.9215 156.103 63.818 156.556C63.7135 157.001 63.7265 157.736 64.1593 158.52C64.3822 158.901 64.7076 159.297 65.1773 159.585C65.6439 159.87 66.237 160.045 66.8758 160.036C68.1415 160.049 69.6331 159.289 70.3585 157.833C70.7257 157.122 70.9247 156.288 70.9257 155.419C70.9247 154.546 70.6989 153.659 70.3665 152.803C69.7356 151.09 68.5903 149.42 68.5654 147.417C68.5436 146.447 68.7724 145.392 69.4879 144.695C70.1963 143.98 71.2909 143.805 72.3785 143.796C73.4681 143.76 74.6562 143.898 75.8214 143.441C76.3936 143.21 76.91 142.789 77.2374 142.254C77.5708 141.722 77.7449 141.114 77.8185 140.507C77.9648 139.272 77.6752 138.104 77.531 136.987C77.3568 135.869 77.4255 134.768 77.715 133.724C78.2991 131.641 79.7002 129.891 81.4167 128.888C83.1401 127.852 85.1342 127.741 86.9313 127.633C88.7403 127.538 90.4877 127.425 91.9653 126.843C93.443 126.294 94.6301 125.464 95.5286 124.61C96.4381 123.76 97.0541 122.872 97.481 122.115C98.3238 120.581 98.4273 119.602 98.4273 119.602C98.3715 119.581 98.2014 120.546 97.3247 122.024C96.8809 122.754 96.257 123.61 95.3525 124.421C94.459 125.238 93.2898 126.023 91.8529 126.536C90.422 127.077 88.7274 127.172 86.9114 127.25C85.1153 127.343 83.0466 127.431 81.2017 128.519C79.3828 129.571 77.9041 131.4 77.2792 133.601C76.9687 134.695 76.8961 135.896 77.0752 137.046C77.2255 138.191 77.4971 139.33 77.3598 140.451C77.2464 141.567 76.6662 142.63 75.6463 143.017C74.6423 143.421 73.487 143.311 72.3696 143.344C71.266 143.356 70.0133 143.536 69.1764 144.383C68.3396 145.213 68.1117 146.391 68.1386 147.428C68.1595 148.484 68.4739 149.489 68.8669 150.377C69.252 151.275 69.6819 152.108 70.0093 152.94C70.3396 153.77 70.5595 154.608 70.5695 155.422C70.5785 156.237 70.4013 157.02 70.068 157.685C69.4132 159.045 68.054 159.762 66.8718 159.778C66.2798 159.8 65.7275 159.648 65.2917 159.396C64.8539 159.144 64.5384 158.781 64.3155 158.428C63.8837 157.702 63.8389 157.005 63.9105 156.572C63.9792 156.131 64.1046 155.919 64.0807 155.909Z" fill="#262A2A"/>
<path d="M147.891 160.641C147.817 160.636 148.321 161.4 147.865 162.712C147.636 163.328 147.117 164.08 146.212 164.382C145.331 164.682 144.104 164.45 143.293 163.588C142.887 163.165 142.652 162.574 142.61 161.929C142.567 161.285 142.695 160.603 142.914 159.925C143.337 158.584 144.198 157.126 144.067 155.378C143.971 153.683 143.107 151.949 141.648 150.802C140.925 150.225 140.079 149.783 139.169 149.502C138.256 149.209 137.282 149.144 136.337 149.096C135.388 149.048 134.454 149.022 133.588 148.81C132.726 148.604 131.944 148.165 131.447 147.485C130.95 146.809 130.731 145.966 130.673 145.142C130.613 144.311 130.715 143.494 130.879 142.7C131.204 141.117 131.681 139.58 131.592 138.067C131.513 136.563 130.939 135.227 130.172 134.219C129.402 133.192 128.407 132.564 127.58 132.04C126.742 131.517 126.027 131.065 125.509 130.614C124.446 129.72 124.263 128.911 124.205 128.946C124.198 128.949 124.209 128.996 124.239 129.085C124.274 129.172 124.307 129.312 124.398 129.474C124.554 129.807 124.867 130.272 125.388 130.748C125.902 131.231 126.617 131.714 127.439 132.256C128.256 132.802 129.196 133.427 129.909 134.415C130.623 135.387 131.151 136.667 131.208 138.085C131.278 139.509 130.807 141.002 130.461 142.615C130.288 143.422 130.173 144.288 130.232 145.172C130.29 146.05 130.517 146.977 131.081 147.753C131.643 148.533 132.547 149.035 133.476 149.255C134.411 149.484 135.369 149.507 136.314 149.556C137.259 149.604 138.179 149.666 139.034 149.94C139.89 150.202 140.686 150.616 141.364 151.153C142.73 152.219 143.539 153.828 143.641 155.404C143.781 157.002 142.984 158.401 142.548 159.81C142.328 160.519 142.197 161.247 142.254 161.956C142.305 162.661 142.588 163.342 143.056 163.811C143.983 164.759 145.324 164.979 146.298 164.625C147.297 164.263 147.819 163.431 148.037 162.771C148.263 162.09 148.201 161.515 148.114 161.159C148.012 160.8 147.891 160.641 147.891 160.641Z" fill="#262A2A"/>
<path d="M138.376 238.244V227.278C139.608 221.131 139.024 213.839 136.153 208.217C134.479 204.94 130.644 199.717 129.246 197.761L118.285 183.608C112.257 187.978 102.817 184.82 94.7186 181.883C94.7186 181.883 86.7173 186.29 82.9948 190.436C79.0862 194.792 92.4529 249.337 92.4529 249.337C86.3949 261.404 78.5767 272.096 77.3906 283.118L140.677 285.547L137.986 256.654L138.376 238.244Z" fill="#6F6F6F"/>
<path d="M137.504 256.969C137.468 256.967 137.453 256.528 137.455 255.734C137.465 254.836 137.478 253.711 137.493 252.376C137.542 249.431 137.606 245.57 137.675 241.3C137.758 236.972 137.871 233.055 138.009 230.221C138.076 228.804 138.148 227.658 138.212 226.866C138.277 226.075 138.33 225.639 138.366 225.641C138.402 225.643 138.416 226.082 138.414 226.875C138.405 227.774 138.392 228.897 138.377 230.233C138.328 233.179 138.264 237.041 138.195 241.311C138.112 245.637 137.999 249.555 137.86 252.389C137.794 253.806 137.722 254.953 137.657 255.744C137.593 256.536 137.54 256.971 137.504 256.969Z" fill="#262A2A"/>
<path d="M166.411 266.938C166.411 266.938 172.574 267.27 176.399 269.653C180.224 272.037 186.356 275.733 188.889 280.327C190.052 282.436 186.737 282.882 185.1 281.657C183.463 280.431 180.957 278.127 179.714 277.843C178.47 277.56 178.47 277.56 178.47 277.56C178.47 277.56 180.968 283.099 182.258 285.045C183.548 286.991 184.662 290.318 180.803 290.47C180.803 290.47 178.2 293.839 175.573 291.343C175.573 291.343 173.522 294.4 170.219 290.161C170.219 290.161 168.295 292.584 167.492 291.661C166.689 290.738 164.06 289.26 163.292 286.232C162.524 283.204 159.297 275.839 159.297 275.839L166.411 266.938Z" fill="#FFBF9D"/>
<path d="M304.533 181.785C305.224 181.794 333.474 178.832 333.474 178.832C333.474 178.832 335.866 167.393 335.739 164.42C335.613 161.448 333.598 141.781 333.598 141.781L344.179 136.797C344.179 136.797 358.32 184.277 355.228 188.225C352.137 192.174 346.344 195.7 345.846 195.721C345.348 195.742 318.476 207.599 299.773 201.437C281.069 195.275 304.533 181.785 304.533 181.785Z" fill="#FFBF9D"/>
<path d="M279.777 207.416C283.94 211.524 291.104 214.941 303.056 211.97C326.703 206.09 344.422 201.116 351.472 197.305C358.522 193.495 355.77 176.716 356.363 175.954C358.15 173.658 356.19 168.719 353.647 167.952C346.417 165.772 333.823 166.631 333.193 167.289C329.478 171.167 332.867 175.889 332.867 175.889L301.689 179.955C301.689 179.955 296.266 179.587 290.234 180.685" fill="#6F6F6F"/>
<path d="M290.235 180.684C290.235 180.684 290.487 180.619 290.984 180.524C291.479 180.429 292.22 180.306 293.192 180.183C295.135 179.946 298.012 179.675 301.697 179.828L301.673 179.829C309.118 178.836 319.871 177.401 332.839 175.67L332.689 176.015C331.728 174.545 331.113 172.778 331.254 170.916C331.319 169.99 331.648 169.078 332.146 168.279C332.372 167.858 332.708 167.519 333.006 167.149C333.106 167.065 333.289 166.974 333.412 166.931L333.768 166.843C334.007 166.78 334.237 166.76 334.472 166.716C338.208 166.239 342.098 166.222 346.098 166.472C348.096 166.612 350.124 166.851 352.146 167.303C352.651 167.418 353.151 167.563 353.657 167.692C354.184 167.861 354.687 168.147 355.084 168.519C355.897 169.255 356.449 170.212 356.841 171.215C357.219 172.226 357.401 173.333 357.253 174.443C357.144 174.991 356.98 175.551 356.627 176.021C356.534 176.118 356.546 176.389 356.533 176.647L356.542 177.437C356.617 179.566 356.715 181.736 356.66 183.922C356.566 187.034 356.293 190.17 355.177 193.061C354.619 194.487 353.804 195.872 352.585 196.851C351.987 197.367 351.279 197.688 350.62 198.017C349.957 198.368 349.264 198.638 348.594 198.949C345.874 200.111 343.134 201.056 340.441 201.946C337.748 202.834 335.092 203.64 332.494 204.398C322.093 207.413 312.634 209.776 304.692 211.748C302.713 212.257 300.791 212.669 298.96 212.934C297.122 213.149 295.375 213.299 293.74 213.21C290.468 213.117 287.695 212.369 285.595 211.45C283.491 210.514 282.04 209.444 281.118 208.675C280.19 207.903 279.781 207.415 279.781 207.415C279.806 207.389 280.24 207.852 281.184 208.594C282.124 209.334 283.581 210.368 285.676 211.267C287.767 212.147 290.513 212.859 293.75 212.923C295.367 212.997 297.096 212.835 298.915 212.61C300.732 212.334 302.622 211.917 304.604 211.395C312.534 209.379 321.981 206.98 332.36 203.943C334.953 203.181 337.603 202.37 340.287 201.479C342.97 200.588 345.701 199.641 348.395 198.486C349.057 198.178 349.745 197.909 350.395 197.564C351.059 197.231 351.724 196.928 352.263 196.457C353.385 195.555 354.162 194.25 354.698 192.873C355.775 190.087 356.053 186.991 356.143 183.91C356.199 181.743 356.102 179.595 356.027 177.451L356.018 176.639C356.019 176.502 356.026 176.363 356.039 176.217C356.054 176.133 356.051 176.077 356.083 175.97C356.104 175.911 356.13 175.852 356.16 175.799L356.209 175.719C356.505 175.331 356.647 174.848 356.744 174.364C356.877 173.374 356.715 172.339 356.36 171.393C355.996 170.453 355.472 169.555 354.742 168.896C354.38 168.558 353.963 168.326 353.51 168.176C353.016 168.05 352.528 167.907 352.033 167.794C350.05 167.348 348.043 167.108 346.061 166.967C342.103 166.711 338.208 166.724 334.542 167.182C334.32 167.222 334.084 167.244 333.874 167.301L333.554 167.378C333.466 167.419 333.428 167.422 333.347 167.47C333.069 167.817 332.751 168.134 332.543 168.522C332.08 169.262 331.773 170.098 331.711 170.956C331.567 172.67 332.156 174.388 333.048 175.76L333.244 176.061L332.898 176.105C319.92 177.759 309.158 179.129 301.707 180.078L301.696 180.079L301.682 180.078C298.028 179.89 295.149 180.119 293.208 180.314C292.235 180.415 291.493 180.517 290.995 180.589C290.495 180.664 290.235 180.684 290.235 180.684Z" fill="#262A2A"/>
<path d="M449.528 61.7593L450.618 63.7072C453.818 69.432 451.751 76.656 446.003 79.8424L205.828 212.958L193.15 190.279L433.325 57.1639C439.074 53.9775 446.328 56.0344 449.528 61.7593Z" fill="#F26522"/>
<path d="M395.194 30.569L424.605 83.1796L407.218 92.8162L377.807 40.2045C377.209 39.1355 377.595 37.786 378.669 37.1905L392.166 29.71C393.241 29.1145 394.596 29.4989 395.194 30.569Z" fill="#F26522"/>
<path d="M366.75 58.6905L388.178 97.0237C389.045 98.5743 388.486 100.531 386.928 101.395L375.182 107.906C373.625 108.769 371.658 108.212 370.792 106.66L349.363 68.3271C348.496 66.7765 349.056 64.8196 350.614 63.9557L362.36 57.4451C363.918 56.5821 365.883 57.1399 366.75 58.6905Z" fill="#F26522"/>
<path d="M368.277 66.0602L381.547 89.7969L408.55 74.8297L395.281 51.0931L368.277 66.0602Z" fill="#F26522"/>
<path d="M429.793 59.1176C429.863 59.2425 382.729 85.4978 324.53 117.754C266.312 150.022 219.076 176.07 219.006 175.945C218.936 175.82 266.059 149.571 324.279 117.304C382.477 85.0469 429.723 58.9928 429.793 59.1176Z" fill="#262A2A"/>
<path d="M108.56 256.837C126.264 288.507 163.612 301.436 191.977 285.715C220.343 269.994 228.986 231.575 211.282 199.905C193.577 168.235 156.23 155.306 127.865 171.027C99.4983 186.748 90.8562 225.166 108.56 256.837ZM195.911 208.424C208.316 230.616 202.26 257.537 182.384 268.553C162.508 279.57 136.337 270.51 123.931 248.318C111.526 226.126 117.582 199.205 137.458 188.188C157.334 177.172 183.504 186.232 195.911 208.424Z" fill="#F26522"/>
<path d="M245.949 160.678L259.056 184.125C260.798 187.241 259.673 191.174 256.543 192.907L255.479 193.498C252.349 195.233 248.4 194.112 246.658 190.996L233.55 167.549C231.808 164.433 232.934 160.5 236.063 158.766L237.128 158.176C240.257 156.441 244.207 157.562 245.949 160.678Z" fill="#F26522"/>
<path d="M271.12 146.732L284.228 170.179C285.97 173.295 284.845 177.228 281.715 178.962L280.651 179.552C277.521 181.287 273.572 180.167 271.83 177.05L258.722 153.603C256.98 150.487 258.105 146.555 261.235 144.821L262.3 144.23C265.429 142.496 269.377 143.616 271.12 146.732Z" fill="#F26522"/>
<path d="M245.676 160.274C245.801 160.206 248.844 165.523 252.471 172.149C256.099 178.777 258.938 184.204 258.813 184.272C258.687 184.341 255.644 179.024 252.016 172.397C248.389 165.77 245.55 160.342 245.676 160.274Z" fill="#262A2A"/>
<path d="M234.125 168.501C234.251 168.431 237.22 173.506 240.757 179.834C244.296 186.164 247.062 191.35 246.938 191.419C246.812 191.488 243.844 186.414 240.304 180.084C236.768 173.757 234.001 168.57 234.125 168.501Z" fill="#262A2A"/>
<path d="M271.002 146.516C271.127 146.447 274.221 151.744 277.911 158.345C281.602 164.948 284.493 170.356 284.368 170.425C284.242 170.495 281.15 165.199 277.458 158.596C273.767 151.994 270.877 146.586 271.002 146.516Z" fill="#262A2A"/>
<path d="M258.848 153.821C258.973 153.753 262.001 159.015 265.611 165.572C269.221 172.132 272.046 177.503 271.92 177.572C271.795 177.641 268.767 172.381 265.156 165.821C261.547 159.262 258.722 153.889 258.848 153.821Z" fill="#262A2A"/>
<path d="M331.024 118.09C333.312 118.355 335.665 116.685 336.159 114.444C336.654 112.203 335.222 109.705 333.033 108.99C334.46 107.539 334.821 105.157 333.887 103.351C332.955 101.546 330.798 100.454 328.783 100.767C328.703 98.7636 327.504 96.8414 325.738 95.8804C323.971 94.9203 321.698 94.9559 319.963 95.9725C317.744 94.0702 314.159 93.9909 311.858 95.7951C309.903 95.4315 307.769 96.4639 306.848 98.2187C305.926 99.9734 306.293 102.307 307.708 103.698" fill="#262A2A"/>
<path d="M310.837 100.422L311.87 100.425C322.269 100.456 330.9 108.432 331.705 118.756C332.454 128.358 333.156 138.975 333.077 144.125C332.913 154.788 322.196 156.414 322.196 156.414L323.063 169.228L297.075 168.348L294.918 121.879C293.991 110.804 299.693 101.036 310.837 100.422Z" fill="#FFBF9D"/>
<path d="M322.285 156.397C322.285 156.397 315.445 156.787 308.266 152.266C308.266 152.266 311.711 160.338 322.399 159.41L322.285 156.397Z" fill="#FF9A6C"/>
<path d="M325.826 128.771C325.852 129.575 325.19 130.26 324.346 130.303C323.505 130.345 322.8 129.729 322.774 128.925C322.748 128.121 323.41 127.435 324.252 127.393C325.095 127.35 325.799 127.967 325.826 128.771Z" fill="#262A2A"/>
<path d="M329.386 123.961C329.196 124.159 328.041 123.302 326.394 123.301C324.75 123.277 323.539 124.116 323.362 123.915C323.274 123.826 323.468 123.468 323.996 123.089C324.514 122.71 325.399 122.344 326.424 122.352C327.449 122.361 328.309 122.739 328.805 123.125C329.311 123.512 329.481 123.872 329.386 123.961Z" fill="#262A2A"/>
<path d="M310.978 128.061C311.004 128.865 310.343 129.55 309.499 129.593C308.657 129.635 307.952 129.02 307.927 128.215C307.901 127.411 308.563 126.724 309.404 126.682C310.248 126.639 310.952 127.256 310.978 128.061Z" fill="#262A2A"/>
<path d="M313.21 124.22C313.02 124.418 311.863 123.561 310.218 123.56C308.575 123.536 307.364 124.375 307.186 124.173C307.099 124.084 307.291 123.726 307.82 123.347C308.339 122.968 309.222 122.602 310.248 122.61C311.273 122.618 312.135 122.997 312.629 123.382C313.132 123.771 313.303 124.131 313.21 124.22Z" fill="#262A2A"/>
<path d="M319.145 136.392C319.137 136.298 320.161 136.125 321.819 135.919C322.239 135.877 322.637 135.795 322.709 135.51C322.808 135.208 322.634 134.757 322.432 134.268C322.04 133.255 321.63 132.192 321.199 131.078C319.487 126.536 318.25 122.803 318.434 122.735C318.619 122.669 320.156 126.295 321.867 130.837C322.279 131.957 322.673 133.025 323.048 134.045C323.205 134.522 323.478 135.062 323.261 135.688C323.147 136 322.838 136.227 322.569 136.297C322.299 136.379 322.062 136.383 321.855 136.393C320.185 136.481 319.151 136.485 319.145 136.392Z" fill="#262A2A"/>
<path d="M314.657 117.92C314.439 118.335 313.03 117.88 311.293 117.819C309.559 117.719 308.094 118.04 307.937 117.608C307.869 117.401 308.179 117.03 308.806 116.699C309.428 116.368 310.372 116.114 311.413 116.162C312.453 116.212 313.355 116.551 313.925 116.938C314.499 117.323 314.753 117.722 314.657 117.92Z" fill="#262A2A"/>
<path d="M329.487 117.209C329.138 117.58 327.782 117.189 326.148 117.166C324.516 117.096 323.131 117.407 322.814 117.016C322.675 116.827 322.893 116.455 323.498 116.104C324.095 115.755 325.092 115.471 326.214 115.502C327.336 115.535 328.308 115.876 328.875 116.258C329.452 116.644 329.641 117.028 329.487 117.209Z" fill="#262A2A"/>
<path d="M330.689 113.861C330.689 113.861 327.885 107.174 324.656 105.607C320.746 103.708 319.048 107.981 315.32 106.932C311.592 105.883 307.86 104.062 304.039 106.921C299.856 110.052 301.804 112.264 301.533 116.994C300.429 136.173 296.895 141.587 295.921 132.548C295.815 131.559 293.059 130.763 292.663 126.58C292.149 121.155 291.959 114.569 293.187 110.725C294.222 107.484 296.086 105.249 299.424 102.788C304.694 98.9027 311.916 98.8413 316.82 99.3476C321.721 99.8519 331.162 105.5 330.689 113.861Z" fill="#262A2A"/>
<path d="M296.605 132.256C296.542 130.61 295.122 129.307 293.474 129.457C291.476 129.64 289.25 130.763 289.37 134.873C289.582 142.164 296.89 140.448 296.896 140.239C296.9 140.097 296.721 135.307 296.605 132.256Z" fill="#FFBF9D"/>
<path d="M295.225 137.542C295.192 137.52 295.099 137.636 294.886 137.74C294.679 137.842 294.319 137.918 293.933 137.786C293.151 137.527 292.464 136.322 292.391 135.009C292.353 134.346 292.474 133.71 292.695 133.18C292.903 132.64 293.238 132.258 293.626 132.177C294.012 132.076 294.294 132.301 294.39 132.503C294.494 132.704 294.451 132.851 294.491 132.863C294.512 132.881 294.644 132.736 294.577 132.437C294.542 132.293 294.451 132.124 294.275 131.988C294.095 131.851 293.834 131.786 293.565 131.823C293.002 131.877 292.508 132.409 292.265 132.991C291.992 133.576 291.839 134.291 291.882 135.036C291.972 136.504 292.767 137.857 293.834 138.131C294.354 138.25 294.779 138.083 294.996 137.905C295.217 137.719 295.25 137.554 295.225 137.542Z" fill="#FF9A6C"/>
<path d="M296.791 118.132C297.74 118.781 298.742 119.451 299.887 119.567C301.033 119.683 302.345 119.032 302.541 117.902C302.63 117.395 302.506 116.805 302.843 116.415C303.244 115.948 303.981 116.097 304.594 116.163C306.721 116.394 309.216 114.061 309.764 112.001C310.305 112.811 311.493 113.06 312.317 112.535C313.14 112.01 313.44 111.71 314.086 110.978C314.731 110.247 315.635 109.594 316.602 109.734C317.144 109.812 317.649 110.134 318.193 110.088C319.156 110.005 319.628 108.886 319.777 107.936C319.925 106.986 320.041 105.878 320.857 105.363C321.613 104.887 322.591 105.166 323.475 105.299C324.36 105.432 325.503 105.228 325.732 104.367C325.852 103.915 325.659 103.438 325.409 103.043C324.274 101.253 321.791 100.451 319.816 101.239C319.108 98.8281 316.851 96.9456 314.343 96.6751C311.834 96.4036 309.224 97.759 308.012 99.9626C306.469 98.5596 304.222 97.9661 302.184 98.4228C300.145 98.8796 298.371 100.374 297.579 102.299C295.799 101.827 293.767 102.507 292.634 103.953C291.502 105.398 291.335 107.526 292.227 109.13C290.909 109.876 289.778 111.173 289.747 112.682C289.715 114.191 291.186 115.699 292.65 115.307C292.056 116.48 292.532 118.076 293.673 118.736C294.814 119.396 296.442 119.017 297.171 117.921" fill="#262A2A"/>
<path d="M320.356 103.391C320.362 103.391 320.361 103.436 320.354 103.525C320.344 103.612 320.338 103.745 320.306 103.914C320.238 104.251 320.1 104.748 319.77 105.317C319.438 105.877 318.923 106.524 318.141 107.036C317.375 107.554 316.324 107.947 315.14 107.878L315.264 107.717C315.49 108.341 315.426 109.089 315.111 109.729C314.814 110.38 314.347 110.957 313.852 111.518C313.6 111.788 313.38 112.105 313.03 112.353C312.691 112.591 312.285 112.727 311.869 112.778C311.043 112.881 310.112 112.623 309.515 111.93L309.788 111.852C309.597 113.301 308.766 114.748 307.448 115.628C306.751 116.127 305.889 116.431 305.041 116.405C304.193 116.394 303.407 116.145 302.674 115.88L302.87 115.795C302.474 116.699 301.867 117.471 301.13 118.04C300.408 118.608 299.446 118.939 298.578 118.724C296.852 118.354 295.709 116.919 295.482 115.572L295.648 115.649C294.789 116.112 293.868 116.153 293.131 116.01C292.383 115.871 291.797 115.546 291.379 115.225C290.96 114.898 290.712 114.563 290.564 114.331C290.428 114.091 290.371 113.958 290.38 113.954C290.417 113.924 290.621 114.509 291.453 115.127C291.869 115.422 292.443 115.719 293.163 115.835C293.873 115.958 294.745 115.898 295.538 115.455L295.676 115.378L295.704 115.532C295.932 116.79 297.033 118.129 298.634 118.453C299.421 118.639 300.267 118.343 300.951 117.806C301.639 117.27 302.218 116.527 302.586 115.676L302.645 115.541L302.783 115.591C303.505 115.848 304.265 116.083 305.048 116.091C305.832 116.11 306.605 115.84 307.27 115.368C308.515 114.535 309.296 113.181 309.483 111.809L309.53 111.464L309.758 111.731C310.261 112.325 311.094 112.571 311.836 112.48C312.209 112.436 312.57 112.316 312.866 112.111C313.155 111.915 313.385 111.602 313.641 111.329C314.135 110.777 314.589 110.222 314.872 109.617C315.171 109.019 315.229 108.361 315.036 107.796L314.978 107.622L315.162 107.635C316.278 107.713 317.289 107.357 318.038 106.872C318.802 106.393 319.315 105.78 319.656 105.246C320.323 104.146 320.304 103.374 320.356 103.391Z" fill="#6F6F6F"/>
<path d="M319.117 141.83C319.066 141.559 317.28 141.998 315.632 140.791C313.981 139.586 313.709 137.641 313.456 137.688C313.337 137.691 313.214 138.197 313.392 139.002C313.561 139.794 314.101 140.877 315.108 141.617C316.117 142.353 317.254 142.496 318.001 142.375C318.765 142.257 319.158 141.949 319.117 141.83Z" fill="#262A2A"/>
<path d="M374.304 419.039L381.374 443.011C381.374 443.011 408.219 443.906 409.958 448.209L363.77 463.527L351.217 426.627L374.304 419.039Z" fill="#6F6F6F"/>
<path d="M366.426 445.756C365.613 446.296 365.33 447.501 365.839 448.332C366.346 449.162 367.575 449.459 368.398 448.933C369.22 448.408 369.604 446.971 369.005 446.203C368.407 445.434 366.945 445.164 366.273 445.871" fill="#FBD1BD"/>
<path d="M407.354 446.484C407.354 446.484 409.708 446.693 409.958 448.212L363.77 463.53L362.65 459.761L407.354 446.484Z" fill="#262A2A"/>
<path d="M382.044 442.525C382.112 442.752 381.018 443.228 380.15 444.318C379.253 445.386 379.006 446.548 378.769 446.527C378.546 446.553 378.433 445.098 379.508 443.798C380.572 442.487 382.024 442.303 382.044 442.525Z" fill="white"/>
<path d="M387.555 442.92C387.679 443.12 386.831 443.827 386.382 445.03C385.898 446.221 386.048 447.312 385.821 447.377C385.621 447.483 385.025 446.219 385.611 444.733C386.184 443.241 387.478 442.707 387.555 442.92Z" fill="white"/>
<path d="M392.238 447.775C392.049 447.891 391.361 446.874 391.528 445.452C391.685 444.028 392.587 443.191 392.745 443.347C392.934 443.489 392.47 444.376 392.351 445.545C392.203 446.71 392.455 447.678 392.238 447.775Z" fill="white"/>
<path d="M379.823 437.245C379.797 437.481 378.659 437.514 377.413 438.024C376.156 438.507 375.307 439.262 375.125 439.109C374.94 438.99 375.631 437.836 377.107 437.258C378.578 436.668 379.875 437.033 379.823 437.245Z" fill="white"/>
<path d="M266.502 419.25L256.445 442.139C256.445 442.139 276.433 460.006 274.988 464.416L229.717 446.593L243.917 410.289L266.502 419.25Z" fill="#6F6F6F"/>
<path d="M243.223 434.673C242.251 434.567 241.257 435.309 241.11 436.271C240.964 437.232 241.713 438.247 242.682 438.369C243.65 438.493 244.872 437.638 244.91 436.666C244.948 435.694 244.002 434.552 243.032 434.664" fill="#FBD1BD"/>
<path d="M274.11 461.428C274.11 461.428 275.779 463.095 274.99 464.418L229.719 446.596L231.294 442.992L274.11 461.428Z" fill="#262A2A"/>
<path d="M257.27 442.201C257.176 442.418 256.031 442.083 254.662 442.363C253.286 442.606 252.347 443.34 252.178 443.172C251.991 443.049 252.843 441.863 254.506 441.554C256.167 441.229 257.399 442.019 257.27 442.201Z" fill="white"/>
<path d="M261.242 446.024C261.208 446.257 260.102 446.255 258.982 446.89C257.842 447.492 257.253 448.425 257.037 448.329C256.815 448.282 257.174 446.933 258.583 446.169C259.984 445.392 261.321 445.812 261.242 446.024Z" fill="white"/>
<path d="M261.692 452.744C261.473 452.712 261.601 451.491 262.648 450.509C263.688 449.519 264.919 449.454 264.939 449.675C264.991 449.906 264.064 450.287 263.217 451.106C262.353 451.905 261.921 452.809 261.692 452.744Z" fill="white"/>
<path d="M258.982 436.725C258.81 436.89 257.917 436.186 256.633 435.779C255.358 435.345 254.22 435.38 254.18 435.146C254.115 434.936 255.388 434.495 256.893 434.996C258.4 435.486 259.159 436.596 258.982 436.725Z" fill="white"/>
<path d="M283.454 293.516L267.59 357.58C267.59 357.58 238.979 405.538 234.137 429.531L260.309 439.781C260.309 439.781 279.341 393.561 284.923 385.078C287.992 380.412 291.24 376.808 293.542 374.509C295.624 372.429 297.138 369.855 297.884 367.014L309.895 321.306L283.454 293.516Z" fill="#262A2A"/>
<path d="M276.695 283.285C276.695 283.285 278.901 300.437 295.484 308.042L330.432 364.714C330.432 364.714 333.176 383.14 338.45 398.673C343.684 414.089 354.227 444.115 354.227 444.115L382.973 433.417L364.653 371.052L361.655 349.424L333.132 277.142L308.635 262.516L276.695 283.285Z" fill="#262A2A"/>
<path d="M276.695 283.283C276.695 283.283 276.866 283.159 277.22 282.922C277.584 282.68 278.112 282.33 278.805 281.871C280.221 280.94 282.303 279.571 285.012 277.791C290.473 274.22 298.449 269.003 308.556 262.393L308.632 262.344L308.709 262.39C315.852 266.642 324.085 271.541 333.227 276.983L333.281 277.015L333.303 277.073C341.285 297.256 351.026 321.889 361.881 349.333L361.892 349.36L361.896 349.389C362.846 356.223 363.863 363.541 364.902 371.016L364.894 370.98C369.846 387.832 375.142 405.848 380.601 424.419C381.479 427.41 382.353 430.386 383.222 433.343L383.289 433.573L383.063 433.658C373.273 437.3 363.668 440.873 354.316 444.351L354.071 444.442L353.987 444.198C349.001 429.821 344.2 415.981 339.646 402.847C338.503 399.568 337.377 396.321 336.442 393.068C335.499 389.819 334.66 386.593 333.899 383.403C332.391 377.019 331.169 370.79 330.219 364.744L330.249 364.824C315.953 341.577 304.052 322.226 295.371 308.11L295.428 308.16C290.684 305.946 287.052 302.895 284.449 299.853C281.833 296.799 280.186 293.782 279.081 291.277C277.982 288.762 277.414 286.737 277.085 285.372C276.916 284.689 276.826 284.164 276.766 283.813C276.706 283.466 276.695 283.283 276.695 283.283C276.695 283.283 276.731 283.459 276.801 283.809C276.872 284.156 276.975 284.678 277.155 285.356C277.505 286.713 278.093 288.725 279.21 291.222C280.33 293.708 281.989 296.699 284.604 299.72C287.207 302.731 290.824 305.74 295.539 307.92L295.576 307.937L295.597 307.971C304.312 322.066 316.26 341.388 330.614 364.601L330.637 364.637L330.644 364.682C331.6 370.706 332.83 376.931 334.343 383.298C335.106 386.48 335.946 389.699 336.891 392.937C337.827 396.178 338.95 399.41 340.099 402.693C344.662 415.822 349.471 429.658 354.466 444.029L354.137 443.876C363.488 440.395 373.093 436.819 382.881 433.175L382.723 433.489C381.854 430.532 380.98 427.556 380.101 424.565C374.648 405.991 369.358 387.974 364.41 371.121L364.405 371.103L364.402 371.085C363.369 363.611 362.357 356.291 361.413 349.456L361.427 349.512C350.615 322.051 340.91 297.403 332.958 277.209L333.035 277.299C323.908 271.833 315.689 266.909 308.558 262.639L308.711 262.636C298.593 269.178 290.606 274.341 285.138 277.877C282.404 279.635 280.301 280.989 278.872 281.908C278.165 282.36 277.626 282.704 277.253 282.941C276.89 283.169 276.695 283.283 276.695 283.283Z" fill="#6F6F6F"/>
<path d="M292.043 160.841C292.043 160.841 283.669 167.266 279.596 174.436C274.719 183.021 274.195 195.761 274.041 215.532C273.899 233.828 276.647 238.908 275.585 245.8C273.51 259.267 271.967 304.46 271.967 304.46C271.967 304.46 298.802 294.184 304.046 289.646C309.29 285.107 309.29 285.107 309.29 285.107L342.911 296.17L336.125 255.036L331.472 203.76L325.511 176.561L324.469 165.892L295.664 154.289L292.043 160.841Z" fill="#6F6F6F"/>
<path d="M323.461 165.309C323.812 165.373 322.632 167.72 320.559 171.168L320.475 171.309L320.317 171.248C317.396 170.122 313.538 168.703 309.319 167.171C304.561 165.444 300.264 163.841 297.188 162.592C295.65 161.968 294.414 161.442 293.568 161.061C292.722 160.679 292.262 160.451 292.276 160.418C292.29 160.385 292.776 160.55 293.645 160.875C294.604 161.235 295.84 161.697 297.322 162.252C300.529 163.42 304.788 164.972 309.497 166.687C313.718 168.22 317.566 169.683 320.465 170.881L320.223 170.96C322.374 167.562 323.657 165.33 323.461 165.309Z" fill="#262A2A"/>
<path d="M358.202 143.913C358.202 143.913 356.077 140.617 354.061 137.573C352.046 134.529 349.012 133.043 348.525 131.449C348.039 129.854 345.359 122.808 344.93 121.052C344.331 118.597 344.416 115.881 344.416 115.881C344.416 115.881 346.612 114.943 347.67 118.079C348.305 119.961 350.331 126.353 350.768 126.666C351.205 126.98 351.811 126.52 351.811 126.52C351.811 126.52 349.563 120.372 349.465 119.213C349.368 118.054 349.777 110.37 349.777 110.37C349.777 110.37 351.378 109.886 352.423 111.843C353.467 113.799 353.506 118.788 353.506 118.788L355.086 124.32L354.538 118.848L355.334 108.797C355.334 108.797 357.846 109.025 358.514 111.743C359.183 114.46 358.299 118.242 358.748 119.051C359.198 119.86 359.679 124.71 359.679 124.71C359.679 124.71 360.225 112.914 361.487 112.575C362.748 112.236 363.792 113.491 363.611 115.871C363.43 118.251 363.384 123.276 364.04 125.499C364.696 127.721 371.433 136.355 370.877 140.197C370.321 144.039 370.259 147.113 370.259 147.113H358.676L358.202 143.913Z" fill="#FFBF9D"/>
<path d="M317.719 173.617C318.365 173.86 345.94 180.656 345.94 180.656C345.94 180.656 352.1 170.713 352.999 167.875C353.898 165.037 358.73 145.862 358.73 145.862L370.384 144.766C370.384 144.766 367.437 194.203 363.179 196.866C358.923 199.529 352.269 200.88 351.794 200.731C351.319 200.583 321.997 202.616 306.52 190.479C291.044 178.341 317.719 173.617 317.719 173.617Z" fill="#FFBF9D"/>
<g opacity="0.3">
<path d="M297.952 199.784C297.952 199.784 301.91 204.78 309.227 206.385C316.545 207.991 332.111 210.826 332.111 210.826L331.351 203.22L297.473 199.609" fill="black"/>
</g>
<path d="M285.678 189.321C288.186 194.595 293.753 200.238 306.007 201.497C330.252 203.99 348.611 205.32 356.544 204.13C364.476 202.939 367.628 186.23 368.447 185.714C370.913 184.163 370.76 178.854 368.63 177.27C362.578 172.767 350.443 169.304 349.626 169.709C344.806 172.096 346.378 177.684 346.378 177.684L315.672 170.933C315.672 170.933 310.699 168.748 304.653 167.734" fill="#6F6F6F"/>
<path d="M304.654 167.734C304.654 167.734 304.913 167.758 305.412 167.837C305.91 167.917 306.649 168.051 307.605 168.266C309.513 168.702 312.311 169.424 315.724 170.818L315.7 170.81C323.039 172.401 333.641 174.699 346.425 177.47L346.166 177.743C345.765 176.036 345.791 174.166 346.561 172.462C346.939 171.614 347.56 170.867 348.302 170.286C348.658 169.968 349.089 169.762 349.497 169.515C349.619 169.47 349.822 169.445 349.953 169.447L350.317 169.485C350.563 169.507 350.786 169.565 351.022 169.604C354.698 170.423 358.362 171.726 362.038 173.319C363.869 174.128 365.694 175.04 367.44 176.15C367.875 176.43 368.297 176.736 368.728 177.029C369.165 177.367 369.54 177.806 369.786 178.291C370.299 179.259 370.492 180.345 370.516 181.422C370.526 182.5 370.318 183.603 369.799 184.598C369.51 185.076 369.163 185.547 368.671 185.869C368.55 185.928 368.47 186.188 368.369 186.427L368.108 187.172C367.45 189.199 366.8 191.273 366 193.309C364.848 196.204 363.517 199.059 361.48 201.398C360.467 202.55 359.226 203.576 357.745 204.083C357.007 204.365 356.232 204.427 355.498 204.513C354.755 204.617 354.013 204.637 353.274 204.702C350.32 204.873 347.419 204.832 344.584 204.755C341.748 204.676 338.975 204.534 336.273 204.364C325.462 203.672 315.761 202.685 307.619 201.845C305.585 201.653 303.637 201.388 301.825 201.015C300.023 200.593 298.329 200.143 296.822 199.504C293.778 198.308 291.426 196.663 289.766 195.086C288.108 193.492 287.11 191.995 286.506 190.958C285.898 189.917 285.68 189.321 285.68 189.321C285.713 189.304 285.962 189.888 286.595 190.905C287.225 191.92 288.242 193.385 289.905 194.941C291.569 196.479 293.908 198.078 296.929 199.237C298.424 199.855 300.106 200.289 301.892 200.694C303.695 201.051 305.614 201.3 307.656 201.481C315.801 202.275 325.504 203.224 336.301 203.889C339.001 204.051 341.769 204.188 344.597 204.261C347.424 204.333 350.316 204.369 353.243 204.197C353.972 204.132 354.711 204.112 355.439 204.008C356.178 203.92 356.907 203.86 357.574 203.601C358.938 203.135 360.114 202.171 361.09 201.058C363.056 198.803 364.376 195.987 365.515 193.122C366.309 191.102 366.951 189.051 367.615 187.009L367.885 186.244C367.932 186.115 367.987 185.987 368.049 185.854C368.092 185.781 368.108 185.727 368.174 185.637C368.214 185.589 368.26 185.543 368.306 185.502L368.379 185.445C368.789 185.179 369.089 184.773 369.347 184.352C369.809 183.466 370.012 182.438 370.002 181.428C369.981 180.422 369.795 179.399 369.336 178.532C369.111 178.091 368.798 177.733 368.424 177.437C368.003 177.15 367.592 176.851 367.166 176.576C365.454 175.484 363.649 174.578 361.835 173.773C358.2 172.19 354.534 170.881 350.931 170.069C350.708 170.032 350.478 169.973 350.261 169.954L349.935 169.918C349.838 169.926 349.8 169.916 349.709 169.935C349.329 170.167 348.921 170.357 348.592 170.651C347.903 171.19 347.33 171.871 346.976 172.657C346.255 174.22 346.221 176.035 346.59 177.627L346.671 177.976L346.331 177.9C333.563 175.052 322.976 172.692 315.646 171.058L315.634 171.055L315.621 171.05C312.25 169.633 309.465 168.872 307.574 168.397C306.626 168.162 305.893 168.007 305.4 167.906C304.905 167.803 304.654 167.734 304.654 167.734Z" fill="#262A2A"/>
<path d="M356.544 187.246C356.519 187.301 355.734 187.031 354.56 186.387C353.387 185.747 351.845 184.695 350.374 183.273C348.902 181.85 347.798 180.349 347.112 179.208C346.423 178.063 346.117 177.295 346.172 177.268C346.319 177.178 347.833 180.123 350.735 182.902C353.607 185.713 356.627 187.098 356.544 187.246Z" fill="#262A2A"/>
<path d="M140.063 268.844C140.063 268.844 146.226 269.177 150.051 271.56C153.876 273.942 160.008 277.639 162.541 282.233C163.705 284.342 160.389 284.789 158.752 283.563C157.115 282.338 154.61 280.034 153.366 279.75C152.122 279.466 152.122 279.466 152.122 279.466C152.122 279.466 154.621 285.006 155.91 286.952C157.2 288.898 158.314 292.224 154.455 292.376C154.455 292.376 151.852 295.745 149.225 293.249C149.225 293.249 147.175 296.306 143.871 292.067C143.871 292.067 141.948 294.491 141.145 293.567C140.342 292.644 137.713 291.167 136.944 288.139C136.176 285.111 132.949 277.745 132.949 277.745L140.063 268.844Z" fill="#FFBF9D"/>
<path d="M87.5638 188.039C87.5638 188.039 82.7507 189.338 79.8103 193.837C77.4391 197.466 76.7167 203.793 77.3913 208.427C78.8252 218.278 83.3676 234.922 85.916 245.601C86.7966 249.29 88.5987 255.881 93.9044 259.386L131.602 281.896L141.682 266.999L107.311 239.109L100.52 200.882L87.5638 188.039Z" fill="#6F6F6F"/>
<path d="M81.0444 225.634C81.0524 225.632 81.0942 225.765 81.1668 226.026C81.2424 226.309 81.3459 226.694 81.4773 227.187C81.7459 228.235 82.133 229.741 82.6286 231.673C83.6157 235.603 85.0366 241.258 86.7969 248.268C87.6964 251.737 89.7602 255.301 93.0021 258.059C94.5892 259.474 96.5574 260.509 98.5127 261.708C100.476 262.887 102.499 264.1 104.576 265.347C112.881 270.341 122.049 275.854 131.734 281.678L131.386 281.754C132.539 280.05 133.77 278.229 135.013 276.393C137.206 273.152 139.366 269.962 141.467 266.859L141.516 267.2C128.573 256.589 116.832 246.965 107.447 239.272L107.396 239.229L107.381 239.166C105.13 229.738 103.496 222.022 102.471 216.654C101.954 213.971 101.598 211.874 101.37 210.449C101.267 209.754 101.187 209.214 101.13 208.823C101.079 208.457 101.067 208.266 101.067 208.266C101.067 208.266 101.118 208.45 101.187 208.814C101.258 209.201 101.357 209.738 101.483 210.429C101.749 211.846 102.139 213.935 102.689 216.61C103.78 221.961 105.47 229.662 107.766 239.071L107.699 238.965C117.104 246.633 128.87 256.226 141.842 266.803L142.023 266.951L141.892 267.144C139.793 270.248 137.635 273.44 135.442 276.681C134.2 278.517 132.968 280.337 131.814 282.041L131.677 282.244L131.466 282.117C121.791 276.277 112.633 270.751 104.335 265.742C102.262 264.489 100.243 263.268 98.2829 262.083C96.3455 260.885 94.3514 259.828 92.7294 258.372C89.4348 255.544 87.3471 251.893 86.4546 248.355C84.759 241.327 83.3908 235.657 82.4395 231.717C81.9828 229.776 81.6265 228.263 81.3788 227.209C81.2673 226.71 81.1797 226.322 81.1161 226.036C81.0613 225.773 81.0365 225.636 81.0444 225.634Z" fill="#262A2A"/>
<path d="M81.6643 193.343C81.6544 193.312 81.9221 193.187 82.4295 193.022C82.936 192.855 83.6863 192.662 84.6336 192.526C86.5043 192.271 89.2855 192.227 91.9881 193.517C94.637 194.862 96.446 196.91 97.4828 198.5C97.9963 199.308 98.3286 200.013 98.4859 200.524C98.653 201.032 98.6889 201.327 98.661 201.334C98.5714 201.364 98.2759 200.218 97.1793 198.704C96.1007 197.213 94.2847 195.259 91.7602 193.98C89.2039 192.757 86.5172 192.729 84.6764 192.888C82.8106 193.067 81.6892 193.431 81.6643 193.343Z" fill="#262A2A"/>
</g>
<defs>
<clipPath id="clip0_1599_166933">
<rect width="498" height="494" fill="white"/>
</clipPath>
</defs>
</svg>
