<svg width="630" height="630" viewBox="0 0 630 630" fill="none" xmlns="http://www.w3.org/2000/svg">
<path d="M257.207 269.938C270.203 280.041 288.927 277.695 299.029 264.701C309.132 251.705 306.786 232.981 293.792 222.879C282.676 214.238 267.374 214.711 256.857 223.158L256.848 223.151L250.31 218.068L240.602 221.094L241.713 211.385L233.521 205.017L223.812 208.043L224.924 198.334L217.882 192.86L211.965 194.705L212.642 188.788L208.544 185.602L199.25 186.519L198 200.802L246.712 238.67C243.696 249.903 247.449 262.352 257.207 269.938ZM292.694 259.777C289.796 263.504 284.425 264.176 280.698 261.278C276.971 258.38 276.298 253.009 279.196 249.282C282.094 245.555 287.465 244.882 291.192 247.779C294.919 250.677 295.592 256.048 292.694 259.777Z" fill="#FBD1BD"/>
<path d="M296.463 156.053C302.038 149.228 301.026 139.176 294.201 133.6C287.376 128.025 277.323 129.037 271.748 135.862C266.979 141.7 267.033 149.896 271.419 155.635L271.415 155.64L268.609 159.074L270.104 164.309L264.921 163.588L261.406 167.891L262.9 173.126L257.718 172.406L254.696 176.104L255.607 179.295L252.448 178.856L250.689 181.008L251.06 185.995L258.689 186.849L279.59 161.266C285.564 163.026 292.276 161.179 296.463 156.053ZM291.483 136.928C293.441 138.528 293.731 141.411 292.132 143.369C290.533 145.327 287.649 145.617 285.691 144.018C283.733 142.419 283.443 139.535 285.042 137.577C286.641 135.619 289.525 135.328 291.483 136.928Z" fill="#FBD1BD"/>
<path d="M540.529 591.195C540.529 591.376 432.315 591.522 298.856 591.522C165.351 591.522 57.1602 591.375 57.1602 591.195C57.1602 591.015 165.351 590.867 298.856 590.867C432.315 590.867 540.529 591.013 540.529 591.195Z" fill="#39435F"/>
<path d="M439.474 545.567L470.665 590.924L481.813 591.186L461.371 544.547L439.474 545.567Z" fill="#39435F"/>
<path d="M110.397 547.891L93.9639 590.722H102.18L130.881 548.078L110.397 547.891Z" fill="#39435F"/>
<path d="M103.359 392.236L104.563 447.657C104.733 455.495 111.045 461.809 118.883 461.984L429.084 468.889C437.3 469.072 444.059 462.462 444.059 454.244V387.477C444.059 367.765 429.525 351.07 409.999 348.385C353.213 340.577 236.09 328.568 141.436 345.632C119.008 349.674 102.864 369.45 103.359 392.236Z" fill="#F26522"/>
<path d="M101.965 411.603C101.965 411.603 76.4098 399.775 71.1821 411.603C65.9544 423.43 71.763 437.95 77.5716 446.081C83.3802 454.212 83.2857 554.114 83.2857 554.114L470.831 549.972L475.424 453.869C475.424 453.869 494.01 430.98 492.849 421.107C491.687 411.233 476.005 396.871 458.001 411.603C439.995 426.334 435.35 457.118 435.35 457.118L126.361 459.441C126.359 459.441 127.381 416.181 101.965 411.603Z" fill="#F26522"/>
<path d="M431.399 476.312C431.399 476.493 362.745 476.64 278.074 476.64C193.374 476.64 124.734 476.493 124.734 476.312C124.734 476.131 193.374 475.984 278.074 475.984C362.745 475.984 431.399 476.132 431.399 476.312Z" fill="#39435F"/>
<path d="M124.735 518.606C124.724 518.606 124.712 518.504 124.7 518.302C124.69 518.063 124.676 517.77 124.661 517.41C124.63 516.625 124.605 515.468 124.594 513.978C124.586 510.94 124.575 506.642 124.562 501.357C124.547 490.702 124.637 475.978 124.152 459.734C123.855 451.623 123.564 443.852 122.379 436.949C122.153 436.115 121.931 435.292 121.712 434.479C121.396 433.687 121.091 432.9 120.757 432.139C120.092 430.617 119.411 429.152 118.668 427.783C117.206 425.03 115.61 422.592 113.951 420.528C112.294 418.461 110.575 416.778 108.945 415.45C107.292 414.15 105.743 413.196 104.416 412.536C101.753 411.229 100.111 410.91 100.141 410.816C100.144 410.804 100.246 410.823 100.441 410.871C100.674 410.933 100.958 411.007 101.307 411.099C102.073 411.284 103.168 411.685 104.53 412.305C105.888 412.936 107.477 413.87 109.174 415.161C110.847 416.478 112.613 418.161 114.312 420.234C116.015 422.304 117.653 424.755 119.149 427.525C119.91 428.903 120.607 430.376 121.288 431.908C121.629 432.674 121.942 433.464 122.265 434.264C122.498 435.107 122.734 435.962 122.973 436.827C124.207 443.82 124.511 451.583 124.809 459.712C125.294 475.975 125.131 490.702 125.027 501.358C124.953 506.642 124.892 510.939 124.85 513.977C124.826 515.423 124.807 516.569 124.793 517.408C124.783 517.767 124.774 518.061 124.766 518.3C124.756 518.503 124.746 518.606 124.735 518.606Z" fill="#39435F"/>
<path d="M98.9428 433.911C98.929 433.884 99.2692 433.67 99.9735 433.591C100.665 433.51 101.754 433.649 102.815 434.383C103.335 434.751 103.852 435.264 104.202 435.952C104.549 436.637 104.714 437.492 104.57 438.347C104.321 440.034 102.984 441.811 100.95 442.213C98.9076 442.557 97.0327 441.39 96.1645 439.93C95.7072 439.196 95.527 438.352 95.5509 437.591C95.5837 436.825 95.8143 436.141 96.1129 435.58C96.7265 434.45 97.6035 433.817 98.2372 433.534C98.8811 433.245 99.278 433.239 99.283 433.271C99.2982 433.327 98.9265 433.421 98.3569 433.759C97.795 434.093 97.0339 434.737 96.5274 435.791C96.0184 436.816 95.8432 438.333 96.6799 439.613C97.4573 440.873 99.1318 441.864 100.833 441.568C102.525 441.246 103.736 439.707 103.974 438.251C104.265 436.751 103.46 435.435 102.541 434.757C101.617 434.049 100.635 433.845 99.9849 433.846C99.3246 433.841 98.9605 433.967 98.9428 433.911Z" fill="#39435F"/>
<path d="M100.699 458.775C100.65 458.826 99.8372 458.149 98.9464 456.708C98.0581 455.287 97.1698 453.028 97.1395 450.418C97.108 447.808 97.9422 445.528 98.7964 444.087C99.652 442.625 100.448 441.93 100.499 441.979C100.583 442.048 99.9254 442.842 99.2059 444.305C98.484 445.754 97.767 447.938 97.796 450.411C97.8262 452.882 98.5948 455.049 99.3508 456.48C100.106 457.926 100.782 458.704 100.699 458.775Z" fill="#39435F"/>
<path d="M96.6478 421.368C96.746 421.412 96.4739 422.102 96.2622 423.251C96.0455 424.396 95.9623 426.023 96.3264 427.76C96.7007 429.497 97.4378 430.948 98.1018 431.907C98.762 432.871 99.2912 433.39 99.2194 433.471C99.1753 433.527 98.5226 433.125 97.7314 432.187C96.9401 431.258 96.0808 429.74 95.6851 427.896C95.297 426.052 95.4646 424.317 95.8099 423.145C96.1513 421.968 96.5835 421.336 96.6478 421.368Z" fill="#39435F"/>
<path d="M89.0994 435.307C89.243 435.176 90.4161 436.36 92.2027 437.278C93.9781 438.218 95.6199 438.501 95.5947 438.694C95.5972 438.863 93.8067 438.864 91.8991 437.86C89.9851 436.871 88.9608 435.401 89.0994 435.307Z" fill="#39435F"/>
<path d="M472.33 518.609C472.33 518.79 384.912 518.936 277.104 518.936C169.257 518.936 81.8594 518.789 81.8594 518.609C81.8594 518.429 169.258 518.281 277.104 518.281C384.912 518.28 472.33 518.427 472.33 518.609Z" fill="#39435F"/>
<path d="M430.054 457.438C430.236 457.438 430.382 471.124 430.382 488.004C430.382 504.889 430.234 518.573 430.054 518.573C429.874 518.573 429.727 504.889 429.727 488.004C429.725 471.124 429.873 457.438 430.054 457.438Z" fill="#39435F"/>
<path d="M300.633 351.714C300.633 351.714 300.43 351.74 300.034 351.759C299.609 351.776 299.024 351.797 298.272 351.825C296.692 351.869 294.415 351.933 291.498 352.015C285.585 352.152 277.08 352.349 266.582 352.591C245.516 353.014 216.464 353.599 184.374 354.244C176.347 354.438 168.5 354.413 160.961 354.911C153.435 355.41 146.161 356.463 139.639 358.803C133.096 361.048 127.459 364.794 123.429 369.428C121.425 371.747 119.734 374.211 118.465 376.769C117.108 379.284 116.205 381.886 115.381 384.368C113.886 389.394 113.215 394.119 112.83 398.267C112.445 402.423 112.399 406.023 112.38 408.961C112.368 411.9 112.431 414.185 112.465 415.732C112.481 416.484 112.494 417.069 112.503 417.494C112.508 417.89 112.493 418.095 112.493 418.095C112.493 418.095 112.462 417.893 112.435 417.496C112.409 417.071 112.375 416.487 112.331 415.736C112.254 414.189 112.15 411.905 112.123 408.961C112.103 406.017 112.112 402.409 112.464 398.234C112.814 394.066 113.457 389.311 114.934 384.232C115.751 381.722 116.651 379.089 118.013 376.535C119.285 373.94 120.989 371.429 123.017 369.068C127.091 364.344 132.82 360.516 139.434 358.231C146.03 355.848 153.358 354.777 160.916 354.267C168.491 353.759 176.334 353.779 184.359 353.585C216.45 353.014 245.505 352.499 266.57 352.123C277.07 351.968 285.576 351.843 291.491 351.756C294.409 351.727 296.687 351.704 298.267 351.689C299.019 351.689 299.604 351.688 300.03 351.688C300.429 351.695 300.633 351.714 300.633 351.714Z" fill="#39435F"/>
<path d="M201.427 394.872C201.449 394.929 201.008 395.085 200.358 395.572C199.716 396.051 198.877 396.943 198.405 398.3C197.925 399.625 197.923 401.507 199.106 402.984C200.217 404.443 202.36 405.474 204.451 404.993C206.535 404.479 207.983 402.593 208.316 400.789C208.707 398.937 207.855 397.258 206.83 396.293C205.796 395.294 204.645 394.877 203.856 394.74C203.056 394.597 202.592 394.656 202.587 394.596C202.58 394.568 203.038 394.418 203.891 394.486C204.731 394.552 205.988 394.92 207.147 395.954C207.717 396.471 208.261 397.151 208.614 398.004C208.959 398.855 209.106 399.877 208.912 400.898C208.567 402.918 207 405.031 204.605 405.632C202.195 406.175 199.844 404.996 198.626 403.35C197.991 402.526 197.662 401.547 197.586 400.633C197.517 399.713 197.695 398.86 197.971 398.142C198.539 396.695 199.495 395.8 200.215 395.363C200.944 394.916 201.42 394.844 201.427 394.872Z" fill="#39435F"/>
<path d="M196.117 427.523C196.041 427.541 195.582 426.142 195.16 423.797C194.758 421.473 194.394 418.087 195.358 414.501C196.342 410.905 198.705 408.226 200.79 407.015C201.831 406.395 202.768 406.073 203.428 405.946C204.087 405.813 204.46 405.812 204.465 405.849C204.502 405.982 202.98 406.109 201.039 407.407C199.113 408.661 196.929 411.251 195.991 414.676C195.066 418.111 195.337 421.412 195.619 423.731C195.919 426.063 196.217 427.5 196.117 427.523Z" fill="#39435F"/>
<path d="M200.705 375.417C200.795 375.501 199.799 376.371 198.847 378.195C197.895 379.979 197.102 382.867 197.789 385.913C198.492 388.956 200.459 391.214 202.092 392.408C203.741 393.639 205.015 393.989 204.97 394.105C204.958 394.143 204.633 394.094 204.07 393.91C203.506 393.729 202.714 393.375 201.823 392.786C200.054 391.642 197.901 389.306 197.149 386.059C196.417 382.808 197.344 379.769 198.442 377.971C198.988 377.054 199.549 376.392 199.978 375.984C200.406 375.573 200.678 375.388 200.705 375.417Z" fill="#39435F"/>
<path d="M199.551 400.635C199.562 400.839 196.377 400.923 192.718 402.173C189.045 403.388 186.457 405.245 186.343 405.075C186.229 404.963 188.718 402.81 192.509 401.551C196.289 400.264 199.574 400.477 199.551 400.635Z" fill="#39435F"/>
<g opacity="0.3">
<path d="M158.839 477.463C170.901 486.788 186.457 491.479 201.664 490.378C198.48 505.19 195.296 520.003 192.112 534.814C191.262 538.767 190.476 543.162 192.541 546.638C195.437 551.511 202.175 551.997 207.843 551.919C214.153 551.832 220.73 551.681 226.323 548.759C234.25 544.618 238.504 535.858 241.579 527.46C244.655 519.062 247.307 510.075 253.636 503.758C260.808 511.978 270.814 517.677 281.543 519.653C284.7 520.234 288.269 520.407 290.8 518.432C293.312 516.471 294.034 512.859 293.394 509.738C292.754 506.617 290.994 503.857 289.268 501.179C283.121 491.643 276.976 482.108 270.83 472.573C268.335 468.702 265.605 464.626 261.386 462.78C258.078 461.332 254.319 461.476 250.714 461.686C220.618 463.437 190.684 467.964 161.417 475.19" fill="black"/>
</g>
<g opacity="0.3">
<path d="M257.39 335.664C249.931 355.369 222.083 359.888 212.302 378.551C202.633 397.003 214.621 421.444 204.659 439.741C200.97 446.518 194.637 451.574 191.034 458.396C188.607 462.99 187.356 468.447 183.441 471.862C178.88 475.842 171.815 475.763 166.335 473.193C160.855 470.623 156.637 466.012 152.735 461.386C145.422 452.714 138.556 443.34 135.14 432.524C129.26 413.906 134.649 392.858 146.446 377.302C158.243 361.746 175.766 351.259 194.252 344.978C212.738 338.697 232.297 336.314 251.737 334.492" fill="black"/>
</g>
<path d="M167.802 283.844C170.696 279.532 174.471 275.717 179.101 273.367C183.732 271.017 189.27 270.237 194.206 271.85C199.143 273.461 203.311 277.643 204.317 282.738C205.114 286.776 204.039 291.288 206.125 294.836C208.525 298.92 214.308 300.213 216.338 304.491C217.56 307.069 217.072 310.201 215.73 312.718C214.388 315.236 212.291 317.255 210.194 319.189C211.463 320.09 212.752 321.021 213.647 322.295C214.54 323.569 214.98 325.27 214.38 326.707C213.748 328.224 212.159 329.087 210.646 329.728C203.665 332.688 195.764 333.43 188.354 331.823C186.364 331.392 184.086 330.851 182.448 332.059" fill="#39435F"/>
<path d="M218.245 298.793L214.172 311.139L241.724 326.77L214.024 327.667L216.096 350.128L269.448 337.032C269.448 337.032 272.648 315.273 218.245 298.793L214.418 297.893C213.031 297.567 211.893 296.581 211.373 295.254C210.962 294.208 210.189 293.345 209.192 292.824L204.648 290.453L204.68 294.058L207.179 296.995L206.779 303.964C206.566 307.045 208.615 309.827 211.621 310.536L214.173 311.139" fill="#B78876"/>
<path d="M157.898 343.402C156.808 343.402 146.632 345.872 140.817 353.283C135.002 360.694 126.575 388.478 126.575 388.478L148.017 392.184L157.262 415.414C157.262 415.414 212.003 408.241 209.096 405.358C206.19 402.477 200.21 398.029 200.21 398.029L212.831 356.063L227.981 347.899L222.886 326.93L192.423 331.047L157.898 343.402Z" fill="#FAFAFA"/>
<path d="M210.241 365.742C210.241 365.923 193.174 366.069 172.124 366.069C151.068 366.069 134.004 365.922 134.004 365.742C134.004 365.561 151.068 365.414 172.124 365.414C193.174 365.414 210.241 365.56 210.241 365.742Z" fill="#F26522"/>
<path d="M206.826 378.078C206.826 378.259 189.758 378.405 168.708 378.405C147.651 378.405 130.587 378.259 130.587 378.078C130.587 377.896 147.651 377.75 168.708 377.75C189.758 377.75 206.826 377.896 206.826 378.078Z" fill="#F26522"/>
<path d="M206.826 391.398C206.826 391.579 193.899 391.726 177.956 391.726C162.007 391.726 149.083 391.578 149.083 391.398C149.083 391.218 162.008 391.07 177.956 391.07C193.899 391.069 206.826 391.216 206.826 391.398Z" fill="#F26522"/>
<path d="M211.256 404.234C211.256 404.415 198.328 404.561 182.386 404.561C166.437 404.561 153.513 404.414 153.513 404.234C153.513 404.052 166.438 403.906 182.386 403.906C198.328 403.906 211.256 404.052 211.256 404.234Z" fill="#F26522"/>
<path d="M224.923 349.156C224.923 349.337 216.384 349.483 205.853 349.483C195.318 349.483 186.78 349.336 186.78 349.156C186.78 348.976 195.318 348.828 205.853 348.828C216.384 348.828 224.923 348.976 224.923 349.156Z" fill="#F26522"/>
<path d="M226.311 336.069C226.314 336.25 217.809 336.596 207.315 336.841C196.818 337.087 188.307 337.139 188.303 336.957C188.299 336.776 196.803 336.431 207.3 336.185C217.793 335.94 226.306 335.887 226.311 336.069Z" fill="#F26522"/>
<path d="M152.466 372.149C152.642 372.189 151.725 376.804 150.418 382.455C149.11 388.108 147.908 392.656 147.732 392.616C147.555 392.576 148.471 387.96 149.779 382.308C151.086 376.657 152.289 372.108 152.466 372.149Z" fill="#39435F"/>
<path d="M212.057 529.461L196.101 579.778L215.337 581.708L233.404 537.996L212.057 529.461Z" fill="#B78876"/>
<path d="M226.132 562.136L216.969 584.855C216.969 584.855 236.984 601.798 235.7 606.161L191.012 589.978L203.836 553.992L226.132 562.136Z" fill="#455A64"/>
<path d="M203.852 577.915C202.902 577.838 201.952 578.594 201.836 579.54C201.72 580.487 202.481 581.459 203.43 581.553C204.379 581.646 205.547 580.773 205.555 579.82C205.564 578.866 204.609 577.774 203.665 577.91" fill="#E0E0E0"/>
<path d="M191.012 589.976L192.446 586.398L234.756 603.252C234.756 603.252 236.432 604.839 235.7 606.158L191.012 589.976Z" fill="#E0E0E0"/>
<path d="M217.776 584.891C217.691 585.106 216.563 584.81 215.235 585.123C213.898 585.401 213.003 586.146 212.833 585.987C212.647 585.872 213.446 584.685 215.06 584.334C216.67 583.97 217.895 584.708 217.776 584.891Z" fill="#39435F"/>
<path d="M221.761 588.523C221.734 588.752 220.655 588.781 219.58 589.436C218.485 590.059 217.937 590.99 217.722 590.901C217.505 590.861 217.817 589.528 219.169 588.741C220.515 587.939 221.831 588.312 221.761 588.523Z" fill="#39435F"/>
<path d="M222.392 595.101C222.176 595.076 222.268 593.875 223.261 592.884C224.248 591.884 225.447 591.785 225.474 592C225.531 592.225 224.637 592.625 223.834 593.453C223.011 594.261 222.616 595.159 222.392 595.101Z" fill="#39435F"/>
<path d="M219.29 579.478C219.126 579.645 218.234 578.981 216.97 578.618C215.714 578.23 214.604 578.295 214.558 578.067C214.489 577.864 215.719 577.396 217.202 577.844C218.686 578.28 219.459 579.346 219.29 579.478Z" fill="#39435F"/>
<path d="M221.054 574.859C221.024 574.95 220.113 574.772 218.82 574.038C218.178 573.671 217.451 573.153 216.739 572.47C216.383 572.129 216.033 571.746 215.701 571.322C215.542 571.116 215.346 570.894 215.215 570.551C215.055 570.236 215.128 569.607 215.535 569.354C215.888 569.093 216.347 569.092 216.672 569.202C217.005 569.31 217.248 569.474 217.47 569.621C217.923 569.922 218.33 570.256 218.688 570.603C219.401 571.301 219.916 572.043 220.262 572.704C220.951 574.04 221.009 574.984 220.919 574.999C220.795 575.035 220.538 574.17 219.769 572.994C219.386 572.41 218.862 571.758 218.18 571.147C217.839 570.843 217.457 570.55 217.039 570.285C216.61 569.989 216.208 569.84 216.012 570.007C215.939 570.071 215.921 570.101 215.97 570.275C216.027 570.44 216.173 570.634 216.328 570.84C216.63 571.24 216.947 571.608 217.265 571.943C217.906 572.612 218.554 573.147 219.129 573.556C220.279 574.378 221.101 574.742 221.054 574.859Z" fill="#39435F"/>
<path d="M220.656 575.071C220.567 575.076 220.417 574.137 220.849 572.695C221.066 571.981 221.446 571.158 222.042 570.356C222.342 569.956 222.695 569.564 223.104 569.203C223.526 568.856 224.059 568.381 224.941 568.59C225.39 568.734 225.632 569.212 225.651 569.553C225.689 569.908 225.624 570.179 225.583 570.456C225.476 571.008 225.28 571.516 225.038 571.965C224.553 572.866 223.878 573.516 223.246 573.93C221.953 574.772 220.947 574.703 220.956 574.622C220.923 574.486 221.837 574.34 222.908 573.469C223.436 573.039 223.99 572.422 224.377 571.622C224.571 571.224 224.723 570.783 224.804 570.314C224.906 569.814 224.867 569.367 224.672 569.35C224.451 569.266 223.944 569.488 223.624 569.8C223.249 570.118 222.918 570.462 222.629 570.812C222.057 571.517 221.655 572.247 221.387 572.888C220.85 574.178 220.787 575.079 220.656 575.071Z" fill="#39435F"/>
<path d="M272.6 482.102L296.411 523.49L315.891 510.995L291.978 468.977L272.6 482.102Z" fill="#B78876"/>
<path d="M309.171 499.172L321.472 520.358C321.472 520.358 347.136 514.97 349.791 518.664L309.571 543.989L289.052 511.766L309.171 499.172Z" fill="#455A64"/>
<path d="M307.937 526.441C307.293 527.145 307.305 528.358 307.981 529.031C308.656 529.704 309.891 529.701 310.547 529.009C311.204 528.318 311.233 526.86 310.486 526.268C309.739 525.674 308.29 525.757 307.818 526.586" fill="#E0E0E0"/>
<path d="M309.57 543.99L307.628 540.661L346.917 517.625C346.917 517.625 349.198 517.277 349.79 518.665L309.57 543.99Z" fill="#E0E0E0"/>
<path d="M321.994 519.739C322.111 519.939 321.185 520.647 320.617 521.887C320.016 523.112 320.054 524.276 319.823 524.313C319.618 524.388 319.172 523.03 319.886 521.541C320.588 520.046 321.924 519.532 321.994 519.739Z" fill="#39435F"/>
<path d="M327.311 518.83C327.476 518.993 326.835 519.862 326.691 521.112C326.511 522.358 326.908 523.363 326.706 523.477C326.541 523.625 325.681 522.56 325.89 521.008C326.085 519.455 327.189 518.646 327.311 518.83Z" fill="#39435F"/>
<path d="M332.887 522.367C332.735 522.521 331.844 521.712 331.671 520.32C331.489 518.928 332.148 517.921 332.334 518.032C332.547 518.124 332.314 519.076 332.474 520.218C332.605 521.362 333.07 522.225 332.887 522.367Z" fill="#39435F"/>
<path d="M318.656 515.223C318.686 515.454 317.615 515.75 316.551 516.525C315.473 517.277 314.844 518.194 314.635 518.09C314.432 518.019 314.818 516.762 316.082 515.867C317.34 514.964 318.656 515.009 318.656 515.223Z" fill="#39435F"/>
<path d="M316.095 511C316.148 511.08 315.449 511.689 314.074 512.258C313.39 512.54 312.535 512.796 311.559 512.937C311.071 513.007 310.554 513.049 310.016 513.051C309.755 513.049 309.46 513.068 309.11 512.961C308.763 512.893 308.312 512.45 308.361 511.973C308.372 511.534 308.653 511.171 308.939 510.982C309.229 510.786 309.508 510.695 309.761 510.611C310.278 510.437 310.79 510.322 311.284 510.252C312.273 510.117 313.176 510.166 313.909 510.301C315.386 510.578 316.167 511.111 316.123 511.19C316.075 511.311 315.233 510.982 313.835 510.867C313.138 510.81 312.301 510.824 311.4 510.985C310.95 511.068 310.485 511.189 310.019 511.357C309.523 511.513 309.159 511.738 309.169 511.997C309.175 512.094 309.188 512.127 309.355 512.195C309.52 512.251 309.763 512.255 310.021 512.259C310.522 512.266 311.007 512.244 311.467 512.197C312.388 512.104 313.208 511.919 313.884 511.717C315.239 511.315 316.032 510.891 316.095 511Z" fill="#39435F"/>
<path d="M316.017 511.437C315.966 511.511 315.134 511.052 314.26 509.825C313.829 509.215 313.414 508.409 313.147 507.446C313.015 506.965 312.923 506.446 312.889 505.9C312.874 505.355 312.828 504.641 313.535 504.074C313.923 503.809 314.449 503.912 314.729 504.106C315.033 504.294 315.207 504.512 315.401 504.714C315.77 505.138 316.052 505.604 316.256 506.07C316.668 507.006 316.766 507.939 316.706 508.692C316.576 510.229 315.905 510.98 315.847 510.924C315.719 510.867 316.165 510.056 316.135 508.676C316.12 507.996 315.974 507.179 315.581 506.381C315.386 505.985 315.131 505.593 314.811 505.241C314.48 504.853 314.102 504.61 313.969 504.754C313.768 504.876 313.63 505.413 313.679 505.857C313.7 506.347 313.768 506.82 313.868 507.263C314.074 508.149 314.403 508.914 314.744 509.519C315.432 510.736 316.105 511.34 316.017 511.437Z" fill="#39435F"/>
<path d="M201.718 476.266L248.478 444.469L277.975 501.887L304.796 487.374C304.796 487.374 273.909 412.059 262.821 409.627C256.607 408.265 185.373 421.871 185.373 421.871L177.414 417.869L157.264 415.418L155.976 418.676C148.857 436.696 149.67 456.882 158.215 474.27L159.196 476.266H201.718Z" fill="#39435F"/>
<path d="M185.3 436.493C185.648 438.069 224.304 474.266 224.304 474.266L201.999 549.22L235.287 555.588L268.714 465.294L207.618 405.359L179.715 417.105L185.3 436.493Z" fill="#39435F"/>
<path d="M248.479 444.463C248.581 444.613 238.195 451.853 225.285 460.633C212.37 469.415 201.822 476.412 201.719 476.262C201.617 476.112 212.001 468.873 224.916 460.091C237.826 451.311 248.377 444.313 248.479 444.463Z" fill="#455A64"/>
<path d="M272.481 491.186C272.442 491.209 272.043 490.59 271.352 489.452C270.656 488.318 269.697 486.649 268.526 484.579C266.2 480.429 263.101 474.635 259.818 468.165C256.531 461.693 253.655 455.788 251.622 451.488C250.607 449.339 249.799 447.592 249.257 446.378C248.715 445.163 248.438 444.482 248.478 444.461C248.52 444.441 248.874 445.086 249.488 446.267C250.142 447.553 251.001 449.244 252.039 451.286C254.229 455.626 257.161 461.44 260.403 467.868C263.684 474.335 266.716 480.157 268.935 484.358C270.009 486.379 270.899 488.054 271.576 489.327C272.197 490.503 272.521 491.163 272.481 491.186Z" fill="#455A64"/>
<path d="M231.296 460.884C231.456 460.969 229.854 464.565 227.719 468.916C225.582 473.268 223.717 476.734 223.552 476.658C223.387 476.583 224.988 472.987 227.13 468.626C229.27 464.267 231.136 460.8 231.296 460.884Z" fill="#455A64"/>
<path d="M126.577 388.477L119.065 416.399C118.093 420.012 118.539 423.859 120.313 427.151C123.444 432.965 130.079 435.966 136.513 434.477L196.425 419.717L190.161 407.275L142.963 411.367L148.018 392.181L126.577 388.477Z" fill="#B78876"/>
<path d="M153.154 430.862L153.935 426.803L186.402 420.97L195.837 370.911L256.142 363.727L246.009 417.164L153.154 430.862Z" fill="#455A64"/>
<path d="M222.916 397.866C221.336 397.561 220.339 395.836 220.691 394.014C221.042 392.191 222.608 390.96 224.188 391.265C225.768 391.57 226.765 393.295 226.414 395.117C226.062 396.94 224.496 398.171 222.916 397.866Z" fill="#EBEBEB"/>
<path d="M161.977 287.304L162.09 290.924L163.447 345.115C163.604 351.406 169.138 356.281 175.873 356.06C182.675 355.837 188.139 350.507 188.085 344.149C188.028 337.476 188.09 330.451 188.09 330.451C188.09 330.451 196.669 328.924 198.32 317.687C199.14 312.099 198.755 302.957 198.197 295.487C197.694 288.764 191.701 283.81 185.006 284.598L161.977 287.304Z" fill="#B78876"/>
<path d="M193.854 301.737C193.889 302.496 193.275 303.152 192.484 303.203C191.693 303.255 191.022 302.683 190.986 301.924C190.951 301.165 191.563 300.508 192.354 300.457C193.145 300.404 193.818 300.977 193.854 301.737Z" fill="#39435F"/>
<path d="M196.27 300.268C196.093 300.457 194.995 299.665 193.446 299.686C191.9 299.686 190.774 300.495 190.604 300.307C190.521 300.224 190.698 299.884 191.188 299.519C191.671 299.155 192.497 298.795 193.461 298.789C194.425 298.783 195.24 299.128 195.71 299.486C196.192 299.846 196.357 300.184 196.27 300.268Z" fill="#39435F"/>
<path d="M178.576 302.291C178.612 303.051 177.998 303.706 177.207 303.759C176.415 303.811 175.745 303.239 175.708 302.479C175.673 301.72 176.287 301.063 177.077 301.011C177.869 300.959 178.541 301.533 178.576 302.291Z" fill="#39435F"/>
<path d="M181.059 300.729C180.883 300.92 179.783 300.126 178.236 300.147C176.69 300.147 175.562 300.956 175.392 300.768C175.309 300.685 175.485 300.345 175.976 299.98C176.459 299.615 177.286 299.256 178.25 299.25C179.213 299.244 180.029 299.59 180.5 299.947C180.98 300.307 181.145 300.645 181.059 300.729Z" fill="#39435F"/>
<path d="M186.81 312.146C186.801 312.058 187.762 311.881 189.318 311.663C189.713 311.618 190.086 311.535 190.15 311.264C190.239 310.978 190.069 310.553 189.873 310.096C189.49 309.143 189.089 308.146 188.669 307.1C186.996 302.833 185.78 299.324 185.953 299.259C186.125 299.193 187.621 302.596 189.294 306.863C189.698 307.915 190.083 308.918 190.45 309.877C190.605 310.324 190.868 310.831 190.673 311.425C190.569 311.721 190.282 311.939 190.029 312.011C189.777 312.092 189.554 312.098 189.359 312.112C187.79 312.215 186.816 312.234 186.81 312.146Z" fill="#39435F"/>
<path d="M188.092 330.449C188.092 330.449 180.553 331.023 173.025 326.617C173.025 326.617 176.759 334.279 187.972 333.099L188.092 330.449Z" fill="#AA6550"/>
<path d="M181.681 298.187C181.509 298.6 179.975 298.33 178.151 298.464C176.324 298.563 174.837 299.026 174.613 298.638C174.513 298.453 174.787 298.069 175.398 297.689C176.003 297.31 176.956 296.968 178.05 296.896C179.144 296.826 180.134 297.046 180.782 297.345C181.436 297.645 181.756 297.991 181.681 298.187Z" fill="#39435F"/>
<path d="M195.622 294.9C195.354 295.254 194.283 294.903 193.001 294.9C191.719 294.852 190.636 295.163 190.382 294.799C190.271 294.622 190.437 294.268 190.907 293.93C191.371 293.592 192.149 293.312 193.031 293.329C193.912 293.346 194.68 293.656 195.131 294.012C195.587 294.366 195.74 294.726 195.622 294.9Z" fill="#39435F"/>
<path d="M186.64 317.751C186.203 317.883 185.733 317.726 185.293 317.613C184.853 317.484 184.437 317.371 184.088 317.255C183.738 317.139 183.337 316.983 182.908 316.823C182.487 316.652 182.017 316.495 181.745 316.13C181.478 315.78 181.532 315.174 182.137 314.636C182.715 314.106 183.882 313.735 185.12 314.142C186.356 314.554 187.071 315.549 187.218 316.319C187.382 317.111 187.063 317.629 186.64 317.751Z" fill="#AA6550"/>
<path d="M186.852 317.612C186.702 317.716 185.95 316.172 184.14 315.705C182.328 315.246 180.927 316.238 180.845 316.076C180.792 316.015 181.05 315.665 181.664 315.349C182.263 315.034 183.254 314.803 184.302 315.07C185.349 315.34 186.108 316.018 186.482 316.581C186.869 317.152 186.927 317.583 186.852 317.612Z" fill="#39435F"/>
<path d="M174.95 279.993C178.536 285.334 177.627 293.228 172.918 297.613C170.237 300.11 166.246 302.058 165.974 305.712C165.672 309.759 170.36 312.787 170.367 316.846C170.374 321.017 165.56 323.676 164.624 327.742C163.87 331.016 165.826 334.298 168.092 336.775C170.359 339.253 173.086 341.452 174.446 344.523C175.947 347.908 175.522 351.91 174.063 355.315C172.606 358.719 170.207 361.627 167.729 364.382C164.384 363.178 160.886 362.401 157.347 362.072C157.569 360.734 157.792 359.396 158.014 358.058C158.09 359.615 156.785 360.975 155.305 361.463C153.824 361.952 152.214 361.763 150.674 361.521C145.954 360.778 141.305 359.584 136.812 357.958C138.729 356.037 140.682 354.067 141.877 351.629C143.071 349.191 143.392 346.154 142.017 343.813C140.91 341.931 138.869 340.721 137.851 338.79C136.324 335.894 137.581 332.211 139.752 329.761C141.923 327.31 144.862 325.698 147.443 323.684C150.024 321.669 152.395 318.943 152.603 315.675C152.873 311.435 149.443 307.572 149.864 303.343C150.343 298.529 155.434 295.586 157.434 291.179C158.88 287.99 158.686 284.057 160.907 281.349C162.551 279.344 165.282 278.441 167.871 278.576C170.46 278.71 172.923 279.771 175.132 281.128" fill="#39435F"/>
<path d="M189.03 331.652C187.004 332.769 187.121 335.846 188.355 337.803C189.588 339.761 191.573 341.158 192.791 343.125C194.965 346.634 194.025 351.728 190.741 354.231L195.581 356.062L196.637 355.464L199.608 353.784L198.214 357.216H201.312C204.571 357.254 207.776 355.331 209.276 352.438C210.775 349.545 210.499 345.817 208.589 343.177C207.314 341.414 205.336 340.009 204.906 337.876C204.388 335.304 206.331 332.971 207.282 330.526C208.872 326.443 207.418 321.381 203.902 318.766" fill="#39435F"/>
<path d="M93.5531 229.686C94.1188 229.958 94.5082 230.537 94.5094 231.206L94.5082 239.597C94.5082 240.125 94.2612 240.623 93.8404 240.94C93.4195 241.259 92.874 241.362 92.3662 241.219C91.0344 240.843 89.5362 241.073 88.2586 241.849C87.0817 242.562 86.2652 243.653 86.0195 244.843C85.7726 246.027 86.0851 247.363 86.8763 248.509C87.7231 249.735 89.0146 250.593 90.3388 250.804C93.0428 251.233 96.0655 249.279 96.9387 246.535C97.2209 245.648 98.1685 245.159 99.0555 245.441C99.9564 245.731 100.433 246.672 100.15 247.558C98.7771 251.871 94.1377 254.821 89.8084 254.133C87.5643 253.775 85.4815 252.424 84.1031 250.424C82.7914 248.524 82.2874 246.241 82.7196 244.158C83.1556 242.058 84.5365 240.167 86.5097 238.97C87.936 238.104 89.5476 237.663 91.1389 237.676L91.1377 231.208C91.1377 230.277 91.8924 229.524 92.8235 229.524C93.0856 229.521 93.3326 229.58 93.5531 229.686Z" fill="#F26522"/>
<path d="M91.2338 226.156C91.2149 225.395 91.816 224.763 92.577 224.743C93.338 224.724 93.9706 225.325 93.9907 226.086C94.0096 226.847 93.4086 227.479 92.6476 227.5C91.8865 227.518 91.2527 226.917 91.2338 226.156Z" fill="#F26522"/>
<path d="M132.342 271.084C132.348 271.123 131.923 271.148 131.235 271.431C130.555 271.707 129.607 272.318 128.896 273.437C128.55 273.992 128.263 274.671 128.174 275.435C128.092 276.195 128.204 277.033 128.596 277.804C129.333 279.337 131.107 280.664 133.111 280.564C135.112 280.427 136.717 278.899 137.269 277.29C137.567 276.478 137.579 275.632 137.407 274.887C137.228 274.14 136.864 273.498 136.455 272.988C135.618 271.961 134.603 271.466 133.896 271.272C133.179 271.073 132.753 271.099 132.754 271.059C132.754 271.046 132.859 271.039 133.059 271.034C133.16 271.027 133.283 271.033 133.43 271.053C133.577 271.065 133.744 271.087 133.931 271.136C134.671 271.293 135.747 271.768 136.651 272.824C137.095 273.35 137.494 274.019 137.698 274.815C137.896 275.608 137.894 276.526 137.582 277.398C137.291 278.271 136.732 279.107 135.962 279.748C135.204 280.402 134.204 280.848 133.131 280.925C132.056 280.975 131.012 280.65 130.181 280.091C129.342 279.544 128.687 278.782 128.295 277.949C127.884 277.12 127.773 276.209 127.875 275.398C127.984 274.584 128.301 273.873 128.679 273.298C129.453 272.143 130.465 271.544 131.182 271.3C131.361 271.229 131.526 271.189 131.669 271.159C131.812 271.121 131.934 271.102 132.035 271.096C132.236 271.077 132.341 271.072 132.342 271.084Z" fill="#39435F"/>
<path d="M144.6 283.27C144.605 283.304 144.338 283.329 143.912 283.513C143.491 283.693 142.906 284.08 142.471 284.777C142.035 285.453 141.8 286.511 142.298 287.474C142.756 288.418 143.854 289.235 145.08 289.173C146.306 289.09 147.302 288.15 147.643 287.158C148.024 286.143 147.666 285.121 147.153 284.501C146.639 283.86 146.011 283.545 145.572 283.416C145.127 283.284 144.859 283.291 144.86 283.257C144.857 283.242 145.127 283.185 145.607 283.28C146.078 283.373 146.767 283.668 147.35 284.338C147.636 284.672 147.893 285.098 148.026 285.608C148.156 286.116 148.156 286.707 147.958 287.268C147.591 288.378 146.51 289.434 145.102 289.535C143.692 289.6 142.495 288.679 141.998 287.621C141.736 287.088 141.666 286.5 141.735 285.981C141.807 285.46 142.013 285.006 142.257 284.641C142.756 283.906 143.404 283.532 143.862 283.385C144.326 283.231 144.6 283.255 144.6 283.27Z" fill="#39435F"/>
<path d="M130.306 246.109C130.306 246.109 130.299 245.894 130.304 245.476C130.312 245.049 130.323 244.432 130.337 243.624C130.346 243.216 130.355 242.762 130.366 242.261C130.353 241.759 130.29 241.212 130.25 240.619C130.204 240.025 130.154 239.386 130.1 238.705C130.086 238.362 130.032 238.013 129.96 237.655C129.896 237.296 129.829 236.927 129.761 236.546C129.315 233.491 128.193 229.834 126.274 225.899C124.336 221.98 121.421 217.814 117.294 214.147C116.774 213.694 116.249 213.234 115.719 212.77C115.162 212.339 114.569 211.937 113.987 211.512C113.694 211.301 113.4 211.089 113.103 210.878C112.808 210.662 112.512 210.446 112.186 210.273C111.548 209.904 110.904 209.53 110.253 209.153C109.926 208.966 109.603 208.77 109.27 208.588C108.925 208.431 108.577 208.272 108.228 208.113C107.53 207.795 106.824 207.474 106.114 207.149C105.393 206.847 104.632 206.629 103.882 206.361C103.505 206.232 103.127 206.104 102.747 205.974C102.555 205.912 102.368 205.838 102.174 205.785L101.583 205.647C100.001 205.295 98.4112 204.839 96.7379 204.699C95.9063 204.604 95.0722 204.458 94.2255 204.404C93.3763 204.381 92.5195 204.358 91.6564 204.336C91.2254 204.332 90.792 204.295 90.3586 204.318C89.9251 204.351 89.4904 204.382 89.0532 204.415C88.1813 204.491 87.298 204.522 86.4198 204.634C84.6772 204.965 82.8817 205.174 81.1467 205.743C80.7082 205.867 80.2685 205.99 79.8275 206.114C79.6082 206.178 79.384 206.232 79.166 206.304L78.5234 206.555C77.6653 206.89 76.801 207.226 75.9316 207.564C75.0811 207.943 74.257 208.397 73.4116 208.814C72.9958 209.036 72.5573 209.22 72.1579 209.475L70.9533 210.239C69.2977 211.194 67.8184 212.436 66.2775 213.623C65.5693 214.29 64.8587 214.96 64.1443 215.633L63.6075 216.138C63.4399 216.317 63.2812 216.507 63.1174 216.691L62.1409 217.806L61.1593 218.927L60.2824 220.137L59.4054 221.357L58.9657 221.968C58.8321 222.181 58.7111 222.402 58.5826 222.618C58.0761 223.489 57.5683 224.364 57.058 225.242C56.6359 226.165 56.2113 227.091 55.7854 228.023C54.2218 231.804 53.2226 235.871 52.8396 240.059C52.5674 244.258 52.9227 248.432 53.8803 252.411C54.1563 253.396 54.4309 254.378 54.7056 255.356C55.0735 256.302 55.4402 257.246 55.8056 258.184L56.0828 258.886L56.423 259.559L57.1009 260.9L57.78 262.233L58.5763 263.492L59.3689 264.745L59.767 265.368L60.2194 265.95C60.8216 266.726 61.4202 267.498 62.0161 268.267C63.3543 269.678 64.6231 271.135 66.1111 272.337L67.1834 273.278C67.5374 273.593 67.9432 273.842 68.3199 274.126C69.091 274.669 69.8332 275.245 70.6156 275.751C71.422 276.22 72.2234 276.688 73.0197 277.151L73.6157 277.499C73.8198 277.604 74.0315 277.693 74.2394 277.79C74.6564 277.98 75.071 278.171 75.4855 278.361C77.1122 279.194 78.8535 279.677 80.523 280.275C81.3748 280.52 82.2416 280.691 83.0909 280.9C83.5168 280.999 83.9414 281.099 84.3648 281.198C84.7894 281.288 85.2241 281.319 85.6499 281.382C86.5055 281.493 87.356 281.604 88.1989 281.714C89.0444 281.792 89.8911 281.777 90.7277 281.812C92.4035 281.933 94.0453 281.729 95.6619 281.625L96.2667 281.581C96.467 281.559 96.6636 281.515 96.8627 281.483C97.2583 281.414 97.6527 281.346 98.0446 281.276C98.8258 281.128 99.612 281.031 100.371 280.843C101.124 280.633 101.87 280.425 102.61 280.219C102.979 280.116 103.347 280.014 103.713 279.912C104.069 279.776 104.421 279.641 104.772 279.506C105.474 279.234 106.168 278.966 106.854 278.698C107.204 278.579 107.53 278.41 107.855 278.244C108.18 278.08 108.505 277.916 108.826 277.753C109.468 277.423 110.114 277.12 110.732 276.78C111.329 276.403 111.918 276.031 112.502 275.663C117.149 272.681 120.673 269.018 123.194 265.446C123.513 265 123.837 264.569 124.135 264.133C124.403 263.677 124.665 263.228 124.922 262.788C125.179 262.349 125.431 261.918 125.679 261.494C125.799 261.282 125.932 261.077 126.038 260.863C126.139 260.645 126.237 260.43 126.335 260.217C126.728 259.364 127.104 258.547 127.463 257.769C127.799 256.981 128.025 256.195 128.29 255.47C128.416 255.105 128.539 254.751 128.658 254.407C128.785 254.064 128.892 253.728 128.959 253.391C129.117 252.726 129.265 252.102 129.403 251.524C129.536 250.944 129.683 250.414 129.773 249.92C129.841 249.424 129.901 248.973 129.955 248.568C130.066 247.768 130.152 247.156 130.21 246.734C130.265 246.32 130.306 246.109 130.306 246.109C130.306 246.109 130.29 246.322 130.244 246.736C130.193 247.161 130.12 247.774 130.025 248.577C129.974 248.983 129.919 249.435 129.858 249.934C129.774 250.429 129.632 250.962 129.506 251.545C129.372 252.128 129.23 252.754 129.076 253.423C129.012 253.762 128.906 254.1 128.781 254.443C128.664 254.79 128.544 255.147 128.419 255.514C128.159 256.244 127.937 257.035 127.604 257.828C127.249 258.612 126.876 259.433 126.487 260.292C126.39 260.508 126.29 260.725 126.19 260.944C126.085 261.161 125.952 261.366 125.833 261.58C125.587 262.006 125.335 262.441 125.079 262.884C124.823 263.328 124.561 263.779 124.295 264.239C123.998 264.678 123.674 265.113 123.355 265.563C120.837 269.164 117.304 272.863 112.637 275.879C112.051 276.25 111.457 276.627 110.859 277.008C110.239 277.352 109.589 277.66 108.944 277.994C108.62 278.158 108.293 278.324 107.966 278.489C107.639 278.658 107.312 278.828 106.96 278.95C106.269 279.22 105.571 279.494 104.864 279.77C104.51 279.906 104.158 280.05 103.798 280.18C103.43 280.284 103.059 280.388 102.686 280.493C101.942 280.702 101.191 280.914 100.432 281.127C99.6687 281.317 98.8774 281.418 98.0899 281.569C97.6943 281.638 97.2974 281.709 96.8992 281.779C96.6989 281.812 96.5011 281.856 96.2995 281.879L95.6896 281.924C94.0604 282.031 92.4061 282.239 90.7177 282.121C89.8747 282.085 89.0217 282.103 88.1687 282.025C87.3182 281.915 86.4614 281.806 85.5995 281.696C85.1699 281.633 84.7314 281.602 84.303 281.512C83.8759 281.413 83.4475 281.313 83.0178 281.213C82.161 281.003 81.2866 280.834 80.4273 280.587C78.7414 279.989 76.9849 279.501 75.3432 278.664C74.9248 278.474 74.5065 278.283 74.0857 278.09C73.8765 277.992 73.6623 277.902 73.4569 277.798L72.8546 277.447C72.0508 276.98 71.2418 276.51 70.4279 276.037C69.6391 275.527 68.8882 274.947 68.1107 274.401C67.7315 274.115 67.322 273.864 66.9641 273.546L65.8818 272.599C64.3799 271.388 63.0972 269.92 61.7478 268.496C61.1455 267.721 60.5407 266.941 59.9334 266.159L59.4772 265.571L59.0753 264.943L58.2739 263.679L57.47 262.409L56.7834 261.065L56.0992 259.712L55.7564 259.032L55.4767 258.324C55.1075 257.377 54.7371 256.425 54.3654 255.469C54.0882 254.483 53.8098 253.491 53.5313 252.497C52.5636 248.481 52.2045 244.266 52.4792 240.03C52.8648 235.803 53.8753 231.698 55.4541 227.883C55.8837 226.944 56.3121 226.009 56.7392 225.077C57.2546 224.191 57.7674 223.309 58.279 222.429C58.4087 222.211 58.531 221.988 58.6658 221.774L59.1106 221.157L59.9964 219.927L60.8834 218.706L61.875 217.576L62.8616 216.451C63.0266 216.265 63.1867 216.074 63.3568 215.894L63.8986 215.383C64.6206 214.704 65.3387 214.029 66.0532 213.357C67.608 212.16 69.1024 210.91 70.7731 209.947L71.989 209.178C72.3922 208.92 72.8345 208.736 73.2541 208.511C74.1071 208.092 74.9387 207.634 75.7967 207.254C76.6737 206.914 77.5456 206.575 78.4125 206.238L79.0614 205.986C79.2819 205.915 79.5062 205.859 79.728 205.795C80.1727 205.67 80.6163 205.547 81.0585 205.423C82.8099 204.851 84.6205 204.642 86.3782 204.312C87.2653 204.201 88.1561 204.169 89.0343 204.095C89.4741 204.064 89.9125 204.031 90.3498 203.999C90.787 203.977 91.2242 204.015 91.6589 204.018C92.5283 204.043 93.3914 204.067 94.2482 204.091C95.1025 204.147 95.9429 204.295 96.7808 204.393C98.4679 204.537 100.069 205 101.662 205.358L102.257 205.498C102.452 205.552 102.641 205.626 102.834 205.689C103.217 205.82 103.597 205.951 103.977 206.081C104.731 206.353 105.497 206.575 106.222 206.881C106.938 207.21 107.647 207.535 108.35 207.856C108.702 208.018 109.051 208.178 109.398 208.338C109.734 208.52 110.06 208.719 110.388 208.908C111.043 209.29 111.69 209.668 112.332 210.042C112.659 210.217 112.958 210.435 113.254 210.653C113.551 210.869 113.847 211.082 114.142 211.295C114.728 211.724 115.322 212.13 115.882 212.566C116.415 213.035 116.943 213.499 117.464 213.957C121.608 217.66 124.523 221.861 126.455 225.81C128.366 229.774 129.474 233.453 129.9 236.523C129.965 236.904 130.03 237.276 130.091 237.636C130.161 237.995 130.212 238.347 130.224 238.691C130.272 239.376 130.316 240.016 130.357 240.612C130.393 241.207 130.449 241.757 130.457 242.259C130.44 242.762 130.424 243.218 130.41 243.626C130.38 244.434 130.357 245.053 130.342 245.48C130.323 245.896 130.306 246.109 130.306 246.109Z" fill="#39435F"/>
<path d="M554.941 560.655C554.953 560.649 554.88 560.474 554.727 560.14C554.556 559.776 554.327 559.287 554.035 558.663C553.447 557.359 552.682 555.384 552.002 552.755C550.656 547.502 550.186 539.475 552.176 529.939C553.099 525.165 554.589 520.043 556.407 514.614C558.199 509.174 560.279 503.403 561.977 497.165C563.658 490.942 564.984 484.185 564.728 477.104C564.47 470.007 562.369 462.923 560.058 455.874C557.752 448.811 555.369 441.909 554.654 434.967C553.846 428.037 555.33 421.233 558.487 415.658C561.545 410.025 565.393 405.205 568.272 400.215C571.197 395.24 573.026 390.124 574.153 385.367C576.337 375.774 575.573 367.691 574.526 362.365C573.39 357.01 572.125 354.242 572.125 354.242C572.113 354.247 572.162 354.43 572.268 354.781C572.387 355.166 572.549 355.681 572.754 356.339C573.177 357.707 573.726 359.751 574.246 362.42C575.202 367.736 575.879 375.762 573.649 385.248C572.5 389.953 570.662 395.001 567.748 399.907C564.875 404.839 561.011 409.637 557.892 415.338C554.668 420.974 553.118 428 553.94 435.04C554.659 442.101 557.061 449.05 559.362 456.102C561.671 463.146 563.748 470.156 564.01 477.132C564.272 484.105 562.979 490.797 561.325 496.99C559.654 503.198 557.598 508.97 555.828 514.425C554.032 519.87 552.561 525.033 551.665 529.841C549.729 539.447 550.281 547.555 551.723 552.827C552.453 555.465 553.266 557.437 553.901 558.726C554.221 559.337 554.473 559.817 554.66 560.175C554.836 560.499 554.93 560.662 554.941 560.655Z" fill="#39435F"/>
<path d="M564.361 405.139C564.361 405.139 570.208 386.441 559.719 375.495C559.351 375.11 558.702 375.292 558.608 375.816C558.049 378.904 557.349 388.309 564.361 405.139Z" fill="#F26522"/>
<path d="M560.859 381.727C560.759 381.747 560.927 383.062 561.253 385.177C561.637 387.553 562.088 390.341 562.586 393.423C563.075 396.505 563.519 399.294 563.895 401.669C564.215 403.781 564.408 405.09 564.514 405.081C564.608 405.073 564.6 403.743 564.409 401.606C564.215 399.47 563.84 396.531 563.309 393.305C562.783 390.079 562.219 387.175 561.762 385.082C561.306 382.988 560.958 381.707 560.859 381.727Z" fill="#39435F"/>
<path d="M557.493 449.239C557.493 449.239 553.918 429.978 539.527 425.207C539.022 425.039 538.534 425.503 538.695 426.011C539.644 429.001 543.424 437.64 557.493 449.239Z" fill="#F26522"/>
<path d="M543.448 430.183C543.37 430.247 544.132 431.33 545.408 433.048C546.86 434.968 548.562 437.222 550.443 439.713C552.317 442.208 554.013 444.466 555.457 446.39C556.727 448.106 557.509 449.175 557.6 449.117C557.681 449.066 557.05 447.894 555.883 446.094C554.714 444.296 553.005 441.874 551.028 439.271C549.054 436.667 547.198 434.362 545.814 432.727C544.433 431.09 543.526 430.12 543.448 430.183Z" fill="#39435F"/>
<path d="M561.383 497.556C561.383 497.556 563.555 478.086 551.172 469.342C550.737 469.035 550.135 469.337 550.143 469.869C550.18 473.007 551.288 482.372 561.383 497.556Z" fill="#F26522"/>
<path d="M553.477 475.243C553.384 475.281 553.798 476.541 554.521 478.553C555.352 480.812 556.327 483.465 557.404 486.394C558.473 489.326 559.439 491.978 560.262 494.239C560.979 496.251 561.417 497.5 561.521 497.471C561.613 497.446 561.349 496.141 560.755 494.08C560.157 492.02 559.226 489.206 558.091 486.141C556.958 483.075 555.851 480.331 555.003 478.364C554.156 476.396 553.571 475.205 553.477 475.243Z" fill="#39435F"/>
<path d="M550.543 546.158C550.543 546.158 552.017 526.624 539.328 518.328C538.882 518.037 538.292 518.361 538.317 518.893C538.468 522.026 539.91 531.345 550.543 546.158Z" fill="#F26522"/>
<path d="M541.843 524.142C541.751 524.183 542.211 525.427 543.006 527.413C543.917 529.64 544.986 532.256 546.167 535.145C547.339 538.037 548.401 540.654 549.304 542.883C550.093 544.867 550.576 546.1 550.678 546.067C550.769 546.039 550.459 544.745 549.791 542.705C549.12 540.668 548.09 537.89 546.845 534.867C545.603 531.844 544.398 529.141 543.481 527.206C542.563 525.271 541.935 524.1 541.843 524.142Z" fill="#39435F"/>
<path d="M572.765 388.712C572.765 388.712 590.129 379.644 590.469 364.487C590.48 363.955 589.894 363.625 589.457 363.928C586.877 365.712 579.725 371.859 572.765 388.712Z" fill="#F26522"/>
<path d="M586.863 369.69C586.779 369.633 585.966 370.68 584.7 372.405C583.289 374.355 581.634 376.645 579.805 379.174C577.969 381.698 576.307 383.981 574.892 385.925C573.623 387.643 572.832 388.704 572.914 388.774C572.986 388.835 573.921 387.889 575.299 386.245C576.675 384.599 578.49 382.257 580.398 379.602C582.309 376.95 583.968 374.5 585.126 372.699C586.285 370.897 586.948 369.746 586.863 369.69Z" fill="#39435F"/>
<path d="M554.119 428.866C554.119 428.866 572.002 420.869 573.262 405.761C573.306 405.231 572.741 404.865 572.286 405.141C569.601 406.765 562.09 412.468 554.119 428.866Z" fill="#F26522"/>
<path d="M569.347 410.737C569.266 410.675 568.392 411.672 567.022 413.316C565.496 415.177 563.705 417.362 561.725 419.776C559.739 422.183 557.943 424.361 556.412 426.216C555.041 427.854 554.187 428.865 554.265 428.939C554.333 429.006 555.323 428.118 556.8 426.56C558.273 425.002 560.226 422.773 562.293 420.24C564.361 417.709 566.165 415.364 567.432 413.635C568.697 411.908 569.426 410.799 569.347 410.737Z" fill="#39435F"/>
<path d="M564.408 473.653C564.408 473.653 576.686 458.389 570.927 444.364C570.724 443.871 570.055 443.805 569.775 444.257C568.126 446.926 564.035 455.423 564.408 473.653Z" fill="#F26522"/>
<path d="M569.71 450.578C569.611 450.561 569.285 451.846 568.815 453.932C568.305 456.285 567.704 459.046 567.041 462.096C566.37 465.143 565.762 467.901 565.245 470.249C564.771 472.332 564.47 473.621 564.573 473.651C564.664 473.679 565.141 472.437 565.746 470.378C566.347 468.319 567.072 465.445 567.757 462.25C568.446 459.054 568.984 456.145 569.323 454.029C569.663 451.915 569.808 450.596 569.71 450.578Z" fill="#39435F"/>
<path d="M552.245 526.361C552.245 526.361 569.991 518.065 570.998 502.938C571.033 502.407 570.461 502.051 570.011 502.334C567.355 504.004 559.94 509.831 552.245 526.361Z" fill="#F26522"/>
<path d="M567.167 507.979C567.085 507.919 566.227 508.93 564.887 510.596C563.392 512.482 561.637 514.697 559.699 517.143C557.754 519.582 555.995 521.791 554.495 523.672C553.152 525.333 552.316 526.357 552.394 526.432C552.463 526.497 553.438 525.593 554.889 524.01C556.335 522.426 558.25 520.166 560.275 517.598C562.301 515.033 564.065 512.657 565.301 510.909C566.537 509.16 567.249 508.038 567.167 507.979Z" fill="#39435F"/>
<path d="M516.899 449.336C516.882 449.337 516.875 449.483 516.876 449.767C516.885 450.108 516.895 450.519 516.908 451.019C516.959 452.196 517.03 453.786 517.118 455.769C517.347 459.945 517.666 465.768 518.048 472.733L518.049 472.749L518.053 472.773C519.319 479.862 522.93 487.718 527.779 495.346C531.336 500.966 535.065 506.074 538.281 510.825C541.518 515.563 544.25 519.951 546.155 523.84C548.071 527.723 549.186 531.06 549.838 533.391C550.15 534.561 550.385 535.473 550.519 536.098C550.666 536.721 550.754 537.046 550.779 537.041C550.804 537.037 550.764 536.703 550.664 536.069C550.576 535.433 550.386 534.507 550.115 533.319C549.544 530.952 548.496 527.559 546.622 523.614C544.761 519.663 542.055 515.216 538.842 510.447C535.648 505.662 531.939 500.545 528.4 494.954C523.576 487.364 519.985 479.626 518.67 472.652L518.675 472.693C518.187 465.735 517.778 459.917 517.485 455.746C517.325 453.766 517.196 452.181 517.102 451.007C517.051 450.509 517.011 450.099 516.977 449.761C516.942 449.48 516.915 449.335 516.899 449.336Z" fill="#39435F"/>
<path d="M527.464 493.888C527.464 493.888 519.949 475.797 529.402 463.946C529.734 463.53 530.396 463.652 530.539 464.165C531.375 467.189 532.925 476.491 527.464 493.888Z" fill="#F26522"/>
<path d="M528.833 470.25C528.732 470.24 528.503 471.547 528.237 473.672C527.971 475.798 527.674 478.741 527.441 482.002C527.205 485.263 527.097 488.224 527.097 490.37C527.102 492.516 527.211 493.841 527.307 493.84C527.414 493.839 527.487 492.517 527.615 490.385C527.775 487.985 527.964 485.167 528.171 482.054C528.388 478.94 528.586 476.122 528.754 473.72C528.887 471.586 528.934 470.26 528.833 470.25Z" fill="#39435F"/>
<g opacity="0.3">
<path d="M527.464 493.888C527.464 493.888 519.949 475.797 529.402 463.946C529.734 463.53 530.396 463.652 530.539 464.165C531.375 467.189 532.925 476.491 527.464 493.888Z" fill="black"/>
</g>
<path d="M550.744 537.483C550.744 537.483 544.72 518.842 555.103 507.796C555.467 507.408 556.118 507.584 556.217 508.106C556.807 511.188 557.597 520.586 550.744 537.483Z" fill="#F26522"/>
<path d="M554.025 514.039C553.925 514.02 553.59 515.306 553.153 517.402C552.716 519.499 552.18 522.409 551.684 525.64C551.185 528.871 550.836 531.814 550.663 533.951C550.493 536.091 550.497 537.421 550.591 537.427C550.698 537.435 550.877 536.123 551.179 534.009C551.533 531.63 551.95 528.837 552.41 525.751C552.878 522.665 553.303 519.872 553.664 517.492C553.969 515.374 554.124 514.057 554.025 514.039Z" fill="#39435F"/>
<g opacity="0.3">
<path d="M550.744 537.483C550.744 537.483 544.72 518.842 555.103 507.796C555.467 507.408 556.118 507.584 556.217 508.106C556.807 511.188 557.597 520.586 550.744 537.483Z" fill="black"/>
</g>
<path d="M517.894 471.781C517.894 471.781 501.845 460.547 503.466 445.474C503.522 444.944 504.146 444.692 504.542 445.049C506.87 447.152 513.168 454.171 517.894 471.781Z" fill="#F26522"/>
<g opacity="0.3">
<path d="M517.894 471.781C517.894 471.781 501.845 460.547 503.466 445.474C503.522 444.944 504.146 444.692 504.542 445.049C506.87 447.152 513.168 454.171 517.894 471.781Z" fill="black"/>
</g>
<path d="M506.369 451.103C506.278 451.148 506.786 452.375 507.702 454.311C508.618 456.247 509.946 458.891 511.498 461.767C513.048 464.647 514.545 467.203 515.697 469.012C516.852 470.821 517.657 471.88 517.735 471.829C517.825 471.769 517.177 470.616 516.141 468.748C514.99 466.636 513.636 464.158 512.142 461.418C510.654 458.674 509.308 456.189 508.162 454.074C507.13 452.202 506.46 451.058 506.369 451.103Z" fill="#39435F"/>
<path d="M544.272 519.005C544.272 519.005 524.915 515.987 519.731 501.741C519.549 501.24 519.998 500.739 520.509 500.885C523.528 501.748 532.274 505.276 544.272 519.005Z" fill="#F26522"/>
<g opacity="0.3">
<path d="M544.272 519.005C544.272 519.005 524.915 515.987 519.731 501.741C519.549 501.24 519.998 500.739 520.509 500.885C523.528 501.748 532.274 505.276 544.272 519.005Z" fill="black"/>
</g>
<path d="M524.817 505.514C524.755 505.594 525.752 506.471 527.428 507.807C529.102 509.143 531.46 510.931 534.121 512.829C536.781 514.731 539.25 516.368 541.081 517.485C542.915 518.6 544.104 519.196 544.152 519.114C544.207 519.022 543.117 518.271 541.365 517.05C539.4 515.662 537.095 514.033 534.547 512.232C532.003 510.423 529.7 508.786 527.739 507.391C525.984 506.165 524.878 505.433 524.817 505.514Z" fill="#39435F"/>
<path d="M567.173 554.625L561.623 591.04L539.451 591.002L531.981 554.625H567.173Z" fill="#455A64"/>
<path d="M546.938 566.316C547.506 565.454 547.902 564.412 547.965 563.269C548.048 562.154 547.611 560.799 546.46 560.138C545.314 559.476 543.836 559.716 542.746 560.444C541.605 561.184 540.939 562.479 540.621 563.788C540.303 565.119 540.267 566.502 540.345 567.901C540.436 569.301 540.694 570.736 541.245 572.107C541.782 573.477 542.646 574.774 543.815 575.773C544.978 576.767 546.47 577.48 548.082 577.555C549.693 577.627 551.233 577.07 552.519 576.266C553.813 575.453 554.913 574.424 555.831 573.273C556.739 572.122 557.423 570.744 557.508 569.273C557.578 567.828 557.069 566.323 555.934 565.416C554.784 564.481 553.153 564.549 552.005 565.177C550.824 565.772 549.945 566.904 549.739 568.145C549.313 570.644 550.771 572.897 552.542 573.91C554.357 574.945 556.33 574.976 557.895 574.683C559.485 574.375 560.738 573.748 561.709 573.19C562.679 572.622 563.377 572.101 563.844 571.744C564.309 571.383 564.541 571.177 564.529 571.162C564.515 571.144 564.259 571.317 563.773 571.644C563.284 571.968 562.567 572.454 561.593 572.983C560.62 573.503 559.373 574.082 557.835 574.348C556.318 574.601 554.435 574.53 552.761 573.539C551.134 572.59 549.823 570.457 550.234 568.242C550.424 567.155 551.198 566.178 552.249 565.653C553.279 565.107 554.643 565.078 555.586 565.856C556.535 566.615 557 567.951 556.928 569.243C556.849 570.547 556.226 571.821 555.362 572.907C554.49 573.997 553.422 574.991 552.202 575.753C550.984 576.511 549.564 577.014 548.111 576.949C546.662 576.882 545.292 576.238 544.209 575.314C543.12 574.385 542.311 573.184 541.798 571.886C541.273 570.591 541.018 569.216 540.926 567.864C540.843 566.512 540.876 565.161 541.167 563.92C541.458 562.691 542.061 561.531 543.043 560.889C544.002 560.236 545.281 560.042 546.211 560.575C547.157 561.109 547.555 562.224 547.497 563.25C547.453 564.286 547.096 565.274 546.579 566.079C545.489 567.685 543.904 568.673 542.446 569.176C540.973 569.694 539.596 569.758 538.506 569.646C536.298 569.395 535.261 568.584 535.23 568.673C535.225 568.682 535.286 568.727 535.415 568.808C535.545 568.883 535.731 569.013 535.998 569.142C536.529 569.401 537.354 569.726 538.477 569.881C539.593 570.034 541.016 570.005 542.553 569.498C544.08 569.003 545.748 568.017 546.938 566.316Z" fill="#39435F"/>
</svg>
