<svg width="630" height="734" viewBox="0 0 630 734" fill="none" xmlns="http://www.w3.org/2000/svg">
<path d="M157.796 571.281C244.618 619.482 385.383 619.483 472.205 571.282C559.027 523.079 559.027 444.93 472.205 396.729C385.383 348.528 244.616 348.528 157.795 396.728C70.9732 444.929 70.9732 523.08 157.796 571.281Z" fill="#FBD1BD"/>
<path d="M451.436 530.954C462.743 537.231 481.073 537.231 492.381 530.954C503.688 524.678 503.688 514.5 492.381 508.222C481.073 501.947 462.743 501.947 451.436 508.222C440.13 514.5 440.13 524.676 451.436 530.954Z" fill="#FBD1BD"/>
<path d="M151.142 521.896L161.378 515.013C161.378 515.013 169.822 507.783 174.004 494.361C177.168 484.205 176.732 476.478 174.463 472.606C171.672 467.841 164.451 468.673 164.164 478.72C163.599 498.503 158.644 512.191 151.142 521.896Z" fill="#F26522"/>
<path opacity="0.2" d="M151.142 521.896L161.378 515.013C161.378 515.013 169.822 507.783 174.004 494.361C177.168 484.205 176.732 476.478 174.463 472.606C171.672 467.841 164.451 468.673 164.164 478.72C163.599 498.503 158.644 512.191 151.142 521.896Z" fill="black"/>
<path d="M151.143 522.632C150.943 522.632 150.747 522.522 150.624 522.315C150.426 521.982 150.497 521.526 150.783 521.295C174.467 502.205 169.879 475.609 169.83 475.342C169.757 474.946 169.974 474.556 170.313 474.471C170.655 474.383 170.988 474.636 171.061 475.033C171.113 475.309 175.898 502.835 151.5 522.502C151.391 522.591 151.266 522.632 151.143 522.632Z" fill="white"/>
<path d="M130.669 535.661C130.669 535.661 127.106 532.281 127.968 527.706C128.831 523.13 131.129 519.841 127.178 513.938C123.227 508.034 122.206 500.17 126.853 495.905C130.445 492.607 136.051 497.282 138.076 488.543C139.552 482.173 139.048 468.071 146.025 463.378C153 458.688 157.332 465.75 156.261 475.317C155.304 483.875 153.954 492.114 154.995 494.358C157.03 498.743 160.528 498.155 160.369 506.195C160.22 513.681 154.144 519.876 154.144 519.876L130.669 535.661Z" fill="#F26522"/>
<path d="M142.377 528.523C142.062 528.523 141.791 528.25 141.752 527.877C139.949 510.487 144.246 480.461 147.8 471.536C147.946 471.168 148.318 471.005 148.637 471.18C148.953 471.35 149.089 471.786 148.943 472.153C145.452 480.924 141.279 511.078 143.003 527.703C143.045 528.103 142.798 528.469 142.453 528.519C142.428 528.522 142.402 528.523 142.377 528.523Z" fill="white"/>
<path d="M142.036 514.985C141.942 514.985 141.849 514.96 141.76 514.91C137.388 512.421 134.617 503.577 134.501 503.201C134.384 502.82 134.554 502.4 134.88 502.262C135.208 502.126 135.568 502.322 135.687 502.705C135.713 502.792 138.401 511.362 142.313 513.591C142.625 513.769 142.755 514.209 142.601 514.573C142.493 514.834 142.27 514.985 142.036 514.985Z" fill="white"/>
<path d="M141.966 520.843C141.716 520.843 141.479 520.669 141.381 520.381C141.252 520.005 141.409 519.578 141.731 519.429C149.088 515.994 153.675 505.782 153.72 505.679C153.88 505.32 154.259 505.176 154.568 505.364C154.878 505.549 154.999 505.992 154.839 506.353C154.645 506.792 149.988 517.155 142.199 520.791C142.123 520.826 142.044 520.843 141.966 520.843Z" fill="white"/>
<path d="M399.17 441.889C399.17 441.889 393.66 431.51 393.129 420.209C392.597 408.909 394.726 404.218 397.647 402.871C400.568 401.525 400.789 405.671 402.298 408.13C403.807 410.588 406.859 409.181 407.986 401.538C409.114 393.898 413.251 380.947 421.807 378.476C431.259 375.749 426.19 388.661 423.817 393.7C421.443 398.738 419.594 405.6 421.16 407.468C422.723 409.336 425.149 405.884 427.476 409.085C430.285 412.948 421.554 426.837 416.543 430.206L399.17 441.889Z" fill="#F26522"/>
<path d="M406.717 437.52C406.706 437.52 406.695 437.52 406.685 437.518C406.337 437.496 406.071 437.151 406.089 436.748C407.476 406.694 420.067 385.881 420.194 385.674C420.397 385.342 420.792 385.269 421.073 385.505C421.356 385.74 421.42 386.2 421.218 386.528C421.093 386.732 408.712 407.22 407.345 436.825C407.329 437.216 407.051 437.52 406.717 437.52Z" fill="white"/>
<path d="M407.437 428.854C407.334 428.854 407.23 428.825 407.133 428.762C403.603 426.487 401.649 419.739 401.568 419.451C401.459 419.067 401.638 418.651 401.968 418.523C402.297 418.391 402.656 418.606 402.764 418.989C402.783 419.053 404.645 425.482 407.742 427.476C408.046 427.673 408.157 428.119 407.988 428.474C407.875 428.718 407.659 428.854 407.437 428.854Z" fill="white"/>
<path d="M408.054 424.404C407.772 424.404 407.515 424.184 407.444 423.851C407.359 423.456 407.563 423.058 407.899 422.96C416.994 420.281 420.144 414.729 420.174 414.673C420.362 414.333 420.752 414.234 421.044 414.45C421.336 414.667 421.424 415.119 421.236 415.46C421.103 415.708 417.829 421.548 408.208 424.38C408.158 424.397 408.106 424.404 408.054 424.404Z" fill="white"/>
<path d="M262.108 419.071C262.108 419.071 250.026 415.64 249.397 389.288C248.718 360.843 252.358 327.659 238.108 324.96C223.858 322.261 215.862 342.613 216.045 366.265C216.205 387.031 223.385 432.088 262.107 440.919L262.108 419.071Z" fill="#F26522"/>
<path opacity="0.2" d="M262.108 419.071C262.108 419.071 250.026 415.64 249.397 389.288C248.718 360.843 252.358 327.659 238.108 324.96C223.858 322.261 215.862 342.613 216.045 366.265C216.205 387.031 223.385 432.088 262.107 440.919L262.108 419.071Z" fill="black"/>
<path d="M262.107 438.214C262.069 438.214 262.031 438.209 261.993 438.202C253.281 436.353 246.189 430.77 240.915 421.607C225.261 394.405 230.192 343.63 231.811 334.76C231.885 334.363 232.217 334.113 232.559 334.195C232.899 334.28 233.116 334.669 233.044 335.066C231.442 343.836 226.551 394.015 241.961 420.791C247.037 429.612 253.853 434.983 262.218 436.758C262.56 436.831 262.787 437.214 262.724 437.612C262.671 437.966 262.405 438.214 262.107 438.214Z" fill="white"/>
<path d="M262.108 505.862C249.615 507.834 229.324 507.799 217.636 497.062C205.948 486.324 208.379 477.069 212.876 473.209C217.371 469.348 221.276 464.936 213.542 456.369C205.807 447.802 193.375 434.036 189.355 413.383C185.335 392.731 187.314 379.824 195.226 375.52C202.903 371.344 204.925 377.978 209.624 391.658C214.322 405.34 224.897 393.61 233.939 397.881C242.98 402.15 242.626 410.606 243.195 417.874C243.766 425.14 246.751 427.149 251.87 427.149C256.99 427.149 262.105 430.591 262.106 437.474L262.108 505.862Z" fill="#F26522"/>
<path d="M262.108 481.882C262.052 481.882 261.994 481.873 261.938 481.855C261.397 481.679 248.477 477.298 229.674 457.178C209.643 435.744 200.185 403.61 200.092 403.288C199.981 402.904 200.157 402.487 200.487 402.358C200.817 402.231 201.174 402.435 201.285 402.817C201.377 403.137 210.739 434.924 230.526 456.096C249.078 475.947 262.148 480.398 262.278 480.441C262.613 480.551 262.807 480.954 262.714 481.346C262.636 481.671 262.384 481.882 262.108 481.882Z" fill="white"/>
<path d="M234.907 462.302C234.655 462.302 234.417 462.125 234.32 461.836C230.276 449.732 229.36 423.858 229.324 422.763C229.31 422.36 229.581 422.018 229.929 422C230.251 422.004 230.569 422.299 230.582 422.704C230.591 422.97 231.527 449.428 235.494 461.301C235.62 461.68 235.46 462.106 235.135 462.252C235.059 462.286 234.982 462.302 234.907 462.302Z" fill="white"/>
<path d="M234.801 479.712C232.843 479.712 231.489 479.533 231.325 479.509C230.98 479.462 230.733 479.097 230.773 478.693C230.814 478.292 231.124 477.993 231.473 478.052C231.591 478.065 243.314 479.609 248.698 473.213C248.94 472.921 249.34 472.921 249.588 473.201C249.837 473.484 249.84 473.951 249.597 474.239C245.657 478.922 238.906 479.712 234.801 479.712Z" fill="white"/>
<path d="M225.727 201.796L224.374 192.645L217.363 198.019C216.661 196.454 215.759 195.198 214.698 194.25L218.052 183.681L211.808 182.055L207.194 192.296C205.665 192.571 204.051 193.171 202.388 194.119L200.391 186.4L192.911 193.25L193.402 202.35C191.887 204.312 190.502 206.458 189.266 208.715L183.086 208.36L178.753 219.673L184.06 222.308C183.499 224.742 183.139 227.156 183.012 229.478L176.274 236.695L177.628 245.846L184.637 240.472C185.339 242.037 186.241 243.293 187.303 244.241L183.948 254.81L190.194 256.436L196.794 248.941C198.323 248.668 197.95 245.322 199.613 244.373L201.609 252.092L209.09 245.242L208.897 241.663C210.41 239.702 216.127 235.372 217.363 233.115L218.915 230.133L223.248 218.82L221.23 214.561L218.99 209.014L225.727 201.796ZM202.881 231.957C197.143 237.211 195.395 238.357 194.357 231.338C193.318 224.318 196.675 213.613 202.414 208.358C208.152 203.103 210.355 202.711 211.392 209.731C212.429 216.75 208.619 226.701 202.881 231.957Z" fill="#F9B291"/>
<path d="M211.809 182.055L219.979 187.542L215.366 197.784L207.193 192.295L211.809 182.055Z" fill="#FCE0D3"/>
<path d="M232.546 198.138L225.537 203.511L217.364 198.022L224.375 192.648L232.546 198.138Z" fill="#FCE0D3"/>
<path d="M231.419 224.306L226.113 221.669L217.942 216.18L223.248 218.817L231.419 224.306Z" fill="#F9B291"/>
<path d="M183.948 254.811L192.121 260.3L195.475 249.731L187.304 244.242L183.948 254.811Z" fill="#F9B291"/>
<path d="M209.782 257.583L201.61 252.093L199.614 244.375L207.785 249.864L209.782 257.583Z" fill="#F9B291"/>
<path d="M233.898 207.289L232.545 198.138L225.535 203.511C224.834 201.946 223.93 200.69 222.869 199.742L226.225 189.173L219.979 187.547L215.365 197.788C213.836 198.063 212.221 198.663 210.558 199.611L208.561 191.893L201.081 198.742L201.572 207.842C200.058 209.803 198.672 211.95 197.436 214.207L191.256 213.852L186.923 225.165L192.23 227.801C191.669 230.234 191.31 232.648 191.182 234.972L184.444 242.188L185.798 251.339L192.807 245.966C193.509 247.529 194.411 248.787 195.472 249.735L192.118 260.304L198.364 261.93L202.978 251.688C204.506 251.415 206.12 250.814 207.783 249.866L209.78 257.584L217.26 250.735L216.77 241.635C218.284 239.674 219.669 237.527 220.905 235.27L227.085 235.625L231.417 224.312L226.11 221.676C226.671 219.243 227.031 216.828 227.157 214.507L233.898 207.289ZM211.052 237.449C205.314 242.705 199.82 241.272 198.782 234.253C197.744 227.233 201.555 217.28 207.293 212.026C213.031 206.77 218.524 208.201 219.562 215.221C220.6 222.243 216.79 232.193 211.052 237.449Z" fill="#F26522"/>
<path d="M208.562 191.888L200.39 186.398L192.911 193.248L201.082 198.737L208.562 191.888Z" fill="#FCE0D3"/>
<path d="M192.911 193.25L193.401 202.35L201.571 207.837L201.082 198.739L192.911 193.25Z" fill="#F9B291"/>
<path d="M197.437 214.204L189.265 208.715L183.086 208.359L191.257 213.848L197.437 214.204Z" fill="#FCE0D3"/>
<path d="M183.086 208.359L178.753 219.672L186.924 225.161L191.257 213.848L183.086 208.359Z" fill="#F9B291"/>
<path d="M191.183 234.966L183.012 229.477L176.274 236.693L184.446 242.182L191.183 234.966Z" fill="#FCE0D3"/>
<path d="M185.799 251.335L177.628 245.846L176.274 236.695L184.446 242.184L185.799 251.335Z" fill="#F9B291"/>
<path d="M219.978 187.542L211.809 182.055L218.053 183.681L226.224 189.17L219.978 187.542Z" fill="#FCE0D3"/>
<path d="M189.117 160.288V146.62L179.779 151.523C179.216 148.999 178.359 146.836 177.257 145.05L183.14 131.231L175.954 126.398L168.622 139.243C166.743 139.025 164.706 139.241 162.548 139.936L161.523 128.064L151.363 134.898L150.338 148.146C148.18 150.355 146.142 152.88 144.264 155.624L136.932 152.642L129.746 167.138L135.629 173.042C134.528 176.309 133.67 179.628 133.106 182.91L123.769 190.566V204.233L133.106 199.33C133.67 201.854 134.528 204.018 135.629 205.804L129.746 219.622L136.932 224.453L144.264 211.61C146.142 211.829 148.18 211.611 150.338 210.917L151.363 222.789L161.523 215.956L162.548 202.707C165.575 201.53 168.816 198.8 170.693 196.056L175.953 198.213L183.139 183.717L178.73 179.292C179.831 176.025 179.948 170.801 179.777 167.947L189.117 160.288ZM156.444 194.412C148.649 199.654 143.803 195.935 143.803 185.45C143.803 174.965 150.245 162.12 158.041 156.878C165.836 151.635 170.559 155.448 170.559 165.933C170.56 176.42 164.24 189.169 156.444 194.412Z" fill="#F9B291"/>
<path d="M184.126 131.888L175.954 126.398L168.623 139.243L176.794 144.731L184.126 131.888Z" fill="#FCE0D3"/>
<path d="M197.288 152.106L189.117 146.617L179.779 151.521L187.95 157.01L197.288 152.106Z" fill="#FCE0D3"/>
<path d="M159.535 228.275L151.364 222.786L150.34 210.914L158.512 216.403L159.535 228.275Z" fill="#F9B291"/>
<path d="M129.748 219.623L137.919 225.112L143.802 211.294L135.631 205.805L129.748 219.623Z" fill="#F9B291"/>
<path d="M197.288 165.781V152.112L187.95 157.016C187.387 154.491 186.529 152.328 185.427 150.542L191.31 136.724L184.125 131.891L176.793 144.736C174.915 144.517 172.878 144.733 170.719 145.428L169.695 133.558L159.534 140.391L158.51 153.64C156.352 155.849 154.314 158.373 152.436 161.118L145.104 158.136L137.918 172.633L143.801 178.538C142.7 181.805 141.842 185.122 141.278 188.403L131.94 196.06V209.727L141.278 204.824C141.842 207.348 142.7 209.511 143.801 211.297L137.918 225.116L145.104 229.947L152.436 217.104C154.314 217.321 156.352 217.105 158.51 216.411L159.534 228.283L169.695 221.449L170.719 208.201C172.878 205.993 174.915 203.467 176.793 200.724L184.125 203.707L191.31 189.211L185.427 183.306C186.529 180.039 187.387 176.722 187.95 173.44L197.288 165.781ZM164.615 199.904C156.819 205.146 150.499 200.896 150.499 190.411C150.499 179.926 156.819 167.175 164.615 161.932C172.41 156.69 178.731 160.94 178.731 171.425C178.731 181.912 172.41 194.661 164.615 199.904Z" fill="#F26522"/>
<path d="M144.267 155.623L152.438 161.112L145.106 158.13L136.935 152.641L144.267 155.623Z" fill="#F26522"/>
<path d="M136.922 152.641L129.742 167.141L137.912 172.63L145.092 158.131L136.922 152.641Z" fill="#FCE0D3"/>
<path d="M129.748 167.141L137.919 172.63L143.802 178.536L135.631 173.045L129.748 167.141Z" fill="#F9B291"/>
<path d="M133.111 182.906L141.282 188.395L131.944 196.052L123.771 190.563L133.111 182.906Z" fill="#FCE0D3"/>
<path d="M123.771 190.57L131.944 196.059V209.725L123.771 204.237V190.57Z" fill="#F9B291"/>
<path d="M169.697 133.552L161.525 128.062L151.364 134.896L159.535 140.385L169.697 133.552Z" fill="#FCE0D3"/>
<path d="M389.723 138.243L282.917 210.071C279.904 212.098 277.461 217.026 277.461 221.078V516.183C277.461 520.237 279.904 521.879 282.917 519.852L389.724 448.026C392.738 445.999 395.18 441.07 395.18 437.018L395.179 141.914C395.179 137.86 392.736 136.216 389.723 138.243Z" fill="#455A64"/>
<path d="M282.916 210.073L389.723 138.245C392.418 136.434 394.649 137.561 395.094 140.717C394.685 136.934 392.446 132.738 389.723 130.907L385.281 127.919C382.267 125.892 377.381 125.892 374.368 127.919L267.563 199.746C266.056 200.759 264.693 202.498 263.705 204.49L279.059 214.815C280.046 212.825 281.411 211.087 282.916 210.073Z" fill="#37474F"/>
<path d="M262.107 505.859C262.107 509.913 264.549 514.841 267.563 516.867L272.006 519.855C274.73 521.687 278.973 521.845 281.99 520.366C279.42 521.502 277.461 519.814 277.461 516.186V221.081C277.461 219.054 278.072 216.809 279.059 214.817L263.705 204.492C262.717 206.484 262.107 208.729 262.107 210.756V505.859Z" fill="#263238"/>
<path d="M285.854 249.407L386.787 181.529C388.596 180.312 390.062 181.299 390.062 183.731L390.063 402.098C390.063 404.53 388.596 407.487 386.788 408.702L285.855 476.582C284.047 477.797 282.581 476.811 282.581 474.381L282.58 256.013C282.579 253.58 284.045 250.623 285.854 249.407Z" fill="white"/>
<path d="M336.32 185.352C335.261 186.066 334.401 187.799 334.401 189.224C334.401 190.651 335.262 191.228 336.32 190.514C337.381 189.802 338.239 188.069 338.239 186.643C338.239 185.217 337.381 184.639 336.32 185.352Z" fill="#37474F"/>
<path d="M336.323 453.119C332.137 455.934 328.744 462.779 328.744 468.409C328.744 474.038 332.136 476.32 336.323 473.505C340.508 470.691 343.901 463.846 343.901 458.216C343.899 452.588 340.508 450.305 336.323 453.119Z" fill="#37474F"/>
<path d="M318.191 208.071C316.072 209.498 314.354 212.965 314.354 215.816C314.354 218.668 316.072 219.823 318.193 218.398C320.313 216.973 322.031 213.506 322.031 210.654C322.031 207.801 320.312 206.646 318.191 208.071Z" fill="#37474F"/>
<path d="M327.577 207.101C327.577 209.002 328.799 209.722 330.305 208.708L355.559 191.726C357.065 190.713 358.287 188.35 358.287 186.45C358.286 184.549 357.065 183.828 355.558 184.842L330.305 201.825C328.799 202.839 327.577 205.2 327.577 207.101Z" fill="#37474F"/>
<path d="M270.601 258.855C272.297 259.996 273.672 262.77 273.672 265.052C273.672 267.333 272.297 268.257 270.601 267.117C268.905 265.976 267.529 263.203 267.529 260.922C267.529 258.641 268.905 257.715 270.601 258.855Z" fill="#37474F"/>
<path d="M270.601 286.41C272.297 287.55 273.672 290.324 273.672 292.606C273.672 294.888 272.297 295.812 270.601 294.671C268.905 293.531 267.529 290.757 267.529 288.475C267.531 286.194 268.905 285.271 270.601 286.41Z" fill="#37474F"/>
<path d="M269.653 259.403C271.349 260.544 272.725 263.318 272.725 265.598C272.725 267.879 271.35 268.805 269.653 267.663C267.957 266.523 266.582 263.749 266.582 261.468C266.582 259.186 267.958 258.262 269.653 259.403Z" fill="#455A64"/>
<path d="M269.653 286.965C271.349 288.106 272.725 290.88 272.725 293.162C272.725 295.443 271.35 296.367 269.653 295.227C267.957 294.086 266.582 291.312 266.582 289.03C266.582 286.748 267.958 285.825 269.653 286.965Z" fill="#455A64"/>
<path d="M410.535 190.628C410.535 188.196 409.069 187.212 407.26 188.427L395.179 196.552L306.326 256.307C304.518 257.523 303.053 260.479 303.053 262.911L303.054 481.278C303.054 483.71 304.519 484.695 306.327 483.48L395.212 423.703L407.261 415.6C409.069 414.383 410.536 411.426 410.536 408.996L410.535 190.628Z" fill="white" stroke="#F26522" stroke-miterlimit="10"/>
<path d="M304.865 484.734C304.445 484.734 304.051 484.617 303.698 484.38C302.876 483.827 302.424 482.725 302.424 481.276L302.423 262.909C302.423 260.202 303.999 257.022 306.011 255.669L394.864 195.914L395.494 197.185L306.641 256.94C305.037 258.019 303.683 260.751 303.683 262.909L303.684 481.276C303.684 482.166 303.918 482.833 304.328 483.109C304.737 483.385 305.351 483.285 306.013 482.842L394.897 423.065L395.527 424.335L306.643 484.11C306.028 484.527 305.423 484.734 304.865 484.734Z" fill="#F26522" stroke="#F26522" stroke-miterlimit="10"/>
<path d="M395.527 424.338L394.897 423.069L406.946 414.967C408.55 413.887 409.906 411.153 409.906 408.998L409.905 190.631C409.905 189.742 409.671 189.074 409.261 188.798C408.854 188.523 408.239 188.619 407.575 189.065L395.494 197.19L394.864 195.919L406.945 187.794C408.021 187.07 409.068 186.974 409.891 187.527C410.711 188.08 411.165 189.181 411.165 190.631L411.166 408.998C411.166 411.703 409.59 414.884 407.576 416.238L395.527 424.338Z" fill="#F26522" stroke="#F26522" stroke-miterlimit="10"/>
<path d="M356.794 241.374C368.101 233.77 377.266 239.934 377.266 255.142C377.266 270.35 368.101 288.842 356.794 296.447C345.487 304.051 336.321 297.887 336.321 282.679C336.321 267.471 345.487 248.978 356.794 241.374Z" fill="#F26522"/>
<path d="M356.794 253.346C360.462 250.879 363.436 252.879 363.436 257.812C363.436 262.746 360.462 268.746 356.794 271.212C353.126 273.679 350.151 271.678 350.151 266.744C350.151 261.811 353.126 255.813 356.794 253.346Z" fill="#F26522"/>
<path d="M369.739 279.653C369.739 271.547 364.853 268.261 358.827 272.314L355.06 274.848C349.035 278.9 344.148 288.757 344.148 296.863V299.044C347.632 300.391 352.017 299.662 356.794 296.447C361.705 293.144 366.212 287.782 369.739 281.531V279.653Z" fill="#F26522"/>
<path opacity="0.7" d="M356.794 253.346C360.462 250.879 363.436 252.879 363.436 257.812C363.436 262.746 360.462 268.746 356.794 271.212C353.126 273.679 350.151 271.678 350.151 266.744C350.151 261.811 353.126 255.813 356.794 253.346Z" fill="white"/>
<path opacity="0.7" d="M369.739 279.653C369.739 271.547 364.853 268.261 358.827 272.314L355.06 274.848C349.035 278.9 344.148 288.757 344.148 296.863V299.044C347.632 300.391 352.017 299.662 356.794 296.447C361.705 293.144 366.212 287.782 369.739 281.531V279.653Z" fill="white"/>
<path d="M317.18 329.985L343.524 312.269C344.73 311.459 345.708 312.116 345.708 313.736V314.749C345.708 316.371 344.732 318.342 343.524 319.152L317.18 336.868C315.976 337.68 314.998 337.022 314.998 335.401V334.388C314.998 332.766 315.976 330.795 317.18 329.985Z" fill="#F26522"/>
<path opacity="0.1" d="M317.18 329.985L343.524 312.269C344.73 311.459 345.708 312.116 345.708 313.736V314.749C345.708 316.371 344.732 318.342 343.524 319.152L317.18 336.868C315.976 337.68 314.998 337.022 314.998 335.401V334.388C314.998 332.766 315.976 330.795 317.18 329.985Z" fill="black"/>
<path d="M316.091 351.371L395.799 297.767C396.401 297.362 396.89 297.69 396.89 298.501V309.334C396.89 310.144 396.401 311.131 395.799 311.536L316.091 365.139C315.489 365.544 315 365.216 315 364.406V353.573C315 352.763 315.489 351.776 316.091 351.371Z" fill="#F26522"/>
<path opacity="0.2" d="M316.091 351.371L395.799 297.767C396.401 297.362 396.89 297.69 396.89 298.501V309.334C396.89 310.144 396.401 311.131 395.799 311.536L316.091 365.139C315.489 365.544 315 365.216 315 364.406V353.573C315 352.763 315.489 351.776 316.091 351.371Z" fill="white"/>
<path d="M317.18 378.173L343.524 360.456C344.73 359.646 345.708 360.302 345.708 361.924V362.937C345.708 364.557 344.732 366.53 343.524 367.34L317.18 385.056C315.976 385.868 314.998 385.209 314.998 383.588V382.576C314.998 380.954 315.976 378.984 317.18 378.173Z" fill="#F26522"/>
<path opacity="0.1" d="M317.18 378.173L343.524 360.456C344.73 359.646 345.708 360.302 345.708 361.924V362.937C345.708 364.557 344.732 366.53 343.524 367.34L317.18 385.056C315.976 385.868 314.998 385.209 314.998 383.588V382.576C314.998 380.954 315.976 378.984 317.18 378.173Z" fill="black"/>
<path d="M316.091 399.558L395.799 345.955C396.401 345.55 396.89 345.878 396.89 346.689V357.521C396.89 358.332 396.401 359.318 395.799 359.723L316.091 413.327C315.489 413.732 315 413.404 315 412.593V401.76C315 400.95 315.489 399.965 316.091 399.558Z" fill="#F26522"/>
<path opacity="0.2" d="M316.091 399.558L395.799 345.955C396.401 345.55 396.89 345.878 396.89 346.689V357.521C396.89 358.332 396.401 359.318 395.799 359.723L316.091 413.327C315.489 413.732 315 413.404 315 412.593V401.76C315 400.95 315.489 399.965 316.091 399.558Z" fill="white"/>
<path d="M347.89 405.709L379.353 384.551C380.558 383.739 381.535 384.397 381.535 386.019V397.358C381.535 398.978 380.558 400.951 379.353 401.761L347.89 422.92C346.685 423.73 345.708 423.073 345.708 421.453V410.112C345.708 408.49 346.685 406.519 347.89 405.709Z" fill="#F26522"/>
<path opacity="0.1" d="M347.89 405.709L379.353 384.551C380.558 383.739 381.535 384.397 381.535 386.019V397.358C381.535 398.978 380.558 400.951 379.353 401.761L347.89 422.92C346.685 423.73 345.708 423.073 345.708 421.453V410.112C345.708 408.49 346.685 406.519 347.89 405.709Z" fill="black"/>
<path d="M422.482 357.894C422.482 357.894 407.003 333.022 406.059 330.063C405.347 327.832 406.108 324.514 406.285 322.971C406.462 321.43 406.718 317.996 406.937 317.04C407.323 315.373 405.467 315.715 404.426 317.231C403.36 318.784 403.019 321.816 402.488 322.314C401.959 322.811 397.822 315.813 395.664 312.574C393.507 309.334 392.157 307.383 390.846 308.584C389.901 309.448 390.605 311.336 392.169 314.093C393.732 316.851 394.427 318.129 394.662 318.721C394.899 319.314 393.612 319.361 392.917 320.605C392.375 321.577 392.881 323.149 392.163 323.899C391.444 324.649 390.774 325.998 391.562 327.518C392.564 329.454 394.577 332.222 396.89 334.089C399.205 335.957 400.142 336.613 401.507 339.155C402.873 341.696 415.205 367.632 416.033 369.188C416.86 370.745 418.469 373.916 420.901 374.005C423.335 374.098 443.238 354.134 444.264 353.138C447.543 349.951 448.579 349.483 449.145 352.354C449.322 353.252 449.438 354.275 449.562 355.433C449.956 359.067 452.081 372.072 452.081 372.072C452.081 372.072 462.148 377.755 470.436 374.955C478.726 372.154 481.505 368.12 481.505 368.12L477.359 360.249C478.488 356.998 483.702 343.858 485.338 334.648L459.382 329.767C458.849 329.632 457.999 329.382 456.913 329.049C455.488 328.612 451.904 327.147 449.142 329.944C440.213 338.997 422.482 357.894 422.482 357.894Z" fill="#FFA8A7"/>
<path d="M473.941 510.441L469.288 517.973C469.288 517.973 471.444 519.446 476.047 519.65C480.211 519.834 481.355 518.242 481.509 517.859C482.212 516.104 481.114 512.935 480.813 510.211L473.941 510.441Z" fill="#37474F"/>
<path d="M469.549 514.356C469.549 514.356 463.91 513.938 460.012 513.366C456.112 512.792 453.028 515.009 453.945 516.881C454.862 518.749 457.007 520.305 460.347 521.614C463.21 522.737 466.641 523.551 469.63 524.593C472.693 525.662 474.653 526.883 476.388 526.189C478.322 525.412 479.153 524.511 478.989 522.87C478.825 521.229 477.423 515.946 477.423 515.946L469.549 514.356Z" fill="#37474F"/>
<path d="M481.508 502.875C481.508 502.875 480.802 509.716 480.748 511.185C480.694 512.653 475.016 513.124 473.94 510.442L473.764 502.078L481.508 502.875Z" fill="#F28F8F"/>
<path d="M475.782 507.086L477.813 517.464C477.813 517.464 478.005 518.729 473.363 519.535C468.722 520.342 461.445 516.707 460.206 515.968C458.968 515.229 458.819 513.759 463.378 514.053C467.935 514.348 469.549 514.358 469.549 514.358L468.07 509.757L475.782 507.086Z" fill="#FFA8A7"/>
<path d="M485.34 334.649L488.548 333.617C488.548 333.617 495.27 358.371 496.013 360.756C496.757 363.139 497.595 365.683 496.15 368.633C494.427 372.145 485.341 386.279 485.341 386.279L479.574 379.704L486.116 365.74L480.329 352.082L485.34 334.649Z" fill="#F28F8F"/>
<path d="M452.306 302.475C452.306 302.475 449.733 297.679 452.442 291.805C455.635 284.885 462.774 281.508 471.271 282.804C475.196 283.403 479.829 287.156 482.37 292.887C485.162 299.18 485.423 311.867 486.116 316.663L452.306 302.475Z" fill="#37474F"/>
<path d="M452.112 305.188C452.112 305.188 450.094 309.664 450.444 310.072C450.793 310.478 452.14 310.809 452.14 310.809L452.112 305.188Z" fill="#FFA8A7"/>
<path d="M458.239 291.029C456.044 292.696 452.265 295.743 452.099 305.802C451.928 316.129 453.181 319.458 454.491 320.655C455.376 321.462 460.551 321.053 462.772 320.445C464.995 319.838 471.384 316.161 473.684 310.569C476.388 303.993 475.841 294.362 471.816 291.566C466.153 287.631 460.096 289.618 458.239 291.029Z" fill="#FFA8A7"/>
<path d="M481.506 368.125C485.392 375.168 489.086 381.372 489.874 389.287C491.537 406.004 486.077 425.115 484.919 437.475C484.919 437.475 488.586 443.028 488.582 449.551C488.58 454.659 481.507 502.873 481.507 502.873C481.507 502.873 476.363 504.699 473.763 502.076L468.902 413.379L471.463 402.581L481.506 368.125Z" fill="#F26522"/>
<path opacity="0.2" d="M481.506 368.125C485.392 375.168 489.086 381.372 489.874 389.287C491.537 406.004 486.077 425.115 484.919 437.475C484.919 437.475 488.586 443.028 488.582 449.551C488.58 454.659 481.507 502.873 481.507 502.873C481.507 502.873 476.363 504.699 473.763 502.076L468.902 413.379L471.463 402.581L481.506 368.125Z" fill="black"/>
<path d="M468.902 413.38L471.463 402.583C471.463 402.583 478.562 400.585 485.339 396.172C485.339 396.172 482.712 401.728 475.189 404.775L471.27 418.657L470.932 450.423L468.902 413.38Z" fill="#F26522"/>
<path opacity="0.3" d="M468.902 413.38L471.463 402.583C471.463 402.583 478.562 400.585 485.339 396.172C485.339 396.172 482.712 401.728 475.189 404.775L471.27 418.657L470.932 450.423L468.902 413.38Z" fill="black"/>
<path d="M481.506 368.125C483.585 372.077 488.555 378.836 487.499 385.33C486.217 393.2 482.583 398.732 471.463 402.583L461.034 446.578C461.034 446.578 466.464 452.497 468.125 458.128C469.783 463.758 475.782 507.084 475.782 507.084C475.782 507.084 473.927 510.611 468.069 509.757C468.069 509.757 447.645 455.418 446.202 451.919C444.759 448.42 443.825 445.804 444.473 440.105C445.124 434.408 452.081 372.076 452.081 372.076L481.506 368.125Z" fill="#F26522"/>
<path opacity="0.2" d="M481.506 368.125C483.585 372.077 488.555 378.836 487.499 385.33C486.217 393.2 482.583 398.732 471.463 402.583L461.034 446.578C461.034 446.578 466.464 452.497 468.125 458.128C469.783 463.758 475.782 507.084 475.782 507.084C475.782 507.084 473.927 510.611 468.069 509.757C468.069 509.757 447.645 455.418 446.202 451.919C444.759 448.42 443.825 445.804 444.473 440.105C445.124 434.408 452.081 372.076 452.081 372.076L481.506 368.125Z" fill="black"/>
<path d="M485.34 334.649L459.384 329.767C458.852 329.632 457.994 329.382 456.91 329.048L456.908 329.047C456.908 329.047 455.801 348.002 449.145 352.353C449.302 353.258 449.437 354.275 449.562 355.433C449.956 359.067 452.081 372.072 452.081 372.072C452.081 372.072 462.148 377.754 470.436 374.954C478.726 372.154 481.505 368.119 481.505 368.119L477.359 360.248C478.49 357 483.704 343.859 485.34 334.649Z" fill="#F26522"/>
<path opacity="0.7" d="M485.34 334.649L459.384 329.767C458.852 329.632 457.994 329.382 456.91 329.048L456.908 329.047C456.908 329.047 455.801 348.002 449.145 352.353C449.302 353.258 449.437 354.275 449.562 355.433C449.956 359.067 452.081 372.072 452.081 372.072C452.081 372.072 462.148 377.754 470.436 374.954C478.726 372.154 481.505 368.119 481.505 368.119L477.359 360.248C478.49 357 483.704 343.859 485.34 334.649Z" fill="white"/>
<path d="M478.493 357.156C478.387 357.441 470.149 362.582 467.701 363.369C471.561 363.146 474.766 362.089 477.36 360.252L478.493 357.156Z" fill="#F26522"/>
<path d="M457.59 291.537C457.59 291.537 456.381 301.082 459.31 306.679C459.31 306.679 460.41 302.881 463.181 303.606C465.97 304.337 466.088 308.557 464.151 310.949C462.213 313.341 460.057 312.477 460.057 312.477C460.057 312.477 459.621 319.375 459.388 325.159C459.163 330.732 457.828 343.546 463.415 348.699C469.003 353.852 483.007 355.591 489.57 344.903C493.222 338.958 488.371 328.448 486.115 316.662C484.04 305.827 482.873 289.769 473.003 287.192C463.132 284.616 457.59 291.537 457.59 291.537Z" fill="#37474F"/>
<path d="M493.798 161.191L491.717 162.591C491.884 161.699 492.001 160.814 492.001 159.961C492.001 155.052 489.041 153.061 485.391 155.517C484.329 156.23 483.341 157.263 482.451 158.459C482.451 158.448 482.453 158.434 482.453 158.423C482.453 151.814 478.47 149.134 473.556 152.439C468.642 155.744 464.656 163.781 464.656 170.392C464.656 170.728 464.674 171.048 464.694 171.363C463.655 171.147 462.414 171.444 461.079 172.342C457.429 174.798 454.469 180.767 454.469 185.677C454.469 186.354 454.531 186.967 454.637 187.528L453.528 188.274C450.514 190.301 448.072 194.254 448.072 197.106C448.072 199.956 450.515 200.626 453.528 198.6L493.798 171.519C496.812 169.492 499.253 165.538 499.253 162.686C499.253 159.833 496.812 159.164 493.798 161.191Z" fill="#F26522"/>
</svg>
