<svg width="630" height="706" viewBox="0 0 630 706" fill="none" xmlns="http://www.w3.org/2000/svg">
<path d="M630 539.828H0V540.181H630V539.828Z" fill="#E6E6E6"/>
<path d="M157.281 561.188H115.547V561.54H157.281V561.188Z" fill="#E6E6E6"/>
<path d="M102.339 561.188H78.1562V561.54H102.339V561.188Z" fill="#E6E6E6"/>
<path d="M265.298 566.383H241.116V566.736H265.298V566.383Z" fill="#E6E6E6"/>
<path d="M391.376 574.258H336.953V574.611H391.376V574.258Z" fill="#E6E6E6"/>
<path d="M325.735 574.258H317.756V574.611H325.735V574.258Z" fill="#E6E6E6"/>
<path d="M571.212 566.383H453.181V566.736H571.212V566.383Z" fill="#E6E6E6"/>
<path d="M298.637 476.868H55.3327C51.3675 476.868 48.1406 473.253 48.1406 468.81V85.6283C48.1406 81.1857 51.3675 77.5703 55.3327 77.5703H298.637C302.601 77.5703 305.828 81.1857 305.828 85.6283V468.81C305.828 473.253 302.601 476.868 298.637 476.868ZM55.3327 77.9246C51.5401 77.9246 48.4556 81.3805 48.4556 85.6297V468.812C48.4556 473.061 51.5401 476.517 55.3327 476.517H298.637C302.429 476.517 305.513 473.061 305.513 468.812V85.6283C305.513 81.3805 302.429 77.9232 298.637 77.9232L55.3327 77.9246Z" fill="#E6E6E6"/>
<path d="M571.17 476.868H327.867C323.903 476.868 320.676 473.253 320.676 468.81V85.6283C320.676 81.1857 323.903 77.5703 327.867 77.5703H571.17C575.137 77.5703 578.362 81.1857 578.362 85.6283V468.81C578.363 473.253 575.137 476.868 571.17 476.868ZM327.867 77.9246C324.075 77.9246 320.991 81.3805 320.991 85.6297V468.812C320.991 473.061 324.075 476.517 327.867 476.517H571.17C574.963 476.517 578.047 473.061 578.047 468.812V85.6283C578.047 81.3805 574.963 77.9232 571.17 77.9232L327.867 77.9246Z" fill="#E6E6E6"/>
<path d="M336.922 419.234H309.216V542.383H336.922V419.234Z" fill="#FCE0D3"/>
<path d="M331.66 542.388H336.922V525.617H326.143L331.66 542.388Z" fill="#FAC1A7"/>
<path d="M215.515 419.234H187.809V542.383H215.515V419.234Z" fill="#FCE0D3"/>
<path d="M336.923 419.234H210.922V532.093H336.923V419.234Z" fill="#FAC1A7"/>
<path d="M332.353 424.787V454.646H215.491V424.787H332.353ZM332.839 424.242H215.003V455.192H332.839V424.242Z" fill="#FCE0D3"/>
<path d="M216.184 542.388H210.922V525.617H221.701L216.184 542.388Z" fill="#FAC1A7"/>
<path d="M271.135 439.709C271.135 441.432 272.382 442.831 273.922 442.831C275.46 442.831 276.709 441.434 276.709 439.709C276.709 437.985 275.462 436.586 273.922 436.586C272.383 436.587 271.135 437.985 271.135 439.709Z" fill="#E6E6E6"/>
<path d="M332.353 460.732V490.591H215.491V460.732H332.353ZM332.839 460.188H215.003V491.138H332.839V460.188Z" fill="#FCE0D3"/>
<path d="M271.135 475.67C271.135 477.393 272.382 478.792 273.922 478.792C275.46 478.792 276.709 477.395 276.709 475.67C276.709 473.944 275.462 472.547 273.922 472.547C272.383 472.548 271.135 473.946 271.135 475.67Z" fill="#E6E6E6"/>
<path d="M332.353 496.686V526.545H215.491V496.686H332.353ZM332.839 496.141H215.003V527.091H332.839V496.141Z" fill="#FCE0D3"/>
<path d="M271.135 511.615C271.135 513.339 272.382 514.738 273.922 514.738C275.46 514.738 276.709 513.34 276.709 511.615C276.709 509.89 275.462 508.492 273.922 508.492C272.383 508.492 271.135 509.89 271.135 511.615Z" fill="#E6E6E6"/>
<path d="M198.589 347.719H170.883V542.387H198.589V347.719Z" fill="#FCE0D3"/>
<path d="M193.327 542.388H198.589V525.617H187.81L193.327 542.388Z" fill="#FAC1A7"/>
<path d="M95.0382 347.719H67.332V542.387H95.0382V347.719Z" fill="#FCE0D3"/>
<path d="M198.588 347.719H90.4463V532.096H198.588V347.719Z" fill="#FAC1A7"/>
<path d="M193.933 352.939V394.683H95.1026V352.939H193.933ZM194.507 352.297H94.5293V395.327H194.507V352.297Z" fill="#FCE0D3"/>
<path d="M193.933 399.76V510.488H146.858V399.76H193.933ZM194.506 399.117H146.283V511.133H194.506V399.117Z" fill="#FCE0D3"/>
<path d="M142.177 399.76V510.488H95.1026V399.76H142.177ZM142.752 399.117H94.5293V511.133H142.752V399.117Z" fill="#FCE0D3"/>
<path d="M95.7081 542.388H90.4463V525.617H101.226L95.7081 542.388Z" fill="#FAC1A7"/>
<path d="M141.731 373.81C141.731 375.535 142.979 376.933 144.519 376.933C146.057 376.933 147.306 375.535 147.306 373.81C147.306 372.087 146.058 370.688 144.519 370.688C142.979 370.689 141.731 372.087 141.731 373.81Z" fill="#E6E6E6"/>
<path d="M151.708 452.482C151.708 454.206 152.955 455.605 154.495 455.605C156.035 455.605 157.282 454.207 157.282 452.482C157.282 450.758 156.035 449.359 154.495 449.359C152.955 449.359 151.708 450.757 151.708 452.482Z" fill="#E6E6E6"/>
<path d="M131.753 452.482C131.753 454.206 133 455.605 134.54 455.605C136.079 455.605 137.327 454.207 137.327 452.482C137.327 450.758 136.08 449.359 134.54 449.359C133.002 449.359 131.753 450.757 131.753 452.482Z" fill="#E6E6E6"/>
<path d="M128.614 293.445H116.926C116.926 293.445 118.955 305.551 118.955 312.674C118.955 319.798 110.064 347.721 122.77 347.721C135.475 347.721 126.585 319.796 126.585 312.674C126.584 305.549 128.614 293.445 128.614 293.445Z" fill="#FCE0D3"/>
<path d="M84.1719 322.078V330.586C84.1719 340.012 91.0553 347.725 99.4695 347.725H107.064C115.477 347.725 122.36 340.012 122.36 330.586V322.078H84.1719Z" fill="#FBD1BD"/>
<path d="M246.54 401.297C246.54 411.168 256.407 419.244 268.467 419.244H279.352C291.412 419.244 301.279 411.168 301.279 401.297H246.54Z" fill="#FCE0D3"/>
<path d="M535.004 386.841C528.401 392.879 519.289 403.936 510.939 419.491C505.377 429.85 502.026 440.705 500.554 455.045C500.586 438.812 500.631 421.37 500.681 404.91C502.358 400.673 506.189 390.911 508.937 383.198C518.106 357.461 521.52 351.132 529.767 328.933C540.766 299.324 552.036 264.191 548.809 266.999C542.234 272.719 517.032 325.59 514.308 333.158C504.939 359.19 502.329 378.165 500.708 396.476C500.758 381.015 500.812 366.819 500.865 355.866C501.034 320.138 501.577 308.607 501.842 305.051C502.861 303.244 504.066 301.138 504.766 300.003C510.686 290.413 512.969 282.244 518.547 267.94C526.451 247.673 533.257 211.688 531.268 213.504C522.982 221.061 516.446 237.308 507.858 258.01C499.271 278.713 501.726 290.618 500.022 308.3C499.664 311.77 499.391 324.863 499.193 343.011C496.966 323.677 492.787 310.937 485.164 299.359C475.787 285.119 466.717 275.5 460.061 270.476C453.406 265.453 471.554 300.432 480.233 315.7C487.962 329.296 495.081 341.294 499.095 353.11C498.882 377.705 498.784 408.85 498.784 437.841C496.793 424.647 493.542 410.441 489.205 399.439C483.994 386.222 475.976 365.948 469.595 359.072C468.061 357.42 476.267 396.849 481.533 407.334C486.8 417.818 490.666 427.699 493.981 433.642C494.754 435.029 497.32 440.376 498.785 443.451C498.799 478.842 498.96 510.072 499.235 520.702H500.599C500.506 517.959 500.491 499.956 500.52 476.128C503.806 463.189 511.322 448.426 517.524 434.957C524.294 420.252 541.607 380.802 535.004 386.841Z" fill="#FCE0D3"/>
<path d="M519.675 542.381H480.182L477.201 499.008H522.656L519.675 542.381Z" fill="#FBD1BD"/>
<path d="M525.599 504.063H474.258L472.787 489.43H527.069L525.599 504.063Z" fill="#FCE0D3"/>
<path d="M156.568 106.578H85.9424V193.467H156.568V106.578Z" fill="#FCE0D3"/>
<path d="M164.217 106.578H91.2656V193.467H164.217V106.578Z" fill="#FBD1BD"/>
<path d="M158.104 186.624V113.43L97.3763 113.43L97.3763 186.624H158.104Z" fill="#FCE0D3"/>
<path d="M143.386 168.884V131.172H112.097V168.884H143.386Z" fill="#F5F5F5"/>
<path d="M516.664 116.703H451.056V197.42H516.664V116.703Z" fill="#FCE0D3"/>
<path d="M523.77 116.703H456.001V197.42H523.77V116.703Z" fill="#FBD1BD"/>
<path d="M518.093 191.057V123.062L461.679 123.062V191.057H518.093Z" fill="#FCE0D3"/>
<path d="M489.885 176.781C499.605 176.781 507.485 167.953 507.485 157.062C507.485 146.172 499.605 137.344 489.885 137.344C480.165 137.344 472.285 146.172 472.285 157.062C472.285 167.953 480.165 176.781 489.885 176.781Z" fill="#F5F5F5"/>
<path d="M229.937 158.383H177.546V222.838H229.937V158.383Z" fill="#FCE0D3"/>
<path d="M235.613 158.383H181.496V222.838H235.613V158.383Z" fill="#FBD1BD"/>
<path d="M231.079 217.758V163.461H186.03V217.758H231.079Z" fill="#FCE0D3"/>
<path d="M208.555 176.883L196.234 200.793H220.875L208.555 176.883Z" fill="#F5F5F5"/>
<path d="M315 603.587C449.924 603.587 559.3 596.43 559.3 587.602C559.3 578.774 449.924 571.617 315 571.617C180.077 571.617 70.7002 578.774 70.7002 587.602C70.7002 596.43 180.077 603.587 315 603.587Z" fill="#FBD1BD"/>
<path d="M440.051 230.717L427.553 225.039C427.553 225.039 411.059 258.741 406.336 260.442C399.907 262.757 386.613 269.193 378.713 270.399C377.648 271.793 375.891 276.192 376.059 277.796C386.658 281.756 409.943 276.497 414.927 272.351C426.29 262.894 440.051 230.717 440.051 230.717Z" fill="#E58A7B"/>
<path d="M443.898 223.066C446.223 232.72 433.599 252.113 433.599 252.113L417.015 241.69C417.015 241.69 420.107 233.718 423.892 225.6C430.004 212.489 441.243 212.047 443.898 223.066Z" fill="#F26522"/>
<path opacity="0.2" d="M443.898 223.066C446.223 232.72 433.599 252.113 433.599 252.113L417.015 241.69C417.015 241.69 420.107 233.718 423.892 225.6C430.004 212.489 441.243 212.047 443.898 223.066Z" fill="black"/>
<path opacity="0.2" d="M423.627 245.846L430.14 249.937L431.279 227.539C427.499 230.803 424.818 240.624 423.627 245.846Z" fill="black"/>
<path d="M433.014 215.789C433.014 215.789 420.138 247.886 427.645 307.659C442.934 307.659 470.947 307.659 478.386 307.659C479.192 298.932 476.526 256.36 486.19 215.241C486.19 215.241 477.594 213.286 469.33 212.839C462.865 212.489 453.49 212.257 447.76 212.84C440.205 213.608 433.014 215.789 433.014 215.789Z" fill="#F26522"/>
<path opacity="0.2" d="M433.014 215.789C433.014 215.789 420.138 247.886 427.645 307.659C442.934 307.659 470.947 307.659 478.386 307.659C479.192 298.932 476.526 256.36 486.19 215.241C486.19 215.241 477.594 213.286 469.33 212.839C462.865 212.489 453.49 212.257 447.76 212.84C440.205 213.608 433.014 215.789 433.014 215.789Z" fill="black"/>
<path d="M421.247 588.877C421.168 590.393 440.406 591.622 464.216 591.622C488.026 591.622 507.392 590.393 507.472 588.877C507.551 587.361 488.313 586.133 464.503 586.133C440.693 586.131 421.327 587.361 421.247 588.877Z" fill="#FBD1BD"/>
<path d="M456.298 550.782L447.269 554.68L455.011 577.196L464.041 573.298L456.298 550.782Z" fill="#E58A7B"/>
<path d="M495.244 578.029H485.757L482.277 553.414H491.764L495.244 578.029Z" fill="#E58A7B"/>
<path d="M485.149 576.797H495.807C496.195 576.797 496.515 577.099 496.577 577.523L497.957 586.97C498.1 587.949 497.364 588.877 496.468 588.86C492.751 588.788 490.956 588.544 486.27 588.544C483.387 588.544 477.429 588.88 473.446 588.88C469.551 588.88 469.174 584.468 470.826 584.069C478.229 582.277 481.112 579.807 483.575 577.451C484.018 577.026 484.582 576.797 485.149 576.797Z" fill="#323737"/>
<path d="M453.565 573.072L463.671 569.78C464.049 569.657 464.439 569.839 464.606 570.219L468.351 578.684C468.739 579.56 468.28 580.662 467.403 580.93C463.743 582.049 461.282 582.75 456.7 584.242C453.533 585.272 450.313 586.952 447.184 588.07C445.018 588.844 439.932 588.875 437.297 588.875C433.402 588.875 432.534 584.274 434.204 584.064C438.428 583.533 438.995 583.779 441.328 582.469C445.183 580.302 448.166 578.507 451.503 574.59C452.086 573.909 452.767 573.332 453.565 573.072Z" fill="#323737"/>
<path d="M380.309 270.296L369.87 265.375L365.572 278.332C365.572 278.332 371.596 279.556 378.476 278.332L380.309 270.296Z" fill="#E58A7B"/>
<path d="M362.113 265.055L361.837 273.676L365.573 278.329L369.871 265.372L362.113 265.055Z" fill="#E58A7B"/>
<path d="M456.332 550.766L447.301 554.672L451.299 566.276L460.33 562.37L456.332 550.766Z" fill="#CF6F64"/>
<path d="M491.767 553.422H482.276L484.076 566.109H493.566L491.767 553.422Z" fill="#CF6F64"/>
<path opacity="0.2" d="M426.035 291.502C426.217 294.056 426.437 296.666 426.708 299.35L464.439 285.626C470.33 283.653 475.457 279.504 478.954 273.833C479.096 270.061 479.29 266.101 479.575 261.966C479.705 259.95 479.86 257.889 480.029 255.801C480.21 253.626 480.417 251.405 480.65 249.172L426.035 291.502Z" fill="black"/>
<path d="M438.355 245.192L437.069 245.021C437.818 237.976 442.511 232.409 447.469 232.541L447.432 233.993C443.151 233.853 439.027 238.874 438.355 245.192Z" fill="white"/>
<path d="M445.067 258.225C444.997 258.225 444.926 258.223 444.854 258.222L444.892 256.771C449.225 256.949 453.297 251.888 453.969 245.57L455.255 245.743C454.516 252.687 449.971 258.225 445.067 258.225Z" fill="white"/>
<path d="M468.617 185.625C466.849 193.401 464.746 207.648 469.33 212.836C469.33 212.836 466.128 220.723 453.232 220.723C441.447 220.723 447.76 212.836 447.76 212.836C455.607 210.765 455.745 204.332 454.713 198.289L468.617 185.625Z" fill="#E58A7B"/>
<path d="M462.949 190.797L454.72 198.289C454.968 199.719 455.144 201.169 455.161 202.578C457.566 205.261 462.394 198.462 462.89 194.994C463.135 193.266 463.158 191.603 462.949 190.797Z" fill="#CF6F64"/>
<path d="M440.577 185.54C441.783 187.96 443.911 189.466 445.922 189.967C448.947 190.722 450.468 187.604 449.634 184.466C448.883 181.641 446.404 177.845 443.364 178.496C440.369 179.138 439.197 182.773 440.577 185.54Z" fill="#CF6F64"/>
<path d="M445.569 160.642C440.857 163.062 439.196 184.035 445.121 187.137C451.045 190.237 454.495 156.061 445.569 160.642Z" fill="#323737"/>
<path d="M470.054 173.932C468.926 184.461 468.741 190.657 463.713 196.061C456.148 204.189 444.8 199.369 443.108 188.858C441.584 179.399 443.685 163.77 453.103 159.58C462.382 155.452 471.182 163.404 470.054 173.932Z" fill="#E58A7B"/>
<path d="M454.575 166.104C461.545 164.107 466.676 162.746 464.845 169.265C462.406 177.95 459.48 186.364 463.405 186.756C465.792 186.995 476.377 181.962 475.032 176.874C473.862 172.441 478.782 171.246 479.689 168.986C482.957 160.846 473.621 161.903 475.282 156.978C476.9 152.182 467.761 144.077 462.697 148.037C454.501 154.448 440.414 154.356 447.82 143.842C453.123 136.312 443.661 137.858 443.661 137.858C443.661 137.858 449.376 141.656 439.756 147.529C429.558 153.752 438.893 170.599 454.575 166.104Z" fill="#323737"/>
<path d="M473.692 185.54C472.232 187.96 469.947 189.466 467.883 189.967C464.779 190.722 463.586 187.604 464.747 184.466C465.794 181.641 468.67 177.845 471.642 178.496C474.569 179.138 475.36 182.773 473.692 185.54Z" fill="#E58A7B"/>
<path d="M427.646 307.665C427.646 307.665 419.129 393.069 418.464 425.482C417.774 459.197 447.328 564.385 447.328 564.385L462.462 557.265C462.462 557.265 444.841 461.166 447.289 428.054C449.958 391.958 460.999 307.664 460.999 307.664H427.646V307.665Z" fill="#F26522"/>
<path opacity="0.2" d="M448.811 331.109C442.025 346.892 446.597 378.096 450.273 396.594C451.672 383.537 453.329 369.365 454.909 356.25C454.754 336.085 453.355 320.52 448.811 331.109Z" fill="black"/>
<path d="M461.777 551.727C461.848 551.694 463.571 557.131 463.571 557.131L446.128 565.337L443.38 559.612L461.777 551.727Z" fill="#F26522"/>
<path d="M445.645 307.664C445.645 307.664 452.16 388.891 456.478 419.322C461.207 452.645 479.782 563.649 479.782 563.649H497.157C497.157 563.649 486.746 455.336 484.779 422.343C482.644 386.533 478.384 307.664 478.384 307.664H445.645Z" fill="#F26522"/>
<path d="M497.423 558.578C497.498 558.578 498.004 564.019 498.004 564.019H478.906L477.543 557.773L497.423 558.578Z" fill="#F26522"/>
<path opacity="0.2" d="M490.766 552.145C490.684 552.145 490.615 552.076 490.606 551.984C490.512 550.999 481.124 453.211 479.357 423.568C477.441 391.4 473.586 320.073 473.547 319.356C473.542 319.256 473.61 319.17 473.698 319.164C473.702 319.164 473.706 319.164 473.708 319.164C473.793 319.164 473.866 319.239 473.871 319.335C473.909 320.051 477.763 391.377 479.681 423.543C481.446 453.18 490.833 550.961 490.928 551.944C490.938 552.045 490.873 552.134 490.785 552.144C490.778 552.145 490.771 552.145 490.766 552.145Z" fill="black"/>
<path d="M455.646 176.873C455.601 177.73 455.16 178.426 454.66 178.426C454.16 178.426 453.79 177.732 453.836 176.873C453.88 176.016 454.322 175.32 454.822 175.32C455.323 175.32 455.692 176.016 455.646 176.873Z" fill="#323737"/>
<path d="M446.998 176.873C446.953 177.73 446.512 178.426 446.011 178.426C445.511 178.426 445.142 177.732 445.187 176.873C445.233 176.016 445.674 175.32 446.174 175.32C446.674 175.32 447.043 176.016 446.998 176.873Z" fill="#323737"/>
<path d="M449.724 177.297C449.724 177.297 447.726 182.243 445.685 184.629C446.965 186.045 449.3 185.397 449.3 185.397L449.724 177.297Z" fill="#DF5753"/>
<path d="M449.945 188.999C449.821 188.999 449.725 188.886 449.733 188.748C449.74 188.609 449.847 188.496 449.971 188.496C453.33 188.496 455.035 185.868 455.053 185.841C455.128 185.725 455.269 185.691 455.368 185.767C455.467 185.844 455.489 185.999 455.414 186.116C455.339 186.232 453.544 188.999 449.945 188.999Z" fill="#323737"/>
<path d="M457.185 174.271C457.055 174.328 456.909 174.319 456.788 174.233C455.135 173.067 453.594 173.849 453.579 173.859C453.367 173.981 453.086 173.875 452.992 173.623C452.897 173.372 453.008 173.071 453.237 172.951C453.319 172.908 455.248 171.927 457.3 173.374C457.505 173.519 457.555 173.828 457.414 174.065C457.356 174.161 457.275 174.232 457.185 174.271Z" fill="#323737"/>
<path d="M443.653 171.446C443.592 171.426 443.531 171.391 443.482 171.337C443.306 171.154 443.306 170.836 443.482 170.627C445.241 168.545 447.28 168.863 447.365 168.877C447.605 168.906 447.765 169.173 447.713 169.449C447.661 169.722 447.424 169.912 447.183 169.872C447.115 169.861 445.523 169.634 444.118 171.295C443.993 171.445 443.811 171.497 443.653 171.446Z" fill="#323737"/>
<path d="M491.06 229.143L477.952 225.234C477.952 225.234 465.1 260.679 460.56 262.993C454.383 266.143 438.741 277.035 432.093 282.288C431.724 284.045 432.014 288.726 432.85 290.001C444.154 287.7 465.9 278.333 470.435 273.571C480.775 262.717 491.06 229.143 491.06 229.143Z" fill="#E58A7B"/>
<path d="M481.913 578.652C481.191 578.652 480.523 578.514 480.115 578.111C479.791 577.791 479.659 577.342 479.721 576.78C479.766 576.361 479.974 576.162 480.143 576.069C481.213 575.467 484.172 577.571 484.506 577.813C484.579 577.869 484.615 577.969 484.596 578.069C484.576 578.168 484.505 578.248 484.416 578.271C483.747 578.449 482.79 578.652 481.913 578.652ZM480.619 576.453C480.502 576.453 480.402 576.472 480.324 576.516C480.263 576.551 480.188 576.616 480.168 576.811C480.124 577.212 480.207 577.511 480.425 577.726C480.918 578.216 482.153 578.281 483.783 577.917C482.747 577.222 481.346 576.453 480.619 576.453Z" fill="#F26522"/>
<path d="M484.363 578.274C484.327 578.274 484.29 578.264 484.257 578.244C483.306 577.645 481.531 575.318 481.794 574.132C481.841 573.917 482.002 573.546 482.544 573.472C482.898 573.423 483.211 573.533 483.484 573.794C484.533 574.804 484.599 577.871 484.601 578.001C484.604 578.093 484.56 578.182 484.488 578.231C484.449 578.26 484.406 578.274 484.363 578.274ZM482.675 573.965C482.642 573.965 482.608 573.969 482.573 573.974C482.279 574.013 482.245 574.164 482.231 574.228C482.075 574.928 483.193 576.688 484.125 577.518C484.061 576.622 483.852 574.833 483.18 574.187C483.025 574.037 482.86 573.965 482.675 573.965Z" fill="#F26522"/>
<path d="M448.455 576.894C447.528 577.146 446.643 577.22 446.079 576.877C445.72 576.66 445.513 576.296 445.465 575.8C445.436 575.504 445.526 575.245 445.721 575.052C446.737 574.04 450.847 575.128 451.313 575.255C451.404 575.281 451.468 575.368 451.472 575.475C451.476 575.583 451.42 575.683 451.331 575.73C450.568 576.116 449.485 576.615 448.455 576.894ZM446.406 575.217C446.234 575.264 446.098 575.33 446.008 575.419C445.929 575.498 445.9 575.588 445.913 575.718C445.945 576.054 446.076 576.289 446.311 576.433C446.98 576.841 448.533 576.517 450.533 575.58C449.128 575.25 447.291 574.976 446.406 575.217Z" fill="#F26522"/>
<path d="M451.29 575.742C451.258 575.751 451.227 575.751 451.195 575.746C449.974 575.492 447.366 573.869 447.342 572.653C447.336 572.37 447.455 571.98 448.053 571.748C448.486 571.566 448.932 571.603 449.35 571.833C450.72 572.59 451.436 575.3 451.466 575.415C451.487 575.499 451.467 575.592 451.412 575.662C451.378 575.703 451.335 575.729 451.29 575.742ZM448.31 572.176C448.267 572.187 448.223 572.204 448.177 572.22C447.787 572.374 447.791 572.553 447.791 572.612C447.806 573.341 449.616 574.682 450.895 575.134C450.641 574.354 450.028 572.782 449.131 572.286C448.862 572.137 448.591 572.1 448.31 572.176Z" fill="#F26522"/>
<path d="M433.161 281.445L420.022 288.222L418.497 292.375L423.353 296.035C423.353 296.035 432.415 294.93 434.997 288.406L433.161 281.445Z" fill="#E58A7B"/>
<path d="M433.72 290.236C432.899 284.767 431.293 282.272 431.278 282.248L433.35 280.508C433.43 280.628 435.334 283.508 436.274 289.754L433.72 290.236Z" fill="#323737"/>
<path d="M435.957 283.455C436.383 284.636 435.699 286.059 434.428 286.635C433.157 287.211 431.782 286.72 431.356 285.538C430.93 284.357 431.614 282.934 432.886 282.358C434.156 281.783 435.532 282.273 435.957 283.455Z" fill="#323737"/>
<path d="M411.144 293.705L412.889 295.685L424.678 290.036L420.022 288.234L411.144 293.705Z" fill="#E58A7B"/>
<path opacity="0.2" d="M461.777 551.727C461.848 551.694 463.571 557.131 463.571 557.131L446.128 565.337L443.38 559.612L461.777 551.727Z" fill="black"/>
<path opacity="0.2" d="M497.423 558.578C497.498 558.578 498.004 564.019 498.004 564.019H478.906L477.543 557.773L497.423 558.578Z" fill="black"/>
<path d="M494.476 225.079C497.943 237.597 484.447 254.697 484.447 254.697L465.738 246.142C465.738 246.142 468.374 237.048 473.39 224.863C479.093 211.016 490.977 212.446 494.476 225.079Z" fill="#F26522"/>
<path opacity="0.2" d="M494.476 225.079C497.943 237.597 484.447 254.697 484.447 254.697L465.738 246.142C465.738 246.142 468.374 237.048 473.39 224.863C479.093 211.016 490.977 212.446 494.476 225.079Z" fill="black"/>
<path d="M308.542 99.625H300.494V101.076H308.542V99.625Z" fill="#F26522"/>
<path d="M412.78 157.167L411.806 181.391L413.098 181.456L414.072 157.233L412.78 157.167Z" fill="#F26522"/>
<path d="M410.273 106.148H261.594L247.753 453.031H396.432L410.273 106.148Z" fill="#F26522"/>
<path opacity="0.56" d="M405.833 110.906H257.154L243.314 457.789H391.993L405.833 110.906Z" fill="#FAC1A7"/>
<path opacity="0.07" d="M401.519 116H252.841L239 462.883H387.679L401.519 116Z" fill="white"/>
<path d="M384.472 266.961H257.568L256.509 293.509H383.413L384.472 266.961Z" fill="white"/>
<path d="M327.368 247.602H258.341L257.867 259.48H326.892L327.368 247.602Z" fill="#F26522"/>
<path d="M381.614 338.602H254.709L253.649 365.15H380.554L381.614 338.602Z" fill="white"/>
<path opacity="0.47" d="M358.342 400.977H273.003L271.734 432.795H357.072L358.342 400.977Z" fill="#F26522"/>
<path d="M352.634 437.725H267.296C267.256 437.725 267.217 437.705 267.188 437.672C267.16 437.64 267.145 437.595 267.148 437.55L268.418 405.731C268.42 405.641 268.487 405.57 268.566 405.57H353.904C353.944 405.57 353.983 405.59 354.012 405.623C354.04 405.655 354.055 405.7 354.052 405.745L352.782 437.564C352.78 437.654 352.713 437.725 352.634 437.725ZM267.453 437.389H352.49L353.745 405.906H268.708L267.453 437.389Z" fill="white"/>
<path d="M312.452 319.234H255.482L255.008 331.112H311.977L312.452 319.234Z" fill="#F26522"/>
<path d="M356.714 181.228C356.396 189.177 353.824 196.518 349.702 202.481C343.476 211.519 333.725 217.394 322.991 217.394C312.257 217.394 302.987 211.519 297.483 202.481C293.837 196.518 291.851 189.178 292.169 181.228C292.966 161.252 308.061 145.063 325.878 145.063C343.707 145.061 357.51 161.252 356.714 181.228Z" fill="white"/>
<path d="M359.749 152.641C359.664 154.753 358.981 156.704 357.885 158.288C356.231 160.689 353.64 162.25 350.788 162.25C347.935 162.25 345.473 160.689 344.01 158.288C343.041 156.704 342.513 154.753 342.598 152.641C342.809 147.333 346.821 143.031 351.555 143.031C356.293 143.031 359.96 147.333 359.749 152.641Z" fill="#F26522"/>
<path d="M271.234 280.238C271.14 282.587 269.364 284.491 267.267 284.491C265.17 284.491 263.546 282.587 263.64 280.238C263.733 277.889 265.509 275.984 267.606 275.984C269.704 275.983 271.328 277.889 271.234 280.238Z" fill="#323737"/>
<path d="M288.228 280.238C288.134 282.587 286.358 284.491 284.261 284.491C282.165 284.491 280.54 282.587 280.634 280.238C280.727 277.889 282.504 275.984 284.6 275.984C286.697 275.984 288.322 277.889 288.228 280.238Z" fill="#323737"/>
<path d="M305.223 280.238C305.13 282.587 303.353 284.491 301.256 284.491C299.16 284.491 297.536 282.587 297.629 280.238C297.722 277.889 299.499 275.984 301.595 275.984C303.692 275.983 305.316 277.889 305.223 280.238Z" fill="#323737"/>
<path d="M268.376 351.872C268.283 354.221 266.506 356.126 264.41 356.126C262.313 356.126 260.689 354.221 260.782 351.872C260.875 349.523 262.652 347.617 264.749 347.617C266.845 347.619 268.469 349.523 268.376 351.872Z" fill="#323737"/>
<path d="M285.37 351.872C285.277 354.221 283.5 356.126 281.404 356.126C279.307 356.126 277.683 354.221 277.776 351.872C277.87 349.523 279.646 347.617 281.743 347.617C283.841 347.619 285.464 349.523 285.37 351.872Z" fill="#323737"/>
<path d="M302.363 351.872C302.27 354.221 300.494 356.126 298.397 356.126C296.3 356.126 294.676 354.221 294.769 351.872C294.863 349.523 296.639 347.617 298.736 347.617C300.833 347.617 302.458 349.523 302.363 351.872Z" fill="#323737"/>
<path d="M319.359 351.872C319.265 354.221 317.489 356.126 315.392 356.126C313.295 356.126 311.671 354.221 311.765 351.872C311.858 349.523 313.634 347.617 315.731 347.617C317.828 347.619 319.452 349.523 319.359 351.872Z" fill="#323737"/>
<path d="M336.352 351.872C336.259 354.221 334.482 356.126 332.385 356.126C330.289 356.126 328.664 354.221 328.758 351.872C328.851 349.523 330.628 347.617 332.724 347.617C334.821 347.619 336.445 349.523 336.352 351.872Z" fill="#323737"/>
<path d="M337.977 169.15C337.654 177.228 331.548 183.777 324.337 183.777C317.128 183.777 311.543 177.228 311.866 169.15C312.188 161.071 318.294 154.523 325.505 154.523C332.715 154.523 338.299 161.072 337.977 169.15Z" fill="#F26522"/>
<path d="M349.702 202.49C343.476 211.528 333.725 217.403 322.991 217.403C312.257 217.403 302.987 211.528 297.483 202.49C303.608 195.657 313.303 191.219 324.037 191.219C334.782 191.219 344.122 195.657 349.702 202.49Z" fill="#F26522"/>
<path opacity="0.1" d="M337.977 169.15C337.654 177.228 331.548 183.777 324.337 183.777C317.128 183.777 311.543 177.228 311.866 169.15C312.188 161.071 318.294 154.523 325.505 154.523C332.715 154.523 338.299 161.072 337.977 169.15Z" fill="white"/>
<path opacity="0.1" d="M349.702 202.49C343.476 211.528 333.725 217.403 322.991 217.403C312.257 217.403 302.987 211.528 297.483 202.49C303.608 195.657 313.303 191.219 324.037 191.219C334.782 191.219 344.122 195.657 349.702 202.49Z" fill="white"/>
<path d="M164.313 299.904C163.119 302.836 161.863 306.062 160.761 309.209C159.649 312.385 158.54 315.564 157.574 318.789C155.697 325.237 153.936 331.745 153.07 338.272L152.782 340.35C152.76 340.6 152.776 340.955 152.874 341.401C153.058 342.298 153.557 343.498 154.259 344.675C155.678 347.057 157.689 349.468 159.857 351.707C162.021 353.981 164.37 356.157 166.812 358.222C169.23 360.306 171.781 362.346 174.275 364.257L171.927 369.211C165.932 366.274 160.349 362.763 154.941 358.357C152.282 356.087 149.656 353.644 147.33 350.34C146.184 348.675 145.056 346.793 144.318 344.308C143.96 343.069 143.71 341.667 143.709 340.151C143.718 339.802 143.734 339.312 143.756 339.078L143.817 338.376L143.943 336.973C144.629 329.489 146.108 322.297 148.057 315.32C149.04 311.836 150.088 308.387 151.285 305.003C152.508 301.597 153.713 298.327 155.242 294.898L164.313 299.904Z" fill="#E58A7B"/>
<path d="M172.511 363.42L181.414 358.359L179.115 369.323C179.115 369.323 173.001 371.236 170.157 367.912L172.511 363.42Z" fill="#E58A7B"/>
<path d="M189.567 360.159L187.199 369.222L179.113 369.324L181.414 358.359L189.567 360.159Z" fill="#E58A7B"/>
<path d="M202.144 247.047C202.144 247.047 202.916 250.229 204.141 252.627C203.089 253.728 202.144 253.346 202.144 253.346V247.047Z" fill="#DF5753"/>
<path d="M201.881 247.134C202.402 247.134 202.825 246.41 202.825 245.516C202.825 244.623 202.402 243.898 201.881 243.898C201.36 243.898 200.938 244.623 200.938 245.516C200.938 246.41 201.36 247.134 201.881 247.134Z" fill="#323737"/>
<path d="M201.65 243.946L203.566 243.328C203.566 243.328 202.583 245.005 201.65 243.946Z" fill="#323737"/>
<path d="M177.53 257.406C178.681 263.978 179.829 276.02 175.724 280.404C175.724 280.404 177.328 287.07 188.227 287.07C200.212 287.07 193.955 280.404 193.955 280.404C187.414 278.654 187.583 273.217 188.722 268.111L177.53 257.406Z" fill="#E58A7B"/>
<path d="M174.349 242.451C174.95 253.422 174.996 258.079 179.942 263.711C187.381 272.181 199.277 268.954 201.614 258.003C203.717 248.145 202.38 231.86 192.796 227.493C183.351 223.192 173.747 231.479 174.349 242.451Z" fill="#E58A7B"/>
<path d="M175.315 230.035C170.404 232.041 163.854 230.549 166.424 247.531C169.146 265.512 164.956 271.427 164.956 271.427C164.956 271.427 183.594 275.875 202.62 271.161C202.62 271.161 196.811 259.78 198.442 251.475C200.521 240.883 198.873 236.968 198.873 236.968C198.873 236.968 182.219 227.215 175.315 230.035Z" fill="#323737"/>
<path d="M196.106 248.17C196.086 250.344 196.766 252.534 197.648 254.054C198.975 256.343 200.55 255.411 200.944 253.035C201.3 250.898 201.036 247.131 199.337 245.67C197.663 244.233 196.13 245.686 196.106 248.17Z" fill="#E58A7B"/>
<path d="M171.05 231.958C169.632 227.518 176.366 220.69 190.601 223.53C204.836 226.37 205.461 239.635 205.461 239.635L202.581 235.805L202.711 239.838L188.081 242.987L171.05 231.958Z" fill="#323737"/>
<path d="M172.257 281.148C172.06 279.791 172.874 278.514 174.084 278.291C178.516 277.471 188.591 275.81 193.663 276.597C197.43 277.181 198.427 279.646 198.586 281.662C198.704 283.157 197.6 284.417 196.262 284.35L174.352 283.24C173.3 283.186 172.424 282.314 172.257 281.148Z" fill="#F26522"/>
<path opacity="0.6" d="M172.257 281.148C172.06 279.791 172.874 278.514 174.084 278.291C178.516 277.471 188.591 275.81 193.663 276.597C197.43 277.181 198.427 279.646 198.586 281.662C198.704 283.157 197.6 284.417 196.262 284.35L174.352 283.24C173.3 283.186 172.424 282.314 172.257 281.148Z" fill="black"/>
<path d="M184.917 527.78L193.038 534.096L206.636 513.449L198.515 507.133L184.917 527.78Z" fill="#E58A7B"/>
<path d="M165.961 527.368L174.552 532.849L186.586 511.012L177.996 505.531L165.961 527.368Z" fill="#E58A7B"/>
<path d="M206.629 513.459L199.622 524.104L191.499 517.785L198.506 507.141L206.629 513.459Z" fill="#CF6F64"/>
<path d="M177.991 505.539L186.584 511.022L180.376 522.276L171.783 516.793L177.991 505.539Z" fill="#CF6F64"/>
<path d="M191.768 350.086C191.768 350.086 223.495 394.886 217.543 437.727C212.735 472.331 184.893 519.187 184.893 519.187L171.801 511.897C171.801 511.897 186.025 480.758 195.366 447.748C199.283 433.905 197.614 418.654 190.29 406.671C174.219 380.371 148.471 396.02 165.791 350.087L191.768 350.086Z" fill="#F26522"/>
<path opacity="0.6" d="M191.768 350.086C191.768 350.086 223.495 394.886 217.543 437.727C212.735 472.331 184.893 519.187 184.893 519.187L171.801 511.897C171.801 511.897 186.025 480.758 195.366 447.748C199.283 433.905 197.614 418.654 190.29 406.671C174.219 380.371 148.471 396.02 165.791 350.087L191.768 350.086Z" fill="black"/>
<path opacity="0.4" d="M207.331 378.878L202.722 373.742C202.722 374.149 211.656 435.933 214.168 453.297C215.682 447.974 216.848 442.722 217.547 437.732C220.46 416.755 214.335 395.3 207.331 378.878Z" fill="black"/>
<path d="M205.939 350.087C205.939 350.087 244.141 406.386 245.216 440.147C246.116 468.435 203.604 523.078 203.604 523.078L191.262 514.132C191.262 514.132 216.121 475.286 222.379 443.531C219.993 412.099 168.776 350.086 168.776 350.086H205.939V350.087Z" fill="#F26522"/>
<path opacity="0.6" d="M205.939 350.087C205.939 350.087 244.141 406.386 245.216 440.147C246.116 468.435 203.604 523.078 203.604 523.078L191.262 514.132C191.262 514.132 216.121 475.286 222.379 443.531C219.993 412.099 168.776 350.086 168.776 350.086H205.939V350.087Z" fill="black"/>
<path d="M158.675 282.92C154.584 284.001 150.674 300.641 150.674 300.641L166.629 312.574C166.629 312.574 171.946 299.423 170.09 293.661C168.156 287.662 163.841 281.555 158.675 282.92Z" fill="#F26522"/>
<path opacity="0.2" d="M161.798 293.625L160.683 308.122L166.622 312.576C166.622 312.576 169.406 305.685 170.235 299.68L161.798 293.625Z" fill="black"/>
<path d="M210.662 283.246C210.662 283.246 215.371 285.104 205.939 350.092C190.007 350.092 173.543 350.092 165.791 350.092C166.465 331.785 166.484 320.495 158.675 282.926C158.675 282.926 167.087 280.876 175.723 280.409C182.479 280.044 188.014 279.802 193.954 280.41C201.783 281.21 210.662 283.246 210.662 283.246Z" fill="#F26522"/>
<path d="M214.74 293.56C215.65 296.376 216.613 299.423 217.614 302.348C218.576 305.316 219.574 308.28 220.603 311.23L223.692 320.097L224.474 322.313L224.866 323.422L225.062 323.975C225.096 324.074 225.09 324.065 225.077 324.055C225.023 324.029 224.976 323.749 224.195 323.175C223.812 322.908 223.17 322.651 222.55 322.637C221.926 322.611 221.432 322.782 221.149 322.92C220.58 323.224 220.571 323.355 220.584 323.334C220.621 323.313 220.738 323.187 220.866 323.014C221.417 322.273 222.082 320.995 222.666 319.724C223.262 318.43 223.825 317.046 224.385 315.643C225.501 312.83 226.515 309.893 227.547 306.953C228.567 304.004 229.529 301.011 230.481 298.01L233.349 289L238.204 290.371C237.244 296.815 236.001 303.127 234.521 309.461C233.798 312.635 232.961 315.781 232.005 318.958C231.528 320.549 230.995 322.136 230.383 323.753C229.747 325.384 229.116 326.992 227.989 328.86C227.693 329.332 227.358 329.832 226.89 330.383C226.396 330.925 225.826 331.58 224.595 332.2C223.982 332.495 223.131 332.756 222.148 332.712C221.169 332.681 220.176 332.291 219.489 331.814C218.093 330.815 217.61 329.863 217.197 329.149C217.006 328.79 216.842 328.42 216.728 328.154L216.489 327.606L216.01 326.51L215.058 324.318C213.813 321.38 212.593 318.427 211.438 315.441C210.294 312.448 209.179 309.439 208.097 306.406C207.063 303.327 206.04 300.344 205.129 297.069L214.74 293.56Z" fill="#E58A7B"/>
<path d="M210.663 283.244C215.489 284.532 220.911 300.507 220.911 300.507L206.57 314.199C206.57 314.199 197.274 296.78 199.156 291.028C201.114 285.038 204.359 281.561 210.663 283.244Z" fill="#F26522"/>
<path d="M235.59 284.021L240.623 279.305L244.125 285.416L241.546 290.519C241.546 290.519 237.438 294.732 233.802 292.589C232.627 289.606 233.357 286.113 235.59 284.021Z" fill="#E58A7B"/>
<path d="M249.76 279.319L249.383 280.856L241.408 282.357L240.622 279.305L249.76 279.319Z" fill="#E58A7B"/>
<path d="M204.626 523.814L190.238 513.387L192.815 508.367L208.985 519.504L204.626 523.814Z" fill="#F26522"/>
<path d="M180.158 532.112C179.014 532.112 177.509 531.299 176.596 530.731C176.514 530.681 176.468 530.58 176.478 530.475C176.487 530.371 176.551 530.284 176.639 530.25C177.027 530.113 180.441 528.941 181.407 529.851C181.56 529.995 181.73 530.26 181.675 530.702C181.605 531.288 181.365 531.701 180.965 531.924C180.733 532.054 180.458 532.112 180.158 532.112ZM177.325 530.572C178.89 531.464 180.15 531.793 180.756 531.456C181.014 531.312 181.163 531.042 181.213 530.631C181.239 530.41 181.17 530.312 181.106 530.253C180.598 529.774 178.706 530.147 177.325 530.572Z" fill="#323737"/>
<path d="M176.711 530.758C176.648 530.758 176.587 530.73 176.543 530.679C176.485 530.611 176.464 530.515 176.486 530.425C176.519 530.295 177.305 527.229 178.599 526.53C178.945 526.345 179.295 526.335 179.638 526.495C180.182 526.752 180.236 527.198 180.217 527.439C180.129 528.708 177.82 530.462 176.766 530.75C176.749 530.755 176.73 530.758 176.711 530.758ZM179.153 526.909C179.037 526.909 178.919 526.941 178.801 527.005C178.03 527.421 177.382 529.075 177.072 530.082C178.181 529.56 179.694 528.173 179.749 527.4C179.757 527.274 179.732 527.11 179.454 526.981C179.354 526.933 179.253 526.909 179.153 526.909Z" fill="#323737"/>
<path d="M198.158 538.212C196.739 538.212 194.761 536.169 193.678 534.914C193.609 534.833 193.593 534.713 193.637 534.613C193.682 534.514 193.796 534.458 193.876 534.471C194.375 534.543 198.757 535.206 199.376 536.592C199.495 536.861 199.484 537.146 199.347 537.418C199.115 537.876 198.779 538.138 198.349 538.199C198.287 538.207 198.223 538.212 198.158 538.212ZM194.507 535.103C196.1 536.837 197.491 537.797 198.291 537.677C198.571 537.637 198.783 537.469 198.94 537.158C199.001 537.04 199.006 536.935 198.957 536.827C198.62 536.073 196.28 535.422 194.507 535.103Z" fill="#323737"/>
<path d="M194.646 535.061C194.322 535.061 194.032 535.038 193.804 534.99C193.723 534.973 193.655 534.91 193.626 534.824C193.599 534.736 193.612 534.637 193.665 534.565C193.737 534.468 195.442 532.166 197.052 532.007C197.556 531.964 197.983 532.113 198.349 532.463C198.844 532.939 198.81 533.363 198.694 533.634C198.295 534.574 196.117 535.061 194.646 535.061ZM194.321 534.532C195.728 534.619 197.978 534.095 198.272 533.408C198.297 533.35 198.371 533.175 198.045 532.863C197.773 532.602 197.458 532.493 197.094 532.53C196.037 532.634 194.856 533.891 194.321 534.532Z" fill="#323737"/>
<path d="M177.056 529.273L166.369 525.887C165.98 525.764 165.588 525.966 165.426 526.374L161.819 535.461C161.445 536.404 161.964 537.573 162.866 537.84C166.61 538.948 168.467 539.272 173.167 540.761C176.058 541.677 180.197 543.351 184.19 544.615C188.095 545.852 189.511 541.523 187.95 540.596C180.948 536.438 180.396 533.588 178.481 530.43C178.136 529.861 177.626 529.453 177.056 529.273Z" fill="#F26522"/>
<path d="M193.969 533.262L184.846 526.165C184.514 525.907 184.085 525.956 183.813 526.282L177.763 533.561C177.135 534.316 177.288 535.611 178.062 536.191C181.281 538.604 182.944 539.586 186.956 542.707C189.424 544.627 194.35 548.885 197.759 551.536C201.093 554.129 203.688 550.552 202.481 549.107C197.068 542.624 195.874 538.561 194.98 534.875C194.818 534.212 194.454 533.639 193.969 533.262Z" fill="#F26522"/>
<path d="M186.574 520.125L170.122 510.964L171.826 505.977L189.385 515.62L186.574 520.125Z" fill="#F26522"/>
<path d="M165.191 347.447L163.799 351.473C163.657 351.785 163.988 352.104 164.453 352.104H206.137C206.499 352.104 206.799 351.905 206.821 351.651L207.183 347.625C207.208 347.345 206.894 347.109 206.499 347.109H165.844C165.546 347.109 165.282 347.246 165.191 347.447Z" fill="#F26522"/>
<path opacity="0.4" d="M165.191 347.447L163.799 351.473C163.657 351.785 163.988 352.104 164.453 352.104H206.137C206.499 352.104 206.799 351.905 206.821 351.651L207.183 347.625C207.208 347.345 206.894 347.109 206.499 347.109H165.844C165.546 347.109 165.282 347.246 165.191 347.447Z" fill="white"/>
<path d="M171.746 352.544H170.658C170.441 352.544 170.276 352.419 170.291 352.266L170.801 347.036C170.816 346.883 171.005 346.758 171.223 346.758H172.312C172.529 346.758 172.694 346.883 172.679 347.036L172.168 352.266C172.153 352.42 171.963 352.544 171.746 352.544Z" fill="#F26522"/>
<path d="M197.459 352.544H196.371C196.154 352.544 195.989 352.419 196.004 352.266L196.514 347.036C196.529 346.883 196.718 346.758 196.936 346.758H198.025C198.242 346.758 198.407 346.883 198.392 347.036L197.881 352.266C197.866 352.42 197.676 352.544 197.459 352.544Z" fill="#F26522"/>
<path d="M170.788 591.622C189.431 591.622 204.545 590.393 204.545 588.877C204.545 587.362 189.431 586.133 170.788 586.133C152.145 586.133 137.031 587.362 137.031 588.877C137.031 590.393 152.145 591.622 170.788 591.622Z" fill="#FBD1BD"/>
<path d="M191.36 585.006C185.387 583.064 178.814 580.561 174.747 577.9C174.633 577.826 174.513 577.773 174.399 577.705V547.454H186.412C188.399 547.454 190.009 545.649 190.009 543.423C190.009 541.198 188.399 539.394 186.412 539.394H174.399V401.297H167.205V539.394H155.193C153.207 539.394 151.597 541.198 151.597 543.423C151.597 545.649 153.207 547.454 155.193 547.454H167.205V577.704C167.091 577.771 166.971 577.824 166.858 577.898C162.79 580.559 156.217 583.062 150.245 585.005C148.285 585.642 148.699 588.876 150.738 588.876H170.801H190.864C192.906 588.877 193.319 585.643 191.36 585.006Z" fill="#FCE0D3"/>
<path d="M193.209 416.801H148.397C144.807 416.801 141.87 413.511 141.87 409.489V394.563C141.87 390.541 144.807 387.25 148.397 387.25H193.209C196.799 387.25 199.736 390.541 199.736 394.563V409.489C199.736 413.511 196.799 416.801 193.209 416.801Z" fill="#F26522"/>
<path d="M147.985 416.797V419.366C147.985 421.484 150.043 423.217 152.557 423.217H189.05C191.564 423.217 193.621 421.485 193.621 419.366V416.797H147.985Z" fill="#F26522"/>
<path opacity="0.3" d="M147.985 416.797V419.366C147.985 421.484 150.043 423.217 152.557 423.217H189.05C191.564 423.217 193.621 421.485 193.621 419.366V416.797H147.985Z" fill="white"/>
</svg>
