<svg width="630" height="419" viewBox="0 0 630 419" fill="none" xmlns="http://www.w3.org/2000/svg">
<g clip-path="url(#clip0_2468_410507)">
<path d="M534.996 131.658L549.496 127.438" stroke="#212529" stroke-width="2.5" stroke-miterlimit="10" stroke-linecap="round"/>
<path d="M524.962 102.219L520.045 115.915" stroke="#212529" stroke-width="2.5" stroke-miterlimit="10" stroke-linecap="round"/>
<path d="M529.805 121.607L546.186 103.742" stroke="#212529" stroke-width="2.5" stroke-miterlimit="10" stroke-linecap="round"/>
<path d="M342.172 327.555L323.758 316.961V338.15L342.172 327.555Z" fill="#212529"/>
<path d="M367.032 327.555L348.616 316.961V338.15L367.032 327.555Z" fill="#212529"/>
<path d="M181.306 50.5164L162.891 39.9219V61.1118L181.306 50.5164Z" fill="#212529"/>
<path d="M206.165 50.5164L187.75 39.9219V61.1118L206.165 50.5164Z" fill="#212529"/>
<path d="M252.574 99.7734H268.326" stroke="#212529" stroke-width="2.5" stroke-miterlimit="10" stroke-linecap="round"/>
<path d="M260.45 107.618V91.9219" stroke="#212529" stroke-width="2.5" stroke-miterlimit="10" stroke-linecap="round"/>
<path d="M527.17 215.312H549.274" stroke="#212529" stroke-width="2.5" stroke-miterlimit="10" stroke-linecap="round"/>
<path d="M538.223 226.323V204.297" stroke="#212529" stroke-width="2.5" stroke-miterlimit="10" stroke-linecap="round"/>
<path d="M71.9668 287.609H95.7455" stroke="#212529" stroke-width="2.5" stroke-miterlimit="10" stroke-linecap="round"/>
<path d="M83.8564 299.461V275.766" stroke="#212529" stroke-width="2.5" stroke-miterlimit="10" stroke-linecap="round"/>
<path d="M144.559 79.0234H213.57" stroke="url(#paint0_linear_2468_410507)" stroke-width="3.5" stroke-miterlimit="10" stroke-linecap="round"/>
<path d="M233.392 328.227H302.403" stroke="url(#paint1_linear_2468_410507)" stroke-width="3.5" stroke-miterlimit="10" stroke-linecap="round"/>
<path d="M37.8877 109.461H160.193" stroke="#212529" stroke-width="2.5" stroke-miterlimit="10" stroke-linecap="round"/>
<path d="M83.7666 177.516H161.514" stroke="url(#paint2_linear_2468_410507)" stroke-width="3.5" stroke-miterlimit="10" stroke-linecap="round"/>
<path d="M104.159 168.453H141.585" stroke="#212529" stroke-width="2.5" stroke-miterlimit="10" stroke-linecap="round"/>
<path d="M458.93 230.797H489.634" stroke="#212529" stroke-width="2.5" stroke-miterlimit="10" stroke-linecap="round"/>
<path d="M437.584 200.711L469.909 126.267C469.909 125.928 469.909 125.759 469.909 125.784H174.926L142.391 200.711H437.584Z" fill="url(#paint3_linear_2468_410507)"/>
<path d="M452.196 240.571C449.915 238.771 447.977 236.53 446.666 233.933C445.405 231.432 444.75 228.686 444.577 225.9C444.306 221.53 445.097 217.155 446.408 212.953H170.835L138.3 300.849H430.133L454.186 241.987C453.503 241.543 452.836 241.076 452.196 240.571Z" fill="url(#paint4_linear_2468_410507)"/>
<path d="M120.791 147.57H178.444" stroke="url(#paint5_linear_2468_410507)" stroke-width="2.5" stroke-miterlimit="10" stroke-linecap="round"/>
<path d="M453.28 131.306C453.28 130.967 453.28 130.798 453.28 130.823H158.297L125.762 205.75H158.297L125.762 293.647H420.955L453.28 206.318C453.28 206.129 453.28 205.94 453.28 205.75" stroke="#212529" stroke-width="2.5" stroke-miterlimit="10"/>
<path d="M209.405 168.727C209.405 166.323 209.941 164.177 211.015 162.287C212.111 160.373 213.593 158.892 215.46 157.842C217.35 156.768 219.461 156.232 221.795 156.232C224.525 156.232 226.916 156.932 228.97 158.332C231.023 159.732 232.458 161.668 233.275 164.142H227.64C227.08 162.975 226.286 162.1 225.26 161.517C224.256 160.933 223.09 160.642 221.76 160.642C220.336 160.642 219.065 160.98 217.945 161.657C216.848 162.31 215.985 163.243 215.355 164.457C214.748 165.67 214.445 167.093 214.445 168.727C214.445 170.337 214.748 171.76 215.355 172.997C215.985 174.21 216.848 175.155 217.945 175.832C219.065 176.485 220.336 176.812 221.76 176.812C223.09 176.812 224.256 176.52 225.26 175.937C226.286 175.33 227.08 174.443 227.64 173.277H233.275C232.458 175.773 231.023 177.722 228.97 179.122C226.94 180.498 224.548 181.187 221.795 181.187C219.461 181.187 217.35 180.662 215.46 179.612C213.593 178.538 212.111 177.057 211.015 175.167C209.941 173.277 209.405 171.13 209.405 168.727ZM248.8 181.222C246.513 181.222 244.413 180.685 242.5 179.612C240.587 178.538 239.07 177.057 237.95 175.167C236.83 173.253 236.27 171.095 236.27 168.692C236.27 166.312 236.83 164.177 237.95 162.287C239.07 160.373 240.587 158.88 242.5 157.807C244.413 156.733 246.513 156.197 248.8 156.197C251.11 156.197 253.21 156.733 255.1 157.807C257.013 158.88 258.518 160.373 259.615 162.287C260.735 164.177 261.295 166.312 261.295 168.692C261.295 171.095 260.735 173.253 259.615 175.167C258.518 177.057 257.013 178.538 255.1 179.612C253.187 180.685 251.087 181.222 248.8 181.222ZM248.8 176.847C250.27 176.847 251.565 176.52 252.685 175.867C253.805 175.19 254.68 174.233 255.31 172.997C255.94 171.76 256.255 170.325 256.255 168.692C256.255 167.058 255.94 165.635 255.31 164.422C254.68 163.185 253.805 162.24 252.685 161.587C251.565 160.933 250.27 160.607 248.8 160.607C247.33 160.607 246.023 160.933 244.88 161.587C243.76 162.24 242.885 163.185 242.255 164.422C241.625 165.635 241.31 167.058 241.31 168.692C241.31 170.325 241.625 171.76 242.255 172.997C242.885 174.233 243.76 175.19 244.88 175.867C246.023 176.52 247.33 176.847 248.8 176.847ZM291.575 156.547V180.977H286.675V165.087L280.13 180.977H276.42L269.84 165.087V180.977H264.94V156.547H270.505L278.275 174.712L286.045 156.547H291.575ZM301.32 156.547V180.977H296.42V156.547H301.32ZM327.056 180.977H322.156L311.061 164.212V180.977H306.161V156.512H311.061L322.156 173.312V156.512H327.056V180.977ZM348.908 163.897C348.348 162.87 347.578 162.088 346.598 161.552C345.618 161.015 344.475 160.747 343.168 160.747C341.722 160.747 340.438 161.073 339.318 161.727C338.198 162.38 337.323 163.313 336.693 164.527C336.063 165.74 335.748 167.14 335.748 168.727C335.748 170.36 336.063 171.783 336.693 172.997C337.347 174.21 338.245 175.143 339.388 175.797C340.532 176.45 341.862 176.777 343.378 176.777C345.245 176.777 346.773 176.287 347.963 175.307C349.153 174.303 349.935 172.915 350.308 171.142H341.908V167.397H355.138V171.667C354.812 173.37 354.112 174.945 353.038 176.392C351.965 177.838 350.577 179.005 348.873 179.892C347.193 180.755 345.303 181.187 343.203 181.187C340.847 181.187 338.712 180.662 336.798 179.612C334.908 178.538 333.415 177.057 332.318 175.167C331.245 173.277 330.708 171.13 330.708 168.727C330.708 166.323 331.245 164.177 332.318 162.287C333.415 160.373 334.908 158.892 336.798 157.842C338.712 156.768 340.835 156.232 343.168 156.232C345.922 156.232 348.313 156.908 350.343 158.262C352.373 159.592 353.773 161.47 354.543 163.897H348.908Z" fill="white"/>
<path d="M207.583 169.937C207.583 167.534 208.12 165.387 209.193 163.497C210.29 161.584 211.772 160.102 213.638 159.052C215.528 157.979 217.64 157.442 219.973 157.442C222.703 157.442 225.095 158.142 227.148 159.542C229.202 160.942 230.637 162.879 231.453 165.352H225.818C225.258 164.186 224.465 163.311 223.438 162.727C222.435 162.144 221.268 161.852 219.938 161.852C218.515 161.852 217.243 162.191 216.123 162.867C215.027 163.521 214.163 164.454 213.533 165.667C212.927 166.881 212.623 168.304 212.623 169.937C212.623 171.547 212.927 172.971 213.533 174.207C214.163 175.421 215.027 176.366 216.123 177.043C217.243 177.696 218.515 178.022 219.938 178.022C221.268 178.022 222.435 177.731 223.438 177.147C224.465 176.541 225.258 175.654 225.818 174.487H231.453C230.637 176.984 229.202 178.932 227.148 180.332C225.118 181.709 222.727 182.398 219.973 182.398C217.64 182.398 215.528 181.872 213.638 180.822C211.772 179.749 210.29 178.267 209.193 176.377C208.12 174.487 207.583 172.341 207.583 169.937ZM246.979 182.433C244.692 182.433 242.592 181.896 240.679 180.822C238.765 179.749 237.249 178.267 236.129 176.377C235.009 174.464 234.449 172.306 234.449 169.902C234.449 167.522 235.009 165.387 236.129 163.497C237.249 161.584 238.765 160.091 240.679 159.017C242.592 157.944 244.692 157.407 246.979 157.407C249.289 157.407 251.389 157.944 253.279 159.017C255.192 160.091 256.697 161.584 257.794 163.497C258.914 165.387 259.474 167.522 259.474 169.902C259.474 172.306 258.914 174.464 257.794 176.377C256.697 178.267 255.192 179.749 253.279 180.822C251.365 181.896 249.265 182.433 246.979 182.433ZM246.979 178.057C248.449 178.057 249.744 177.731 250.864 177.077C251.984 176.401 252.859 175.444 253.489 174.207C254.119 172.971 254.434 171.536 254.434 169.902C254.434 168.269 254.119 166.846 253.489 165.632C252.859 164.396 251.984 163.451 250.864 162.797C249.744 162.144 248.449 161.817 246.979 161.817C245.509 161.817 244.202 162.144 243.059 162.797C241.939 163.451 241.064 164.396 240.434 165.632C239.804 166.846 239.489 168.269 239.489 169.902C239.489 171.536 239.804 172.971 240.434 174.207C241.064 175.444 241.939 176.401 243.059 177.077C244.202 177.731 245.509 178.057 246.979 178.057ZM289.754 157.757V182.188H284.854V166.297L278.309 182.188H274.599L268.019 166.297V182.188H263.119V157.757H268.684L276.454 175.922L284.224 157.757H289.754ZM299.499 157.757V182.188H294.599V157.757H299.499ZM325.235 182.188H320.335L309.24 165.422V182.188H304.34V157.722H309.24L320.335 174.522V157.722H325.235V182.188ZM347.087 165.107C346.527 164.081 345.757 163.299 344.777 162.762C343.797 162.226 342.654 161.957 341.347 161.957C339.9 161.957 338.617 162.284 337.497 162.937C336.377 163.591 335.502 164.524 334.872 165.737C334.242 166.951 333.927 168.351 333.927 169.937C333.927 171.571 334.242 172.994 334.872 174.207C335.525 175.421 336.424 176.354 337.567 177.007C338.71 177.661 340.04 177.987 341.557 177.987C343.424 177.987 344.952 177.497 346.142 176.517C347.332 175.514 348.114 174.126 348.487 172.352H340.087V168.607H353.317V172.877C352.99 174.581 352.29 176.156 351.217 177.602C350.144 179.049 348.755 180.216 347.052 181.102C345.372 181.966 343.482 182.398 341.382 182.398C339.025 182.398 336.89 181.872 334.977 180.822C333.087 179.749 331.594 178.267 330.497 176.377C329.424 174.487 328.887 172.341 328.887 169.937C328.887 167.534 329.424 165.387 330.497 163.497C331.594 161.584 333.087 160.102 334.977 159.052C336.89 157.979 339.014 157.442 341.347 157.442C344.1 157.442 346.492 158.119 348.522 159.472C350.552 160.802 351.952 162.681 352.722 165.107H347.087Z" fill="#212529"/>
<path d="M227.87 269.409C225.68 269.409 223.7 269.034 221.93 268.284C220.19 267.534 218.81 266.454 217.79 265.044C216.77 263.634 216.245 261.969 216.215 260.049H222.965C223.055 261.339 223.505 262.359 224.315 263.109C225.155 263.859 226.295 264.234 227.735 264.234C229.205 264.234 230.36 263.889 231.2 263.199C232.04 262.479 232.46 261.549 232.46 260.409C232.46 259.479 232.175 258.714 231.605 258.114C231.035 257.514 230.315 257.049 229.445 256.719C228.605 256.359 227.435 255.969 225.935 255.549C223.895 254.949 222.23 254.364 220.94 253.794C219.68 253.194 218.585 252.309 217.655 251.139C216.755 249.939 216.305 248.349 216.305 246.369C216.305 244.509 216.77 242.889 217.7 241.509C218.63 240.129 219.935 239.079 221.615 238.359C223.295 237.609 225.215 237.234 227.375 237.234C230.615 237.234 233.24 238.029 235.25 239.619C237.29 241.179 238.415 243.369 238.625 246.189H231.695C231.635 245.109 231.17 244.224 230.3 243.534C229.46 242.814 228.335 242.454 226.925 242.454C225.695 242.454 224.705 242.769 223.955 243.399C223.235 244.029 222.875 244.944 222.875 246.144C222.875 246.984 223.145 247.689 223.685 248.259C224.255 248.799 224.945 249.249 225.755 249.609C226.595 249.939 227.765 250.329 229.265 250.779C231.305 251.379 232.97 251.979 234.26 252.579C235.55 253.179 236.66 254.079 237.59 255.279C238.52 256.479 238.985 258.054 238.985 260.004C238.985 261.684 238.55 263.244 237.68 264.684C236.81 266.124 235.535 267.279 233.855 268.149C232.175 268.989 230.18 269.409 227.87 269.409ZM259.027 269.409C256.087 269.409 253.387 268.719 250.927 267.339C248.467 265.959 246.517 264.054 245.077 261.624C243.637 259.164 242.917 256.389 242.917 253.299C242.917 250.239 243.637 247.494 245.077 245.064C246.517 242.604 248.467 240.684 250.927 239.304C253.387 237.924 256.087 237.234 259.027 237.234C261.997 237.234 264.697 237.924 267.127 239.304C269.587 240.684 271.522 242.604 272.932 245.064C274.372 247.494 275.092 250.239 275.092 253.299C275.092 256.389 274.372 259.164 272.932 261.624C271.522 264.054 269.587 265.959 267.127 267.339C264.667 268.719 261.967 269.409 259.027 269.409ZM259.027 263.784C260.917 263.784 262.582 263.364 264.022 262.524C265.462 261.654 266.587 260.424 267.397 258.834C268.207 257.244 268.612 255.399 268.612 253.299C268.612 251.199 268.207 249.369 267.397 247.809C266.587 246.219 265.462 245.004 264.022 244.164C262.582 243.324 260.917 242.904 259.027 242.904C257.137 242.904 255.457 243.324 253.987 244.164C252.547 245.004 251.422 246.219 250.612 247.809C249.802 249.369 249.397 251.199 249.397 253.299C249.397 255.399 249.802 257.244 250.612 258.834C251.422 260.424 252.547 261.654 253.987 262.524C255.457 263.364 257.137 263.784 259.027 263.784ZM294.359 269.409C291.419 269.409 288.719 268.719 286.259 267.339C283.799 265.959 281.849 264.054 280.409 261.624C278.969 259.164 278.249 256.389 278.249 253.299C278.249 250.239 278.969 247.494 280.409 245.064C281.849 242.604 283.799 240.684 286.259 239.304C288.719 237.924 291.419 237.234 294.359 237.234C297.329 237.234 300.029 237.924 302.459 239.304C304.919 240.684 306.854 242.604 308.264 245.064C309.704 247.494 310.424 250.239 310.424 253.299C310.424 256.389 309.704 259.164 308.264 261.624C306.854 264.054 304.919 265.959 302.459 267.339C299.999 268.719 297.299 269.409 294.359 269.409ZM294.359 263.784C296.249 263.784 297.914 263.364 299.354 262.524C300.794 261.654 301.919 260.424 302.729 258.834C303.539 257.244 303.944 255.399 303.944 253.299C303.944 251.199 303.539 249.369 302.729 247.809C301.919 246.219 300.794 245.004 299.354 244.164C297.914 243.324 296.249 242.904 294.359 242.904C292.469 242.904 290.789 243.324 289.319 244.164C287.879 245.004 286.754 246.219 285.944 247.809C285.134 249.369 284.729 251.199 284.729 253.299C284.729 255.399 285.134 257.244 285.944 258.834C286.754 260.424 287.879 261.654 289.319 262.524C290.789 263.364 292.469 263.784 294.359 263.784ZM341.976 269.094H335.676L321.411 247.539V269.094H315.111V237.639H321.411L335.676 259.239V237.639H341.976V269.094Z" fill="white"/>
<path d="M226.05 270.62C223.86 270.62 221.88 270.245 220.11 269.495C218.37 268.745 216.99 267.665 215.97 266.255C214.95 264.845 214.425 263.18 214.395 261.26H221.145C221.235 262.55 221.685 263.57 222.495 264.32C223.335 265.07 224.475 265.445 225.915 265.445C227.385 265.445 228.54 265.1 229.38 264.41C230.22 263.69 230.64 262.76 230.64 261.62C230.64 260.69 230.355 259.925 229.785 259.325C229.215 258.725 228.495 258.26 227.625 257.93C226.785 257.57 225.615 257.18 224.115 256.76C222.075 256.16 220.41 255.575 219.12 255.005C217.86 254.405 216.765 253.52 215.835 252.35C214.935 251.15 214.485 249.56 214.485 247.58C214.485 245.72 214.95 244.1 215.88 242.72C216.81 241.34 218.115 240.29 219.795 239.57C221.475 238.82 223.395 238.445 225.555 238.445C228.795 238.445 231.42 239.24 233.43 240.83C235.47 242.39 236.595 244.58 236.805 247.4H229.875C229.815 246.32 229.35 245.435 228.48 244.745C227.64 244.025 226.515 243.665 225.105 243.665C223.875 243.665 222.885 243.98 222.135 244.61C221.415 245.24 221.055 246.155 221.055 247.355C221.055 248.195 221.325 248.9 221.865 249.47C222.435 250.01 223.125 250.46 223.935 250.82C224.775 251.15 225.945 251.54 227.445 251.99C229.485 252.59 231.15 253.19 232.44 253.79C233.73 254.39 234.84 255.29 235.77 256.49C236.7 257.69 237.165 259.265 237.165 261.215C237.165 262.895 236.73 264.455 235.86 265.895C234.99 267.335 233.715 268.49 232.035 269.36C230.355 270.2 228.36 270.62 226.05 270.62ZM257.206 270.62C254.266 270.62 251.566 269.93 249.106 268.55C246.646 267.17 244.696 265.265 243.256 262.835C241.816 260.375 241.096 257.6 241.096 254.51C241.096 251.45 241.816 248.705 243.256 246.275C244.696 243.815 246.646 241.895 249.106 240.515C251.566 239.135 254.266 238.445 257.206 238.445C260.176 238.445 262.876 239.135 265.306 240.515C267.766 241.895 269.701 243.815 271.111 246.275C272.551 248.705 273.271 251.45 273.271 254.51C273.271 257.6 272.551 260.375 271.111 262.835C269.701 265.265 267.766 267.17 265.306 268.55C262.846 269.93 260.146 270.62 257.206 270.62ZM257.206 264.995C259.096 264.995 260.761 264.575 262.201 263.735C263.641 262.865 264.766 261.635 265.576 260.045C266.386 258.455 266.791 256.61 266.791 254.51C266.791 252.41 266.386 250.58 265.576 249.02C264.766 247.43 263.641 246.215 262.201 245.375C260.761 244.535 259.096 244.115 257.206 244.115C255.316 244.115 253.636 244.535 252.166 245.375C250.726 246.215 249.601 247.43 248.791 249.02C247.981 250.58 247.576 252.41 247.576 254.51C247.576 256.61 247.981 258.455 248.791 260.045C249.601 261.635 250.726 262.865 252.166 263.735C253.636 264.575 255.316 264.995 257.206 264.995ZM292.539 270.62C289.599 270.62 286.899 269.93 284.439 268.55C281.979 267.17 280.029 265.265 278.589 262.835C277.149 260.375 276.429 257.6 276.429 254.51C276.429 251.45 277.149 248.705 278.589 246.275C280.029 243.815 281.979 241.895 284.439 240.515C286.899 239.135 289.599 238.445 292.539 238.445C295.509 238.445 298.209 239.135 300.639 240.515C303.099 241.895 305.034 243.815 306.444 246.275C307.884 248.705 308.604 251.45 308.604 254.51C308.604 257.6 307.884 260.375 306.444 262.835C305.034 265.265 303.099 267.17 300.639 268.55C298.179 269.93 295.479 270.62 292.539 270.62ZM292.539 264.995C294.429 264.995 296.094 264.575 297.534 263.735C298.974 262.865 300.099 261.635 300.909 260.045C301.719 258.455 302.124 256.61 302.124 254.51C302.124 252.41 301.719 250.58 300.909 249.02C300.099 247.43 298.974 246.215 297.534 245.375C296.094 244.535 294.429 244.115 292.539 244.115C290.649 244.115 288.969 244.535 287.499 245.375C286.059 246.215 284.934 247.43 284.124 249.02C283.314 250.58 282.909 252.41 282.909 254.51C282.909 256.61 283.314 258.455 284.124 260.045C284.934 261.635 286.059 262.865 287.499 263.735C288.969 264.575 290.649 264.995 292.539 264.995ZM340.156 270.305H333.856L319.591 248.75V270.305H313.291V238.85H319.591L333.856 260.45V238.85H340.156V270.305Z" fill="#212529"/>
<path d="M456.502 254.32H517.65" stroke="url(#paint6_linear_2468_410507)" stroke-width="3.5" stroke-miterlimit="10" stroke-linecap="round"/>
<path d="M451.861 279.234H568.925" stroke="url(#paint7_linear_2468_410507)" stroke-width="3.5" stroke-miterlimit="10" stroke-linecap="round"/>
<path d="M325.612 115.242H387.634" stroke="url(#paint8_linear_2468_410507)" stroke-width="3.5" stroke-miterlimit="10" stroke-linecap="round"/>
<path d="M470.017 308.378C470.017 308.378 483.672 280.724 478.601 257.292C474.586 238.743 447.242 228.259 448.763 218.295C450.421 207.432 483.712 203.609 491.758 189.712C498.671 177.77 498.625 143.727 498.625 143.727L419.229 130.82C419.229 130.82 408.328 163.084 411.074 176.596C414.27 192.321 444.615 206.49 442.723 217.314C440.987 227.243 411.717 228.523 401.995 244.839C389.714 265.45 393.841 295.995 393.841 295.995L470.017 308.378Z" fill="white"/>
<path d="M458.9 145.391C458.9 145.391 479.842 159.188 486.593 184.023C494.208 170.916 491.785 150.737 491.785 150.737L458.9 145.391Z" fill="url(#paint9_linear_2468_410507)"/>
<path d="M484.076 128.418L449.279 122.761L411.15 116.562L410.322 121.616C409.27 128.039 413.643 134.096 420.09 135.143L446.547 139.444L481.344 145.101L507.802 149.402C514.248 150.45 520.325 146.092 521.377 139.668L522.204 134.615L484.076 128.418Z" fill="url(#paint10_linear_2468_410507)"/>
<path d="M480.83 314.172L454.373 309.871L419.576 304.214L393.117 299.913C386.671 298.865 380.593 303.223 379.542 309.647L378.715 314.7L416.844 320.898L451.641 326.555L489.77 332.753L490.598 327.7C491.649 321.277 487.276 315.22 480.83 314.172Z" fill="url(#paint11_linear_2468_410507)"/>
<path d="M479.056 123.418L444.259 117.761L406.13 111.562L405.303 116.616C404.251 123.039 408.624 129.096 415.07 130.143L441.528 134.444L476.325 140.101L502.783 144.402C509.229 145.45 515.307 141.092 516.358 134.668L517.186 129.615L479.056 123.418Z" stroke="#212529" stroke-width="2.5" stroke-miterlimit="10"/>
<path d="M475.81 309.164L449.352 304.863L414.555 299.206L388.097 294.906C381.651 293.858 375.573 298.215 374.522 304.639L373.694 309.692L411.824 315.89L446.621 321.547L484.75 327.746L485.577 322.692C486.629 316.268 482.256 310.211 475.81 309.164Z" stroke="#212529" stroke-width="2.5" stroke-miterlimit="10"/>
<path d="M419.229 130.82C419.229 130.82 408.328 163.084 411.074 176.596C414.27 192.321 444.615 206.49 442.723 217.314C440.987 227.243 411.717 228.523 401.995 244.839C389.714 265.45 393.841 295.996 393.841 295.996" stroke="#212529" stroke-width="3.3" stroke-miterlimit="10"/>
<path d="M498.624 143.727C498.624 143.727 498.67 177.77 491.757 189.712C483.711 203.609 450.42 207.433 448.762 218.295C447.241 228.259 474.585 238.743 478.6 257.292C483.672 280.723 470.016 308.378 470.016 308.378" stroke="#212529" stroke-width="3.3" stroke-miterlimit="10"/>
<path d="M417.663 175.329C417.253 175.541 417.116 176.055 417.364 176.444C418.684 178.506 422.832 184.727 428.554 190.799C435.074 197.718 443.501 204.208 448.16 204.966C460.718 207.008 485.753 188.35 486.176 186.772C469.165 191.747 463.235 189.946 447.506 175.984C436.709 166.399 421.217 173.493 417.663 175.329Z" fill="#212529"/>
<path d="M466.289 303.598C465.161 292.661 460.086 259.989 439.554 256.652C419.217 253.346 403.818 282.318 399.01 292.661L466.289 303.598Z" fill="#212529"/>
<path d="M453.756 251.718C453.393 253.933 451.297 255.436 449.074 255.075C446.852 254.713 445.344 252.625 445.706 250.41C446.069 248.195 448.165 246.693 450.387 247.053C452.61 247.415 454.118 249.504 453.756 251.718Z" fill="#212529"/>
<path d="M437.767 242.367C437.492 244.05 435.899 245.192 434.21 244.917C432.521 244.643 431.375 243.056 431.65 241.372C431.926 239.689 433.518 238.547 435.208 238.822C436.897 239.097 438.043 240.684 437.767 242.367Z" fill="#212529"/>
<path d="M447.679 231.292C447.461 232.621 446.204 233.523 444.87 233.306C443.536 233.089 442.631 231.836 442.849 230.507C443.066 229.178 444.324 228.276 445.658 228.493C446.992 228.71 447.896 229.963 447.679 231.292Z" fill="#212529"/>
<path d="M456.016 238.062C456.016 238.062 469.054 244.156 473.092 258.414C476.464 270.317 473.438 278.995 473.438 278.995C473.438 278.995 469.727 263.787 467.9 259.104C463.055 246.686 456.016 238.062 456.016 238.062Z" fill="url(#paint12_linear_2468_410507)"/>
<path d="M33.7285 338.68H118.466" stroke="url(#paint13_linear_2468_410507)" stroke-width="3.5" stroke-miterlimit="10" stroke-linecap="round"/>
<path d="M436.043 375.055H594.17" stroke="#212529" stroke-width="2.5" stroke-miterlimit="10" stroke-linecap="round"/>
<path d="M159.047 326.014C158.848 327.927 157.13 329.317 155.21 329.118C153.29 328.92 151.896 327.208 152.095 325.295C152.294 323.382 154.012 321.992 155.931 322.191C157.852 322.39 159.246 324.101 159.047 326.014Z" fill="white" stroke="#212529" stroke-width="2.5" stroke-miterlimit="10"/>
<path d="M120.799 51.5057C120.6 53.4184 118.882 54.8087 116.963 54.6095C115.043 54.4111 113.648 52.6994 113.848 50.7867C114.047 48.874 115.765 47.4845 117.684 47.6829C119.604 47.8813 120.998 49.5931 120.799 51.5057Z" fill="white" stroke="#212529" stroke-width="2.5" stroke-miterlimit="10"/>
<path d="M556.672 335.357C556.473 337.27 554.755 338.66 552.835 338.461C550.915 338.263 549.521 336.551 549.72 334.638C549.919 332.726 551.637 331.335 553.557 331.535C555.477 331.733 556.871 333.445 556.672 335.357Z" fill="white" stroke="#212529" stroke-width="2.5" stroke-miterlimit="10"/>
<path d="M464.335 75.4665C464.335 77.3901 462.77 78.9486 460.84 78.9486C458.91 78.9486 457.346 77.3892 457.346 75.4665C457.346 73.5438 458.911 71.9844 460.84 71.9844C462.77 71.9844 464.335 73.5438 464.335 75.4665Z" fill="white" stroke="#212529" stroke-width="2.5" stroke-miterlimit="10"/>
<path d="M176.76 368.26C176.473 371.019 173.995 373.023 171.227 372.736C168.458 372.45 166.446 369.981 166.734 367.223C167.022 364.464 169.5 362.46 172.268 362.746C175.037 363.032 177.047 365.501 176.76 368.26Z" fill="white" stroke="#212529" stroke-width="2.5" stroke-miterlimit="10"/>
<path d="M129.141 236.002C129.141 238.489 127.118 240.505 124.622 240.505C122.126 240.505 120.104 238.489 120.104 236.002C120.104 233.516 122.126 231.5 124.622 231.5C127.118 231.499 129.141 233.516 129.141 236.002Z" fill="url(#paint14_linear_2468_410507)"/>
<path d="M529.622 309.72C532.468 309.72 534.774 307.422 534.774 304.587C534.774 301.752 532.468 299.453 529.622 299.453C526.777 299.453 524.471 301.752 524.471 304.587C524.471 307.422 526.777 309.72 529.622 309.72Z" fill="url(#paint15_linear_2468_410507)"/>
<path d="M429.024 90.9984C429.857 87.4682 427.661 83.9331 424.118 83.1026C420.576 82.2721 417.028 84.4606 416.195 87.9908C415.361 91.521 417.557 95.0561 421.1 95.8866C424.643 96.7171 428.19 94.5286 429.024 90.9984Z" fill="white" stroke="#212529" stroke-width="2.5" stroke-miterlimit="10"/>
<path d="M125.864 360.763C125.615 363.155 123.468 364.892 121.069 364.643C118.669 364.394 116.926 362.255 117.175 359.864C117.425 357.473 119.572 355.736 121.971 355.985C124.37 356.233 126.113 358.372 125.864 360.763Z" fill="white" stroke="#212529" stroke-width="2.5" stroke-miterlimit="10"/>
<path d="M103.072 136.711L97.9766 131.633L92.8809 136.711L97.9766 141.788L103.072 136.711Z" fill="url(#paint16_linear_2468_410507)"/>
<path d="M57.7425 227.286L54.1787 223.734L50.6149 227.286L54.1787 230.837L57.7425 227.286Z" fill="url(#paint17_linear_2468_410507)"/>
<path d="M208.132 347.528L204.568 343.977L201.005 347.528L204.568 351.079L208.132 347.528Z" fill="url(#paint18_linear_2468_410507)"/>
<path d="M569.704 179.395L566.141 175.844L562.577 179.395L566.141 182.946L569.704 179.395Z" fill="url(#paint19_linear_2468_410507)"/>
<path d="M514.842 347.187L509.746 342.109L504.65 347.187L509.746 352.265L514.842 347.187Z" fill="url(#paint20_linear_2468_410507)"/>
<path d="M474.986 103.976L469.891 98.8984L464.795 103.976L469.891 109.054L474.986 103.976Z" fill="url(#paint21_linear_2468_410507)"/>
<g clip-path="url(#clip1_2468_410507)">
<path d="M388.312 371.891C388.716 371.881 388.831 371.981 389.553 372.975C390.273 373.964 390.32 374.078 390.153 374.481C390.074 374.664 390.009 374.74 389.768 374.885C389.509 375.044 389.441 375.058 389.181 375.021L388.885 374.974L388.145 373.957L387.406 372.94L387.453 372.645C387.496 372.374 387.528 372.33 387.779 372.121C388.019 371.926 388.094 371.893 388.312 371.891Z" fill="url(#paint22_linear_2468_410507)"/>
<path d="M393.153 368.609C393.673 368.459 394.29 368.578 394.697 368.904C394.981 369.129 395.307 369.684 395.364 370.016C395.43 370.427 392.855 386.546 392.654 386.959C392.543 387.187 392.436 387.321 392.177 387.529C391.748 387.874 391.33 387.999 390.846 387.926C390.337 387.849 390.09 387.704 389.751 387.286C389.203 386.61 389.134 387.323 390.612 378.043C392.074 368.867 391.97 369.365 392.601 368.91C392.785 368.784 393.032 368.647 393.153 368.609Z" fill="url(#paint23_linear_2468_410507)"/>
<path d="M385.101 376.291C385.209 376.284 385.888 376.372 386.603 376.489C387.973 376.72 388.201 376.809 388.352 377.172C388.54 377.635 388.45 377.969 388.042 378.263C387.81 378.431 387.746 378.449 387.424 378.435C387.233 378.425 386.555 378.329 385.927 378.225C384.69 378.012 384.595 377.968 384.354 377.521C384.265 377.36 384.253 377.235 384.302 377.002C384.356 376.716 384.383 376.676 384.629 376.498C384.81 376.368 384.965 376.298 385.101 376.291Z" fill="url(#paint24_linear_2468_410507)"/>
<path d="M396.973 371.322C397.009 371.352 397.29 371.593 397.587 371.865C399.464 373.541 402.223 375.01 404.802 375.706L405.435 375.876L404.735 380.245L404.036 384.605L403.475 384.573C400.792 384.424 398.003 384.859 395.663 385.795C395.198 385.982 394.767 386.167 394.706 386.21C394.646 386.254 394.58 386.26 394.556 386.227C394.485 386.13 396.896 371.265 396.973 371.322Z" fill="url(#paint25_linear_2468_410507)"/>
<path d="M388.171 380.456C388.776 380.442 389.233 381.099 389.008 381.656C388.918 381.862 388.87 381.904 387.932 382.56L386.943 383.253L386.644 383.201C386.351 383.159 386.333 383.143 386.108 382.834C385.883 382.524 385.874 382.502 385.925 382.212L385.969 381.912L386.947 381.185C387.915 380.465 387.92 380.461 388.171 380.456Z" fill="url(#paint26_linear_2468_410507)"/>
<path d="M410.27 376.75C412.097 377.044 413.519 377.307 413.676 377.377C414.524 377.766 415.178 378.703 415.228 379.619C415.24 379.801 415.097 380.849 414.916 381.952C414.568 384.071 414.506 384.278 414.063 384.816C413.652 385.311 413.112 385.609 412.427 385.709C412.075 385.759 411.548 385.695 408.852 385.266L405.692 384.764L406.369 380.539C406.737 378.215 407.069 376.298 407.092 376.281C407.12 376.261 408.55 376.476 410.27 376.75ZM408.199 380.613C408.045 380.957 408.224 381.455 408.563 381.62C408.65 381.662 409.187 381.768 409.751 381.854C410.82 382.02 411.002 382.008 411.255 381.733C411.433 381.549 411.508 381.156 411.42 380.909C411.28 380.503 411.104 380.426 409.882 380.244C409.246 380.147 408.732 380.102 408.657 380.135C408.474 380.224 408.293 380.412 408.199 380.613Z" fill="url(#paint27_linear_2468_410507)"/>
<path d="M402.81 386.184C403.214 386.196 403.598 386.208 403.655 386.209C403.752 386.216 403.753 386.343 403.64 387.073C403.509 387.992 403.531 388.159 403.856 388.46C403.974 388.573 404.197 388.637 404.903 388.761C405.394 388.844 405.812 388.902 405.83 388.888C405.849 388.875 405.96 388.337 406.074 387.697L406.283 386.524L408.014 386.804L409.75 387.08L409.265 389.827C408.712 392.997 408.673 393.109 408.084 393.534C407.773 393.759 407.667 393.807 407.335 393.857C406.572 393.985 405.871 393.624 405.516 392.922C405.308 392.508 405.285 392.243 405.415 391.43L405.534 390.66L404.63 390.516C404.13 390.441 403.586 390.326 403.421 390.254C402.532 389.917 401.828 388.959 401.766 388.017C401.741 387.661 401.934 386.274 402.018 386.214C402.05 386.19 402.409 386.178 402.81 386.184Z" fill="url(#paint28_linear_2468_410507)"/>
</g>
<path d="M240.329 385.99C239.569 385.99 238.843 385.91 238.149 385.75C237.456 385.577 236.843 385.317 236.309 384.97C235.776 384.61 235.356 384.17 235.049 383.65C234.743 383.117 234.589 382.49 234.589 381.77C234.589 381.69 234.589 381.61 234.589 381.53C234.603 381.45 234.609 381.39 234.609 381.35H237.229C237.229 381.377 237.223 381.43 237.209 381.51C237.209 381.577 237.209 381.637 237.209 381.69C237.209 382.13 237.336 382.51 237.589 382.83C237.843 383.137 238.209 383.377 238.689 383.55C239.169 383.71 239.736 383.79 240.389 383.79C240.829 383.79 241.216 383.763 241.549 383.71C241.896 383.657 242.189 383.583 242.429 383.49C242.683 383.383 242.889 383.263 243.049 383.13C243.209 382.983 243.323 382.823 243.389 382.65C243.469 382.477 243.509 382.29 243.509 382.09C243.509 381.703 243.389 381.383 243.149 381.13C242.909 380.877 242.583 380.663 242.169 380.49C241.769 380.317 241.309 380.163 240.789 380.03C240.283 379.883 239.756 379.737 239.209 379.59C238.676 379.443 238.149 379.27 237.629 379.07C237.123 378.857 236.663 378.603 236.249 378.31C235.849 378.017 235.529 377.65 235.289 377.21C235.049 376.757 234.929 376.217 234.929 375.59C234.929 374.95 235.063 374.39 235.329 373.91C235.609 373.43 235.996 373.037 236.489 372.73C236.996 372.41 237.583 372.177 238.249 372.03C238.916 371.87 239.643 371.79 240.429 371.79C241.163 371.79 241.849 371.87 242.489 372.03C243.143 372.177 243.716 372.417 244.209 372.75C244.703 373.07 245.089 373.483 245.369 373.99C245.649 374.483 245.789 375.077 245.789 375.77V376.01H243.209V375.81C243.209 375.423 243.089 375.097 242.849 374.83C242.623 374.563 242.296 374.357 241.869 374.21C241.456 374.063 240.969 373.99 240.409 373.99C239.809 373.99 239.296 374.05 238.869 374.17C238.443 374.277 238.116 374.443 237.889 374.67C237.663 374.883 237.549 375.15 237.549 375.47C237.549 375.803 237.669 376.083 237.909 376.31C238.149 376.537 238.469 376.73 238.869 376.89C239.283 377.05 239.743 377.197 240.249 377.33C240.769 377.463 241.296 377.61 241.829 377.77C242.376 377.917 242.903 378.09 243.409 378.29C243.929 378.49 244.389 378.743 244.789 379.05C245.203 379.343 245.529 379.71 245.769 380.15C246.009 380.59 246.129 381.117 246.129 381.73C246.129 382.757 245.876 383.583 245.369 384.21C244.876 384.837 244.189 385.29 243.309 385.57C242.443 385.85 241.449 385.99 240.329 385.99ZM251.909 385.75V374.27H247.529V372.03H258.909V374.27H254.509V385.75H251.909ZM257.813 385.75L263.153 372.03H266.433L271.793 385.75H268.973L267.873 382.83H261.593L260.493 385.75H257.813ZM262.413 380.63H267.033L265.653 376.91C265.6 376.777 265.533 376.61 265.453 376.41C265.386 376.197 265.313 375.97 265.233 375.73C265.153 375.477 265.073 375.223 264.993 374.97C264.913 374.717 264.84 374.49 264.773 374.29H264.673C264.593 374.557 264.493 374.863 264.373 375.21C264.266 375.557 264.16 375.883 264.053 376.19C263.946 376.497 263.86 376.737 263.793 376.91L262.413 380.63ZM275.771 385.75V380.17L270.491 372.03H273.491L277.111 377.83H277.211L280.791 372.03H283.631L278.371 380.17V385.75H275.771ZM295.718 385.75V374.27H291.338V372.03H302.718V374.27H298.318V385.75H295.718ZM310.441 385.99C309.241 385.99 308.207 385.797 307.341 385.41C306.474 385.023 305.807 384.437 305.341 383.65C304.887 382.85 304.661 381.857 304.661 380.67V372.03H307.261V380.59C307.261 381.643 307.534 382.443 308.081 382.99C308.641 383.523 309.427 383.79 310.441 383.79C311.454 383.79 312.241 383.523 312.801 382.99C313.374 382.443 313.661 381.643 313.661 380.59V372.03H316.261V380.67C316.261 381.857 316.027 382.85 315.561 383.65C315.094 384.437 314.427 385.023 313.561 385.41C312.694 385.797 311.654 385.99 310.441 385.99ZM319.213 385.75V372.03H321.693L327.553 380.13C327.62 380.21 327.7 380.323 327.793 380.47C327.887 380.603 327.973 380.737 328.053 380.87C328.133 381.003 328.187 381.11 328.213 381.19H328.313C328.313 381.003 328.313 380.823 328.313 380.65C328.313 380.477 328.313 380.303 328.313 380.13V372.03H330.813V385.75H328.353L322.473 377.59C322.367 377.43 322.24 377.237 322.093 377.01C321.96 376.77 321.867 376.603 321.813 376.51H321.713C321.713 376.683 321.713 376.863 321.713 377.05C321.713 377.223 321.713 377.403 321.713 377.59V385.75H319.213ZM333.862 385.75V372.03H344.562V374.25H336.462V377.63H343.682V379.85H336.462V383.53H344.682V385.75H333.862ZM347.299 385.75V372.03H352.799C354.186 372.03 355.373 372.277 356.359 372.77C357.346 373.263 358.106 374.017 358.639 375.03C359.173 376.03 359.439 377.317 359.439 378.89C359.439 380.45 359.173 381.737 358.639 382.75C358.106 383.763 357.346 384.517 356.359 385.01C355.373 385.503 354.186 385.75 352.799 385.75H347.299ZM349.899 383.53H352.799C353.439 383.53 354.006 383.437 354.499 383.25C354.993 383.063 355.406 382.79 355.739 382.43C356.073 382.057 356.326 381.597 356.499 381.05C356.673 380.49 356.759 379.843 356.759 379.11V378.69C356.759 377.943 356.673 377.297 356.499 376.75C356.326 376.19 356.073 375.73 355.739 375.37C355.406 374.997 354.993 374.717 354.499 374.53C354.006 374.343 353.439 374.25 352.799 374.25H349.899V383.53Z" fill="#111827"/>
</g>
<defs>
<linearGradient id="paint0_linear_2468_410507" x1="179.064" y1="79.0234" x2="179.064" y2="80.0234" gradientUnits="userSpaceOnUse">
<stop stop-color="#F26522"/>
<stop offset="1" stop-color="#FF7A3C"/>
</linearGradient>
<linearGradient id="paint1_linear_2468_410507" x1="267.897" y1="328.227" x2="267.897" y2="329.227" gradientUnits="userSpaceOnUse">
<stop stop-color="#F26522"/>
<stop offset="1" stop-color="#FF7A3C"/>
</linearGradient>
<linearGradient id="paint2_linear_2468_410507" x1="122.641" y1="177.516" x2="122.641" y2="178.516" gradientUnits="userSpaceOnUse">
<stop stop-color="#F26522"/>
<stop offset="1" stop-color="#FF7A3C"/>
</linearGradient>
<linearGradient id="paint3_linear_2468_410507" x1="306.15" y1="125.781" x2="306.15" y2="200.711" gradientUnits="userSpaceOnUse">
<stop stop-color="#F26522"/>
<stop offset="1" stop-color="#FF7A3C"/>
</linearGradient>
<linearGradient id="paint4_linear_2468_410507" x1="296.243" y1="212.953" x2="296.243" y2="300.849" gradientUnits="userSpaceOnUse">
<stop stop-color="#F26522"/>
<stop offset="1" stop-color="#FF7A3C"/>
</linearGradient>
<linearGradient id="paint5_linear_2468_410507" x1="149.618" y1="147.57" x2="149.618" y2="148.57" gradientUnits="userSpaceOnUse">
<stop stop-color="#F26522"/>
<stop offset="1" stop-color="#FF7A3C"/>
</linearGradient>
<linearGradient id="paint6_linear_2468_410507" x1="487.076" y1="254.32" x2="487.076" y2="255.32" gradientUnits="userSpaceOnUse">
<stop stop-color="#F26522"/>
<stop offset="1" stop-color="#FF7A3C"/>
</linearGradient>
<linearGradient id="paint7_linear_2468_410507" x1="510.393" y1="279.234" x2="510.393" y2="280.234" gradientUnits="userSpaceOnUse">
<stop stop-color="#F26522"/>
<stop offset="1" stop-color="#FF7A3C"/>
</linearGradient>
<linearGradient id="paint8_linear_2468_410507" x1="356.623" y1="115.242" x2="356.623" y2="116.242" gradientUnits="userSpaceOnUse">
<stop stop-color="#F26522"/>
<stop offset="1" stop-color="#FF7A3C"/>
</linearGradient>
<linearGradient id="paint9_linear_2468_410507" x1="475.526" y1="145.391" x2="475.526" y2="184.023" gradientUnits="userSpaceOnUse">
<stop stop-color="#F26522"/>
<stop offset="1" stop-color="#FF7A3C"/>
</linearGradient>
<linearGradient id="paint10_linear_2468_410507" x1="466.185" y1="116.562" x2="466.185" y2="149.557" gradientUnits="userSpaceOnUse">
<stop stop-color="#F26522"/>
<stop offset="1" stop-color="#FF7A3C"/>
</linearGradient>
<linearGradient id="paint11_linear_2468_410507" x1="434.734" y1="299.758" x2="434.734" y2="332.753" gradientUnits="userSpaceOnUse">
<stop stop-color="#F26522"/>
<stop offset="1" stop-color="#FF7A3C"/>
</linearGradient>
<linearGradient id="paint12_linear_2468_410507" x1="465.351" y1="238.062" x2="465.351" y2="278.995" gradientUnits="userSpaceOnUse">
<stop stop-color="#F26522"/>
<stop offset="1" stop-color="#FF7A3C"/>
</linearGradient>
<linearGradient id="paint13_linear_2468_410507" x1="76.0973" y1="338.68" x2="76.0973" y2="339.68" gradientUnits="userSpaceOnUse">
<stop stop-color="#F26522"/>
<stop offset="1" stop-color="#FF7A3C"/>
</linearGradient>
<linearGradient id="paint14_linear_2468_410507" x1="124.622" y1="231.5" x2="124.622" y2="240.505" gradientUnits="userSpaceOnUse">
<stop stop-color="#F26522"/>
<stop offset="1" stop-color="#FF7A3C"/>
</linearGradient>
<linearGradient id="paint15_linear_2468_410507" x1="529.622" y1="299.453" x2="529.622" y2="309.72" gradientUnits="userSpaceOnUse">
<stop stop-color="#F26522"/>
<stop offset="1" stop-color="#FF7A3C"/>
</linearGradient>
<linearGradient id="paint16_linear_2468_410507" x1="100.524" y1="134.172" x2="95.4467" y2="139.267" gradientUnits="userSpaceOnUse">
<stop stop-color="#F26522"/>
<stop offset="1" stop-color="#FF7A3C"/>
</linearGradient>
<linearGradient id="paint17_linear_2468_410507" x1="55.9606" y1="225.51" x2="52.4094" y2="229.074" gradientUnits="userSpaceOnUse">
<stop stop-color="#F26522"/>
<stop offset="1" stop-color="#FF7A3C"/>
</linearGradient>
<linearGradient id="paint18_linear_2468_410507" x1="206.35" y1="345.752" x2="202.799" y2="349.316" gradientUnits="userSpaceOnUse">
<stop stop-color="#F26522"/>
<stop offset="1" stop-color="#FF7A3C"/>
</linearGradient>
<linearGradient id="paint19_linear_2468_410507" x1="567.923" y1="177.619" x2="564.371" y2="181.183" gradientUnits="userSpaceOnUse">
<stop stop-color="#F26522"/>
<stop offset="1" stop-color="#FF7A3C"/>
</linearGradient>
<linearGradient id="paint20_linear_2468_410507" x1="512.294" y1="344.648" x2="507.216" y2="349.744" gradientUnits="userSpaceOnUse">
<stop stop-color="#F26522"/>
<stop offset="1" stop-color="#FF7A3C"/>
</linearGradient>
<linearGradient id="paint21_linear_2468_410507" x1="472.438" y1="101.437" x2="467.361" y2="106.533" gradientUnits="userSpaceOnUse">
<stop stop-color="#F26522"/>
<stop offset="1" stop-color="#FF7A3C"/>
</linearGradient>
<linearGradient id="paint22_linear_2468_410507" x1="390.212" y1="373.848" x2="388.343" y2="375.199" gradientUnits="userSpaceOnUse">
<stop stop-color="#FF8620"/>
<stop offset="1" stop-color="#FF2D3D"/>
</linearGradient>
<linearGradient id="paint23_linear_2468_410507" x1="401.379" y1="377.73" x2="385.146" y2="389.4" gradientUnits="userSpaceOnUse">
<stop stop-color="#FF8620"/>
<stop offset="1" stop-color="#FF2D3D"/>
</linearGradient>
<linearGradient id="paint24_linear_2468_410507" x1="388.469" y1="377.226" x2="384.669" y2="379.957" gradientUnits="userSpaceOnUse">
<stop stop-color="#FF8620"/>
<stop offset="1" stop-color="#FF2D3D"/>
</linearGradient>
<linearGradient id="paint25_linear_2468_410507" x1="407.739" y1="378.762" x2="391.502" y2="390.435" gradientUnits="userSpaceOnUse">
<stop stop-color="#FF8620"/>
<stop offset="1" stop-color="#FF2D3D"/>
</linearGradient>
<linearGradient id="paint26_linear_2468_410507" x1="389.249" y1="381.255" x2="385.493" y2="383.924" gradientUnits="userSpaceOnUse">
<stop stop-color="#FF8620"/>
<stop offset="1" stop-color="#FF2D3D"/>
</linearGradient>
<linearGradient id="paint27_linear_2468_410507" x1="416.647" y1="380.694" x2="404.508" y2="389.421" gradientUnits="userSpaceOnUse">
<stop stop-color="#FF8620"/>
<stop offset="1" stop-color="#FF2D3D"/>
</linearGradient>
<linearGradient id="paint28_linear_2468_410507" x1="411.359" y1="389.152" x2="403.315" y2="394.95" gradientUnits="userSpaceOnUse">
<stop stop-color="#FF8620"/>
<stop offset="1" stop-color="#FF2D3D"/>
</linearGradient>
<clipPath id="clip0_2468_410507">
<rect width="630" height="418.525" fill="white"/>
</clipPath>
<clipPath id="clip1_2468_410507">
<rect width="29.2919" height="29.2599" fill="white" transform="matrix(-0.810727 0.585425 0.588132 0.808765 403.904 360.461)"/>
</clipPath>
</defs>
</svg>
