<svg width="600" height="489" viewBox="0 0 600 489" fill="none" xmlns="http://www.w3.org/2000/svg">
<path d="M376.685 255.387C423.701 208.371 423.701 132.144 376.685 85.1287C329.67 38.1131 253.443 38.1131 206.427 85.1287C159.411 132.144 159.411 208.371 206.427 255.387C253.443 302.402 329.67 302.402 376.685 255.387Z" fill="#EE9730"/>
<path d="M600 370.687L572.333 370.627L531.429 370.536L448.103 370.348C448.103 370.348 448.12 370.34 448.149 370.326L531.84 323.883L600 370.687Z" fill="#EDB188"/>
<path d="M600 370.687L572.333 370.627C564.158 355.02 540.24 346.201 533.577 341.855C525.264 336.423 531.84 323.883 531.84 323.883L600 370.687Z" fill="#EFBE97"/>
<path d="M531.429 370.541L448.103 370.353C448.103 370.353 448.12 370.345 448.149 370.331C449.234 369.841 469.903 360.652 485.791 364.048C499.854 367.054 524.045 365.035 531.429 370.541Z" fill="#E8A577"/>
<path d="M310.937 370.682L254.304 370.56L170.572 370.375L0 369.99C0 369.99 0.0349956 369.974 0.0938568 369.944L171.41 274.875L310.937 370.682Z" fill="#EDB188"/>
<path d="M310.937 370.684L254.304 370.561C237.57 338.614 188.607 320.559 174.969 311.663C157.95 300.546 171.412 274.875 171.412 274.875L310.937 370.684Z" fill="#EFBE97"/>
<path d="M170.572 370.376L0 369.991C0 369.991 0.0349956 369.975 0.0938568 369.944C2.31627 368.942 44.6248 350.132 77.148 357.086C105.939 363.236 155.457 359.104 170.572 370.376Z" fill="#E8A577"/>
<path d="M524.926 370.683L485.524 370.597L427.267 370.468L308.59 370.199C308.59 370.199 308.615 370.188 308.655 370.168L427.849 304.023L524.926 370.683Z" fill="#EFBE97"/>
<path d="M524.925 370.683L485.523 370.597C473.88 348.37 439.814 335.809 430.326 329.619C418.485 321.884 427.851 304.023 427.851 304.023L524.925 370.683Z" fill="#F5CDA9"/>
<path d="M427.265 370.466L308.588 370.198C308.588 370.198 308.613 370.186 308.653 370.166C310.199 369.469 339.636 356.381 362.265 361.219C382.297 365.5 416.748 362.624 427.265 370.466Z" fill="#EDB188"/>
<path d="M510.966 272.88C502.768 273.092 496.338 280.037 496.338 288.238V370.916H526.387V287.899C526.387 279.469 519.445 272.662 510.966 272.88Z" fill="#D3573B"/>
<path d="M511.363 272.875C506.653 272.875 502.833 279.601 502.833 287.899V370.916H519.893V287.899C519.893 279.601 516.074 272.875 511.363 272.875Z" fill="#F46640"/>
<path d="M511.363 272.875C509.597 272.875 508.165 279.601 508.165 287.899V370.916H514.56V287.899C514.56 279.601 513.128 272.875 511.363 272.875Z" fill="#F46640"/>
<path d="M505.224 284.079L503.262 285.8L502.865 282.109H502.861L502.464 285.803L500.499 284.079L502.336 286.976H502.338L502.86 287.798V287.792L502.863 287.798L503.39 286.976V286.969L505.224 284.079Z" fill="#F9A42D"/>
<path d="M522.227 284.079L520.266 285.8L519.868 282.109H519.865L519.467 285.803L517.501 284.079L519.34 286.976H519.342L519.862 287.798V287.792L519.867 287.798L520.393 286.976L520.392 286.969L522.227 284.079Z" fill="#F9A42D"/>
<path d="M513.725 289.782L511.763 291.503L511.366 287.812H511.362L510.965 291.506L509 289.782L510.837 292.677L510.839 292.679L511.361 293.5V293.495L511.364 293.5L511.891 292.677L511.889 292.673L513.725 289.782Z" fill="#F9A42D"/>
<path d="M513.725 303.915L511.763 305.636L511.366 301.945H511.362L510.965 305.639L509 303.915L510.837 306.812L510.839 306.813L511.361 307.634V307.628L511.364 307.634L511.891 306.812L511.889 306.805L513.725 303.915Z" fill="#F9A42D"/>
<path d="M513.725 318.094L511.763 319.816L511.366 316.125H511.362L510.965 319.819L509 318.094L510.837 320.99L510.839 320.991L511.361 321.814V321.808L511.364 321.814L511.891 320.99L511.889 320.985L513.725 318.094Z" fill="#F9A42D"/>
<path d="M505.224 297.235L503.262 298.956L502.865 295.266H502.861L502.464 298.96L500.499 297.235L502.336 300.132H502.338L502.86 300.954V300.948L502.863 300.954L503.39 300.132V300.126L505.224 297.235Z" fill="#F9A42D"/>
<path d="M522.227 297.235L520.266 298.956L519.868 295.266H519.865L519.467 298.96L517.501 297.235L519.34 300.132H519.342L519.862 300.954V300.948L519.867 300.954L520.393 300.132L520.392 300.126L522.227 297.235Z" fill="#F9A42D"/>
<path d="M505.224 310.376L503.262 312.097L502.865 308.406H502.861L502.464 312.1L500.499 310.376L502.336 313.271L502.338 313.273L502.86 314.095V314.089L502.863 314.095L503.39 313.271V313.266L505.224 310.376Z" fill="#F9A42D"/>
<path d="M522.227 310.376L520.266 312.097L519.868 308.406H519.865L519.467 312.1L517.501 310.376L519.34 313.271L519.342 313.273L519.862 314.095V314.089L519.867 314.095L520.393 313.271L520.392 313.266L522.227 310.376Z" fill="#F9A42D"/>
<path d="M483.8 295.451V290.146C483.8 286.747 481.256 283.703 477.862 283.524C474.243 283.335 471.251 286.213 471.251 289.789V299.958V302.12C471.251 307.856 475.901 312.506 481.638 312.506H483.8H497.621V299.958H488.308C485.818 299.958 483.8 297.941 483.8 295.451Z" fill="#D3573B"/>
<path d="M481.638 308.131C478.315 308.131 475.623 305.438 475.623 302.116V289.785C475.623 288.737 476.477 287.883 477.527 287.883C478.609 287.937 479.43 288.969 479.43 290.14V299.709C479.43 302.258 481.496 304.324 484.045 304.324H496.339V308.13L481.638 308.131Z" fill="#F46640"/>
<path d="M484.078 306.29L482.116 308.011L481.719 304.32H481.714L481.316 308.014L479.352 306.29L481.191 309.185V309.187L481.712 310.009V310.003L481.717 310.009L482.242 309.185V309.18L484.078 306.29Z" fill="#F9A42D"/>
<path d="M477.985 297.235L476.023 298.956L475.625 295.266H475.622L475.224 298.96L473.26 297.235L475.097 300.132H475.099L475.621 300.954V300.948L475.624 300.954L476.15 300.132L476.149 300.126L477.985 297.235Z" fill="#F9A42D"/>
<path d="M481.714 289.157L479.754 290.878L479.356 287.188H479.352L478.954 290.881L476.989 289.157L478.828 292.054L479.35 292.876V292.87L479.355 292.876L479.88 292.054V292.048L481.714 289.157Z" fill="#F9A42D"/>
<path d="M493.213 306.29L491.252 308.011L490.854 304.32H490.851L490.451 308.014L488.488 306.29L490.326 309.185L490.327 309.187L490.848 310.009V310.003L490.852 310.009L491.379 309.185L491.377 309.18L493.213 306.29Z" fill="#F9A42D"/>
<path d="M540.208 321.488V316.183C540.208 312.785 542.752 309.74 546.145 309.564C549.764 309.374 552.757 312.252 552.757 315.828V325.997V328.159C552.757 333.895 548.107 338.546 542.37 338.546H540.208H526.387V325.997H535.7C538.189 325.995 540.208 323.978 540.208 321.488Z" fill="#D3573B"/>
<path d="M542.37 334.17C545.692 334.17 548.385 331.477 548.385 328.155V315.825C548.385 314.776 547.531 313.922 546.481 313.922C545.399 313.976 544.578 315.008 544.578 316.179V325.748C544.578 328.297 542.512 330.363 539.963 330.363H526.387V334.17H542.37Z" fill="#F46640"/>
<path d="M539.931 332.329L541.891 334.05L542.288 330.359H542.293L542.691 334.053L544.655 332.329L542.816 335.226L542.295 336.048V336.042L542.29 336.048L541.765 335.226V335.219L539.931 332.329Z" fill="#F9A42D"/>
<path d="M546.022 323.274L547.984 324.995L548.382 321.305H548.385L548.783 324.999L550.749 323.274L548.91 326.171H548.908L548.388 326.994V326.987L548.383 326.994L547.857 326.171L547.858 326.165L546.022 323.274Z" fill="#F9A42D"/>
<path d="M542.294 315.196L544.255 316.917L544.653 313.227H544.656L545.054 316.92L547.019 315.196L545.18 318.093L544.658 318.915V318.909L544.655 318.915L544.128 318.093V318.088L542.294 315.196Z" fill="#F9A42D"/>
<path d="M530.795 332.329L532.756 334.05L533.154 330.359H533.159L533.557 334.053L535.521 332.329L533.682 335.226L533.161 336.048V336.042L533.156 336.048L532.631 335.226V335.219L530.795 332.329Z" fill="#F9A42D"/>
<path d="M505.224 325.344L503.262 327.066L502.865 323.375H502.861L502.464 327.069L500.499 325.344L502.336 328.241H502.338L502.86 329.064V329.058L502.863 329.064L503.39 328.241V328.235L505.224 325.344Z" fill="#F9A42D"/>
<path d="M522.227 325.344L520.266 327.066L519.868 323.375H519.865L519.467 327.069L517.501 325.344L519.34 328.241H519.342L519.862 329.064V329.058L519.867 329.064L520.393 328.241L520.392 328.235L522.227 325.344Z" fill="#F9A42D"/>
<path d="M513.725 331.048L511.763 332.769L511.366 329.078H511.362L510.965 332.772L509 331.048L510.837 333.943L510.839 333.945L511.361 334.767V334.761L511.364 334.767L511.891 333.943L511.889 333.938L513.725 331.048Z" fill="#F9A42D"/>
<path d="M513.725 345.18L511.763 346.903L511.366 343.211H511.362L510.965 346.905L509 345.18L510.837 348.077L510.839 348.079L511.361 348.9V348.893L511.364 348.9L511.891 348.077L511.889 348.073L513.725 345.18Z" fill="#F9A42D"/>
<path d="M513.725 359.36L511.763 361.081L511.366 357.391H511.362L510.965 361.085L509 359.36L510.837 362.255L510.839 362.257L511.361 363.08V363.073L511.364 363.08L511.891 362.255L511.889 362.251L513.725 359.36Z" fill="#F9A42D"/>
<path d="M505.224 338.501L503.262 340.222L502.865 336.531H502.861L502.464 340.225L500.499 338.501L502.336 341.398H502.338L502.86 342.22V342.214L502.863 342.22L503.39 341.398V341.391L505.224 338.501Z" fill="#F9A42D"/>
<path d="M522.227 338.501L520.266 340.222L519.868 336.531H519.865L519.467 340.225L517.501 338.501L519.34 341.398H519.342L519.862 342.22V342.214L519.867 342.22L520.393 341.398L520.392 341.391L522.227 338.501Z" fill="#F9A42D"/>
<path d="M505.224 351.641L503.262 353.363L502.865 349.672H502.861L502.464 353.366L500.499 351.641L502.336 354.538H502.338L502.86 355.361V355.354L502.863 355.361L503.39 354.538V354.532L505.224 351.641Z" fill="#F9A42D"/>
<path d="M522.227 351.641L520.266 353.363L519.868 349.672H519.865L519.467 353.366L517.501 351.641L519.34 354.538H519.342L519.862 355.361V355.354L519.867 355.361L520.393 354.538L520.392 354.532L522.227 351.641Z" fill="#F9A42D"/>
<path d="M512.695 267.763C512.695 267.763 512.989 263.023 511.363 259.906C509.737 263.023 510.032 267.763 510.032 267.763H512.695Z" fill="#3F1715"/>
<path d="M513.172 266.235C512.772 266.89 512.351 267.226 511.928 267.226H511.363H510.798C510.373 267.226 509.954 266.89 509.554 266.235L507.52 262.891L508.778 268.605C509.464 271.721 510.394 273.473 511.365 273.473C512.335 273.473 513.266 271.721 513.951 268.605L515.208 262.891L513.172 266.235Z" fill="#21120D"/>
<path d="M514.137 267.315C513.526 267.873 512.88 268.158 512.23 268.158H511.363H510.496C509.845 268.158 509.201 267.873 508.588 267.315L505.469 264.469L507.397 269.334C508.448 271.987 509.875 273.478 511.361 273.478C512.849 273.478 514.274 271.987 515.326 269.334L517.254 264.469L514.137 267.315Z" fill="#3F1715"/>
<path d="M515.427 268.353C514.532 268.818 513.585 269.055 512.632 269.055H511.363H510.093C509.14 269.055 508.194 268.818 507.298 268.353L502.728 265.984L505.551 270.031C507.093 272.24 509.182 273.48 511.361 273.48C513.541 273.48 515.631 272.24 517.171 270.031L519.996 265.984L515.427 268.353Z" fill="#21120D"/>
<path d="M477.837 281.13C477.837 281.13 478.023 278.115 476.991 276.133C475.957 278.113 476.143 281.13 476.143 281.13H477.837Z" fill="#3F1715"/>
<path d="M478.141 280.166C477.886 280.583 477.619 280.796 477.35 280.796H476.99H476.631C476.36 280.796 476.093 280.583 475.84 280.166L474.547 278.039L475.347 281.673C475.783 283.655 476.375 284.768 476.992 284.768C477.609 284.768 478.201 283.655 478.637 281.673L479.437 278.039L478.141 280.166Z" fill="#21120D"/>
<path d="M478.753 280.842C478.363 281.196 477.955 281.378 477.541 281.378H476.991H476.44C476.027 281.378 475.616 281.196 475.228 280.842L473.244 279.031L474.471 282.124C475.139 283.812 476.046 284.76 476.992 284.76C477.937 284.76 478.846 283.812 479.514 282.124L480.74 279.031L478.753 280.842Z" fill="#3F1715"/>
<path d="M479.574 281.499C479.005 281.795 478.403 281.946 477.797 281.946H476.989H476.182C475.576 281.946 474.975 281.795 474.406 281.499L471.499 279.992L473.295 282.566C474.275 283.971 475.603 284.758 476.989 284.758C478.375 284.758 479.703 283.969 480.683 282.566L482.479 279.992L479.574 281.499Z" fill="#21120D"/>
<path d="M547.525 305.893C547.525 305.893 547.767 301.988 546.427 299.422C545.088 301.988 545.33 305.893 545.33 305.893H547.525Z" fill="#3F1715"/>
<path d="M547.918 304.629C547.589 305.168 547.242 305.445 546.894 305.445H546.428H545.961C545.611 305.445 545.265 305.168 544.937 304.629L543.262 301.875L544.297 306.581C544.862 309.148 545.629 310.59 546.428 310.59C547.226 310.59 547.993 309.147 548.558 306.581L549.593 301.875L547.918 304.629Z" fill="#21120D"/>
<path d="M548.712 305.525C548.208 305.984 547.676 306.22 547.142 306.22H546.428H545.713C545.177 306.22 544.646 305.984 544.141 305.525L541.572 303.18L543.16 307.185C544.025 309.371 545.201 310.599 546.426 310.599C547.651 310.599 548.825 309.371 549.692 307.185L551.28 303.18L548.712 305.525Z" fill="#3F1715"/>
<path d="M549.775 306.38C549.036 306.762 548.259 306.958 547.473 306.958H546.427H545.382C544.598 306.958 543.818 306.762 543.08 306.38L539.316 304.43L541.642 307.764C542.912 309.582 544.633 310.604 546.427 310.604C548.222 310.604 549.943 309.582 551.213 307.764L553.539 304.43L549.775 306.38Z" fill="#21120D"/>
<path d="M343.931 219.853L297.314 206.555L291.559 237.465L308.099 246.784L313.178 271.744L313.32 311.507L319.145 343.266L297.722 339.605L296.987 347.286L293.374 376.859L297.722 382.329L341.459 361.376L357.45 309.124L360.69 274.368L343.931 219.853Z" fill="#421819"/>
<path d="M270.668 271.75L275.692 311.514L279.993 340.952L294.645 347.904L300.056 378.362L259.756 355.936L239.503 309.13L239.308 274.374L253.985 222.417L293.271 209.203L296.906 236.08L287.439 246.995L270.668 271.75Z" fill="#612423"/>
<path d="M200.56 312.625L224.792 310.202L230.578 342.672L206.045 338.446L210.864 377.164L172.747 371.413L169.779 339.971L106.525 337.89L107.211 317.318L130.048 283.208L147.614 244.804L169.015 208.789L170.003 209.802L209.394 208.289L214.48 260.004L200.56 312.625ZM129.741 310.676L170.282 310.216L163.688 259.005L167.299 257.048L169.286 265.601L129.741 310.676Z" fill="#421819"/>
<path d="M226.832 307.467L222.269 333.886L165.51 339.123L104.256 343.99L102.724 315.814L123.645 279.124L142.768 241.58L171.06 207.422L167.57 258.143L135.815 310.552L181.704 316.239L226.832 307.467Z" fill="#612423"/>
<path d="M467.257 312.625L491.489 310.202L497.275 342.672L472.741 338.446L477.559 377.164L439.443 371.413L436.474 339.971L373.221 337.89L373.906 317.318L396.743 283.208L414.309 244.804L435.711 208.789L436.699 209.802L476.089 208.289L481.175 260.004L467.257 312.625ZM396.437 310.676L436.979 310.216L430.385 259.005L433.996 257.048L435.983 265.601L396.437 310.676Z" fill="#421819"/>
<path d="M493.529 307.467L488.965 333.886L432.205 339.123L370.953 343.99L369.421 315.814L390.34 279.124L409.464 241.58L437.756 207.422L434.265 258.143L402.512 310.552L448.402 316.239L493.529 307.467Z" fill="#612423"/>
<path d="M84.7728 210.834C74.5946 211.097 66.6133 219.719 66.6133 229.901V389.265H103.919V229.481C103.919 219.016 95.2994 210.564 84.7728 210.834Z" fill="#D3573B"/>
<path d="M85.266 210.828C79.4165 210.828 74.6758 219.178 74.6758 229.481V389.265H95.8563V229.481C95.8563 219.18 91.114 210.828 85.266 210.828Z" fill="#F46640"/>
<path d="M85.266 210.828C83.0738 210.828 81.2969 219.178 81.2969 229.481V389.265H89.2368V229.481C89.2352 219.18 87.4582 210.828 85.266 210.828Z" fill="#F46640"/>
<path d="M77.6447 224.75L75.2107 226.886L74.716 222.305H74.7128L74.2181 226.891L71.7793 224.75L74.0622 228.345V228.347L74.7096 229.366V229.359L74.7144 229.366L75.3682 228.345L75.3666 228.339L77.6447 224.75Z" fill="#F9A42D"/>
<path d="M98.7538 224.75L96.3182 226.886L95.825 222.305H95.8202L95.3271 226.891L92.8867 224.75L95.1696 228.345L95.1712 228.347L95.8186 229.366V229.359L95.8234 229.366L96.4757 228.345V228.339L98.7538 224.75Z" fill="#F9A42D"/>
<path d="M88.2 231.812L85.7645 233.949L85.2713 229.367H85.2665L84.7718 233.954L82.333 231.812L84.6159 235.408V235.409L85.2633 236.429V236.421L85.2681 236.429L85.9219 235.408V235.401L88.2 231.812Z" fill="#F9A42D"/>
<path d="M88.2 249.39L85.7645 251.527L85.2713 246.945H85.2665L84.7718 251.532L82.333 249.39L84.6159 252.986V252.987L85.2633 254.007V253.999L85.2681 254.007L85.9219 252.986V252.979L88.2 249.39Z" fill="#F9A42D"/>
<path d="M88.2 266.984L85.7645 269.121L85.2713 264.539H85.2665L84.7718 269.125L82.333 266.984L84.6159 270.579V270.581L85.2633 271.601V271.593L85.2681 271.601L85.9219 270.579V270.573L88.2 266.984Z" fill="#F9A42D"/>
<path d="M77.6447 241.072L75.2107 243.208L74.716 238.625H74.7128L74.2181 243.211L71.7793 241.072L74.0622 244.667V244.669L74.7096 245.688V245.68L74.7144 245.688L75.3682 244.667L75.3666 244.659L77.6447 241.072Z" fill="#F9A42D"/>
<path d="M98.7538 241.072L96.3182 243.208L95.825 238.625H95.8202L95.3271 243.211L92.8867 241.072L95.1696 244.667L95.1712 244.669L95.8186 245.688V245.68L95.8234 245.688L96.4757 244.667V244.659L98.7538 241.072Z" fill="#F9A42D"/>
<path d="M77.6447 257.383L75.2107 259.519L74.716 254.938H74.7128L74.2181 259.524L71.7793 257.383L74.0622 260.978V260.98L74.7096 261.999V261.991L74.7144 261.999L75.3682 260.978L75.3666 260.972L77.6447 257.383Z" fill="#F9A42D"/>
<path d="M98.7538 257.383L96.3182 259.519L95.825 254.938H95.8202L95.3271 259.524L92.8867 257.383L95.1696 260.978L95.1712 260.98L95.8186 261.999V261.991L95.8234 261.999L96.4757 260.978V260.972L98.7538 257.383Z" fill="#F9A42D"/>
<path d="M51.0469 238.856V232.268C51.0469 228.051 47.8891 224.27 43.6765 224.05C39.184 223.815 35.4678 227.388 35.4678 231.828V244.453V247.136C35.4678 254.259 41.2409 260.032 48.3632 260.032H51.0469H68.2058V244.454H56.6435C53.5525 244.451 51.0469 241.945 51.0469 238.856Z" fill="#D3573B"/>
<path d="M48.3635 254.607C44.2385 254.607 40.8945 251.263 40.8945 247.138V231.831C40.8945 230.53 41.954 229.469 43.2585 229.469C44.6012 229.536 45.6209 230.818 45.6209 232.272V244.151C45.6209 247.315 48.187 249.881 51.3511 249.881H66.6137V254.606L48.3635 254.607Z" fill="#F46640"/>
<path d="M51.3924 252.312L48.9568 254.45L48.4637 249.867H48.4589L47.9657 254.454L45.5254 252.312L47.8082 255.908L47.8098 255.909L48.4573 256.929V256.923L48.4621 256.929L49.1143 255.908V255.901L51.3924 252.312Z" fill="#F9A42D"/>
<path d="M43.829 241.064L41.3934 243.2L40.9002 238.617H40.8954L40.4007 243.204L37.9619 241.064L40.2448 244.659V244.661L40.8923 245.681V245.673L40.897 245.681L41.5509 244.659L41.5493 244.651L43.829 241.064Z" fill="#F9A42D"/>
<path d="M48.4592 231.062L46.0252 233.199L45.5305 228.617H45.5273L45.0325 233.202L42.5938 231.062L44.875 234.658L44.8766 234.659L45.5241 235.679V235.671L45.5289 235.679L46.1827 234.658L46.1811 234.651L48.4592 231.062Z" fill="#F9A42D"/>
<path d="M62.7333 252.312L60.2977 254.45L59.8045 249.867H59.7997L59.3066 254.454L56.8662 252.312L59.1491 255.908V255.909L59.7966 256.929V256.923L59.8013 256.929L60.4552 255.908V255.901L62.7333 252.312Z" fill="#F9A42D"/>
<path d="M121.078 325.95V319.362C121.078 315.145 124.237 311.363 128.448 311.144C132.941 310.908 136.657 314.481 136.657 318.921V331.546V334.23C136.657 341.352 130.884 347.126 123.762 347.126H121.078H103.919V331.546H115.481C118.572 331.546 121.078 329.041 121.078 325.95Z" fill="#D3573B"/>
<path d="M123.762 341.701C127.887 341.701 131.231 338.357 131.231 334.232V318.925C131.231 317.624 130.171 316.562 128.867 316.562C127.524 316.629 126.504 317.912 126.504 319.366V331.244C126.504 334.409 123.938 336.975 120.774 336.975H103.919V341.699L123.762 341.701Z" fill="#F46640"/>
<path d="M120.732 339.406L123.168 341.544L123.661 336.961H123.666L124.159 341.547L126.599 339.406L124.317 343.003L123.669 344.023V344.016L123.664 344.023L123.01 343.003V342.995L120.732 339.406Z" fill="#F9A42D"/>
<path d="M128.297 328.156L130.731 330.293L131.224 325.711H131.229L131.724 330.296L134.162 328.156L131.879 331.751V331.753L131.232 332.773V332.765L131.227 332.773L130.573 331.751L130.575 331.745L128.297 328.156Z" fill="#F9A42D"/>
<path d="M123.666 318.156L126.102 320.293L126.595 315.711H126.6L127.093 320.297L129.531 318.156L127.25 321.751L127.249 321.753L126.601 322.773V322.765L126.596 322.773L125.944 321.751V321.745L123.666 318.156Z" fill="#F9A42D"/>
<path d="M109.392 339.406L111.827 341.544L112.32 336.961H112.325L112.82 341.547L115.259 339.406L112.976 343.003L112.328 344.023V344.016L112.324 344.023L111.67 343.003L111.671 342.995L109.392 339.406Z" fill="#F9A42D"/>
<path d="M77.6447 275.969L75.2107 278.107L74.716 273.523H74.7128L74.2181 278.11L71.7793 275.969L74.0622 279.565V279.567L74.7096 280.587V280.579L74.7144 280.587L75.3682 279.565L75.3666 279.559L77.6447 275.969Z" fill="#F9A42D"/>
<path d="M98.7538 275.969L96.3182 278.107L95.825 273.523H95.8202L95.3271 278.11L92.8867 275.969L95.1696 279.565L95.1712 279.567L95.8186 280.587V280.579L95.8234 280.587L96.4757 279.565V279.559L98.7538 275.969Z" fill="#F9A42D"/>
<path d="M88.2 283.031L85.7645 285.168L85.2713 280.586H85.2665L84.7718 285.171L82.333 283.031L84.6159 286.626V286.628L85.2633 287.648V287.64L85.2681 287.648L85.9219 286.626V286.62L88.2 283.031Z" fill="#F9A42D"/>
<path d="M88.2 300.609L85.7645 302.747L85.2713 298.164H85.2665L84.7718 302.75L82.333 300.609L84.6159 304.206L85.2633 305.227V305.219L85.2681 305.227L85.9219 304.206V304.2L88.2 300.609Z" fill="#F9A42D"/>
<path d="M88.2 318.203L85.7645 320.341L85.2713 315.758H85.2665L84.7718 320.344L82.333 318.203L84.6159 321.798V321.8L85.2633 322.821V322.813L85.2681 322.821L85.9219 321.798V321.792L88.2 318.203Z" fill="#F9A42D"/>
<path d="M77.6447 292.289L75.2107 294.425L74.716 289.844H74.7128L74.2181 294.43L71.7793 292.289L74.0622 295.884V295.886L74.7096 296.906V296.898L74.7144 296.906L75.3682 295.884L75.3666 295.878L77.6447 292.289Z" fill="#F9A42D"/>
<path d="M98.7538 292.289L96.3182 294.425L95.825 289.844H95.8202L95.3271 294.43L92.8867 292.289L95.1696 295.884L95.1712 295.886L95.8186 296.906V296.898L95.8234 296.906L96.4757 295.884V295.878L98.7538 292.289Z" fill="#F9A42D"/>
<path d="M77.6447 308.625L75.2107 310.761L74.716 306.18H74.7128L74.2181 310.765L71.7793 308.625L74.0622 312.22V312.222L74.7096 313.241V313.233L74.7144 313.241L75.3682 312.22L75.3666 312.214L77.6447 308.625Z" fill="#F9A42D"/>
<path d="M98.7538 308.625L96.3182 310.761L95.825 306.18H95.8202L95.3271 310.765L92.8867 308.625L95.1696 312.22L95.1712 312.222L95.8186 313.241V313.233L95.8234 313.241L96.4757 312.22V312.214L98.7538 308.625Z" fill="#F9A42D"/>
<path d="M77.6447 328.226L75.2107 330.363L74.716 325.781H74.7128L74.2181 330.368L71.7793 328.226L74.0622 331.822V331.823L74.7096 332.843V332.835L74.7144 332.843L75.3682 331.822L75.3666 331.815L77.6447 328.226Z" fill="#F9A42D"/>
<path d="M98.7538 328.226L96.3182 330.363L95.825 325.781H95.8202L95.3271 330.368L92.8867 328.226L95.1696 331.822L95.1712 331.823L95.8186 332.843V332.835L95.8234 332.843L96.4757 331.822V331.815L98.7538 328.226Z" fill="#F9A42D"/>
<path d="M88.2 335.289L85.7645 337.425L85.2713 332.844H85.2665L84.7718 337.43L82.333 335.289L84.6159 338.884V338.886L85.2633 339.906V339.898L85.2681 339.906L85.9219 338.884V338.878L88.2 335.289Z" fill="#F9A42D"/>
<path d="M88.2 352.867L85.7645 355.004L85.2713 350.422H85.2665L84.7718 355.008L82.333 352.867L84.6159 356.462V356.464L85.2633 357.484V357.476L85.2681 357.484L85.9219 356.462V356.456L88.2 352.867Z" fill="#F9A42D"/>
<path d="M88.2 370.461L85.7645 372.597L85.2713 368.016H85.2665L84.7718 372.602L82.333 370.461L84.6159 374.056V374.058L85.2633 375.077V375.069L85.2681 375.077L85.9219 374.056V374.05L88.2 370.461Z" fill="#F9A42D"/>
<path d="M77.6447 344.547L75.2107 346.685L74.716 342.102H74.7128L74.2181 346.688L71.7793 344.547L74.0622 348.144V348.145L74.7096 349.165V349.157L74.7144 349.165L75.3682 348.144L75.3666 348.137L77.6447 344.547Z" fill="#F9A42D"/>
<path d="M98.7538 344.547L96.3182 346.685L95.825 342.102H95.8202L95.3271 346.688L92.8867 344.547L95.1696 348.144L95.1712 348.145L95.8186 349.165V349.157L95.8234 349.165L96.4757 348.144V348.137L98.7538 344.547Z" fill="#F9A42D"/>
<path d="M77.6447 360.859L75.2107 362.996L74.716 358.414H74.7128L74.2181 363L71.7793 360.859L74.0622 364.454V364.456L74.7096 365.476V365.468L74.7144 365.476L75.3682 364.454L75.3666 364.448L77.6447 360.859Z" fill="#F9A42D"/>
<path d="M98.7538 360.859L96.3182 362.996L95.825 358.414H95.8202L95.3271 363L92.8867 360.859L95.1696 364.454L95.1712 364.456L95.8186 365.476V365.468L95.8234 365.476L96.4757 364.454V364.448L98.7538 360.859Z" fill="#F9A42D"/>
<path d="M86.9205 204.474C86.9205 204.474 87.2848 198.588 85.266 194.719C83.2473 198.588 83.6116 204.474 83.6116 204.474H86.9205Z" fill="#3F1715"/>
<path d="M87.512 202.572C87.0172 203.387 86.4938 203.802 85.9673 203.802H85.2657H84.5641C84.0376 203.802 83.5142 203.385 83.0194 202.572L80.4932 198.422L82.0538 205.515C82.9049 209.384 84.0614 211.559 85.2657 211.559C86.47 211.559 87.6249 209.384 88.4776 205.515L90.0398 198.422L87.512 202.572Z" fill="#21120D"/>
<path d="M88.7101 203.918C87.9512 204.611 87.1494 204.964 86.3413 204.964H85.2659H84.1905C83.3823 204.964 82.5821 204.61 81.8233 203.918L77.9512 200.383L80.3438 206.422C81.6499 209.716 83.4205 211.566 85.2659 211.566C87.1113 211.566 88.8835 209.715 90.188 206.422L92.5806 200.383L88.7101 203.918Z" fill="#3F1715"/>
<path d="M90.3122 205.205C89.2002 205.783 88.0261 206.077 86.8425 206.077H85.266H83.6895C82.5059 206.077 81.3318 205.783 80.2198 205.205L74.5469 202.266L78.0531 207.291C79.9669 210.032 82.56 211.572 85.266 211.572C87.972 211.572 90.5667 210.032 92.4789 207.291L95.9851 202.266L90.3122 205.205Z" fill="#21120D"/>
<path d="M43.6449 221.101C43.6449 221.101 43.8772 217.358 42.5933 214.898C41.3095 217.358 41.5418 221.101 41.5418 221.101H43.6449Z" fill="#3F1715"/>
<path d="M44.0221 219.897C43.7072 220.414 43.3747 220.68 43.0406 220.68H42.5936H42.1465C41.8109 220.68 41.4784 220.416 41.1634 219.897L39.5566 217.258L40.5493 221.768C41.0902 224.229 41.8252 225.611 42.592 225.611C43.3588 225.611 44.0921 224.229 44.6346 221.768L45.6273 217.258L44.0221 219.897Z" fill="#21120D"/>
<path d="M44.7827 220.756C44.299 221.196 43.79 221.422 43.2761 221.422H42.5921H41.908C41.3942 221.422 40.8851 221.196 40.4031 220.756L37.9404 218.508L39.4629 222.348C40.2933 224.443 41.4196 225.62 42.5937 225.62C43.7677 225.62 44.894 224.443 45.7244 222.348L47.2469 218.508L44.7827 220.756Z" fill="#3F1715"/>
<path d="M45.8019 221.565C45.0939 221.93 44.3478 222.118 43.5954 222.118H42.5931H41.5909C40.8384 222.118 40.0923 221.93 39.3844 221.565L35.7764 219.695L38.0067 222.89C39.2237 224.633 40.8734 225.612 42.5931 225.612C44.3128 225.612 45.9625 224.632 47.1795 222.89L49.4099 219.695L45.8019 221.565Z" fill="#21120D"/>
<path d="M130.159 306.573C130.159 306.573 130.459 301.724 128.797 298.539C127.135 301.726 127.435 306.573 127.435 306.573H130.159Z" fill="#3F1715"/>
<path d="M130.648 305.012C130.241 305.682 129.81 306.026 129.375 306.026H128.796H128.219C127.784 306.026 127.355 305.684 126.946 305.012L124.865 301.594L126.151 307.435C126.852 310.622 127.804 312.413 128.796 312.413C129.789 312.413 130.74 310.623 131.442 307.435L132.727 301.594L130.648 305.012Z" fill="#21120D"/>
<path d="M131.634 306.107C131.009 306.678 130.349 306.969 129.684 306.969H128.798H127.912C127.247 306.969 126.586 306.676 125.961 306.107L122.771 303.195L124.743 308.17C125.818 310.884 127.277 312.408 128.796 312.408C130.317 312.408 131.776 310.884 132.851 308.17L134.822 303.195L131.634 306.107Z" fill="#3F1715"/>
<path d="M132.953 307.163C132.036 307.639 131.069 307.881 130.095 307.881H128.797H127.499C126.524 307.881 125.558 307.638 124.642 307.163L119.97 304.742L122.859 308.882C124.434 311.139 126.572 312.407 128.799 312.407C131.028 312.407 133.164 311.139 134.739 308.882L137.627 304.742L132.953 307.163Z" fill="#21120D"/>
<path d="M579.545 368.023C578.467 368.023 560.196 395.967 558.335 398.633C548.982 412.033 530.331 414.129 516.015 422.009C505.107 428.013 496.556 437.617 489.784 448.064C480.841 461.859 473.543 478.434 458.571 485.229C446.565 490.678 432.354 488.258 420.206 483.135C399.95 474.594 385.176 464.564 362.875 461.694C341.531 458.947 319.401 461.875 299.63 470.425C279.849 478.979 259.442 493.212 238.802 487.066C212.658 479.271 202.017 442.456 175.07 438.296C155.655 435.289 138.138 451.229 118.549 452.66C99.4841 454.061 82.0691 441.419 69.9103 426.676C57.7499 411.932 48.8905 394.562 35.723 380.709C30.9489 375.702 25.855 371.585 20.4541 368.023C20.4509 368.023 577.084 368.023 579.545 368.023Z" fill="#EE9730"/>
<path d="M579.55 368.023C578.472 368.023 560.195 395.965 558.332 398.641C548.987 412.033 530.338 414.136 516.014 422.017C505.112 428.021 496.551 437.618 489.79 448.068C480.845 461.859 473.549 478.433 458.575 485.235C446.567 490.679 432.364 488.256 420.21 483.132C399.949 474.599 385.173 464.562 362.876 461.7C341.536 458.945 319.4 461.874 299.632 470.432C279.85 478.978 259.444 493.223 238.811 487.073C212.667 479.271 202.016 442.465 175.073 438.297C155.665 435.289 138.147 451.237 118.551 452.661C99.4876 454.059 82.0758 441.427 69.909 426.676C57.755 411.94 48.8892 394.568 35.725 380.71C30.9461 375.706 25.8602 371.592 20.4561 368.025C20.4561 368.025 35.472 368.025 60.5772 368.025C63.5457 372.298 66.608 376.504 69.909 380.512C82.0758 395.248 99.4876 407.893 118.551 406.496C138.145 405.058 155.664 389.124 175.073 392.12C202.016 396.286 212.667 433.106 238.811 440.895C259.444 447.045 279.851 432.815 299.632 424.255C319.4 415.709 341.538 412.78 362.876 415.523C385.173 418.398 399.949 428.421 420.21 436.967C432.364 442.092 446.567 444.502 458.575 439.058C473.551 432.268 480.845 415.695 489.79 401.891C496.553 391.441 505.112 381.843 516.014 375.839C521.777 372.672 528.22 370.448 534.504 368.025L579.55 368.023Z" fill="#F9A42D"/>
<path d="M308.363 115.52H422.845C422.409 104.474 413.324 95.6659 402.177 95.6659H402.172C397.594 85.327 387.256 78.1094 375.223 78.1094C360.761 78.1094 348.742 88.5326 346.244 102.271C345.724 102.214 345.196 102.177 344.658 102.177C339.996 102.177 335.858 104.435 333.276 107.911C332.391 107.693 331.467 107.573 330.516 107.573C327.142 107.573 324.116 109.027 322.013 111.339C320.608 110.606 319.008 110.187 317.315 110.187C313.448 110.187 310.083 112.343 308.363 115.52Z" fill="#FAFBED"/>
<path d="M447.721 117.13H294.117C293.551 117.13 293.091 116.671 293.091 116.104C293.091 115.538 293.551 115.078 294.117 115.078H447.721C448.287 115.078 448.747 115.538 448.747 116.104C448.749 116.671 448.289 117.13 447.721 117.13Z" fill="#FAFBED"/>
<path d="M334.437 122.904H278.116C277.55 122.904 277.09 122.444 277.09 121.878C277.09 121.311 277.55 120.852 278.116 120.852H334.437C335.003 120.852 335.463 121.311 335.463 121.878C335.463 122.446 335.005 122.904 334.437 122.904Z" fill="#FAFBED"/>
<path d="M400.335 122.904H369.404C368.838 122.904 368.378 122.444 368.378 121.878C368.378 121.311 368.838 120.852 369.404 120.852H400.335C400.901 120.852 401.361 121.311 401.361 121.878C401.361 122.446 400.901 122.904 400.335 122.904Z" fill="#FAFBED"/>
<path d="M253.072 174.183H156.617C156.985 164.877 164.638 157.456 174.031 157.456H174.034C177.892 148.746 186.601 142.664 196.738 142.664C208.924 142.664 219.05 151.446 221.155 163.021C221.592 162.971 222.039 162.943 222.491 162.943C226.419 162.943 229.906 164.845 232.082 167.774C232.827 167.591 233.606 167.489 234.408 167.489C237.251 167.489 239.801 168.714 241.571 170.661C242.755 170.044 244.103 169.691 245.53 169.691C248.789 169.689 251.624 171.506 253.072 174.183Z" fill="#FAFBED"/>
<path d="M135.659 175.536H265.075C265.552 175.536 265.94 175.149 265.94 174.67C265.94 174.193 265.553 173.805 265.075 173.805H135.659C135.182 173.805 134.794 174.191 134.794 174.67C134.794 175.149 135.182 175.536 135.659 175.536Z" fill="#FAFBED"/>
<path d="M231.104 180.411H278.555C279.033 180.411 279.421 180.024 279.421 179.545C279.421 179.068 279.034 178.68 278.555 178.68H231.104C230.626 178.68 230.238 179.066 230.238 179.545C230.24 180.024 230.626 180.411 231.104 180.411Z" fill="#FAFBED"/>
<path d="M175.583 180.411H201.643C202.12 180.411 202.508 180.024 202.508 179.545C202.508 179.068 202.122 178.68 201.643 178.68H175.583C175.106 178.68 174.718 179.066 174.718 179.545C174.719 180.024 175.106 180.411 175.583 180.411Z" fill="#FAFBED"/>
</svg>
