<svg width="523" height="505" viewBox="0 0 523 505" fill="none" xmlns="http://www.w3.org/2000/svg">
<path d="M362.506 481.82C285.401 481.82 221.006 485.615 205.551 490.676C176.767 492.008 157.58 494.389 157.58 497.109C157.58 501.283 202.801 504.666 258.583 504.666C277.379 504.666 294.965 504.281 310.036 503.612C326.479 504.008 344.129 504.224 362.506 504.224C451.144 504.224 523 499.209 523 493.022C523 486.836 451.144 481.82 362.506 481.82Z" fill="#FCE0D3"/>
<path d="M91.1275 501.437C140.965 501.437 181.366 498.829 181.366 495.613C181.366 492.396 140.965 489.789 91.1275 489.789C41.29 489.789 0.888672 492.396 0.888672 495.613C0.888672 498.829 41.29 501.437 91.1275 501.437Z" fill="#FCE0D3"/>
<path d="M502.481 456.742H410.01V492.54H502.481V456.742Z" fill="#59555B"/>
<path d="M497.015 462.211V487.079H415.475V483.991V462.211H481.493H497.015Z" fill="#767078"/>
<path d="M457.414 425.469H364.945V461.343H457.414V425.469Z" fill="#59555B"/>
<path d="M451.95 455.351V455.881H370.41V430.938H450.445H451.95V455.351Z" fill="#767078"/>
<path d="M413.333 456.742H320.859V492.54H413.333V456.742Z" fill="#59555B"/>
<path d="M407.867 483.991V487.079H326.324V483.991V462.211H407.867V483.991Z" fill="#767078"/>
<path d="M413.333 394.039H320.859V429.914H413.333V394.039Z" fill="#59555B"/>
<path d="M407.867 399.508H326.324V424.453H407.867V399.508Z" fill="#767078"/>
<path d="M157.812 462.133H65.3438V498.007H157.812V462.133Z" fill="#59555B"/>
<path d="M152.347 492.016V492.545H70.8066V467.602H150.842H152.347V492.016Z" fill="#767078"/>
<path d="M85.6062 413.357L9.05664 465.234L29.1823 494.931L105.732 443.054L85.6062 413.357Z" fill="#59555B"/>
<path d="M84.1943 420.95L16.6934 466.703L30.69 487.353L98.191 441.599L84.1943 420.95Z" fill="#767078"/>
<path d="M368.338 425.469H275.867V461.343H368.338V425.469Z" fill="#59555B"/>
<path d="M362.876 430.938H281.336V455.882H362.876V430.938Z" fill="#767078"/>
<path d="M323.352 456.742H230.877V492.54H323.352V456.742Z" fill="#59555B"/>
<path d="M317.884 483.991V487.079H236.342V462.211H238.226H317.884V483.991Z" fill="#767078"/>
<path d="M283.091 222.516V480.138H282.807H277.436V450.464V447.865V411.348V408.749V372.201V369.602V333.085V330.453V293.937V291.337V254.788V252.19V222.516H283.091Z" fill="#DB6407"/>
<path d="M235.642 450.464V480.138H230.034H229.982V222.516H235.642V252.19V254.788V291.337V293.937V330.453V333.085V369.602V372.201V408.749V411.348V447.865V450.464Z" fill="#DB6407"/>
<path d="M280.256 372.944L276.229 369.758L256.488 394.689L236.748 369.758L232.722 372.944L253.214 398.826L232.721 424.708L236.748 427.892L256.488 402.962L276.229 427.892L280.256 424.708L259.763 398.826L280.256 372.944Z" fill="#832419"/>
<path d="M280.256 429.641L276.229 426.453L256.488 451.386L236.748 426.453L232.722 429.641L253.214 455.521L232.721 481.404L236.748 484.589L256.488 459.657L276.229 484.589L280.256 481.404L259.763 455.521L280.256 429.641Z" fill="#832419"/>
<path d="M280.256 263.937L276.229 260.75L256.488 285.682L236.748 260.75L232.722 263.937L253.214 289.819L232.721 315.701L236.748 318.886L256.488 293.954L276.229 318.886L280.256 315.701L259.763 289.819L280.256 263.937Z" fill="#832419"/>
<path d="M280.256 320.616L276.229 317.43L256.488 342.361L236.748 317.43L232.722 320.616L253.214 346.497L232.721 372.38L236.748 375.564L256.488 350.634L276.229 375.564L280.256 372.38L259.763 346.497L280.256 320.616Z" fill="#832419"/>
<path d="M287.344 422.938H225.047V431.001H287.344V422.938Z" fill="#FC8108"/>
<path d="M287.344 367.055H225.047V375.118H287.344V367.055Z" fill="#FC8108"/>
<path d="M287.344 313.914H225.047V321.978H287.344V313.914Z" fill="#FC8108"/>
<path d="M300.171 478.328V483.133L290.858 496.598H279.375L291.968 478.328H300.171Z" fill="#832419"/>
<path d="M280.69 478.328L268.097 496.598H256.613L269.206 478.328H276.055H280.69Z" fill="#832419"/>
<path d="M257.924 478.328L245.331 496.598H244.879H233.848L246.441 478.328H257.924Z" fill="#832419"/>
<path d="M235.163 478.328L222.57 496.598H213.137V493.571L223.675 478.328H235.118H235.163Z" fill="#832419"/>
<path d="M300.17 483.133V496.598H290.857L300.17 483.133Z" fill="#DB6407"/>
<path d="M291.967 478.328L279.374 496.598H271.131H268.096L280.689 478.328H280.932H291.967Z" fill="#DB6407"/>
<path d="M269.205 478.328L256.612 496.598H245.332L257.925 478.328H268.547H269.205Z" fill="#DB6407"/>
<path d="M246.442 478.328L233.849 496.598H222.57L235.163 478.328H240.002H245.989H246.442Z" fill="#DB6407"/>
<path d="M223.675 478.328L213.137 493.571V478.328H223.675Z" fill="#DB6407"/>
<path d="M398.234 160.292L333.772 224.752L269.312 289.213H256.712H244.113L179.652 224.752L115.191 160.292V147.692V135.092L179.652 70.6321L244.113 6.17188H256.712H269.312L333.772 70.6321L398.234 135.092V147.692V160.292Z" fill="#D34600"/>
<path d="M398.234 154.12L333.772 218.581L269.312 283.042H256.712H244.113L179.652 218.581L115.191 154.12V141.521V128.921L179.652 64.4603L244.113 0H256.712H269.312L333.772 64.4603L398.234 128.921V141.521V154.12Z" fill="#F26522"/>
<path d="M246.959 276.175L122.062 151.278V131.771L246.959 6.875H266.466L391.363 131.771V151.278L266.466 276.175H246.959Z" fill="#FFAB27"/>
<path d="M361.971 102.379L266.467 6.875H246.959L122.062 131.772V151.28L167.729 196.947C186.889 198.277 207.005 197.096 227.42 193.06C289.273 180.831 338.671 145.473 361.971 102.379Z" fill="#FFC229"/>
<path d="M207.446 111.849H211.108V131.869C211.108 133.936 210.621 135.782 209.646 137.406C208.681 139.02 207.318 140.295 205.556 141.23C203.794 142.155 201.727 142.617 199.355 142.617C196.983 142.617 194.916 142.155 193.154 141.23C191.392 140.295 190.024 139.02 189.05 137.406C188.085 135.782 187.603 133.936 187.603 131.869V111.849H191.265V131.574C191.265 133.05 191.589 134.364 192.239 135.516C192.889 136.658 193.814 137.558 195.015 138.218C196.225 138.867 197.672 139.192 199.355 139.192C201.038 139.192 202.485 138.867 203.696 138.218C204.907 137.558 205.832 136.658 206.472 135.516C207.121 134.364 207.446 133.05 207.446 131.574V111.849ZM242.397 111.849V142.086H238.854L222.377 118.345H222.081V142.086H218.42V111.849H221.963L238.499 135.649H238.795V111.849H242.397ZM259.055 142.086H249.724V111.849H259.468C262.401 111.849 264.911 112.454 266.998 113.665C269.085 114.865 270.684 116.593 271.796 118.847C272.909 121.091 273.465 123.778 273.465 126.908C273.465 130.058 272.904 132.77 271.782 135.043C270.66 137.307 269.026 139.049 266.88 140.27C264.734 141.481 262.126 142.086 259.055 142.086ZM253.385 138.838H258.819C261.319 138.838 263.391 138.355 265.034 137.391C266.678 136.426 267.904 135.053 268.711 133.272C269.518 131.49 269.921 129.369 269.921 126.908C269.921 124.467 269.523 122.366 268.725 120.604C267.928 118.832 266.737 117.474 265.153 116.529C263.568 115.574 261.594 115.097 259.232 115.097H253.385V138.838ZM279.607 142.086V111.849H297.855V115.097H283.268V125.314H296.911V128.562H283.268V138.838H298.092V142.086H279.607ZM304.455 142.086V111.849H314.672C317.034 111.849 318.973 112.252 320.489 113.059C322.005 113.857 323.127 114.954 323.855 116.352C324.584 117.749 324.948 119.339 324.948 121.121C324.948 122.902 324.584 124.482 323.855 125.86C323.127 127.238 322.01 128.321 320.504 129.108C318.998 129.886 317.074 130.274 314.731 130.274H306.463V126.967H314.613C316.227 126.967 317.526 126.731 318.511 126.259C319.505 125.786 320.223 125.117 320.666 124.251C321.119 123.375 321.345 122.331 321.345 121.121C321.345 119.91 321.119 118.852 320.666 117.946C320.214 117.041 319.49 116.342 318.496 115.85C317.502 115.348 316.188 115.097 314.554 115.097H308.117V142.086H304.455ZM318.688 128.503L326.129 142.086H321.877L314.554 128.503H318.688Z" fill="#F26522"/>
<path d="M195.392 165.164H193.771C193.675 164.698 193.508 164.289 193.268 163.936C193.033 163.583 192.745 163.286 192.405 163.047C192.07 162.803 191.697 162.62 191.288 162.498C190.878 162.376 190.451 162.315 190.007 162.315C189.196 162.315 188.462 162.52 187.804 162.929C187.15 163.339 186.63 163.942 186.242 164.74C185.858 165.537 185.667 166.515 185.667 167.674C185.667 168.833 185.858 169.812 186.242 170.609C186.63 171.406 187.15 172.01 187.804 172.419C188.462 172.829 189.196 173.034 190.007 173.034C190.451 173.034 190.878 172.973 191.288 172.851C191.697 172.729 192.07 172.548 192.405 172.308C192.745 172.064 193.033 171.766 193.268 171.413C193.508 171.056 193.675 170.646 193.771 170.184H195.392C195.27 170.868 195.048 171.48 194.726 172.021C194.403 172.561 194.002 173.021 193.523 173.4C193.044 173.775 192.506 174.06 191.909 174.256C191.316 174.452 190.682 174.55 190.007 174.55C188.865 174.55 187.85 174.271 186.961 173.714C186.072 173.156 185.373 172.363 184.863 171.334C184.353 170.306 184.098 169.086 184.098 167.674C184.098 166.263 184.353 165.042 184.863 164.014C185.373 162.986 186.072 162.193 186.961 161.635C187.85 161.077 188.865 160.798 190.007 160.798C190.682 160.798 191.316 160.896 191.909 161.093C192.506 161.289 193.044 161.576 193.523 161.955C194.002 162.33 194.403 162.788 194.726 163.328C195.048 163.864 195.27 164.476 195.392 165.164ZM209.306 167.674C209.306 169.086 209.051 170.306 208.541 171.334C208.031 172.363 207.332 173.156 206.443 173.714C205.554 174.271 204.539 174.55 203.397 174.55C202.256 174.55 201.24 174.271 200.351 173.714C199.463 173.156 198.763 172.363 198.253 171.334C197.744 170.306 197.489 169.086 197.489 167.674C197.489 166.263 197.744 165.042 198.253 164.014C198.763 162.986 199.463 162.193 200.351 161.635C201.24 161.077 202.256 160.798 203.397 160.798C204.539 160.798 205.554 161.077 206.443 161.635C207.332 162.193 208.031 162.986 208.541 164.014C209.051 165.042 209.306 166.263 209.306 167.674ZM207.737 167.674C207.737 166.515 207.543 165.537 207.155 164.74C206.772 163.942 206.251 163.339 205.593 162.929C204.94 162.52 204.208 162.315 203.397 162.315C202.587 162.315 201.853 162.52 201.195 162.929C200.541 163.339 200.02 163.942 199.633 164.74C199.249 165.537 199.057 166.515 199.057 167.674C199.057 168.833 199.249 169.812 199.633 170.609C200.02 171.406 200.541 172.01 201.195 172.419C201.853 172.829 202.587 173.034 203.397 173.034C204.208 173.034 204.94 172.829 205.593 172.419C206.251 172.01 206.772 171.406 207.155 170.609C207.543 169.812 207.737 168.833 207.737 167.674ZM222.646 160.981V174.367H221.077L213.783 163.857H213.652V174.367H212.031V160.981H213.6L220.92 171.517H221.051V160.981H222.646ZM233.21 164.328C233.131 163.666 232.813 163.151 232.255 162.785C231.698 162.419 231.014 162.236 230.203 162.236C229.61 162.236 229.092 162.332 228.647 162.524C228.207 162.716 227.863 162.979 227.615 163.315C227.371 163.65 227.249 164.032 227.249 164.459C227.249 164.816 227.334 165.123 227.504 165.38C227.678 165.633 227.9 165.844 228.17 166.014C228.441 166.18 228.724 166.317 229.02 166.426C229.316 166.531 229.589 166.615 229.837 166.681L231.197 167.047C231.545 167.138 231.933 167.265 232.36 167.426C232.791 167.587 233.203 167.807 233.595 168.086C233.992 168.361 234.319 168.714 234.576 169.145C234.833 169.576 234.961 170.106 234.961 170.733C234.961 171.456 234.772 172.11 234.393 172.694C234.018 173.278 233.469 173.742 232.746 174.086C232.027 174.43 231.153 174.602 230.125 174.602C229.166 174.602 228.336 174.448 227.634 174.138C226.937 173.829 226.388 173.398 225.987 172.844C225.591 172.291 225.366 171.648 225.314 170.916H226.987C227.031 171.422 227.201 171.84 227.497 172.171C227.798 172.498 228.177 172.742 228.634 172.903C229.096 173.06 229.593 173.138 230.125 173.138C230.743 173.138 231.299 173.038 231.791 172.838C232.284 172.633 232.674 172.35 232.961 171.988C233.249 171.622 233.393 171.195 233.393 170.707C233.393 170.263 233.268 169.901 233.02 169.622C232.772 169.343 232.445 169.117 232.04 168.942C231.634 168.768 231.197 168.616 230.726 168.485L229.079 168.014C228.033 167.714 227.205 167.284 226.595 166.727C225.985 166.169 225.68 165.439 225.68 164.537C225.68 163.788 225.883 163.134 226.288 162.576C226.698 162.014 227.247 161.578 227.935 161.269C228.628 160.955 229.401 160.798 230.255 160.798C231.118 160.798 231.885 160.953 232.556 161.262C233.227 161.568 233.759 161.986 234.151 162.517C234.547 163.049 234.756 163.652 234.778 164.328H233.21ZM236.894 162.419V160.981H246.934V162.419H242.724V174.367H241.103V162.419H236.894ZM249.435 174.367V160.981H253.958C255.004 160.981 255.862 161.16 256.533 161.517C257.204 161.87 257.701 162.356 258.024 162.975C258.346 163.594 258.507 164.297 258.507 165.086C258.507 165.875 258.346 166.574 258.024 167.184C257.701 167.794 257.207 168.273 256.54 168.622C255.873 168.966 255.021 169.138 253.984 169.138H250.324V167.674H253.932C254.647 167.674 255.222 167.57 255.658 167.361C256.098 167.151 256.416 166.855 256.612 166.472C256.812 166.084 256.912 165.622 256.912 165.086C256.912 164.55 256.812 164.082 256.612 163.681C256.411 163.28 256.091 162.971 255.651 162.753C255.211 162.53 254.629 162.419 253.906 162.419H251.056V174.367H249.435ZM255.736 168.354L259.03 174.367H257.148L253.906 168.354H255.736ZM269.993 160.981H271.614V169.844C271.614 170.759 271.398 171.576 270.967 172.295C270.539 173.01 269.936 173.574 269.156 173.988C268.376 174.398 267.461 174.602 266.411 174.602C265.361 174.602 264.446 174.398 263.666 173.988C262.886 173.574 262.28 173.01 261.849 172.295C261.422 171.576 261.208 170.759 261.208 169.844V160.981H262.829V169.714C262.829 170.367 262.973 170.949 263.261 171.459C263.548 171.964 263.958 172.363 264.489 172.655C265.025 172.942 265.666 173.086 266.411 173.086C267.156 173.086 267.797 172.942 268.332 172.655C268.868 172.363 269.278 171.964 269.561 171.459C269.849 170.949 269.993 170.367 269.993 169.714V160.981ZM285.622 165.164H284.001C283.905 164.698 283.737 164.289 283.498 163.936C283.262 163.583 282.975 163.286 282.635 163.047C282.299 162.803 281.927 162.62 281.517 162.498C281.108 162.376 280.681 162.315 280.236 162.315C279.426 162.315 278.692 162.52 278.034 162.929C277.38 163.339 276.859 163.942 276.471 164.74C276.088 165.537 275.896 166.515 275.896 167.674C275.896 168.833 276.088 169.812 276.471 170.609C276.859 171.406 277.38 172.01 278.034 172.419C278.692 172.829 279.426 173.034 280.236 173.034C280.681 173.034 281.108 172.973 281.517 172.851C281.927 172.729 282.299 172.548 282.635 172.308C282.975 172.064 283.262 171.766 283.498 171.413C283.737 171.056 283.905 170.646 284.001 170.184H285.622C285.5 170.868 285.278 171.48 284.955 172.021C284.633 172.561 284.232 173.021 283.753 173.4C283.273 173.775 282.735 174.06 282.138 174.256C281.546 174.452 280.912 174.55 280.236 174.55C279.095 174.55 278.079 174.271 277.19 173.714C276.302 173.156 275.602 172.363 275.092 171.334C274.583 170.306 274.328 169.086 274.328 167.674C274.328 166.263 274.583 165.042 275.092 164.014C275.602 162.986 276.302 162.193 277.19 161.635C278.079 161.077 279.095 160.798 280.236 160.798C280.912 160.798 281.546 160.896 282.138 161.093C282.735 161.289 283.273 161.576 283.753 161.955C284.232 162.33 284.633 162.788 284.955 163.328C285.278 163.864 285.5 164.476 285.622 165.164ZM287.509 162.419V160.981H297.548V162.419H293.339V174.367H291.718V162.419H287.509ZM301.671 160.981V174.367H300.05V160.981H301.671ZM316.215 167.674C316.215 169.086 315.96 170.306 315.451 171.334C314.941 172.363 314.241 173.156 313.353 173.714C312.464 174.271 311.448 174.55 310.307 174.55C309.165 174.55 308.15 174.271 307.261 173.714C306.372 173.156 305.673 172.363 305.163 171.334C304.653 170.306 304.398 169.086 304.398 167.674C304.398 166.263 304.653 165.042 305.163 164.014C305.673 162.986 306.372 162.193 307.261 161.635C308.15 161.077 309.165 160.798 310.307 160.798C311.448 160.798 312.464 161.077 313.353 161.635C314.241 162.193 314.941 162.986 315.451 164.014C315.96 165.042 316.215 166.263 316.215 167.674ZM314.647 167.674C314.647 166.515 314.453 165.537 314.065 164.74C313.681 163.942 313.161 163.339 312.503 162.929C311.849 162.52 311.117 162.315 310.307 162.315C309.496 162.315 308.762 162.52 308.104 162.929C307.45 163.339 306.93 163.942 306.542 164.74C306.159 165.537 305.967 166.515 305.967 167.674C305.967 168.833 306.159 169.812 306.542 170.609C306.93 171.406 307.45 172.01 308.104 172.419C308.762 172.829 309.496 173.034 310.307 173.034C311.117 173.034 311.849 172.829 312.503 172.419C313.161 172.01 313.681 171.406 314.065 170.609C314.453 169.812 314.647 168.833 314.647 167.674ZM329.555 160.981V174.367H327.987L320.692 163.857H320.562V174.367H318.941V160.981H320.509L327.83 171.517H327.96V160.981H329.555Z" fill="#F26522"/>
<path d="M207.446 109.099H211.108V129.119C211.108 131.186 210.621 133.032 209.646 134.656C208.681 136.27 207.318 137.545 205.556 138.48C203.794 139.405 201.727 139.867 199.355 139.867C196.983 139.867 194.916 139.405 193.154 138.48C191.392 137.545 190.024 136.27 189.05 134.656C188.085 133.032 187.603 131.186 187.603 129.119V109.099H191.265V128.824C191.265 130.3 191.589 131.614 192.239 132.766C192.889 133.908 193.814 134.808 195.015 135.468C196.225 136.117 197.672 136.442 199.355 136.442C201.038 136.442 202.485 136.117 203.696 135.468C204.907 134.808 205.832 133.908 206.472 132.766C207.121 131.614 207.446 130.3 207.446 128.824V109.099ZM242.397 109.099V139.336H238.854L222.377 115.595H222.081V139.336H218.42V109.099H221.963L238.499 132.899H238.795V109.099H242.397ZM259.055 139.336H249.724V109.099H259.468C262.401 109.099 264.911 109.704 266.998 110.915C269.085 112.115 270.684 113.843 271.796 116.097C272.909 118.341 273.465 121.028 273.465 124.158C273.465 127.308 272.904 130.02 271.782 132.293C270.66 134.557 269.026 136.299 266.88 137.52C264.734 138.731 262.126 139.336 259.055 139.336ZM253.385 136.088H258.819C261.319 136.088 263.391 135.605 265.034 134.641C266.678 133.676 267.904 132.303 268.711 130.522C269.518 128.74 269.921 126.619 269.921 124.158C269.921 121.717 269.523 119.616 268.725 117.854C267.928 116.082 266.737 114.724 265.153 113.779C263.568 112.824 261.594 112.347 259.232 112.347H253.385V136.088ZM279.607 139.336V109.099H297.855V112.347H283.268V122.564H296.911V125.812H283.268V136.088H298.092V139.336H279.607ZM304.455 139.336V109.099H314.672C317.034 109.099 318.973 109.502 320.489 110.309C322.005 111.107 323.127 112.204 323.855 113.602C324.584 114.999 324.948 116.589 324.948 118.371C324.948 120.152 324.584 121.732 323.855 123.11C323.127 124.488 322.01 125.571 320.504 126.358C318.998 127.136 317.074 127.524 314.731 127.524H306.463V124.217H314.613C316.227 124.217 317.526 123.981 318.511 123.509C319.505 123.036 320.223 122.367 320.666 121.501C321.119 120.625 321.345 119.581 321.345 118.371C321.345 117.16 321.119 116.102 320.666 115.196C320.214 114.291 319.49 113.592 318.496 113.1C317.502 112.598 316.188 112.347 314.554 112.347H308.117V139.336H304.455ZM318.688 125.753L326.129 139.336H321.877L314.554 125.753H318.688Z" fill="#111827"/>
<path d="M195.392 162.43H193.771C193.675 161.964 193.508 161.554 193.268 161.201C193.033 160.848 192.745 160.552 192.405 160.312C192.07 160.068 191.697 159.885 191.288 159.763C190.878 159.641 190.451 159.58 190.007 159.58C189.196 159.58 188.462 159.785 187.804 160.195C187.15 160.604 186.63 161.208 186.242 162.005C185.858 162.803 185.667 163.781 185.667 164.94C185.667 166.099 185.858 167.077 186.242 167.875C186.63 168.672 187.15 169.275 187.804 169.685C188.462 170.095 189.196 170.299 190.007 170.299C190.451 170.299 190.878 170.238 191.288 170.116C191.697 169.994 192.07 169.814 192.405 169.574C192.745 169.33 193.033 169.031 193.268 168.679C193.508 168.321 193.675 167.912 193.771 167.45H195.392C195.27 168.134 195.048 168.746 194.726 169.286C194.403 169.827 194.002 170.286 193.523 170.665C193.044 171.04 192.506 171.326 191.909 171.522C191.316 171.718 190.682 171.816 190.007 171.816C188.865 171.816 187.85 171.537 186.961 170.979C186.072 170.421 185.373 169.628 184.863 168.6C184.353 167.572 184.098 166.352 184.098 164.94C184.098 163.528 184.353 162.308 184.863 161.28C185.373 160.251 186.072 159.458 186.961 158.901C187.85 158.343 188.865 158.064 190.007 158.064C190.682 158.064 191.316 158.162 191.909 158.358C192.506 158.554 193.044 158.842 193.523 159.221C194.002 159.596 194.403 160.053 194.726 160.593C195.048 161.129 195.27 161.742 195.392 162.43ZM209.306 164.94C209.306 166.352 209.051 167.572 208.541 168.6C208.031 169.628 207.332 170.421 206.443 170.979C205.554 171.537 204.539 171.816 203.397 171.816C202.256 171.816 201.24 171.537 200.351 170.979C199.463 170.421 198.763 169.628 198.253 168.6C197.744 167.572 197.489 166.352 197.489 164.94C197.489 163.528 197.744 162.308 198.253 161.28C198.763 160.251 199.463 159.458 200.351 158.901C201.24 158.343 202.256 158.064 203.397 158.064C204.539 158.064 205.554 158.343 206.443 158.901C207.332 159.458 208.031 160.251 208.541 161.28C209.051 162.308 209.306 163.528 209.306 164.94ZM207.737 164.94C207.737 163.781 207.543 162.803 207.155 162.005C206.772 161.208 206.251 160.604 205.593 160.195C204.94 159.785 204.208 159.58 203.397 159.58C202.587 159.58 201.853 159.785 201.195 160.195C200.541 160.604 200.02 161.208 199.633 162.005C199.249 162.803 199.057 163.781 199.057 164.94C199.057 166.099 199.249 167.077 199.633 167.875C200.02 168.672 200.541 169.275 201.195 169.685C201.853 170.095 202.587 170.299 203.397 170.299C204.208 170.299 204.94 170.095 205.593 169.685C206.251 169.275 206.772 168.672 207.155 167.875C207.543 167.077 207.737 166.099 207.737 164.94ZM222.646 158.247V171.633H221.077L213.783 161.123H213.652V171.633H212.031V158.247H213.6L220.92 168.783H221.051V158.247H222.646ZM233.21 161.594C233.131 160.931 232.813 160.417 232.255 160.051C231.698 159.685 231.014 159.502 230.203 159.502C229.61 159.502 229.092 159.598 228.647 159.79C228.207 159.981 227.863 160.245 227.615 160.58C227.371 160.916 227.249 161.297 227.249 161.724C227.249 162.082 227.334 162.389 227.504 162.646C227.678 162.899 227.9 163.11 228.17 163.28C228.441 163.445 228.724 163.583 229.02 163.692C229.316 163.796 229.589 163.881 229.837 163.946L231.197 164.312C231.545 164.404 231.933 164.53 232.36 164.692C232.791 164.853 233.203 165.073 233.595 165.352C233.992 165.626 234.319 165.979 234.576 166.411C234.833 166.842 234.961 167.371 234.961 167.999C234.961 168.722 234.772 169.376 234.393 169.96C234.018 170.543 233.469 171.008 232.746 171.352C232.027 171.696 231.153 171.868 230.125 171.868C229.166 171.868 228.336 171.713 227.634 171.404C226.937 171.095 226.388 170.663 225.987 170.11C225.591 169.557 225.366 168.914 225.314 168.182H226.987C227.031 168.687 227.201 169.106 227.497 169.437C227.798 169.764 228.177 170.008 228.634 170.169C229.096 170.326 229.593 170.404 230.125 170.404C230.743 170.404 231.299 170.304 231.791 170.103C232.284 169.899 232.674 169.615 232.961 169.254C233.249 168.888 233.393 168.461 233.393 167.973C233.393 167.528 233.268 167.167 233.02 166.888C232.772 166.609 232.445 166.382 232.04 166.208C231.634 166.034 231.197 165.881 230.726 165.75L229.079 165.28C228.033 164.979 227.205 164.55 226.595 163.992C225.985 163.434 225.68 162.705 225.68 161.803C225.68 161.053 225.883 160.4 226.288 159.842C226.698 159.28 227.247 158.844 227.935 158.535C228.628 158.221 229.401 158.064 230.255 158.064C231.118 158.064 231.885 158.219 232.556 158.528C233.227 158.833 233.759 159.251 234.151 159.783C234.547 160.315 234.756 160.918 234.778 161.594H233.21ZM236.894 159.685V158.247H246.934V159.685H242.724V171.633H241.103V159.685H236.894ZM249.435 171.633V158.247H253.958C255.004 158.247 255.862 158.426 256.533 158.783C257.204 159.136 257.701 159.622 258.024 160.241C258.346 160.859 258.507 161.563 258.507 162.352C258.507 163.14 258.346 163.84 258.024 164.45C257.701 165.06 257.207 165.539 256.54 165.888C255.873 166.232 255.021 166.404 253.984 166.404H250.324V164.94H253.932C254.647 164.94 255.222 164.835 255.658 164.626C256.098 164.417 256.416 164.121 256.612 163.737C256.812 163.35 256.912 162.888 256.912 162.352C256.912 161.816 256.812 161.347 256.612 160.946C256.411 160.546 256.091 160.236 255.651 160.018C255.211 159.796 254.629 159.685 253.906 159.685H251.056V171.633H249.435ZM255.736 165.62L259.03 171.633H257.148L253.906 165.62H255.736ZM269.993 158.247H271.614V167.11C271.614 168.025 271.398 168.842 270.967 169.561C270.539 170.276 269.936 170.84 269.156 171.254C268.376 171.663 267.461 171.868 266.411 171.868C265.361 171.868 264.446 171.663 263.666 171.254C262.886 170.84 262.28 170.276 261.849 169.561C261.422 168.842 261.208 168.025 261.208 167.11V158.247H262.829V166.979C262.829 167.633 262.973 168.214 263.261 168.724C263.548 169.23 263.958 169.628 264.489 169.92C265.025 170.208 265.666 170.352 266.411 170.352C267.156 170.352 267.797 170.208 268.332 169.92C268.868 169.628 269.278 169.23 269.561 168.724C269.849 168.214 269.993 167.633 269.993 166.979V158.247ZM285.622 162.43H284.001C283.905 161.964 283.737 161.554 283.498 161.201C283.262 160.848 282.975 160.552 282.635 160.312C282.299 160.068 281.927 159.885 281.517 159.763C281.108 159.641 280.681 159.58 280.236 159.58C279.426 159.58 278.692 159.785 278.034 160.195C277.38 160.604 276.859 161.208 276.471 162.005C276.088 162.803 275.896 163.781 275.896 164.94C275.896 166.099 276.088 167.077 276.471 167.875C276.859 168.672 277.38 169.275 278.034 169.685C278.692 170.095 279.426 170.299 280.236 170.299C280.681 170.299 281.108 170.238 281.517 170.116C281.927 169.994 282.299 169.814 282.635 169.574C282.975 169.33 283.262 169.031 283.498 168.679C283.737 168.321 283.905 167.912 284.001 167.45H285.622C285.5 168.134 285.278 168.746 284.955 169.286C284.633 169.827 284.232 170.286 283.753 170.665C283.273 171.04 282.735 171.326 282.138 171.522C281.546 171.718 280.912 171.816 280.236 171.816C279.095 171.816 278.079 171.537 277.19 170.979C276.302 170.421 275.602 169.628 275.092 168.6C274.583 167.572 274.328 166.352 274.328 164.94C274.328 163.528 274.583 162.308 275.092 161.28C275.602 160.251 276.302 159.458 277.19 158.901C278.079 158.343 279.095 158.064 280.236 158.064C280.912 158.064 281.546 158.162 282.138 158.358C282.735 158.554 283.273 158.842 283.753 159.221C284.232 159.596 284.633 160.053 284.955 160.593C285.278 161.129 285.5 161.742 285.622 162.43ZM287.509 159.685V158.247H297.548V159.685H293.339V171.633H291.718V159.685H287.509ZM301.671 158.247V171.633H300.05V158.247H301.671ZM316.215 164.94C316.215 166.352 315.96 167.572 315.451 168.6C314.941 169.628 314.241 170.421 313.353 170.979C312.464 171.537 311.448 171.816 310.307 171.816C309.165 171.816 308.15 171.537 307.261 170.979C306.372 170.421 305.673 169.628 305.163 168.6C304.653 167.572 304.398 166.352 304.398 164.94C304.398 163.528 304.653 162.308 305.163 161.28C305.673 160.251 306.372 159.458 307.261 158.901C308.15 158.343 309.165 158.064 310.307 158.064C311.448 158.064 312.464 158.343 313.353 158.901C314.241 159.458 314.941 160.251 315.451 161.28C315.96 162.308 316.215 163.528 316.215 164.94ZM314.647 164.94C314.647 163.781 314.453 162.803 314.065 162.005C313.681 161.208 313.161 160.604 312.503 160.195C311.849 159.785 311.117 159.58 310.307 159.58C309.496 159.58 308.762 159.785 308.104 160.195C307.45 160.604 306.93 161.208 306.542 162.005C306.159 162.803 305.967 163.781 305.967 164.94C305.967 166.099 306.159 167.077 306.542 167.875C306.93 168.672 307.45 169.275 308.104 169.685C308.762 170.095 309.496 170.299 310.307 170.299C311.117 170.299 311.849 170.095 312.503 169.685C313.161 169.275 313.681 168.672 314.065 167.875C314.453 167.077 314.647 166.099 314.647 164.94ZM329.555 158.247V171.633H327.987L320.692 161.123H320.562V171.633H318.941V158.247H320.509L327.83 168.783H327.96V158.247H329.555Z" fill="#111827"/>
<path d="M261.373 13.4375H252.05L247.389 21.511L252.05 29.5846H261.373L266.034 21.511L261.373 13.4375Z" fill="white"/>
<path d="M254.035 26.1434L251.357 21.5059L254.035 16.8672H259.391L262.069 21.5059L259.391 26.1434H254.035Z" fill="#E5E7EB"/>
<path d="M261.373 253.477H252.05L247.389 261.55L252.05 269.624H261.373L266.034 261.55L261.373 253.477Z" fill="white"/>
<path d="M254.035 266.184L251.357 261.545L254.035 256.906H259.391L262.069 261.545L259.391 266.184H254.035Z" fill="#E5E7EB"/>
<path d="M135.417 132.281L127.332 136.924L127.311 146.245L135.373 150.925L143.458 146.284L143.479 136.961L135.417 132.281Z" fill="white"/>
<path d="M130.752 144.265L130.765 138.91L135.41 136.242L140.041 138.931L140.028 144.287L135.384 146.955L130.752 144.265Z" fill="#E5E7EB"/>
<path d="M378.738 132.281L370.653 136.924L370.631 146.245L378.694 150.925L386.778 146.284L386.801 136.961L378.738 132.281Z" fill="white"/>
<path d="M374.07 144.265L374.083 138.91L378.728 136.242L383.36 138.931L383.348 144.287L378.703 146.955L374.07 144.265Z" fill="#E5E7EB"/>
</svg>
